<svg width="180" height="70" viewBox="0 0 180 70" fill="none" xmlns="http://www.w3.org/2000/svg">
<g id="Logo">
<g id="Group 66">
<path id="Vector" d="M64.8472 23.3929C65.8646 25.0664 69.6165 25.331 71.2356 25.4361C73.2693 25.5679 75.2993 25.737 77.3317 25.8796C82.4103 26.2361 89.3884 27.7888 88.2719 34.6896C87.0249 42.3999 75.2848 42.2888 69.7772 41.6641C65.9854 41.2339 62.2033 40.0219 59.1692 37.685C59.0862 37.6214 59.0762 37.5481 59.139 37.4651L61.3841 34.5083C61.4139 34.4688 61.4497 34.462 61.4916 34.4878C66.3 37.4119 71.5297 38.5897 77.1806 38.0209C79.6505 37.7732 83.7201 36.7196 83.6948 33.6323C83.673 30.9498 80.779 30.3347 78.7188 30.1196C76.1789 29.8538 73.6342 29.6399 71.0846 29.478C68.9265 29.3403 66.8997 29.0438 65.0043 28.5887C62.0559 27.8794 60.0416 26.1938 59.9679 23.0026C59.8471 17.7657 65.0067 15.6897 69.3845 15.2088C75.4539 14.5418 81.5657 15.4082 86.7712 18.7444C86.781 18.7507 86.7894 18.7591 86.7958 18.7689C86.8021 18.7788 86.8062 18.7899 86.8078 18.8015C86.8094 18.8131 86.8085 18.8249 86.8051 18.8361C86.8017 18.8474 86.7959 18.8577 86.7881 18.8664L84.2421 21.6891C84.2099 21.7246 84.1728 21.7314 84.131 21.7097C79.6094 19.3598 74.8191 18.4459 69.7603 18.9679C68.2208 19.1262 65.5951 19.6736 64.7855 21.2094C64.4158 21.9102 64.4375 22.7198 64.8472 23.3929Z" fill="#050D12"/>
<path id="Vector_2" d="M96.2552 28.7627L113.94 15.6874C113.993 15.6481 114.057 15.6269 114.122 15.627H120.044C120.198 15.627 120.213 15.6729 120.088 15.7647L107.189 25.3117C107.18 25.319 107.172 25.3282 107.166 25.3388C107.16 25.3494 107.156 25.3611 107.155 25.3733C107.154 25.3855 107.155 25.3978 107.159 25.4095C107.163 25.4211 107.169 25.4319 107.177 25.441L121.519 41.1929C121.587 41.267 121.571 41.304 121.471 41.304C119.757 41.3048 118.012 41.3048 116.237 41.304C116.021 41.304 115.973 41.2122 115.84 41.0672C111.852 36.6858 107.861 32.3072 103.868 27.9314C103.84 27.9008 103.809 27.8976 103.775 27.9217C101.29 29.7471 98.8088 31.5685 96.3301 33.3858C96.1779 33.4982 96.1199 33.5852 96.1199 33.787C96.1183 36.26 96.1179 38.7395 96.1187 41.2255C96.1187 41.2787 96.0921 41.3052 96.0389 41.3052L91.9197 41.304C91.8957 41.304 91.8726 41.2945 91.8556 41.2775C91.8386 41.2605 91.8291 41.2374 91.8291 41.2134V15.6874C91.8291 15.6471 91.8492 15.627 91.8895 15.627H95.9821C96.0724 15.627 96.1175 15.6721 96.1175 15.7623L96.1199 28.6939C96.1201 28.7097 96.1246 28.7252 96.1329 28.7386C96.1412 28.7521 96.153 28.763 96.167 28.7701C96.181 28.7772 96.1967 28.7803 96.2123 28.779C96.2278 28.7777 96.2427 28.7721 96.2552 28.7627Z" fill="#050D12"/>
<path id="Vector_3" d="M163 15.7852V41.1602C162.979 41.1933 162.967 41.2251 162.964 41.2557C162.96 41.2895 162.942 41.3064 162.908 41.3064L157.786 41.3016C157.741 41.3016 157.703 41.2851 157.672 41.2521L138.271 20.4156C138.242 20.3842 138.228 20.3898 138.228 20.4325L138.229 41.2134C138.229 41.2738 138.199 41.304 138.138 41.304H134C133.984 41.304 133.968 41.2977 133.957 41.2863C133.946 41.275 133.939 41.2596 133.939 41.2436V15.6874C133.939 15.6471 133.96 15.627 134 15.627H139.111C139.155 15.627 139.194 15.6406 139.228 15.668C139.373 15.7816 139.531 15.9311 139.703 16.1163C145.801 22.6655 151.903 29.2118 158.007 35.7554C158.252 36.0172 158.492 36.2709 158.728 36.5166C158.732 36.5204 158.736 36.523 158.741 36.5242C158.746 36.5253 158.751 36.5249 158.756 36.5231C158.76 36.5212 158.764 36.518 158.767 36.5138C158.77 36.5096 158.771 36.5047 158.771 36.4997V15.6874C158.771 15.6471 158.791 15.627 158.831 15.627H162.877C162.922 15.627 162.952 15.6483 162.967 15.691L163 15.7852Z" fill="#050D12"/>
<path id="Vector_4" d="M18 21.4498V17.9456C19.3799 17.2746 20.7232 16.5367 22.0298 15.7319C22.1204 15.6751 22.2618 15.6292 22.3838 15.6292C23.7219 15.6236 25.0607 15.6236 26.4003 15.6292C26.439 15.6292 26.4583 15.649 26.4583 15.6884V41.2423C26.4583 41.2817 26.4386 41.3015 26.3991 41.3015L22.205 41.3075C22.1954 41.3075 22.1862 41.3037 22.1794 41.2969C22.1726 41.2901 22.1687 41.2809 22.1687 41.2713V20.1266C22.1687 20.0115 22.116 19.9764 22.0105 20.0215L18.122 21.6999C18.0729 21.7208 18.0439 21.7055 18.035 21.654L18 21.4498Z" fill="#050D12"/>
<path id="Vector_5" d="M35.574 19.983L31.5454 21.7157C31.4971 21.7367 31.4729 21.721 31.4729 21.6686V18.0775C31.4729 18.0323 31.493 17.9993 31.5333 17.9784C32.9084 17.263 34.2501 16.4901 35.5583 15.6596C35.5937 15.6378 35.632 15.627 35.6731 15.627H39.8708C39.8868 15.627 39.9022 15.6333 39.9135 15.6446C39.9249 15.656 39.9312 15.6713 39.9312 15.6874V41.2436C39.9312 41.2596 39.9249 41.275 39.9135 41.2863C39.9022 41.2977 39.8868 41.304 39.8708 41.304H35.6416C35.6256 41.304 35.6103 41.2977 35.5989 41.2863C35.5876 41.275 35.5812 41.2596 35.5812 41.2436V19.9866C35.5811 19.9858 35.5809 19.9851 35.5804 19.9844C35.5799 19.9837 35.5793 19.9832 35.5786 19.9828C35.5779 19.9825 35.5771 19.9823 35.5763 19.9823C35.5755 19.9824 35.5747 19.9826 35.574 19.983Z" fill="#050D12"/>
<path id="Vector_6" d="M44.825 21.665V18.0617C44.8249 18.052 44.8275 18.0423 44.8323 18.0338C44.8372 18.0254 44.8443 18.0183 44.8527 18.0134L49.0336 15.6342C49.042 15.6294 49.0516 15.6269 49.0614 15.627H53.2277C53.2424 15.627 53.2566 15.6328 53.267 15.6432C53.2774 15.6537 53.2833 15.6678 53.2833 15.6825V41.2485C53.2833 41.2632 53.2774 41.2773 53.267 41.2878C53.2566 41.2982 53.2424 41.304 53.2277 41.304H48.9889C48.9741 41.304 48.96 41.2982 48.9496 41.2878C48.9391 41.2773 48.9333 41.2632 48.9333 41.2485V20.064C48.9332 20.0548 48.9309 20.0458 48.9265 20.0378C48.9221 20.0297 48.9158 20.0229 48.9082 20.0179C48.9005 20.0129 48.8918 20.0098 48.8827 20.009C48.8735 20.0082 48.8644 20.0096 48.856 20.0132L44.9023 21.7157C44.8939 21.7193 44.8847 21.7208 44.8756 21.72C44.8665 21.7191 44.8577 21.7161 44.85 21.7111C44.8424 21.706 44.8361 21.6992 44.8317 21.6912C44.8273 21.6831 44.825 21.6741 44.825 21.665Z" fill="#050D12"/>
<path id="Vector_7" d="M128.651 15.627H124.426C124.408 15.627 124.394 15.6416 124.394 15.6596V41.2714C124.394 41.2894 124.408 41.304 124.426 41.304H128.651C128.669 41.304 128.683 41.2894 128.683 41.2714V15.6596C128.683 15.6416 128.669 15.627 128.651 15.627Z" fill="#050D12"/>
<path id="Vector_8" d="M83.3647 50.0403C83.5725 51.3695 87.3171 49.801 87.4271 52.4098C87.5141 54.4894 85.0757 54.6126 83.6885 54.203C83.2028 54.0592 82.7943 53.8127 82.4186 53.484C82.3952 53.464 82.3797 53.4364 82.3746 53.406C82.3695 53.3755 82.3752 53.3441 82.3908 53.3173L82.7267 52.7433C82.733 52.7329 82.7413 52.7239 82.7513 52.7169C82.7612 52.7099 82.7724 52.7051 82.7843 52.7027C82.7961 52.7003 82.8083 52.7004 82.82 52.703C82.8317 52.7057 82.8428 52.7108 82.8523 52.718C83.4098 53.1385 84.0349 53.3942 84.7277 53.4853C85.2606 53.5553 86.2502 53.4381 86.5051 52.869C86.7359 52.3579 86.4121 51.7948 85.8478 51.7525C84.8344 51.676 84.0595 51.5773 83.523 51.4565C82.7605 51.2849 82.4415 50.6179 82.5394 49.8723C82.6489 49.0499 83.156 48.5561 84.0607 48.3909C85.1957 48.1831 86.2236 48.4372 87.1443 49.1534C87.175 49.1767 87.1794 49.2045 87.1576 49.2368L86.771 49.7998C86.7519 49.8275 86.7227 49.8465 86.6897 49.8529C86.6567 49.8592 86.6225 49.8523 86.5946 49.8337C85.9098 49.3777 85.1687 49.1808 84.3712 49.2428C83.964 49.2742 83.2837 49.5255 83.3647 50.0403Z" fill="#050D12"/>
<path id="Vector_9" d="M119.333 54.4495C118.956 54.4508 118.583 54.3723 118.234 54.2184C117.885 54.0645 117.568 53.8383 117.3 53.5527C117.032 53.267 116.82 52.9276 116.674 52.5537C116.529 52.1797 116.453 51.7787 116.451 51.3734C116.449 50.555 116.748 49.769 117.285 49.1883C117.821 48.6077 118.55 48.28 119.312 48.2774C119.689 48.276 120.062 48.3546 120.411 48.5084C120.76 48.6623 121.077 48.8885 121.345 49.1742C121.612 49.4598 121.825 49.7993 121.971 50.1732C122.116 50.5471 122.192 50.9481 122.193 51.3534C122.196 52.1719 121.897 52.9579 121.36 53.5385C120.824 54.1191 120.095 54.4468 119.333 54.4495ZM119.266 53.5111C119.806 53.5252 120.33 53.3128 120.722 52.9205C121.114 52.5281 121.343 51.9881 121.358 51.4191C121.373 50.8502 121.173 50.2989 120.801 49.8866C120.43 49.4743 119.918 49.2347 119.379 49.2206C118.839 49.2064 118.315 49.4189 117.923 49.8112C117.531 50.2035 117.302 50.7436 117.287 51.3125C117.272 51.8815 117.472 52.4328 117.843 52.8451C118.215 53.2574 118.726 53.497 119.266 53.5111Z" fill="#050D12"/>
<path id="Vector_10" d="M150.33 54.5001C149.568 54.5067 148.834 54.1874 148.29 53.6125C147.746 53.0376 147.437 52.2541 147.43 51.4343C147.422 50.6146 147.718 49.8258 148.252 49.2415C148.786 48.6571 149.514 48.3251 150.276 48.3185C151.038 48.3118 151.772 48.6311 152.316 49.206C152.859 49.7809 153.169 50.5645 153.176 51.3842C153.183 52.2039 152.887 52.9927 152.354 53.5771C151.82 54.1614 151.092 54.4934 150.33 54.5001ZM150.328 53.5538C150.596 53.5501 150.861 53.4909 151.107 53.3797C151.353 53.2685 151.575 53.1074 151.762 52.9056C151.949 52.7038 152.096 52.4653 152.195 52.2036C152.294 51.942 152.343 51.6624 152.339 51.3808C152.335 51.0991 152.278 50.821 152.172 50.5622C152.066 50.3035 151.912 50.0692 151.72 49.8727C151.528 49.6762 151.3 49.5213 151.051 49.417C150.802 49.3127 150.536 49.2609 150.268 49.2647C150 49.2684 149.736 49.3276 149.489 49.4388C149.243 49.5501 149.021 49.7112 148.834 49.9129C148.647 50.1147 148.5 50.3533 148.401 50.6149C148.302 50.8765 148.253 51.1561 148.257 51.4378C148.261 51.7194 148.318 51.9975 148.424 52.2563C148.53 52.515 148.684 52.7494 148.876 52.9459C149.069 53.1424 149.296 53.2972 149.545 53.4015C149.794 53.5058 150.06 53.5576 150.328 53.5538Z" fill="#050D12"/>
<path id="Vector_11" d="M22.8938 51.7548V54.1787C22.8938 54.187 22.8922 54.1953 22.8889 54.2029C22.8857 54.2105 22.8809 54.2174 22.8749 54.2232C22.8689 54.2289 22.8619 54.2334 22.8541 54.2364C22.8463 54.2393 22.8381 54.2407 22.8298 54.2404L22.1676 54.2162C22.1517 54.2156 22.1366 54.2088 22.1256 54.1973C22.1145 54.1858 22.1084 54.1705 22.1084 54.1546V48.5612C22.1084 48.5453 22.1145 48.5299 22.1256 48.5185C22.1366 48.507 22.1517 48.5002 22.1676 48.4996L22.8237 48.4802C22.8318 48.4801 22.8399 48.4815 22.8474 48.4845C22.8549 48.4874 22.8618 48.4918 22.8677 48.4974C22.8735 48.503 22.8782 48.5097 22.8814 48.5172C22.8847 48.5246 22.8864 48.5326 22.8866 48.5407L22.8974 50.7277C22.8974 50.7441 22.9039 50.7598 22.9155 50.7713C22.927 50.7829 22.9427 50.7894 22.9591 50.7894H26.2759C26.2923 50.7894 26.308 50.7829 26.3195 50.7713C26.3311 50.7598 26.3376 50.7441 26.3376 50.7277V48.5552C26.3376 48.5388 26.3441 48.5231 26.3556 48.5116C26.3672 48.5 26.3828 48.4935 26.3992 48.4935H27.0614C27.0777 48.4935 27.0934 48.5 27.1049 48.5116C27.1165 48.5231 27.123 48.5388 27.123 48.5552V54.157C27.123 54.1731 27.1167 54.1886 27.1054 54.2001C27.0941 54.2117 27.0787 54.2183 27.0626 54.2186L26.4004 54.2379C26.3922 54.2381 26.3841 54.2366 26.3764 54.2336C26.3688 54.2306 26.3619 54.2261 26.356 54.2203C26.3502 54.2146 26.3455 54.2077 26.3424 54.2002C26.3392 54.1926 26.3376 54.1845 26.3376 54.1763V51.7584C26.3376 51.7421 26.3311 51.7264 26.3195 51.7149C26.308 51.7033 26.2923 51.6968 26.2759 51.6968L22.9554 51.6932C22.9391 51.6932 22.9234 51.6997 22.9119 51.7112C22.9003 51.7228 22.8938 51.7385 22.8938 51.7548Z" fill="#050D12"/>
<path id="Vector_12" d="M45.6937 52.0981L46.7643 54.1293C46.7989 54.1945 46.7796 54.228 46.7063 54.2296L46.0115 54.2417C45.9382 54.2433 45.8842 54.2119 45.8496 54.1474L44.7681 52.1694C44.7494 52.1357 44.722 52.1076 44.6889 52.088C44.6557 52.0685 44.618 52.0582 44.5796 52.0582H42.5895C42.55 52.0582 42.5303 52.0783 42.5303 52.1186L42.5279 54.0568C42.5271 54.1744 42.4678 54.2332 42.3502 54.2332H41.8681C41.8351 54.2332 41.8034 54.2201 41.7801 54.1968C41.7568 54.1734 41.7437 54.1418 41.7437 54.1088V48.5855C41.7437 48.5605 41.7536 48.5365 41.7713 48.5188C41.7889 48.5011 41.8129 48.4912 41.8379 48.4912C42.9117 48.4952 43.996 48.4956 45.0907 48.4924C45.8109 48.49 46.3933 48.6737 46.6132 49.3685C46.9395 50.4004 46.8307 51.57 45.7191 52.0292C45.6852 52.0429 45.6768 52.0659 45.6937 52.0981ZM42.5279 49.453V51.1012C42.5279 51.1156 42.5336 51.1295 42.5438 51.1397C42.554 51.1499 42.5678 51.1556 42.5822 51.1556H45.2031C45.4076 51.1556 45.6037 51.0683 45.7482 50.9128C45.8928 50.7573 45.974 50.5465 45.974 50.3267V50.2276C45.974 50.0077 45.8928 49.7969 45.7482 49.6415C45.6037 49.486 45.4076 49.3987 45.2031 49.3987H42.5822C42.5678 49.3987 42.554 49.4044 42.5438 49.4146C42.5336 49.4248 42.5279 49.4386 42.5279 49.453Z" fill="#050D12"/>
<path id="Vector_13" d="M71.8265 51.0395C72.3526 50.275 72.8818 49.5005 73.4143 48.7159C73.457 48.6538 73.5198 48.5914 73.6028 48.5286C73.6294 48.5076 73.6596 48.4972 73.6934 48.4972L74.5018 48.4863C74.555 48.4855 74.5666 48.5068 74.5368 48.5503L72.1685 51.9808C72.1451 52.0146 72.1335 52.0525 72.1335 52.0944V54.1582C72.1335 54.2089 72.1081 54.2339 72.0573 54.2331L71.4266 54.2319C71.3742 54.2319 71.348 54.2057 71.348 54.1534V52.0629C71.348 51.9952 71.3274 51.9287 71.2888 51.872L69.0208 48.6011C69.0143 48.5914 69.0106 48.5802 69.0099 48.5686C69.0092 48.557 69.0116 48.5454 69.0169 48.5351C69.0222 48.5247 69.0302 48.516 69.04 48.5097C69.0498 48.5035 69.0611 48.5 69.0727 48.4996L69.8775 48.479C69.917 48.4782 69.948 48.4939 69.9705 48.5262L71.7311 51.0407C71.7365 51.0484 71.7437 51.0546 71.7521 51.0588C71.7605 51.0631 71.7697 51.0653 71.7791 51.0651C71.7885 51.065 71.7977 51.0626 71.806 51.0582C71.8143 51.0537 71.8213 51.0473 71.8265 51.0395Z" fill="#050D12"/>
<path id="Vector_14" d="M93.3638 49.3936L91.3265 49.4033C91.3213 49.4033 91.3162 49.4022 91.3114 49.4002C91.3067 49.3982 91.3024 49.3953 91.2987 49.3915C91.2951 49.3878 91.2923 49.3834 91.2904 49.3786C91.2886 49.3737 91.2877 49.3686 91.2879 49.3634L91.3036 48.5309C91.3039 48.5208 91.3081 48.5113 91.3153 48.5043C91.3225 48.4973 91.3322 48.4934 91.3422 48.4934H96.2009C96.206 48.4934 96.211 48.4944 96.2157 48.4964C96.2204 48.4983 96.2247 48.5011 96.2283 48.5047C96.2319 48.5083 96.2347 48.5126 96.2367 48.5173C96.2386 48.522 96.2396 48.527 96.2396 48.5321V49.3694C96.2396 49.3745 96.2386 49.3796 96.2367 49.3842C96.2347 49.3889 96.2319 49.3932 96.2283 49.3968C96.2247 49.4004 96.2204 49.4032 96.2157 49.4052C96.211 49.4071 96.206 49.4081 96.2009 49.4081L94.2241 49.3803C94.219 49.3803 94.214 49.3813 94.2093 49.3833C94.2046 49.3852 94.2004 49.3881 94.1968 49.3916C94.1932 49.3952 94.1903 49.3995 94.1884 49.4042C94.1864 49.4089 94.1854 49.4139 94.1854 49.419V54.2028C94.1854 54.208 94.1844 54.2131 94.1824 54.2179C94.1804 54.2226 94.1774 54.227 94.1737 54.2306C94.17 54.2342 94.1656 54.237 94.1607 54.2389C94.1559 54.2407 94.1507 54.2416 94.1456 54.2414L93.4363 54.2088C93.4262 54.2085 93.4167 54.2043 93.4097 54.1971C93.4027 54.1899 93.3988 54.1802 93.3988 54.1702L93.4024 49.4323C93.4024 49.422 93.3984 49.4122 93.3911 49.4049C93.3839 49.3977 93.374 49.3936 93.3638 49.3936Z" fill="#050D12"/>
<path id="Vector_15" d="M112.538 53.3777L112.558 54.1776C112.558 54.185 112.557 54.1924 112.554 54.1992C112.551 54.2061 112.547 54.2124 112.542 54.2177C112.537 54.223 112.531 54.2272 112.524 54.2301C112.517 54.2329 112.51 54.2344 112.503 54.2344L108.439 54.2308C108.424 54.2308 108.41 54.2249 108.4 54.2145C108.389 54.2041 108.383 54.1899 108.383 54.1752V48.5516C108.383 48.5443 108.385 48.5371 108.388 48.5303C108.39 48.5236 108.394 48.5175 108.4 48.5123C108.405 48.5071 108.411 48.503 108.418 48.5003C108.424 48.4975 108.432 48.496 108.439 48.496L109.111 48.4888C109.118 48.4888 109.125 48.4902 109.132 48.493C109.139 48.4958 109.145 48.4999 109.15 48.5051C109.155 48.5102 109.159 48.5163 109.162 48.5231C109.165 48.5298 109.166 48.5371 109.166 48.5444L109.17 53.2774C109.17 53.2921 109.176 53.3063 109.186 53.3167C109.197 53.3271 109.211 53.333 109.226 53.333L112.482 53.3233C112.496 53.3233 112.51 53.329 112.521 53.3392C112.531 53.3493 112.537 53.3632 112.538 53.3777Z" fill="#050D12"/>
<path id="Vector_16" d="M128.121 49.7261L128.148 54.1389C128.148 54.1978 128.119 54.2276 128.06 54.2284L127.425 54.2356C127.38 54.2356 127.357 54.2127 127.357 54.1667C127.353 52.5137 127.351 50.8648 127.353 49.2198C127.353 48.9999 127.368 48.7816 127.398 48.5649C127.404 48.5166 127.431 48.4928 127.479 48.4936L128.245 48.4948C128.292 48.4948 128.33 48.5142 128.357 48.5528L131.527 52.991C131.531 52.9965 131.537 53.0005 131.543 53.0025C131.55 53.0045 131.557 53.0045 131.563 53.0024C131.57 53.0003 131.576 52.9962 131.58 52.9907C131.584 52.9852 131.587 52.9786 131.587 52.9717L131.582 48.5722C131.582 48.5222 131.607 48.4968 131.657 48.496L132.29 48.4888C132.3 48.4886 132.311 48.4905 132.32 48.4943C132.33 48.4981 132.338 48.5038 132.346 48.511C132.353 48.5182 132.359 48.5268 132.363 48.5362C132.367 48.5457 132.369 48.5559 132.369 48.5661V54.1607C132.369 54.2131 132.343 54.2388 132.29 54.238L131.485 54.2235C131.433 54.2227 131.392 54.201 131.361 54.1583L128.171 49.7104C128.138 49.6637 128.121 49.6689 128.121 49.7261Z" fill="#050D12"/>
<path id="Vector_17" d="M163 48.6167V54.1798C162.729 54.2523 162.451 54.2624 162.166 54.2101C162.124 54.2028 162.091 54.1819 162.067 54.1472L158.895 49.7308C158.891 49.7238 158.884 49.7187 158.876 49.7163C158.868 49.7139 158.859 49.7143 158.851 49.7175C158.843 49.7206 158.836 49.7263 158.831 49.7337C158.826 49.7411 158.824 49.7498 158.824 49.7586L158.835 54.1496C158.835 54.1964 158.812 54.2201 158.765 54.2209L158.128 54.2366C158.072 54.2383 158.045 54.2113 158.045 54.1557L158.048 48.5792C158.048 48.522 158.077 48.4934 158.134 48.4934L158.959 48.4983C159.006 48.4991 159.043 48.5184 159.071 48.5563L162.201 52.9473C162.206 52.9543 162.214 52.9596 162.222 52.9624C162.23 52.9651 162.239 52.9652 162.247 52.9627C162.256 52.9601 162.263 52.955 162.268 52.9481C162.273 52.9412 162.275 52.9329 162.275 52.9244V48.607C162.275 48.5899 162.28 48.5731 162.29 48.5589C162.299 48.5447 162.313 48.5337 162.328 48.5273C162.578 48.4266 162.802 48.4564 163 48.6167Z" fill="#050D12"/>
<path id="Vector_18" d="M32.947 53.021L32.5023 54.1762C32.4958 54.1929 32.4843 54.2073 32.4694 54.2175C32.4545 54.2276 32.4369 54.233 32.4189 54.233H31.7338C31.7191 54.2331 31.7046 54.2295 31.6916 54.2227C31.6785 54.2158 31.6674 54.2059 31.6592 54.1937C31.6509 54.1815 31.6458 54.1674 31.6443 54.1528C31.6428 54.1381 31.6449 54.1234 31.6504 54.1097L33.9064 48.5502C33.9132 48.5337 33.9247 48.5195 33.9396 48.5096C33.9544 48.4997 33.9719 48.4945 33.9898 48.4946L34.8562 48.4922C34.874 48.4921 34.8915 48.4973 34.9064 48.5072C34.9212 48.5171 34.9328 48.5312 34.9395 48.5478L37.2003 54.1182C37.206 54.1321 37.2081 54.1472 37.2064 54.1622C37.2048 54.1771 37.1993 54.1914 37.1906 54.2037C37.182 54.216 37.1703 54.2259 37.1568 54.2325C37.1433 54.2391 37.1283 54.2422 37.1133 54.2414L36.4077 54.2136C36.3898 54.213 36.3725 54.207 36.3581 54.1965C36.3437 54.1859 36.3327 54.1713 36.3267 54.1544L35.9122 53.0234C35.906 53.006 35.8945 52.991 35.8794 52.9804C35.8642 52.9698 35.8461 52.9641 35.8277 52.9642H33.0304C33.0124 52.9642 32.9948 52.9696 32.9799 52.9797C32.965 52.9899 32.9536 53.0043 32.947 53.021ZM33.3808 52.0036C33.3784 52.0097 33.3776 52.0162 33.3783 52.0227C33.3791 52.0292 33.3814 52.0354 33.3851 52.0407C33.3888 52.0461 33.3937 52.0505 33.3995 52.0535C33.4053 52.0565 33.4117 52.058 33.4182 52.058H35.441C35.4475 52.058 35.4539 52.0565 35.4597 52.0535C35.4655 52.0505 35.4704 52.0461 35.4741 52.0407C35.4778 52.0354 35.4802 52.0292 35.4809 52.0227C35.4817 52.0162 35.4808 52.0097 35.4784 52.0036L34.4671 49.5314C34.4643 49.5237 34.4592 49.517 34.4525 49.5124C34.4458 49.5077 34.4378 49.5052 34.4296 49.5052C34.4214 49.5052 34.4135 49.5077 34.4068 49.5124C34.4001 49.517 34.395 49.5237 34.3922 49.5314L33.3808 52.0036Z" fill="#050D12"/>
<path id="Vector_19" d="M52.5632 53.3304L55.816 53.3255C55.8333 53.3255 55.8499 53.3324 55.8622 53.3446C55.8744 53.3569 55.8813 53.3735 55.8813 53.3908V54.1677C55.8813 54.1763 55.8796 54.1848 55.8763 54.1927C55.873 54.2006 55.8682 54.2078 55.8622 54.2139C55.8561 54.2199 55.8489 54.2247 55.841 54.228C55.8331 54.2313 55.8246 54.233 55.816 54.233H51.7174C51.7088 54.233 51.7003 54.2313 51.6924 54.228C51.6845 54.2247 51.6773 54.2199 51.6712 54.2139C51.6652 54.2078 51.6603 54.2006 51.6571 54.1927C51.6538 54.1848 51.6521 54.1763 51.6521 54.1677V48.5587C51.6521 48.5501 51.6538 48.5416 51.6571 48.5337C51.6603 48.5258 51.6652 48.5186 51.6712 48.5125C51.6773 48.5065 51.6845 48.5017 51.6924 48.4984C51.7003 48.4951 51.7088 48.4934 51.7174 48.4934H52.4327C52.4413 48.4934 52.4497 48.4951 52.4577 48.4984C52.4656 48.5017 52.4728 48.5065 52.4788 48.5125C52.4849 48.5186 52.4897 48.5258 52.493 48.5337C52.4962 48.5416 52.4979 48.5501 52.4979 48.5587V53.2651C52.4979 53.2824 52.5048 53.299 52.517 53.3113C52.5293 53.3235 52.5459 53.3304 52.5632 53.3304Z" fill="#050D12"/>
<path id="Vector_20" d="M61.2004 49.4432L61.1896 50.7457C61.1896 50.7515 61.1907 50.7571 61.1929 50.7624C61.1951 50.7677 61.1983 50.7725 61.2023 50.7765C61.2063 50.7805 61.2111 50.7837 61.2164 50.7859C61.2217 50.7881 61.2273 50.7892 61.2331 50.7892H63.692C63.7036 50.7892 63.7146 50.7938 63.7228 50.802C63.7309 50.8101 63.7355 50.8212 63.7355 50.8327V51.652C63.7355 51.6635 63.7309 51.6746 63.7228 51.6828C63.7146 51.6909 63.7036 51.6955 63.692 51.6955H61.2415C61.23 51.6955 61.2189 51.7001 61.2108 51.7082C61.2026 51.7164 61.198 51.7275 61.198 51.739V53.2869C61.198 53.2984 61.2026 53.3095 61.2108 53.3176C61.2189 53.3258 61.23 53.3304 61.2415 53.3304L65.02 53.3243C65.0315 53.3243 65.0426 53.3289 65.0507 53.3371C65.0589 53.3452 65.0635 53.3563 65.0635 53.3678L65.0659 54.1895C65.0659 54.201 65.0613 54.2121 65.0531 54.2203C65.045 54.2284 65.0339 54.233 65.0224 54.233H60.4561C60.4446 54.233 60.4335 54.2284 60.4253 54.2203C60.4172 54.2121 60.4126 54.201 60.4126 54.1895V48.5369C60.4126 48.5254 60.4172 48.5143 60.4253 48.5061C60.4335 48.498 60.4446 48.4934 60.4561 48.4934H64.8399C64.8456 48.4934 64.8513 48.4945 64.8566 48.4967C64.8619 48.4989 64.8667 48.5021 64.8707 48.5061C64.8747 48.5102 64.8779 48.515 64.8801 48.5203C64.8823 48.5255 64.8834 48.5312 64.8834 48.5369V49.3562C64.8834 49.3619 64.8823 49.3675 64.8801 49.3728C64.8779 49.3781 64.8747 49.3829 64.8707 49.3869C64.8667 49.391 64.8619 49.3942 64.8566 49.3963C64.8513 49.3985 64.8456 49.3997 64.8399 49.3997H61.2439C61.2324 49.3997 61.2213 49.4042 61.2132 49.4124C61.205 49.4206 61.2004 49.4316 61.2004 49.4432Z" fill="#050D12"/>
<path id="Vector_21" d="M137.513 48.5865C137.513 48.5559 137.525 48.5267 137.547 48.5052C137.569 48.4837 137.598 48.4717 137.629 48.4717L140.364 48.4813C140.688 48.4824 141.008 48.551 141.306 48.6833C141.604 48.8156 141.875 49.0089 142.103 49.2523C142.331 49.4957 142.512 49.7843 142.634 50.1017C142.757 50.4191 142.819 50.7591 142.818 51.1022L142.816 51.6532C142.813 52.346 142.552 53.0095 142.088 53.4978C141.625 53.9861 140.998 54.2593 140.345 54.2572L137.609 54.2475C137.594 54.2475 137.579 54.2445 137.565 54.2386C137.55 54.2327 137.538 54.224 137.527 54.2131C137.516 54.2022 137.507 54.1893 137.502 54.1751C137.496 54.1609 137.493 54.1456 137.493 54.1303L137.513 48.5865ZM138.289 49.4226V53.3111C138.289 53.3203 138.293 53.3293 138.3 53.3358C138.306 53.3424 138.315 53.3461 138.325 53.3461H140.323C140.76 53.3461 141.179 53.1572 141.488 52.8209C141.797 52.4846 141.97 52.0285 141.97 51.5529V51.1808C141.97 50.7052 141.797 50.2491 141.488 49.9128C141.179 49.5765 140.76 49.3876 140.323 49.3876H138.325C138.32 49.3876 138.315 49.3885 138.311 49.3903C138.307 49.392 138.303 49.3946 138.3 49.3979C138.296 49.4011 138.294 49.405 138.292 49.4092C138.29 49.4135 138.289 49.418 138.289 49.4226Z" fill="#050D12"/>
<path id="Vector_22" d="M117.287 51.3126C117.256 52.4974 118.142 53.4817 119.266 53.5112C120.39 53.5406 121.327 52.604 121.358 51.4192C121.389 50.2344 120.503 49.2501 119.378 49.2206C118.254 49.1912 117.318 50.1278 117.287 51.3126Z" fill="white"/>
<path id="Vector_23" d="M97.7327 53.3203L96.9643 53.331C96.8956 53.332 96.8406 53.3885 96.8416 53.4572L96.8508 54.1145C96.8517 54.1832 96.9082 54.2381 96.9769 54.2372L97.7454 54.2265C97.8141 54.2255 97.869 54.169 97.8681 54.1003L97.8589 53.443C97.8579 53.3743 97.8014 53.3193 97.7327 53.3203Z" fill="#050D12"/>
</g>
</g>
</svg>
