<svg width="180" height="70" viewBox="0 0 180 70" fill="none" xmlns="http://www.w3.org/2000/svg">
<g id="Logo">
<g id="Group 88">
<path id="Vector" d="M40.9893 27.1762C40.9443 30.0606 40.94 32.9634 40.9762 35.8845C40.9849 36.5538 41.0719 37.0734 41.2458 37.701C41.2719 37.7993 41.235 37.8485 41.1349 37.8485L39.3649 37.8551C39.2707 37.8551 39.2381 37.8096 39.2671 37.7186C39.4149 37.2694 39.5519 36.8379 39.5519 36.3512C39.5548 32.0063 39.5556 27.6511 39.5541 23.2856C39.5539 23.2403 39.5674 23.1962 39.5927 23.1591C39.618 23.1221 39.6539 23.094 39.6954 23.0786C39.9216 22.9905 40.2064 23.1182 40.3891 23.2988C43.9784 26.8584 47.6417 30.4753 51.3789 34.1494C51.3927 34.1633 51.4103 34.1727 51.4294 34.1762C51.4485 34.1798 51.4682 34.1774 51.4862 34.1694C51.5041 34.1614 51.5194 34.1481 51.5302 34.1312C51.5409 34.1143 51.5465 34.0946 51.5464 34.0745C51.5072 31.061 51.4978 28.0254 51.5181 24.9678C51.5224 24.4635 51.3724 24.087 51.1941 23.629C51.1564 23.5336 51.1883 23.4859 51.2898 23.4859H53.1446C53.2809 23.4859 53.3171 23.5468 53.2533 23.6687C53.0163 24.1068 52.9315 24.6001 52.9315 25.1483C52.9257 29.4639 52.925 33.7362 52.9293 37.9652C52.929 38.0316 52.9094 38.0965 52.873 38.1517C52.8366 38.207 52.785 38.2502 52.7245 38.276C52.6641 38.3018 52.5975 38.309 52.533 38.2968C52.4685 38.2847 52.409 38.2535 52.3618 38.2074L41.1284 27.119C41.1167 27.1076 41.102 27.0999 41.0861 27.0968C41.0701 27.0937 41.0537 27.0952 41.0389 27.1014C41.024 27.1075 41.0114 27.1178 41.0026 27.1311C40.9937 27.1444 40.9891 27.1601 40.9893 27.1762Z" fill="#050D12"/>
<path id="Vector_2" d="M139.075 27.1565C139.064 27.1638 139.055 27.1739 139.048 27.1858C139.042 27.1978 139.039 27.2111 139.038 27.2247C139.036 30.1869 139.052 33.1609 139.088 36.1466C139.096 36.6868 139.169 37.2071 139.308 37.7077C139.313 37.7247 139.314 37.7425 139.31 37.7599C139.307 37.7772 139.3 37.7936 139.289 37.8076C139.279 37.8217 139.265 37.8331 139.25 37.841C139.234 37.8489 139.217 37.853 139.199 37.853H137.51C137.42 37.853 137.382 37.8082 137.395 37.7187C137.473 37.2189 137.623 36.7609 137.623 36.2721C137.623 31.9462 137.623 27.6123 137.623 23.2702C137.623 23.1411 137.686 23.0691 137.812 23.0545C138.019 23.0302 138.356 23.1888 138.525 23.3561C142.112 26.9143 145.757 30.5224 149.461 34.1803C149.472 34.1916 149.486 34.1992 149.502 34.2023C149.517 34.2054 149.533 34.2038 149.548 34.1977C149.563 34.1916 149.575 34.1812 149.584 34.168C149.593 34.1547 149.598 34.1391 149.598 34.1231C149.577 31.0948 149.573 28.0409 149.585 24.9613C149.587 24.4592 149.45 24.0871 149.263 23.6402C149.219 23.5374 149.253 23.486 149.363 23.486H151.266C151.361 23.486 151.387 23.5293 151.344 23.6159C151.113 24.0754 150.998 24.5091 150.998 24.9172C150.997 29.3312 150.996 33.6438 150.996 37.8552C150.996 37.9319 150.973 38.0069 150.931 38.0707C150.889 38.1345 150.83 38.1844 150.76 38.214C150.69 38.2436 150.613 38.2517 150.538 38.2372C150.464 38.2228 150.395 38.1864 150.341 38.1326L139.223 27.1345C139.196 27.1066 139.166 27.1029 139.134 27.1235L139.075 27.1565Z" fill="#050D12"/>
<path id="Vector_3" d="M172.032 34.1275C172.042 31.0068 172.041 27.8831 172.03 24.7565C172.028 24.3205 171.891 24.0189 171.73 23.6203C171.695 23.5308 171.725 23.486 171.819 23.486H173.667C173.834 23.486 173.871 23.5558 173.778 23.6952C173.621 23.9374 173.542 24.2347 173.539 24.5869C173.514 29.0068 173.5 33.4596 173.495 37.9455C173.495 37.9848 173.487 38.0237 173.471 38.0597C173.455 38.0956 173.432 38.1278 173.403 38.1541C173.374 38.1805 173.34 38.2004 173.303 38.2126C173.267 38.2249 173.227 38.2291 173.189 38.2251C172.96 38.2016 172.754 38.0989 172.571 37.9169C168.938 34.3103 165.295 30.7051 161.64 27.1014C161.631 27.0923 161.62 27.0861 161.608 27.0838C161.595 27.0814 161.583 27.0829 161.571 27.0881C161.559 27.0933 161.549 27.1019 161.542 27.113C161.535 27.124 161.531 27.1368 161.531 27.1499C161.544 30.2031 161.548 33.2541 161.542 36.3029C161.54 36.7807 161.699 37.2189 161.781 37.7033C161.799 37.8031 161.758 37.853 161.658 37.853H159.864C159.764 37.853 159.734 37.8068 159.774 37.7143C160.008 37.1756 160.124 36.7403 160.124 36.4086C160.129 31.9814 160.13 27.6299 160.129 23.3539C160.129 23.2844 160.149 23.2163 160.186 23.1583C160.224 23.1003 160.278 23.0549 160.341 23.0278C160.405 23.0007 160.474 22.9932 160.542 23.0062C160.609 23.0192 160.671 23.052 160.72 23.1007L171.921 34.1737C171.93 34.1828 171.942 34.1889 171.954 34.1914C171.967 34.1939 171.98 34.1926 171.992 34.1876C172.003 34.1827 172.013 34.1744 172.021 34.1637C172.028 34.153 172.032 34.1404 172.032 34.1275Z" fill="#050D12"/>
<path id="Vector_4" d="M35.1505 34.1868C35.1607 31.1219 35.1592 28.0511 35.1462 24.9744C35.144 24.4547 35.0418 24.1002 34.8287 23.6467C34.778 23.5395 34.8113 23.4859 34.9287 23.4859H36.8314C36.9401 23.4859 36.9699 23.5351 36.9206 23.6334C36.6857 24.1032 36.5683 24.4621 36.5683 24.7101C36.5625 29.1534 36.5618 33.596 36.5661 38.0379C36.5661 38.1333 36.5197 38.1905 36.427 38.2096C36.1892 38.2566 35.9442 38.156 35.692 37.9079C32.0461 34.316 28.4662 30.7784 24.9522 27.2951C24.742 27.0881 24.6369 27.1329 24.6369 27.4294C24.634 30.5281 24.642 33.5373 24.6609 36.4569C24.6652 36.8973 24.787 37.2782 24.8783 37.7208C24.8971 37.8089 24.8616 37.8529 24.7718 37.8529H23.0278C22.9263 37.8529 22.8887 37.8037 22.9147 37.7054C23.0648 37.1351 23.1909 36.6441 23.1909 36.0562C23.1909 31.8125 23.1909 27.5542 23.1909 23.2812C23.191 23.243 23.2039 23.206 23.2275 23.176C23.2512 23.1461 23.2843 23.1249 23.3214 23.116C23.7867 23.0059 23.9737 23.2569 24.276 23.5542C27.8769 27.0977 31.4728 30.6544 35.0636 34.2243C35.0704 34.2316 35.0792 34.2367 35.089 34.2387C35.0987 34.2407 35.1089 34.2396 35.1182 34.2356C35.1275 34.2316 35.1356 34.2248 35.1413 34.2162C35.1471 34.2075 35.1503 34.1973 35.1505 34.1868Z" fill="#050D12"/>
<path id="Vector_5" d="M112.353 28.1298L107.202 37.7738C107.161 37.8516 107.098 37.8898 107.011 37.8883C106.786 37.8868 106.609 37.7621 106.48 37.514C105.493 35.6131 103.83 32.5195 101.492 28.2333C101.437 28.1334 101.4 28.1393 101.381 28.2509C100.879 31.0839 100.488 33.9155 100.207 36.7456C100.191 36.9085 100.235 37.23 100.339 37.71C100.36 37.8054 100.321 37.8531 100.224 37.8531L98.2778 37.8509C98.2634 37.8506 98.2492 37.8467 98.2367 37.8394C98.2242 37.832 98.2137 37.8216 98.2063 37.809C98.1989 37.7964 98.1948 37.7821 98.1944 37.7675C98.194 37.7529 98.1972 37.7384 98.2039 37.7254C98.5199 37.1045 98.7287 36.4439 98.8302 35.7437C99.4173 31.685 99.9971 27.6131 100.57 23.5279C100.577 23.4749 100.598 23.4249 100.631 23.3838C100.664 23.3426 100.708 23.3117 100.757 23.2945C101.08 23.18 101.332 23.2894 101.511 23.6226C103.451 27.2336 105.379 30.8278 107.295 34.405C107.305 34.4225 107.319 34.4371 107.335 34.4473C107.352 34.4574 107.371 34.4628 107.391 34.4628C107.411 34.4628 107.43 34.4574 107.447 34.4473C107.464 34.4371 107.477 34.4225 107.487 34.405C109.406 30.7881 111.319 27.1925 113.225 23.6182C113.354 23.376 113.497 23.2857 113.743 23.2065C113.78 23.1942 113.82 23.1903 113.859 23.1951C113.898 23.1999 113.935 23.2132 113.968 23.2342C114.002 23.2552 114.03 23.2833 114.052 23.3165C114.073 23.3497 114.087 23.3873 114.093 23.4267C114.697 27.5793 115.29 31.6769 115.869 35.7195C115.974 36.4505 116.219 37.0692 116.513 37.7166C116.52 37.7313 116.522 37.7474 116.521 37.7635C116.52 37.7796 116.515 37.7952 116.506 37.8087C116.497 37.8223 116.486 37.8334 116.472 37.8412C116.458 37.8489 116.442 37.853 116.426 37.8531H113.649C113.572 37.8531 113.538 37.8142 113.547 37.7364C113.615 37.092 113.606 36.4527 113.521 35.8186C113.18 33.2747 112.829 30.7184 112.468 28.1496C112.467 28.1363 112.461 28.1239 112.452 28.1143C112.443 28.1046 112.431 28.0982 112.418 28.0959C112.405 28.0937 112.392 28.0958 112.38 28.1019C112.368 28.108 112.359 28.1178 112.353 28.1298Z" fill="#050D12"/>
<path id="Vector_6" d="M16.3978 32.6787H11.54C11.4834 32.6787 11.428 32.6951 11.3802 32.7259C11.3324 32.7567 11.2944 32.8007 11.2704 32.8526L9.03937 37.6834C9.01588 37.734 8.97868 37.7768 8.9321 37.8068C8.88551 37.8369 8.83147 37.8529 8.77626 37.853H7.10626C7.08558 37.8531 7.06539 37.8471 7.04812 37.8357C7.03085 37.8243 7.01725 37.8079 7.00896 37.7886C7.00067 37.7692 6.99806 37.7477 7.00143 37.7267C7.00481 37.7057 7.01403 37.6861 7.02797 37.6702C7.61653 37.0126 8.09564 36.2882 8.46531 35.497C10.2933 31.5777 12.1119 27.6541 13.9211 23.726C13.9936 23.5689 14.0885 23.428 14.2059 23.3032C14.2429 23.2647 14.2886 23.2357 14.3391 23.219C14.3896 23.2022 14.4433 23.1981 14.4957 23.207C14.5481 23.2158 14.5975 23.2374 14.6399 23.2699C14.6822 23.3024 14.7161 23.3448 14.7387 23.3935C16.4522 27.1344 18.2744 30.8577 19.8857 34.6449C20.3742 35.7913 21.0548 36.8269 21.9275 37.7517C21.9356 37.76 21.9412 37.7706 21.9434 37.782C21.9456 37.7935 21.9445 37.8054 21.9401 37.8162C21.9356 37.827 21.9282 37.8363 21.9186 37.8428C21.909 37.8494 21.8977 37.8529 21.8862 37.853H19.0724C19.0303 37.853 18.989 37.8408 18.9535 37.8178C18.9181 37.7947 18.8899 37.7619 18.8724 37.7231L16.5957 32.8064C16.5565 32.7212 16.4906 32.6787 16.3978 32.6787ZM12.101 31.0295C12.093 31.0466 12.0893 31.0655 12.0904 31.0844C12.0915 31.1034 12.0973 31.1217 12.1073 31.1378C12.1172 31.1538 12.1311 31.1671 12.1475 31.1762C12.1639 31.1854 12.1823 31.1902 12.2011 31.1902L15.6868 31.1946C15.7054 31.1948 15.7238 31.1902 15.7402 31.1814C15.7566 31.1725 15.7706 31.1595 15.7808 31.1437C15.7909 31.1279 15.797 31.1098 15.7985 31.091C15.7999 31.0722 15.7966 31.0533 15.789 31.0361L14.0515 27.2489C14.0425 27.2298 14.0283 27.2137 14.0106 27.2024C13.9929 27.1911 13.9724 27.1851 13.9515 27.1851C13.9306 27.1851 13.9101 27.1911 13.8924 27.2024C13.8747 27.2137 13.8605 27.2298 13.8515 27.2489L12.101 31.0295Z" fill="#050D12"/>
<path id="Vector_7" d="M78.2921 24.8995C77.0092 25.571 76.6048 27.1101 78.0573 27.9314C79.9317 28.9905 82.5715 29.7347 84.3546 31.2958C86.6313 33.2885 85.2287 36.4283 82.7281 37.3883C79.923 38.4628 77.1853 38.203 74.5151 36.6088C74.4533 36.5717 74.4006 36.5211 74.3607 36.4609C74.3209 36.4008 74.2948 36.3324 74.2846 36.261L74.0041 34.2243C74.001 34.2053 74.0041 34.1858 74.0127 34.1687C74.0214 34.1516 74.0352 34.1377 74.0522 34.1291C74.0692 34.1205 74.0885 34.1176 74.1072 34.1209C74.1259 34.1241 74.1431 34.1333 74.1563 34.1472C75.8198 35.792 78.3552 37.2386 80.7297 36.6088C81.9235 36.2918 82.7455 35.6114 83.026 34.4026C83.3174 33.1432 82.5063 32.509 81.5213 31.963C79.8295 31.0228 77.8225 30.3644 76.222 29.2503C73.9562 27.6738 74.439 25.2716 76.5743 24.0716C78.8619 22.7857 82.0779 23.2437 84.3416 24.3094C84.4053 24.3388 84.4416 24.3879 84.4503 24.4569L84.6938 26.2734C84.6964 26.2903 84.6939 26.3075 84.6866 26.3229C84.6793 26.3382 84.6675 26.3509 84.6528 26.3593C84.6382 26.3677 84.6213 26.3714 84.6045 26.3698C84.5878 26.3682 84.5719 26.3615 84.559 26.3505C82.9825 25.025 80.2753 23.8646 78.2921 24.8995Z" fill="#050D12"/>
<path id="Vector_8" d="M58.5567 28.8387L64.0494 28.7837C64.1552 28.7822 64.19 28.8314 64.1538 28.9312L63.7472 30.0321C63.7196 30.1085 63.666 30.1466 63.5863 30.1466H58.5175C58.4899 30.1466 58.4633 30.1578 58.4437 30.1776C58.4242 30.1974 58.4132 30.2243 58.4132 30.2523L58.4197 36.3734C58.4197 36.3972 58.4244 36.4208 58.4335 36.4427C58.4426 36.4646 58.456 36.4845 58.4728 36.5011C58.4896 36.5177 58.5096 36.5308 58.5314 36.5395C58.5533 36.5482 58.5767 36.5524 58.6002 36.5518C60.766 36.4835 63.1557 36.7455 65.2215 36.0409C65.3447 35.9998 65.3831 36.0402 65.3367 36.162L64.7387 37.7342C64.7097 37.8134 64.6525 37.8531 64.5669 37.8531H55.9669C55.877 37.8531 55.8451 37.8098 55.8712 37.7231C55.9973 37.2938 56.1343 36.9371 56.1343 36.4879C56.1343 32.6215 56.1343 28.7558 56.1343 24.8909C56.1365 24.4065 56.0147 24.1004 55.8451 23.6556C55.8016 23.5426 55.8393 23.4861 55.9582 23.4861H64.2234C64.3133 23.4861 64.3778 23.5265 64.4169 23.6072L65.178 25.1573C65.1835 25.1687 65.1855 25.1816 65.1838 25.1942C65.1821 25.2068 65.1766 25.2186 65.1682 25.2281C65.1598 25.2376 65.1488 25.2443 65.1366 25.2473C65.1244 25.2504 65.1115 25.2497 65.0997 25.2453C63.1775 24.5253 60.5616 24.7852 58.5284 24.8094C58.4559 24.8109 58.4197 24.8483 58.4197 24.9217L58.411 28.6912C58.411 28.791 58.4596 28.8402 58.5567 28.8387Z" fill="#050D12"/>
<path id="Vector_9" d="M90.2126 24.9525L90.2213 28.645C90.2213 28.6952 90.241 28.7434 90.276 28.7789C90.3111 28.8144 90.3587 28.8343 90.4083 28.8343L95.7857 28.8079C95.9075 28.8079 95.9467 28.8652 95.9032 28.9797L95.5074 30.0564C95.4842 30.1165 95.4414 30.1466 95.3791 30.1466H90.3321C90.2626 30.1466 90.2278 30.1819 90.2278 30.2523L90.1712 36.1687C90.1698 36.3976 90.2821 36.5151 90.5083 36.5209C92.4675 36.565 95.1008 36.8028 96.96 36.0255C96.9794 36.0174 97.0008 36.0153 97.0215 36.0194C97.0421 36.0236 97.0611 36.0339 97.076 36.049C97.0909 36.064 97.101 36.0832 97.1051 36.1041C97.1093 36.1251 97.1072 36.1467 97.0991 36.1664L96.4816 37.7386C96.4526 37.8149 96.3975 37.8531 96.3163 37.8531H87.7141C87.6242 37.8531 87.5938 37.8098 87.6227 37.7231C87.8185 37.1404 87.9192 36.7022 87.925 36.4087C87.9714 34.0057 87.9641 30.0945 87.9033 24.6751C87.8989 24.2831 87.7271 24.0145 87.5923 23.6534C87.5503 23.5419 87.588 23.4861 87.7054 23.4861H95.9988C96.0786 23.4861 96.1366 23.522 96.1728 23.594L96.8991 25.0802C96.9071 25.0964 96.9103 25.1147 96.9082 25.1327C96.9061 25.1508 96.8988 25.1678 96.8872 25.1816C96.8756 25.1955 96.8602 25.2056 96.843 25.2106C96.8258 25.2157 96.8075 25.2155 96.7903 25.2101C94.8659 24.5804 92.3261 24.7477 90.3191 24.838C90.2466 24.8409 90.2111 24.8791 90.2126 24.9525Z" fill="#050D12"/>
<path id="Vector_10" d="M135.176 30.055C135.247 31.0045 135.095 31.9616 134.729 32.8716C134.363 33.7816 133.791 34.6268 133.044 35.3588C132.298 36.0908 131.392 36.6953 130.378 37.1379C129.365 37.5805 128.264 37.8524 127.137 37.9381C124.863 38.1113 122.625 37.5156 120.916 36.2822C119.207 35.0487 118.167 33.2784 118.025 31.3608C117.954 30.4114 118.106 29.4543 118.472 28.5443C118.838 27.6342 119.41 26.7891 120.157 26.0571C120.903 25.325 121.809 24.7205 122.823 24.2779C123.836 23.8353 124.937 23.5634 126.064 23.4777C128.338 23.3045 130.576 23.9002 132.285 25.1337C133.994 26.3672 135.034 28.1374 135.176 30.055ZM132.379 33.097C132.95 31.6863 132.89 30.0808 132.211 28.6336C131.532 27.1864 130.291 26.0161 128.759 25.3801C127.228 24.7441 125.532 24.6946 124.045 25.2424C122.559 25.7903 121.402 26.8905 120.831 28.3012C120.259 29.7119 120.32 31.3175 120.999 32.7647C121.677 34.2119 122.919 35.3822 124.45 36.0181C125.982 36.6541 127.677 36.7036 129.164 36.1558C130.651 35.608 131.807 34.5077 132.379 33.097Z" fill="#050D12"/>
<path id="Vector_11" d="M153.999 37.6659C154.399 37.1419 154.327 36.4285 154.323 35.8164C154.291 32.1261 154.29 28.4351 154.319 24.7433C154.321 24.303 154.197 24.0189 153.997 23.6424C153.942 23.5382 153.972 23.4861 154.088 23.4861H156.861C156.952 23.4861 156.979 23.5287 156.941 23.6138C156.716 24.1231 156.603 24.562 156.602 24.9305C156.592 28.634 156.583 32.336 156.576 36.0365C156.574 36.609 156.691 37.1573 156.926 37.6813C156.934 37.6998 156.938 37.7201 156.937 37.7403C156.935 37.7606 156.929 37.7802 156.918 37.7973C156.907 37.8144 156.892 37.8285 156.875 37.8382C156.857 37.848 156.837 37.8531 156.817 37.8531H154.09C154.069 37.853 154.048 37.8468 154.03 37.8353C154.012 37.8239 153.997 37.8075 153.988 37.7881C153.978 37.7686 153.974 37.7469 153.976 37.7253C153.978 37.7038 153.986 37.6832 153.999 37.6659Z" fill="#050D12"/>
<path id="Vector_12" d="M98.5867 42.8865C99.4609 43.525 100.589 43.6593 101.381 44.3397C102.259 45.0971 101.779 46.1452 100.816 46.5063C99.6153 46.9555 98.5338 46.8747 97.5713 46.2641C97.3321 46.1129 97.2799 45.8839 97.4147 45.5771C97.4437 45.514 97.4843 45.5052 97.5365 45.5507C98.2736 46.209 100.318 46.9224 100.846 45.6432C101.553 43.9346 95.9882 43.8927 97.9257 41.9639C98.5367 41.3562 100.994 41.1162 101.424 41.9133C101.495 42.0439 101.507 42.1643 101.459 42.2744C101.427 42.3492 101.378 42.3639 101.311 42.3184C100.644 41.8648 98.5628 41.3012 98.4845 42.6685C98.4787 42.7595 98.5128 42.8322 98.5867 42.8865Z" fill="#050D12"/>
<path id="Vector_13" d="M81.1409 42.0871V46.5987C81.1409 46.6662 81.1069 46.6992 81.0387 46.6978L80.3037 46.6779C80.2972 46.6777 80.2907 46.6761 80.2848 46.6733C80.2788 46.6704 80.2735 46.6665 80.269 46.6616C80.2646 46.6567 80.2611 46.6509 80.2589 46.6447C80.2566 46.6384 80.2556 46.6318 80.2559 46.6251L80.2733 41.5829C80.2733 41.5286 80.3001 41.5 80.3538 41.497C81.5744 41.4368 82.3927 41.4574 82.8088 41.5587C85.3051 42.1642 83.7916 45.0992 81.3518 44.4012C81.2924 44.3836 81.2598 44.344 81.254 44.2823C81.2337 44.0886 81.3229 44.002 81.5215 44.0225C84.1526 44.2868 83.6503 41.6071 81.267 41.9418C81.183 41.9535 81.1409 42.002 81.1409 42.0871Z" fill="#050D12"/>
<path id="Vector_14" d="M85.0419 44.9054C84.8114 45.4118 84.3461 46.8254 83.6502 46.7109C83.5894 46.7007 83.5734 46.6676 83.6024 46.6119L86.2053 41.5851C86.2205 41.5545 86.2438 41.5288 86.2726 41.5109C86.3014 41.4929 86.3345 41.4834 86.3683 41.4834C86.4022 41.4834 86.4353 41.4929 86.4641 41.5109C86.4929 41.5288 86.5162 41.5545 86.5314 41.5851C87.3534 43.2056 88.1405 45.0574 89.206 46.5832C89.2829 46.6933 89.2553 46.7425 89.1234 46.7308L88.3189 46.6625C88.2261 46.6537 88.1594 46.6074 88.1188 46.5238L87.3077 44.8966C87.2729 44.8262 87.2164 44.7909 87.1381 44.7909L85.2202 44.7887C85.1361 44.7887 85.0767 44.8276 85.0419 44.9054ZM85.4355 44.1392C85.4244 44.1617 85.4191 44.1867 85.4202 44.2119C85.4213 44.237 85.4288 44.2614 85.4419 44.2828C85.4549 44.3043 85.4732 44.3219 85.4949 44.3342C85.5166 44.3464 85.5411 44.3528 85.566 44.3528L86.8141 44.344C86.8391 44.3438 86.8636 44.3372 86.8853 44.3247C86.907 44.3121 86.9252 44.2942 86.9381 44.2725C86.9509 44.2509 86.9581 44.2262 86.9589 44.2009C86.9596 44.1757 86.954 44.1506 86.9424 44.1282L86.3096 42.8908C86.2974 42.8663 86.2786 42.8457 86.2554 42.8315C86.2323 42.8172 86.2056 42.8097 86.1785 42.81C86.1514 42.8102 86.1249 42.8181 86.1019 42.8327C86.079 42.8474 86.0606 42.8683 86.0487 42.893L85.4355 44.1392Z" fill="#050D12"/>
<path id="Vector_15" d="M90.9584 44.245L91.041 46.59C91.0439 46.6575 91.0113 46.6913 90.9431 46.6913L90.2212 46.6802C90.1763 46.6788 90.1538 46.6546 90.1538 46.6076L90.1603 41.5808C90.1603 41.5177 90.1908 41.4854 90.2517 41.4839C91.5274 41.4487 92.3522 41.4758 92.7262 41.5654C93.6178 41.779 94.2918 42.6553 93.7069 43.5228C93.3851 44.0028 92.7436 44.1944 92.2348 44.278C92.1261 44.2957 92.1072 44.347 92.1782 44.4322C92.8915 45.2747 93.7214 45.9749 94.668 46.5327C94.6872 46.5438 94.7021 46.5611 94.7103 46.5819C94.7185 46.6026 94.7196 46.6256 94.7133 46.647C94.707 46.6685 94.6937 46.6871 94.6756 46.6999C94.6575 46.7128 94.6357 46.719 94.6137 46.7177L93.5395 46.645C93.4728 46.6406 93.4141 46.6164 93.3633 46.5724C92.5443 45.8516 91.8064 45.0524 91.1497 44.1746C91.0135 43.9925 90.9497 44.016 90.9584 44.245ZM90.9801 42.074V43.7694C90.9801 43.8068 90.9948 43.8426 91.0209 43.8691C91.047 43.8955 91.0824 43.9103 91.1193 43.9103H91.6085C92.0047 43.9103 92.3847 43.8124 92.6649 43.6382C92.945 43.4639 93.1024 43.2276 93.1024 42.9812V42.8623C93.1024 42.6158 92.945 42.3795 92.6649 42.2052C92.3847 42.031 92.0047 41.9331 91.6085 41.9331H91.1193C91.0824 41.9331 91.047 41.9479 91.0209 41.9744C90.9948 42.0008 90.9801 42.0366 90.9801 42.074Z" fill="#050D12"/>
<path id="Vector_16" d="M96.2295 41.4758L95.4901 41.4745C95.4589 41.4744 95.4335 41.5 95.4335 41.5316L95.4247 46.6531C95.4246 46.6847 95.4499 46.7104 95.4811 46.7104L96.2204 46.7117C96.2517 46.7118 96.277 46.6862 96.2771 46.6546L96.2859 41.5331C96.2859 41.5015 96.2607 41.4758 96.2295 41.4758Z" fill="#050D12"/>
</g>
</g>
</svg>
