<svg width="180" height="70" viewBox="0 0 180 70" fill="none" xmlns="http://www.w3.org/2000/svg">
<g id="Logo">
<g id="Group 67">
<path id="Vector" d="M137.74 47.6856C136.809 48.6842 134.552 50.8649 133.026 50.5094C131.877 50.242 132.344 48.7054 132.68 48.0284C132.685 48.0207 132.686 48.0117 132.684 48.0031C132.683 47.9945 132.678 47.9868 132.671 47.9813C132.664 47.9759 132.656 47.973 132.647 47.9733C132.638 47.9735 132.63 47.9769 132.623 47.9827C130.692 49.5522 128.16 51.2724 125.55 51.0453C123.242 50.8448 123.581 48.9516 124.467 47.5031C124.471 47.4959 124.472 47.4877 124.47 47.4798C124.469 47.4719 124.464 47.4648 124.458 47.4597C124.452 47.4546 124.444 47.4518 124.436 47.4517C124.428 47.4517 124.42 47.4545 124.414 47.4596C122.473 49.2498 120.002 50.831 117.377 51.2374C115.149 51.5823 113.431 50.4818 114.234 48.0071C114.237 47.9994 114.237 47.9909 114.234 47.983C114.232 47.9751 114.226 47.9684 114.22 47.9639C114.213 47.9594 114.204 47.9574 114.196 47.9584C114.188 47.9593 114.18 47.963 114.174 47.9689C112.74 49.3156 109.992 51.507 107.924 51.0761C106.315 50.7418 106.415 48.8805 106.829 47.7111C106.832 47.702 106.832 47.6921 106.829 47.6831C106.826 47.674 106.819 47.6664 106.811 47.6615C106.803 47.6566 106.793 47.6548 106.783 47.6563C106.773 47.6578 106.764 47.6625 106.758 47.6697C106.046 48.4571 105.251 49.1677 104.373 49.8016C103.73 50.2654 102.116 50.9753 101.526 50.1932C101.237 49.8091 101.29 49.1638 101.44 48.7213C102.659 45.109 105.6 42.4752 109.284 41.657C109.572 41.5933 109.886 41.5558 110.227 41.5445C110.264 41.5438 110.294 41.5279 110.316 41.4967C110.812 40.7964 111.497 40.4522 112.37 40.4642C112.419 40.4649 112.431 40.4865 112.405 40.5289L111.809 41.5296C111.803 41.5387 111.8 41.549 111.8 41.5596C111.8 41.5702 111.802 41.5807 111.807 41.5901C111.812 41.5995 111.819 41.6075 111.828 41.6132C111.837 41.619 111.847 41.6224 111.858 41.623C112.138 41.64 113.066 41.6644 113.038 42.0783C113.037 42.0977 113.031 42.1167 113.023 42.1342C113.014 42.1516 113.002 42.1671 112.987 42.1797C112.972 42.1923 112.955 42.2017 112.936 42.2074C112.918 42.2132 112.898 42.2151 112.879 42.213L111.558 42.0783C111.536 42.076 111.513 42.0803 111.493 42.0907C111.473 42.101 111.457 42.117 111.446 42.1366C110.493 43.8317 109.628 45.5487 108.85 47.2877C108.573 47.9095 107.62 50.0966 108.704 50.4065C110.204 50.8363 113.278 48.3552 114.316 47.3322C114.848 46.8069 115.102 46.1278 115.523 45.5165C116.928 43.4762 118.796 42.0425 121.127 41.2155C122.318 40.7932 123.347 41.2198 123.77 42.4592C123.835 42.6495 123.79 42.8158 123.637 42.958C123.423 43.1586 122.594 44.0139 122.147 43.9651C122.1 43.9594 122.076 43.9329 122.075 43.8855C122.051 43.0089 122.187 42.4868 121.116 42.2926C118.292 41.7801 116.165 46.6552 116.219 48.819C116.235 49.4458 116.461 49.8911 116.897 50.155C119.081 51.4751 123.532 47.6516 124.981 46.2657C125.17 46.0846 125.339 45.8692 125.491 45.6195C126.068 44.6637 126.691 43.7397 127.361 42.8476C127.908 42.1175 128.501 41.2357 129.579 41.4936C129.615 41.5028 129.641 41.5247 129.657 41.5593C129.755 41.7808 129.723 42.0008 129.563 42.2194C128.77 43.2944 124.98 49.0344 126.196 50.0574C127.534 51.1822 132.571 47.9562 133.3 46.7295C134.931 43.9863 137.931 41.761 141.216 41.5402C141.254 41.5381 141.284 41.5215 141.306 41.4904C141.795 40.7971 142.471 40.455 143.335 40.4642C143.343 40.4644 143.352 40.4668 143.36 40.4712C143.367 40.4757 143.373 40.482 143.378 40.4895C143.382 40.4971 143.384 40.5056 143.384 40.5141C143.384 40.5227 143.382 40.5311 143.377 40.5385L142.775 41.5381C142.756 41.57 142.765 41.5891 142.801 41.5954C143.152 41.6549 143.804 41.6527 144.025 41.9584C144.047 41.9902 144.052 42.0245 144.039 42.0613C143.946 42.3361 142.784 42.1027 142.524 42.0751C142.487 42.0716 142.46 42.0861 142.441 42.1186C141.528 43.7231 140.69 45.3637 139.927 47.0404C139.62 47.716 139.393 48.3499 139.248 48.9421C138.828 50.658 140.094 50.6782 141.199 50.173C142.703 49.4847 144.043 48.56 145.218 47.3991C145.455 47.1646 145.595 46.8855 145.78 46.6043C149.353 41.1741 152.467 36.3298 156.555 30.3479C157.774 28.5629 159 26.9722 160.57 25.5948C161.704 24.5987 162.928 23.7193 164.239 22.9567C164.892 22.5768 167.839 21.1219 167.891 22.7678C167.937 24.2757 166.622 26.1519 165.774 27.4222C162.296 32.6337 157.362 37.4897 151.701 40.2424C151.568 40.3075 151.46 40.3998 151.378 40.5194C150.255 42.1437 149.224 43.8207 148.282 45.5505C147.7 46.6202 147.017 47.9339 146.895 49.1554C146.705 51.0644 148.634 50.7471 149.791 50.345C152.807 49.2954 155.134 47.4139 157.175 45.0029C157.236 44.9308 157.319 44.8607 157.424 44.7928C157.455 44.773 157.489 44.7677 157.524 44.7769C157.632 44.8045 157.692 44.8752 157.703 44.9891C157.706 45.0238 157.696 45.0546 157.674 45.0814C155.301 47.7928 152.242 50.3503 148.703 51.2788C146.272 51.9176 144.104 51.1748 144.997 48.1759C144.999 48.1683 144.998 48.1602 144.995 48.1529C144.993 48.1455 144.987 48.1393 144.981 48.1353C144.974 48.1312 144.966 48.1294 144.958 48.1302C144.95 48.131 144.943 48.1344 144.937 48.1398C143.662 49.3665 139.994 52.2137 138.16 50.744C137.317 50.068 137.519 48.6534 137.785 47.7111C137.805 47.641 137.79 47.6325 137.74 47.6856ZM152.2 39.4391C157.445 36.3882 161.925 32.0638 164.711 26.6263C164.954 26.153 165.155 25.6627 165.315 25.1555C165.458 24.7044 165.863 23.032 164.709 23.4745C164.42 23.5863 164.217 23.697 164.1 23.8067C162.397 25.4112 160.883 27.263 159.514 29.1413C157.038 32.5371 154.587 35.9545 152.159 39.3935C152.155 39.3994 152.153 39.4064 152.153 39.4134C152.154 39.4204 152.157 39.427 152.162 39.4323C152.166 39.4375 152.173 39.441 152.18 39.4422C152.187 39.4434 152.194 39.4423 152.2 39.4391ZM105.064 48.4719C107.006 46.5905 108.439 44.3747 109.868 42.0995C109.871 42.0944 109.873 42.0885 109.873 42.0824C109.873 42.0764 109.871 42.0704 109.868 42.0653C109.865 42.0602 109.86 42.0561 109.855 42.0535C109.849 42.0509 109.843 42.0499 109.837 42.0507C106.638 42.403 104.111 46.3241 103.21 49.1225C103.167 49.2551 103.17 49.4132 103.215 49.531C103.226 49.5594 103.243 49.5851 103.265 49.6063C103.287 49.6275 103.313 49.6437 103.342 49.6538C103.371 49.6638 103.402 49.6676 103.432 49.6647C103.463 49.6618 103.492 49.6524 103.519 49.6371C104.082 49.3117 104.597 48.9233 105.064 48.4719ZM136.206 48.3075C138.053 46.4737 139.459 44.311 140.836 42.1154C140.865 42.0694 140.852 42.0478 140.798 42.0507C139.904 42.0921 138.97 42.5611 138.325 43.0832C136.387 44.6517 135.02 46.6173 134.224 48.9803C134.156 49.1851 134.146 49.3634 134.195 49.5597C134.201 49.587 134.218 49.6107 134.242 49.6258C134.266 49.6409 134.294 49.6461 134.322 49.6403C134.975 49.5056 135.74 48.7701 136.206 48.3075Z" fill="#050D12"/>
<path id="Vector_2" d="M63.4067 49.6637C62.4191 50.6456 61.3186 51.4649 60.1053 52.1214C59.1068 52.6615 57.1605 53.3609 56.2702 52.2922C54.9978 50.7641 56.7254 47.519 57.4269 46.0323C57.4672 45.9467 57.4527 45.9364 57.3834 46.0015C56.3646 46.9587 55.3841 47.9849 54.3749 48.959C53.665 49.6446 52.4881 50.4065 51.5521 50.3588C50.9706 50.329 50.5016 50.0669 50.4888 49.427C50.4708 48.4974 50.9027 47.8363 51.4916 46.9863C53.5525 44.015 56.5153 41.9011 60.1244 41.2888C60.1945 41.2767 60.262 41.218 60.3271 41.1126C63.2221 36.4349 66.5277 31.9407 70.3087 27.9899C72.6157 25.5789 76.1877 22.5577 79.7459 22.5449C80.1014 22.5439 80.9843 22.6903 80.6638 23.2771C80.4615 23.6479 80.2538 24.015 80.0409 24.3787C79.905 24.6111 79.7575 24.6822 79.5092 24.5888C79.0381 24.4105 78.4194 24.2152 77.9302 24.1972C76.373 24.1399 74.99 24.6164 73.7809 25.6266C72.5789 26.6298 71.487 27.7384 70.505 28.9524C67.2164 33.021 64.2196 37.3836 61.5464 41.8798C60.1145 44.2873 58.8347 46.773 57.707 49.3368C57.1786 50.5381 56.7361 52.8579 59.1556 51.8943C62.059 50.7387 64.4148 48.2162 66.0427 45.6333C66.8938 44.2827 67.7449 42.9325 68.5959 41.5827C69.1478 40.7083 70.3734 41.6273 69.6656 42.6938C69.3395 43.184 69.03 43.6849 68.7371 44.1964C68.6946 44.2707 68.7052 44.2795 68.7689 44.2229C70.1315 43.028 72.8715 41.0203 74.7721 41.3068C75.2899 41.3843 75.6974 41.7981 75.2751 42.2905C74.9557 42.663 74.4197 43.6329 74.0706 43.6478C74.0303 43.6492 73.9988 43.6336 73.9762 43.6011C73.1654 42.4444 71.5598 42.7245 70.5411 43.3973C69.4141 44.1423 68.5291 45.1175 67.7183 46.1713C66.3331 47.9718 65.1789 49.5063 64.2557 50.7747C63.6423 51.6184 62.9281 50.6835 63.2879 50.0192C63.36 49.8876 63.411 49.7762 63.4407 49.6849C63.4591 49.6297 63.4477 49.6226 63.4067 49.6637ZM55.3586 47.2643C56.9409 45.7426 58.6133 43.9651 59.7414 42.0751C59.7455 42.0678 59.7476 42.0596 59.7474 42.0512C59.7473 42.0429 59.7449 42.0348 59.7405 42.0277C59.7361 42.0207 59.7299 42.0151 59.7226 42.0115C59.7152 42.0079 59.7071 42.0064 59.6989 42.0072C58.1061 42.1547 56.9939 42.785 55.8394 43.9651C54.5553 45.2767 53.0771 47.0425 52.7534 48.9092C52.7483 48.9394 52.7498 48.9704 52.7579 49C52.7661 49.0296 52.7806 49.057 52.8004 49.0803C52.8203 49.1036 52.845 49.1222 52.8728 49.1348C52.9006 49.1474 52.9309 49.1537 52.9614 49.1532C53.3816 49.1479 54.9936 47.6145 55.3586 47.2643Z" fill="#050D12"/>
<path id="Vector_3" d="M21.1862 40.6839C21.818 40.7292 22.4851 40.7575 23.1876 40.7688C26.7914 40.8268 30.1635 40.7002 33.304 40.3889C33.5113 40.3684 33.6817 40.2467 33.8155 40.0239C35.3931 37.3801 37.1274 34.5757 39.0185 31.6107C39.4175 30.9836 39.8292 30.8488 40.6283 30.5092C42.3963 29.7568 44.4093 29.0193 46.1614 28.6192C46.5455 28.5308 46.9095 28.5319 47.2533 28.6224C47.288 28.6316 47.3145 28.6521 47.3329 28.684C47.3874 28.7781 47.3895 28.8736 47.3393 28.9705C47.3216 29.0038 47.2951 29.0243 47.2597 29.0321C47.179 29.0512 47.0899 29.0787 47.0082 29.0798C45.5459 29.1024 44.2661 29.5443 43.1688 30.4052C41.3404 31.8389 39.8441 33.766 38.5972 35.6762C36.4653 38.9425 34.4585 42.6249 33.1639 46.3082C32.6948 47.64 31.8554 50.015 34.1869 50.1784C35.4179 50.264 36.5551 49.9916 37.5986 49.3613C37.8055 49.2371 38.2629 49.1883 38.2056 49.5746C38.2 49.61 38.1844 49.6397 38.1589 49.6637C37.9679 49.8448 37.727 49.987 37.4362 50.0903C35.7553 50.6853 34.0259 51.061 32.2481 51.2173C31.4575 51.2874 30.5258 51.3128 30.0928 50.5562C29.6216 49.7316 29.9623 48.4359 30.3485 47.5636C30.964 46.1742 31.5788 44.784 32.1929 43.3932C32.3531 43.0292 32.5813 42.5835 32.5495 42.2078C32.4518 41.0362 29.9198 41.2994 29.1324 41.31C26.1469 41.3461 23.3277 41.541 20.6747 41.8948C20.3458 41.9386 20.0798 42.1215 19.8767 42.4434C18.3061 44.9436 16.8396 47.5035 15.477 50.1232C15.3465 50.3747 15.1884 50.5424 14.887 50.5986C14.0465 50.7557 13.2301 50.9948 12.4378 51.316C11.8403 51.559 11.9602 50.9425 12.1788 50.639C13.9666 48.1657 15.8113 45.4572 17.7129 42.5134C17.8481 42.3047 17.9439 42.1102 18.0005 41.9298C18.0118 41.8923 18.0069 41.8573 17.9857 41.8247C17.8467 41.6146 16.8215 40.4812 17.7766 40.4717C18.1321 40.4674 18.8718 40.5704 19.0776 40.217C20.0688 38.5212 21.0281 36.8467 21.8526 35.1583C22.1434 34.5619 22.7854 33.2842 22.4108 32.812C21.963 32.2453 19.7547 32.5626 19.0798 32.6019C18.3433 32.6465 18.3772 31.9662 18.945 31.9599C20.0465 31.9471 21.1162 31.9408 22.2379 31.8506C23.3868 31.7586 24.5364 31.6765 25.6867 31.6044C26.091 31.5789 26.3362 31.8495 26.0836 32.2209C24.2725 34.8796 22.6072 37.6404 21.0875 40.5035C21.0281 40.6146 21.061 40.6747 21.1862 40.6839Z" fill="#050D12"/>
<path id="Vector_4" d="M95.9747 32.745C95.6022 32.7206 94.0178 32.7779 93.6602 32.4723C93.6263 32.444 93.6153 32.4086 93.6273 32.3662L93.6804 32.1741C93.6938 32.1267 93.725 32.1034 93.7738 32.1041C95.6128 32.1083 97.5569 32.1752 99.3259 32.0425C102.155 31.8303 105.247 30.9399 107.693 30.8497C107.812 30.8455 107.907 30.8497 107.979 30.8625C108.006 30.8669 108.031 30.8779 108.052 30.8945C108.073 30.9111 108.09 30.9327 108.101 30.9575C108.112 30.9823 108.117 31.0094 108.114 31.0363C108.112 31.0633 108.103 31.0892 108.088 31.1119C107.824 31.5119 107.385 32.4999 106.917 32.5094C103.777 32.5766 101.312 32.6449 99.5212 32.7143C99.0787 32.7312 98.7805 32.952 98.53 33.3393C96.9559 35.7807 95.4632 38.2742 94.0518 40.8196C94.0427 40.8356 94.0393 40.8542 94.0422 40.8723C94.0451 40.8904 94.0541 40.9071 94.0677 40.9194C94.2135 41.0545 94.3871 41.1479 94.5888 41.1995C97.2608 41.8861 100.415 40.9937 103.154 40.7666C103.331 40.7528 103.456 40.8684 103.467 41.0499C103.537 42.1737 102.062 41.9487 101.334 41.9731C98.8456 42.0552 96.3581 42.0315 93.8714 41.902C93.6011 41.8879 93.397 41.9901 93.2591 42.2087C91.8785 44.4001 90.3069 46.774 89.4611 49.2306C89.2552 49.827 89.408 50.3449 90.0882 50.4277C90.6316 50.4942 91.1795 50.5741 91.732 50.6675C91.7563 50.6713 91.7786 50.6834 91.7952 50.7017C91.8118 50.72 91.8217 50.7435 91.8233 50.7683C91.8435 51.1238 91.5771 51.0909 91.2853 51.0941C90.1951 51.1054 89.1049 51.1008 88.0147 51.0803C87.448 51.0697 86.3486 51.0325 86.0027 50.3948C85.985 50.3615 85.9786 50.3258 85.9836 50.2876C86.0211 50.0117 86.1127 49.7623 86.2584 49.5394C89.7582 44.1783 93.4023 38.7365 96.0638 32.8957C96.1063 32.8023 96.0766 32.7521 95.9747 32.745Z" fill="#050D12"/>
<path id="Vector_5" d="M132.584 36.6145C133.165 36.0946 133.37 35.3745 133.041 35.0062C132.711 34.6379 131.973 34.7608 131.391 35.2807C130.81 35.8007 130.605 36.5207 130.935 36.8891C131.264 37.2574 132.002 37.1345 132.584 36.6145Z" fill="#050D12"/>
<path id="Vector_6" d="M164.604 35.9297L164.601 37.981C164.601 38.0093 164.587 38.0231 164.559 38.0224L164.445 38.0192C164.394 38.0178 164.368 37.9916 164.367 37.9407L164.341 35.9191C164.341 35.8753 164.318 35.854 164.274 35.8555L163.722 35.8746C163.67 35.876 163.644 35.8505 163.644 35.7982V35.7026C163.644 35.6602 163.665 35.639 163.707 35.639L165.243 35.6231C165.256 35.6229 165.268 35.6257 165.28 35.6314C165.291 35.637 165.302 35.6453 165.309 35.6556C165.317 35.6659 165.323 35.6779 165.325 35.6907C165.327 35.7035 165.327 35.7166 165.323 35.7292C165.258 35.9616 164.864 35.8703 164.678 35.8597C164.629 35.8569 164.604 35.8802 164.604 35.9297Z" fill="#050D12"/>
<path id="Vector_7" d="M167.678 36.0219L166.918 37.9745C166.91 37.9957 166.896 38.0138 166.877 38.0266C166.858 38.0394 166.836 38.0463 166.813 38.0463C166.79 38.0463 166.768 38.0394 166.749 38.0266C166.73 38.0138 166.716 37.9957 166.707 37.9745L165.95 36.0304C165.947 36.0248 165.943 36.0202 165.938 36.0174C165.932 36.0145 165.926 36.0136 165.92 36.0147C165.914 36.0158 165.909 36.0189 165.905 36.0235C165.901 36.0281 165.899 36.0339 165.899 36.0399V37.9533C165.899 37.9851 165.883 38.006 165.853 38.0159L165.76 38.0466C165.707 38.0636 165.68 38.0445 165.68 37.9893L165.663 35.7088C165.663 35.6664 165.683 35.6377 165.724 35.6229C165.958 35.5369 166.102 35.608 166.183 35.8457C166.373 36.4046 166.583 36.9547 166.812 37.4959C166.831 37.539 166.849 37.5387 166.868 37.4948C167.095 36.955 167.303 36.4128 167.494 35.868C167.577 35.6282 167.704 35.5136 167.954 35.6229C167.985 35.6363 168 35.6597 168 35.6929L167.998 37.983C167.998 38.0127 167.983 38.0261 167.953 38.0233L167.811 38.0127C167.764 38.0091 167.741 37.9833 167.743 37.9352C167.769 37.3049 167.758 36.6689 167.71 36.0272C167.707 35.9784 167.696 35.9766 167.678 36.0219Z" fill="#050D12"/>
<path id="Vector_8" d="M78.1046 47.6678C77.2924 48.5097 76.4088 49.2621 75.4537 49.925C74.3161 50.7145 71.9423 51.0541 72.7689 48.6621C74.0997 44.8058 77.4509 41.9554 81.5471 41.5256C81.5825 41.5221 81.6104 41.5055 81.6309 41.4758C82.129 40.7817 82.8138 40.4446 83.6854 40.4644C83.7307 40.4652 83.742 40.485 83.7194 40.5239L83.1102 41.5384C83.1057 41.546 83.1032 41.5547 83.1029 41.5636C83.1027 41.5725 83.1047 41.5814 83.1089 41.5892C83.113 41.5971 83.1192 41.6038 83.1266 41.6087C83.1341 41.6135 83.1427 41.6163 83.1516 41.6169C83.3989 41.6328 84.5195 41.6795 84.3317 42.156C84.3147 42.1998 84.2825 42.2193 84.2351 42.2144L82.8471 42.0785C82.8053 42.075 82.7745 42.0909 82.7547 42.1263C81.84 43.7407 80.9631 45.475 80.124 47.3293C79.7325 48.1931 78.6129 50.9564 80.8913 50.4046C81.2988 50.3063 81.8966 50.0261 82.6847 49.5642C84.8315 48.3067 86.4424 46.6247 87.927 44.6551C88.1201 44.3972 88.5244 44.6933 88.2655 45.018C87.1852 46.3679 85.9808 47.596 84.6521 48.7025C83.4923 49.6692 82.031 50.6911 80.5549 51.053C78.0929 51.6579 77.4233 49.5716 78.1513 47.6975C78.1532 47.6915 78.153 47.685 78.1509 47.6791C78.1487 47.6732 78.1447 47.6682 78.1393 47.6648C78.134 47.6614 78.1277 47.6598 78.1214 47.6604C78.1152 47.6609 78.1092 47.6636 78.1046 47.6678ZM74.6387 49.6438C75.6193 49.5642 77.5878 47.2359 78.1884 46.4559C79.2588 45.0637 80.2493 43.6134 81.1598 42.105C81.1775 42.0753 81.169 42.0622 81.1343 42.0658C77.9794 42.3629 75.441 46.2893 74.5273 49.058C74.458 49.2674 74.464 49.446 74.5454 49.5939C74.5659 49.6307 74.597 49.6473 74.6387 49.6438Z" fill="#050D12"/>
<path id="Vector_9" d="M43.7862 49.3614C43.7941 49.3498 43.7977 49.3359 43.7965 49.322C43.7953 49.3081 43.7893 49.2951 43.7796 49.2851C43.7698 49.2751 43.7569 49.2688 43.743 49.2672C43.7292 49.2656 43.7152 49.2689 43.7035 49.2765C42.8481 49.8219 41.545 50.4045 40.5273 50.1933C39.2878 49.9344 39.4831 48.8424 39.9267 47.9956C40.886 46.1619 42.3313 44.4194 43.4148 42.9082C43.6122 42.6334 43.7756 42.5358 44.1332 42.4848C44.4802 42.436 44.8198 42.3034 45.1658 42.3501C45.1956 42.3543 45.2238 42.366 45.2477 42.3842C45.2717 42.4024 45.2905 42.4265 45.3025 42.454C45.3144 42.4815 45.319 42.5116 45.3159 42.5413C45.3128 42.5711 45.302 42.5995 45.2846 42.6238C44.4873 43.7487 43.7187 44.8651 42.9787 45.973C42.464 46.7434 41.303 48.5411 41.5439 49.3571C41.5545 49.3911 41.5758 49.4158 41.6076 49.4314C41.9408 49.5927 42.5935 49.3157 42.9585 49.164C43.7664 48.8286 44.4007 48.2867 44.8612 47.5382C45.8679 45.9026 46.8835 44.2729 47.9079 42.6493C48.257 42.0975 49.0646 40.9896 49.6727 40.7413C49.7073 40.7271 49.7342 40.7363 49.7533 40.7689C50.0186 41.221 50.3646 41.6847 50.2531 42.1293C50.2008 42.338 49.9783 42.7165 49.5856 43.2648C48.0374 45.4265 46.0784 47.2549 44.5821 49.4208C41.3497 54.0996 37.9253 58.8526 34.3055 63.0062C33.937 63.4292 33.4608 63.9315 32.8772 64.513C29.9632 67.4133 26.5344 70.1957 22.2143 69.7797C19.5656 69.5251 18.2529 67.9152 18.7124 65.2209C18.7386 65.0695 18.8245 64.9609 18.9703 64.8951C18.9889 64.8864 19.0094 64.8825 19.0299 64.8836C19.0505 64.8848 19.0705 64.8909 19.0881 64.9016C19.1058 64.9123 19.1206 64.9271 19.1314 64.9448C19.1421 64.9626 19.1483 64.9826 19.1496 65.0033C19.2451 66.6758 20.7637 67.617 22.2589 67.9354C26.6215 68.8639 30.9363 65.6156 33.707 62.622C37.6865 58.3221 40.661 53.9669 43.7862 49.3614Z" fill="#050D12"/>
<path id="Vector_10" d="M83.0611 61.6329C82.9338 60.4667 80.7944 60.6577 80.0081 60.0114C79.522 59.6124 79.3586 59.0652 79.5178 58.3698C79.7948 57.1653 81.4852 56.9212 82.4371 57.2831C83.013 57.5024 83.4049 57.9347 83.6129 58.5799C83.6271 58.6216 83.6129 58.6485 83.5705 58.6605L83.025 58.8218C82.9953 58.8303 82.9745 58.8204 82.9624 58.7921C82.5698 57.9071 81.8793 57.5944 80.891 57.854C80.2426 58.0249 79.9508 58.9194 80.4898 59.3705C80.6129 59.473 80.8457 59.5724 81.1881 59.6687C82.366 59.9976 84.1053 60.1557 83.8337 61.9163C83.649 63.1143 82.4881 63.5271 81.3781 63.4465C80.3381 63.3701 79.5656 62.8161 79.2207 61.8038C79.2079 61.7677 79.2203 61.7447 79.2578 61.7348L79.8245 61.5958C79.8719 61.5837 79.9034 61.6007 79.9189 61.6467C80.1 62.1837 80.4276 62.5395 80.9016 62.7143C81.6741 63.0008 83.1906 62.8172 83.0611 61.6329Z" fill="#050D12"/>
<path id="Vector_11" d="M139.869 63.39C137.007 62.6959 137.436 56.4254 141.048 57.1894C144.034 57.8219 143.458 64.2601 139.869 63.39ZM139.242 58.4809C138.621 59.5251 138.557 61.5849 139.545 62.4773C140.065 62.9474 140.955 62.9262 141.448 62.4582C142.354 61.5997 142.422 59.2991 141.657 58.3387C141.004 57.5205 139.781 57.5746 139.242 58.4809Z" fill="#050D12"/>
<path id="Vector_12" d="M91.559 57.2515H90.848C90.8322 57.2515 90.8193 57.2643 90.8193 57.2801V63.3013C90.8193 63.3171 90.8322 63.33 90.848 63.33H91.559C91.5748 63.33 91.5876 63.3171 91.5876 63.3013V57.2801C91.5876 57.2643 91.5748 57.2515 91.559 57.2515Z" fill="#050D12"/>
<path id="Vector_13" d="M102.289 59.8021H105.004C105.014 59.8021 105.023 59.7984 105.029 59.7918C105.036 59.7852 105.039 59.7763 105.039 59.7671V57.2892C105.039 57.2799 105.043 57.271 105.05 57.2644C105.056 57.2578 105.065 57.2542 105.074 57.2542L105.774 57.2563C105.783 57.2563 105.792 57.26 105.798 57.2665C105.805 57.2731 105.809 57.282 105.809 57.2913V63.2955C105.809 63.3048 105.805 63.3137 105.798 63.3203C105.792 63.3268 105.783 63.3305 105.774 63.3305H105.074C105.065 63.3305 105.056 63.3268 105.05 63.3203C105.043 63.3137 105.039 63.3048 105.039 63.2955V60.4738C105.039 60.4645 105.036 60.4556 105.029 60.449C105.023 60.4425 105.014 60.4388 105.004 60.4388H102.289C102.284 60.4388 102.28 60.4397 102.275 60.4415C102.271 60.4432 102.267 60.4458 102.264 60.449C102.261 60.4523 102.258 60.4562 102.256 60.4604C102.255 60.4647 102.254 60.4692 102.254 60.4738V63.2955C102.254 63.3048 102.25 63.3137 102.243 63.3203C102.237 63.3268 102.228 63.3305 102.219 63.3305H101.519C101.515 63.3305 101.51 63.3296 101.506 63.3279C101.502 63.3261 101.498 63.3235 101.495 63.3203C101.491 63.317 101.489 63.3132 101.487 63.3089C101.485 63.3047 101.484 63.3001 101.484 63.2955V57.2902C101.484 57.2856 101.485 57.2811 101.487 57.2768C101.489 57.2726 101.491 57.2687 101.495 57.2655C101.498 57.2622 101.502 57.2596 101.506 57.2579C101.51 57.2561 101.515 57.2552 101.519 57.2552H102.219C102.228 57.2552 102.237 57.2589 102.243 57.2655C102.25 57.272 102.254 57.2809 102.254 57.2902V59.7671C102.254 59.7717 102.255 59.7762 102.256 59.7805C102.258 59.7847 102.261 59.7886 102.264 59.7918C102.267 59.7951 102.271 59.7976 102.275 59.7994C102.28 59.8012 102.284 59.8021 102.289 59.8021Z" fill="#050D12"/>
<path id="Vector_14" d="M122.222 57.8923H120.569C120.559 57.8923 120.55 57.8885 120.543 57.8817C120.537 57.8749 120.533 57.8657 120.533 57.8562V57.2895C120.533 57.2799 120.537 57.2708 120.543 57.264C120.55 57.2572 120.559 57.2534 120.569 57.2534L124.741 57.2566C124.751 57.2566 124.76 57.2604 124.767 57.2672C124.774 57.2739 124.777 57.2831 124.777 57.2927V57.8562C124.777 57.8657 124.774 57.8749 124.767 57.8817C124.76 57.8885 124.751 57.8923 124.741 57.8923H123.063C123.053 57.8923 123.044 57.8961 123.037 57.9028C123.03 57.9096 123.027 57.9188 123.027 57.9283V63.2948C123.027 63.3043 123.023 63.3135 123.016 63.3203C123.009 63.3271 123 63.3309 122.99 63.3309H122.293C122.284 63.3309 122.274 63.3271 122.268 63.3203C122.261 63.3135 122.257 63.3043 122.257 63.2948L122.258 57.9283C122.258 57.9188 122.254 57.9096 122.248 57.9028C122.241 57.8961 122.232 57.8923 122.222 57.8923Z" fill="#050D12"/>
<path id="Vector_15" d="M88.6037 57.2554H89.3073C89.315 57.2553 89.3227 57.2575 89.3293 57.2615C89.3359 57.2656 89.3412 57.2715 89.3447 57.2785C89.3481 57.2855 89.3495 57.2933 89.3487 57.301C89.3479 57.3087 89.3449 57.3161 89.3402 57.3222L87.7452 59.3576C87.7403 59.3638 87.7373 59.3714 87.7365 59.3793C87.7358 59.3872 87.7373 59.3951 87.7409 59.4022L89.8283 63.2691C89.8316 63.2754 89.8332 63.2824 89.833 63.2895C89.8328 63.2965 89.8308 63.3034 89.8271 63.3095C89.8235 63.3155 89.8184 63.3205 89.8123 63.3241C89.8062 63.3276 89.7993 63.3295 89.7922 63.3296L89.0579 63.3318C89.0504 63.3316 89.0431 63.3295 89.0368 63.3256C89.0304 63.3217 89.0252 63.3161 89.0218 63.3095L87.2496 60.023C87.2464 60.0169 87.2417 60.0117 87.236 60.0079C87.2303 60.0041 87.2237 60.0018 87.2168 60.0011C87.21 60.0005 87.2031 60.0016 87.1968 60.0043C87.1905 60.007 87.1849 60.0112 87.1806 60.0166L85.8414 61.6922C85.8352 61.6997 85.8318 61.7091 85.8319 61.7187V63.2893C85.8319 63.3003 85.8275 63.3108 85.8197 63.3186C85.812 63.3263 85.8015 63.3307 85.7905 63.3307H85.1039C85.0929 63.3307 85.0824 63.3263 85.0746 63.3186C85.0669 63.3108 85.0625 63.3003 85.0625 63.2893V57.2968C85.0625 57.2858 85.0669 57.2753 85.0746 57.2675C85.0824 57.2597 85.0929 57.2554 85.1039 57.2554H85.7905C85.8015 57.2554 85.812 57.2597 85.8197 57.2675C85.8275 57.2753 85.8319 57.2858 85.8319 57.2968V60.666C85.8318 60.6747 85.8344 60.6832 85.8395 60.6903C85.8445 60.6974 85.8516 60.7027 85.8598 60.7055C85.868 60.7084 85.8769 60.7085 85.8853 60.706C85.8936 60.7035 85.9009 60.6984 85.9061 60.6915L88.5708 57.2713C88.5747 57.2663 88.5797 57.2623 88.5854 57.2595C88.5911 57.2567 88.5974 57.2553 88.6037 57.2554Z" fill="#050D12"/>
<path id="Vector_16" d="M96.9806 62.1082L96.9711 57.3106C96.9711 57.2738 96.9895 57.2554 97.0263 57.2554H97.5314C97.5668 57.2554 97.5844 57.2731 97.5844 57.3084V63.266C97.5844 63.3119 97.5618 63.3346 97.5165 63.3339L96.9116 63.3243C96.8642 63.3236 96.8282 63.3024 96.8034 63.2607L93.7737 58.1213C93.7714 58.1169 93.7677 58.1135 93.7632 58.1116C93.7587 58.1097 93.7536 58.1093 93.7488 58.1107C93.7439 58.112 93.7396 58.1149 93.7364 58.1189C93.7333 58.123 93.7315 58.1279 93.7313 58.133L93.7408 63.2628C93.7408 63.3081 93.7182 63.3307 93.6729 63.3307H93.207C93.154 63.3307 93.1274 63.3042 93.1274 63.2511V57.3212C93.1274 57.2773 93.1494 57.2554 93.1932 57.2554H94.0231C94.0599 57.2554 94.0878 57.2713 94.1069 57.3031L96.9424 62.1188C96.9679 62.162 96.9806 62.1584 96.9806 62.1082Z" fill="#050D12"/>
<path id="Vector_17" d="M108.117 57.925V59.8224C108.117 59.8311 108.121 59.8395 108.127 59.8457C108.133 59.8518 108.141 59.8553 108.15 59.8553H110.525C110.534 59.8553 110.542 59.8588 110.548 59.8649C110.554 59.8711 110.558 59.8795 110.558 59.8882V60.4326C110.558 60.4413 110.554 60.4497 110.548 60.4558C110.542 60.462 110.534 60.4655 110.525 60.4655H108.15C108.141 60.4655 108.133 60.4689 108.127 60.4751C108.121 60.4813 108.117 60.4896 108.117 60.4984V62.6611C108.117 62.6698 108.121 62.6782 108.127 62.6843C108.133 62.6905 108.141 62.694 108.15 62.694H111.24C111.249 62.694 111.257 62.6974 111.263 62.7036C111.27 62.7098 111.273 62.7181 111.273 62.7269L111.275 63.2978C111.275 63.3065 111.272 63.3149 111.266 63.3211C111.259 63.3272 111.251 63.3307 111.242 63.3307H107.38C107.371 63.3307 107.362 63.3272 107.356 63.3211C107.35 63.3149 107.347 63.3065 107.347 63.2978L107.349 57.2883C107.349 57.2795 107.352 57.2712 107.358 57.265C107.365 57.2588 107.373 57.2554 107.382 57.2554H111.163C111.171 57.2554 111.18 57.2588 111.186 57.265C111.192 57.2712 111.196 57.2795 111.196 57.2883L111.193 57.8592C111.193 57.8679 111.19 57.8763 111.184 57.8825C111.178 57.8886 111.169 57.8921 111.161 57.8921H108.15C108.141 57.8921 108.133 57.8956 108.127 57.9017C108.121 57.9079 108.117 57.9163 108.117 57.925Z" fill="#050D12"/>
<path id="Vector_18" d="M112.812 61.5765L112.294 63.2638C112.28 63.3077 112.251 63.3296 112.206 63.3296L111.702 63.3307C111.66 63.3314 111.646 63.3119 111.658 63.2723L113.597 57.3201C113.611 57.2769 113.641 57.2554 113.686 57.2554H114.456C114.495 57.2554 114.521 57.2741 114.534 57.3116L116.451 63.2479C116.462 63.2833 116.449 63.3038 116.412 63.3095C116.268 63.3328 115.734 63.4071 115.671 63.214C115.494 62.672 115.306 62.134 115.106 61.5999C115.094 61.5688 115.072 61.5532 115.039 61.5532H112.843C112.827 61.5532 112.817 61.561 112.812 61.5765ZM113.066 60.8995C113.065 60.9044 113.064 60.9097 113.065 60.9148C113.066 60.92 113.068 60.9249 113.071 60.9291C113.074 60.9334 113.078 60.9368 113.082 60.9392C113.087 60.9417 113.092 60.943 113.097 60.943H114.899C114.904 60.943 114.909 60.9417 114.914 60.9392C114.919 60.9368 114.923 60.9334 114.926 60.9291C114.929 60.9249 114.931 60.92 114.931 60.9148C114.932 60.9097 114.932 60.9044 114.93 60.8995L114.029 58.1521C114.027 58.1458 114.022 58.1404 114.017 58.1366C114.011 58.1328 114.005 58.1308 113.998 58.1308C113.992 58.1308 113.985 58.1328 113.979 58.1366C113.974 58.1404 113.97 58.1458 113.967 58.1521L113.066 60.8995Z" fill="#050D12"/>
<path id="Vector_19" d="M118.118 62.694H120.826C120.84 62.694 120.853 62.6995 120.863 62.7092C120.872 62.719 120.878 62.7322 120.878 62.746V63.2787C120.878 63.2925 120.872 63.3057 120.863 63.3155C120.853 63.3252 120.84 63.3307 120.826 63.3307H117.348C117.335 63.3307 117.321 63.3252 117.312 63.3155C117.302 63.3057 117.296 63.2925 117.296 63.2787V57.3074C117.296 57.3005 117.298 57.2938 117.3 57.2875C117.303 57.2812 117.307 57.2754 117.312 57.2706C117.316 57.2658 117.322 57.2619 117.328 57.2593C117.335 57.2567 117.342 57.2554 117.348 57.2554H118.014C118.021 57.2554 118.027 57.2567 118.034 57.2593C118.04 57.2619 118.046 57.2658 118.051 57.2706C118.055 57.2754 118.059 57.2812 118.062 57.2875C118.064 57.2938 118.066 57.3005 118.066 57.3074V62.642C118.066 62.6488 118.067 62.6556 118.07 62.6619C118.072 62.6682 118.076 62.6739 118.081 62.6787C118.086 62.6836 118.092 62.6874 118.098 62.69C118.104 62.6926 118.111 62.694 118.118 62.694Z" fill="#050D12"/>
<path id="Vector_20" d="M126.423 60.4782V63.2914C126.423 63.3018 126.419 63.3118 126.411 63.3192C126.404 63.3266 126.394 63.3307 126.383 63.3307H125.693C125.682 63.3307 125.672 63.3266 125.665 63.3192C125.657 63.3118 125.653 63.3018 125.653 63.2914V57.2946C125.653 57.2842 125.657 57.2742 125.665 57.2669C125.672 57.2595 125.682 57.2554 125.693 57.2554H126.383C126.394 57.2554 126.404 57.2595 126.411 57.2669C126.419 57.2742 126.423 57.2842 126.423 57.2946V59.763C126.423 59.7734 126.427 59.7834 126.434 59.7907C126.442 59.7981 126.452 59.8022 126.462 59.8022H129.169C129.179 59.8022 129.189 59.7981 129.197 59.7907C129.204 59.7834 129.208 59.7734 129.208 59.763V57.2946C129.208 57.2842 129.212 57.2742 129.22 57.2669C129.227 57.2595 129.237 57.2554 129.248 57.2554H129.938C129.949 57.2554 129.959 57.2595 129.966 57.2669C129.974 57.2742 129.978 57.2842 129.978 57.2946V63.2914C129.978 63.3018 129.974 63.3118 129.966 63.3192C129.959 63.3266 129.949 63.3307 129.938 63.3307H129.248C129.237 63.3307 129.227 63.3266 129.22 63.3192C129.212 63.3118 129.208 63.3018 129.208 63.2914V60.4782C129.208 60.4731 129.207 60.4679 129.205 60.4632C129.203 60.4584 129.2 60.4541 129.197 60.4504C129.193 60.4468 129.189 60.4439 129.184 60.4419C129.179 60.44 129.174 60.4389 129.169 60.4389H126.462C126.457 60.4389 126.452 60.44 126.447 60.4419C126.442 60.4439 126.438 60.4468 126.434 60.4504C126.431 60.4541 126.428 60.4584 126.426 60.4632C126.424 60.4679 126.423 60.4731 126.423 60.4782Z" fill="#050D12"/>
<path id="Vector_21" d="M134.619 57.9324L134.621 59.815C134.621 59.8257 134.625 59.8359 134.633 59.8435C134.64 59.851 134.651 59.8553 134.661 59.8553H136.994C137.005 59.8553 137.015 59.8595 137.022 59.8671C137.03 59.8747 137.034 59.8849 137.034 59.8956V60.4251C137.034 60.4358 137.03 60.4461 137.022 60.4537C137.015 60.4612 137.005 60.4655 136.994 60.4655H134.66C134.65 60.4655 134.639 60.4697 134.632 60.4773C134.624 60.4848 134.62 60.4951 134.62 60.5058V63.2904C134.62 63.3011 134.616 63.3113 134.608 63.3189C134.601 63.3264 134.59 63.3307 134.58 63.3307H133.891C133.886 63.3307 133.88 63.3296 133.875 63.3276C133.871 63.3256 133.866 63.3226 133.862 63.3189C133.859 63.3151 133.856 63.3107 133.854 63.3058C133.852 63.3009 133.851 63.2957 133.851 63.2904V57.2957C133.851 57.2904 133.852 57.2852 133.854 57.2803C133.856 57.2754 133.859 57.2709 133.862 57.2672C133.866 57.2634 133.871 57.2605 133.875 57.2584C133.88 57.2564 133.886 57.2554 133.891 57.2554H137.498C137.509 57.2554 137.519 57.2596 137.526 57.2672C137.534 57.2747 137.538 57.285 137.538 57.2957V57.8518C137.538 57.8625 137.534 57.8727 137.526 57.8803C137.519 57.8878 137.509 57.8921 137.498 57.8921H134.659C134.649 57.8921 134.638 57.8963 134.631 57.9039C134.623 57.9115 134.619 57.9217 134.619 57.9324Z" fill="#050D12"/>
<path id="Vector_22" d="M144.887 60.7837V63.2647C144.887 63.3086 144.865 63.3305 144.82 63.3305H144.237C144.193 63.3305 144.171 63.3082 144.171 63.2637V57.3062C144.171 57.2997 144.172 57.2934 144.175 57.2875C144.177 57.2815 144.18 57.2762 144.185 57.2716C144.189 57.2671 144.195 57.2635 144.2 57.2611C144.206 57.2586 144.212 57.2573 144.219 57.2573C144.884 57.2531 145.552 57.2531 146.221 57.2573C146.73 57.2602 147.088 57.2941 147.295 57.3592C148.782 57.8293 148.878 59.8838 147.422 60.4982C147.413 60.5019 147.405 60.5074 147.398 60.5143C147.392 60.5211 147.386 60.5293 147.383 60.5383C147.379 60.5473 147.377 60.5569 147.377 60.5666C147.377 60.5763 147.379 60.5859 147.383 60.5948L148.475 63.2393C148.496 63.2881 148.479 63.3132 148.426 63.3146L147.807 63.3369C147.759 63.339 147.726 63.3182 147.708 63.2743L146.66 60.7561C146.646 60.7214 146.619 60.7041 146.582 60.7041H144.967C144.914 60.7041 144.887 60.7306 144.887 60.7837ZM144.885 57.9567V60.0005C144.885 60.0185 144.892 60.0358 144.905 60.0485C144.918 60.0613 144.935 60.0684 144.953 60.0684H146.571C146.87 60.0684 147.156 59.957 147.367 59.7585C147.579 59.5601 147.697 59.291 147.697 59.0104V58.9468C147.697 58.6662 147.579 58.397 147.367 58.1986C147.156 58.0002 146.87 57.8887 146.571 57.8887H144.953C144.935 57.8887 144.918 57.8959 144.905 57.9086C144.892 57.9214 144.885 57.9386 144.885 57.9567Z" fill="#050D12"/>
<path id="Vector_23" d="M152.93 62.6919L155.628 62.6982C155.643 62.6982 155.658 62.7043 155.668 62.715C155.679 62.7258 155.685 62.7403 155.685 62.7555V63.2713C155.685 63.2865 155.679 63.301 155.668 63.3118C155.658 63.3225 155.643 63.3286 155.628 63.3286L152.161 63.3318C152.146 63.3318 152.131 63.3257 152.12 63.315C152.11 63.3042 152.104 63.2896 152.104 63.2744V57.3127C152.104 57.2975 152.11 57.2829 152.12 57.2722C152.131 57.2614 152.146 57.2554 152.161 57.2554H152.816C152.831 57.2554 152.845 57.2614 152.856 57.2722C152.867 57.2829 152.873 57.2975 152.873 57.3127V62.6346C152.873 62.6497 152.879 62.6643 152.89 62.6751C152.9 62.6858 152.915 62.6919 152.93 62.6919Z" fill="#050D12"/>
<path id="Vector_24" d="M157.301 57.2566H156.641C156.611 57.2566 156.586 57.2813 156.586 57.3118V63.2757C156.586 63.3061 156.611 63.3309 156.641 63.3309H157.301C157.332 63.3309 157.356 63.3061 157.356 63.2757V57.3118C157.356 57.2813 157.332 57.2566 157.301 57.2566Z" fill="#050D12"/>
<path id="Vector_25" d="M159.698 59.8553H162.045C162.054 59.8553 162.062 59.8589 162.069 59.8652C162.075 59.8716 162.079 59.8802 162.079 59.8892V60.4315C162.079 60.4405 162.075 60.4492 162.069 60.4555C162.062 60.4619 162.054 60.4655 162.045 60.4655H159.698C159.689 60.4655 159.681 60.4691 159.674 60.4754C159.668 60.4818 159.664 60.4904 159.664 60.4994V63.2967C159.664 63.3057 159.661 63.3144 159.654 63.3207C159.648 63.3271 159.639 63.3307 159.63 63.3307H158.929C158.92 63.3307 158.911 63.3271 158.905 63.3207C158.899 63.3144 158.895 63.3057 158.895 63.2967V57.2893C158.895 57.2803 158.899 57.2717 158.905 57.2653C158.911 57.2589 158.92 57.2554 158.929 57.2554H162.549C162.558 57.2554 162.566 57.2589 162.573 57.2653C162.579 57.2717 162.583 57.2803 162.583 57.2893V57.8581C162.583 57.8671 162.579 57.8758 162.573 57.8821C162.566 57.8885 162.558 57.8921 162.549 57.8921H159.698C159.689 57.8921 159.681 57.8957 159.674 57.902C159.668 57.9084 159.664 57.917 159.664 57.926V59.8213C159.664 59.8303 159.668 59.839 159.674 59.8453C159.681 59.8517 159.689 59.8553 159.698 59.8553Z" fill="#050D12"/>
<path id="Vector_26" d="M164.329 57.9324L164.335 59.815C164.335 59.8257 164.34 59.8359 164.347 59.8435C164.355 59.851 164.365 59.8553 164.376 59.8553H166.734C166.744 59.8553 166.755 59.8595 166.762 59.8671C166.77 59.8747 166.774 59.8849 166.774 59.8956V60.4251C166.774 60.4358 166.77 60.4461 166.762 60.4537C166.755 60.4612 166.744 60.4655 166.734 60.4655H164.374C164.368 60.4655 164.363 60.4665 164.358 60.4685C164.353 60.4706 164.349 60.4735 164.345 60.4773C164.341 60.481 164.338 60.4855 164.336 60.4904C164.334 60.4953 164.333 60.5005 164.333 60.5058V62.6537C164.333 62.6589 164.334 62.6642 164.336 62.6691C164.338 62.674 164.341 62.6784 164.345 62.6822C164.349 62.6859 164.353 62.6889 164.358 62.6909C164.363 62.6929 164.368 62.694 164.374 62.694H167.45C167.461 62.694 167.471 62.6982 167.479 62.7058C167.486 62.7134 167.49 62.7236 167.49 62.7343V63.2904C167.49 63.3011 167.486 63.3113 167.479 63.3189C167.471 63.3264 167.461 63.3307 167.45 63.3307H163.604C163.594 63.3307 163.583 63.3264 163.576 63.3189C163.568 63.3113 163.564 63.3011 163.564 63.2904V57.2957C163.564 57.285 163.568 57.2747 163.576 57.2672C163.583 57.2596 163.594 57.2554 163.604 57.2554H167.37C167.381 57.2554 167.391 57.2596 167.399 57.2672C167.407 57.2747 167.411 57.285 167.411 57.2957V57.8518C167.411 57.8625 167.407 57.8727 167.399 57.8803C167.391 57.8878 167.381 57.8921 167.37 57.8921H164.369C164.359 57.8921 164.348 57.8963 164.341 57.9039C164.333 57.9115 164.329 57.9217 164.329 57.9324Z" fill="#050D12"/>
</g>
</g>
</svg>
