<svg width="180" height="70" viewBox="0 0 180 70" fill="none" xmlns="http://www.w3.org/2000/svg">
<g id="Logo">
<g id="Group 89">
<g id="Group">
<path id="Vector" d="M20.2388 44.4309C20.5274 44.486 20.8153 44.4749 21.1025 44.3977" stroke="#050D12" stroke-width="2"/>
<path id="Vector_2" d="M21.1021 44.3977C22.7646 44.1716 23.9563 43.2928 24.6772 41.7615C24.7597 41.5858 24.7604 41.4333 24.6795 41.3042" stroke="#050D12" stroke-width="2"/>
<path id="Vector_3" d="M22.1859 42.416C19.7712 42.5868 18.1526 40.4343 18.2854 38.1637C18.2892 38.1004 18.317 38.0409 18.363 37.9974C18.409 37.9539 18.4698 37.9298 18.5329 37.9299C20.187 37.9245 21.8125 37.9115 23.4093 37.8909C23.8927 37.884 24.6522 37.9161 24.7175 37.2548C24.9054 35.3269 23.5846 33.9194 21.7575 33.532" stroke="#050D12" stroke-width="2"/>
<path id="Vector_4" d="M44.5831 43.2848C44.6023 43.2716 44.6248 43.2639 44.6481 43.2626C44.6714 43.2612 44.6946 43.2664 44.7152 43.2774C44.7358 43.2884 44.753 43.3049 44.7648 43.325C44.7767 43.3451 44.7828 43.3681 44.7824 43.3914C44.779 43.6665 44.5407 44.8345 45.1215 44.6201C46.4029 44.1456 47.6389 43.8346 48.8295 43.6871C48.8723 43.6818 48.9032 43.66 48.9223 43.6218C49.0628 43.3452 49.0567 43.072 48.904 42.8023C48.8841 42.7679 48.8559 42.7572 48.8192 42.7702C48.5259 42.8745 47.6565 43.1943 47.5156 42.7381C47.3415 42.1719 47.2552 41.4834 47.2567 40.6727C47.2647 35.7109 47.2785 30.7525 47.3323 25.7919C47.3331 25.7536 47.3209 25.7204 47.2957 25.6921C47.1777 25.5615 47.0505 25.5214 46.8776 25.5981C45.9291 26.0207 44.9638 26.4024 43.9817 26.7432C43.7469 26.8234 43.6392 26.9655 43.7148 27.2074C43.8649 27.6808 44.6392 27.6808 44.6782 28.3799C44.7461 29.5773 44.7561 31.2106 44.708 33.2798C44.7049 33.4159 44.6889 33.5247 44.6598 33.6065C44.6423 33.6554 44.6083 33.6741 44.5579 33.6627C41.252 32.9257 38.1442 34.8066 37.4798 38.1729C37.0376 40.4125 37.8246 42.9903 39.9873 44.0058C41.7743 44.8436 43.0882 44.3141 44.5831 43.2848Z" stroke="#050D12" stroke-width="2"/>
<path id="Vector_5" d="M29.3971 34.6702C29.3757 34.6397 29.3654 34.6053 29.3661 34.5671L29.3982 33.3338C29.3997 33.2902 29.3814 33.2577 29.3432 33.2363L29.1817 33.1481C29.1435 33.1267 29.1053 33.1271 29.0672 33.1492C28.0774 33.7124 27.0415 34.172 25.9594 34.5281C25.9136 34.5434 25.8903 34.5755 25.8895 34.6244L25.8849 35.0943C25.8842 35.1371 25.9036 35.1665 25.9434 35.1826C26.8139 35.5253 26.8414 36.1935 26.8426 37.0909C26.8449 38.6872 26.8307 40.2831 26.8002 41.8785C26.7773 43.0155 26.5218 43.2345 25.4095 43.3651C25.3683 43.3697 25.3389 43.3907 25.3213 43.4282C25.2152 43.6536 25.2251 43.8721 25.3511 44.0838C25.3702 44.1159 25.3985 44.1308 25.4359 44.1285C27.1305 44.0299 28.8255 44.028 30.5208 44.1228C30.6102 44.1281 30.6705 44.0884 30.7018 44.0036C30.7721 43.811 30.7667 43.6219 30.6858 43.4362C30.669 43.3972 30.6396 43.3747 30.5976 43.3686C29.6182 43.2264 29.3764 42.9158 29.3753 41.9336C29.373 40.4481 29.373 38.9627 29.3753 37.4772C29.3761 36.8308 29.4349 36.3765 29.5517 36.1144C30.105 34.8742 32.002 34.7023 32.7958 35.7488C33.1624 36.2336 33.2345 36.9144 33.2357 37.5208C33.2403 39.1403 33.3823 40.9685 33.1509 42.5628C33.0558 43.2138 32.5358 43.2792 31.9916 43.372C31.9504 43.3789 31.9218 43.4014 31.9057 43.4396C31.8103 43.6605 31.8198 43.8733 31.9344 44.0781C31.9527 44.1117 31.9813 44.1273 32.0203 44.125C33.6393 44.0326 35.2583 44.0272 36.8773 44.109C36.9842 44.1144 37.0941 44.1144 37.2072 44.109C37.2507 44.1067 37.2816 44.0857 37.2999 44.046C37.3923 43.8427 37.3931 43.6398 37.3022 43.4373C37.2854 43.3984 37.256 43.3758 37.214 43.3697C36.0284 43.1909 35.7821 43.0075 35.7867 41.7616C35.7936 40.1501 35.7909 38.5382 35.7787 36.9259C35.7734 36.1794 35.6611 35.5658 35.4419 35.0851C34.5965 33.2295 32.3594 33.1515 30.8049 34.0513C30.3184 34.3332 29.937 34.5617 29.6605 34.7367C29.5483 34.8066 29.4681 34.7711 29.3971 34.6702Z" stroke="#050D12" stroke-width="2"/>
<path id="Vector_6" d="M53.5431 44.1664C56.7333 44.6581 59.5524 42.5995 59.6715 39.2928C59.7472 37.1896 59.0759 35.4325 57.3003 34.394C54.5591 32.7905 50.8328 33.9436 49.6861 36.9558C48.4696 40.1502 49.9737 43.6151 53.5431 44.1664Z" stroke="#050D12" stroke-width="2"/>
<path id="Vector_7" d="M44.6951 36.6324C44.6607 35.288 43.7924 34.3997 42.4648 34.5693C41.144 34.7378 40.3616 36.1728 40.1955 37.3981C39.9993 38.8377 40.1837 40.1367 40.7488 41.2951C41.4006 42.6338 43.0616 43.3204 44.3801 42.4218C44.5855 42.2812 44.692 42.1089 44.6997 41.9049C44.7508 40.5249 44.7493 38.7674 44.6951 36.6324Z" stroke="#050D12" stroke-width="2"/>
<path id="Vector_8" d="M21.1024 44.3977L20.3818 44.4023" stroke="#050D12" stroke-width="2"/>
<path id="Vector_9" d="M21.6703 34.7081C20.1342 34.0272 18.7516 35.1826 18.4503 36.6646C18.446 36.6859 18.4463 36.708 18.4511 36.7292C18.456 36.7504 18.4653 36.7703 18.4784 36.7876C18.4915 36.8049 18.5082 36.8191 18.5273 36.8293C18.5463 36.8395 18.5673 36.8455 18.5889 36.8468C19.4878 36.9103 20.4003 36.9137 21.3267 36.8572" stroke="#050D12" stroke-width="2"/>
<path id="Vector_10" d="M55.943 42.6579C57.2786 41.1679 57.0621 36.8651 55.7425 35.351C54.9212 34.4089 53.5649 34.473 52.8902 35.5482C51.8214 37.2491 51.7252 42.2762 54.0701 43.1175C54.7333 43.3548 55.4619 43.1943 55.943 42.6579Z" stroke="#050D12" stroke-width="2"/>
</g>
<path id="Vector_11" d="M20.2384 44.4311C20.5271 44.4861 20.815 44.475 21.1021 44.3979C22.7646 44.1717 23.9563 43.2929 24.6773 41.7616C24.7597 41.5859 24.7605 41.4335 24.6795 41.3043C24.6643 40.8504 24.4382 40.6334 24.0014 40.6533C23.9632 40.6548 23.9342 40.6716 23.9143 40.7037C23.4848 41.4075 23.0243 42.1181 22.1858 42.4161C19.771 42.5869 18.1524 40.4344 18.2853 38.1638C18.2891 38.1004 18.3168 38.041 18.3628 37.9975C18.4088 37.954 18.4696 37.9299 18.5327 37.93C20.1869 37.9246 21.8123 37.9116 23.4092 37.891C23.8926 37.8841 24.6521 37.9162 24.7173 37.2549C24.9052 35.327 23.5844 33.9195 21.7573 33.5321C19.5977 33.218 17.9184 33.9432 16.7194 35.7075C16.682 35.7618 16.6652 35.756 16.669 35.6903C16.6988 35.2341 16.7503 34.7841 16.8236 34.3401C18.8409 22.0749 31.8997 15.2941 43.0822 20.9103C43.1181 20.9287 43.1452 20.9195 43.1635 20.8828C48.0709 11.0417 57.133 4.60136 67.9844 3.00015C67.9924 2.99938 68.0005 3.00155 68.007 3.00626C68.0135 3.01096 68.0181 3.01788 68.02 3.02572C68.0218 3.03357 68.0207 3.04181 68.0169 3.04891C68.0131 3.05601 68.0069 3.06149 67.9993 3.06434C67.7278 3.14686 67.3727 3.19042 67.1333 3.24429C57.0265 5.54123 48.9598 12.3404 44.8119 21.8032C44.8016 21.8268 44.7998 21.8532 44.8069 21.8779C44.814 21.9026 44.8296 21.924 44.8508 21.9385C48.909 24.7 51.5036 28.4809 52.6346 33.2811C52.643 33.3147 52.6636 33.3261 52.6964 33.3154C54.2773 32.8027 55.7794 32.899 57.2029 33.6043C61.7529 35.8588 61.6097 42.4287 56.9257 44.4368C55.2196 45.1688 53.4777 45.0875 51.6999 44.1927C51.6617 44.1736 51.6342 44.1835 51.6174 44.2225C50.5352 46.7617 48.9659 48.9497 46.9093 50.7867C46.878 50.8142 46.8734 50.8459 46.8956 50.8818C57.5053 68.2487 81.1704 71.3525 96.0082 57.3772C96.2778 57.1235 96.2877 57.1334 96.038 57.407C92.0001 61.8312 86.5406 65.0279 80.8348 66.6016C67.0531 70.4001 52.3482 64.5752 44.7993 52.4968C44.7899 52.4819 44.7749 52.4713 44.7577 52.4675C44.7406 52.4636 44.7225 52.4667 44.7077 52.4761C34.8345 58.8489 22.101 54.4304 17.8065 43.7228C17.8038 43.7162 17.8033 43.7089 17.8051 43.702C17.8069 43.6951 17.8108 43.689 17.8163 43.6845C17.8218 43.68 17.8286 43.6774 17.8357 43.6771C17.8428 43.6767 17.8498 43.6787 17.8557 43.6826C18.5858 44.164 19.38 44.4135 20.2384 44.4311ZM44.5828 43.2849C44.602 43.2717 44.6245 43.2639 44.6478 43.2626C44.6711 43.2613 44.6943 43.2664 44.7149 43.2774C44.7355 43.2885 44.7527 43.3049 44.7645 43.325C44.7764 43.3452 44.7825 43.3682 44.7821 43.3915C44.7787 43.6666 44.5404 44.8345 45.1212 44.6202C46.4026 44.1457 47.6386 43.8347 48.8292 43.6872C48.872 43.6819 48.9029 43.6601 48.922 43.6219C49.0625 43.3453 49.0564 43.0721 48.9037 42.8024C48.8838 42.768 48.8555 42.7573 48.8189 42.7703C48.5256 42.8746 47.6562 43.1944 47.5153 42.7382C47.3412 42.172 47.2549 41.4835 47.2564 40.6728C47.2644 35.711 47.2782 30.7526 47.332 25.7919C47.3328 25.7537 47.3206 25.7205 47.2954 25.6922C47.1774 25.5615 47.0502 25.5214 46.8773 25.5982C45.9288 26.0208 44.9635 26.4025 43.9814 26.7433C43.7466 26.8235 43.6389 26.9656 43.7145 27.2075C43.8646 27.6808 44.6389 27.6808 44.6779 28.38C44.7458 29.5774 44.7558 31.2107 44.7077 33.2799C44.7046 33.4159 44.6886 33.5248 44.6595 33.6066C44.642 33.6555 44.608 33.6742 44.5576 33.6627C41.2516 32.9257 38.1439 34.8066 37.4795 38.173C37.0373 40.4126 37.8243 42.9903 39.987 44.0059C41.774 44.8437 43.0879 44.3142 44.5828 43.2849ZM29.3968 34.6702C29.3754 34.6397 29.3651 34.6053 29.3658 34.5671L29.3979 33.3338C29.3994 33.2902 29.3811 33.2578 29.3429 33.2364L29.1814 33.1481C29.1432 33.1267 29.105 33.1271 29.0668 33.1492C28.0771 33.7124 27.0412 34.172 25.9591 34.5281C25.9133 34.5434 25.89 34.5755 25.8892 34.6244L25.8846 35.0943C25.8839 35.1371 25.9033 35.1665 25.943 35.1826C26.8136 35.5253 26.8411 36.1935 26.8423 37.091C26.8446 38.6872 26.8304 40.2831 26.7999 41.8786C26.777 43.0156 26.5215 43.2345 25.4092 43.3651C25.368 43.3697 25.3386 43.3907 25.321 43.4282C25.2149 43.6536 25.2248 43.8721 25.3508 44.0838C25.3699 44.1159 25.3982 44.1308 25.4356 44.1285C27.1302 44.0299 28.8251 44.028 30.5205 44.1228C30.6099 44.1281 30.6702 44.0884 30.7015 44.0036C30.7718 43.811 30.7664 43.6219 30.6855 43.4362C30.6687 43.3972 30.6393 43.3747 30.5973 43.3686C29.6178 43.2265 29.3761 42.9158 29.375 41.9336C29.3727 40.4481 29.3727 38.9627 29.375 37.4772C29.3758 36.8308 29.4346 36.3765 29.5514 36.1144C30.1047 34.8743 32.0016 34.7023 32.7955 35.7488C33.1621 36.2336 33.2342 36.9144 33.2354 37.5208C33.2399 39.1403 33.382 40.9685 33.1506 42.5628C33.0555 43.2138 32.5355 43.2792 31.9913 43.372C31.9501 43.3789 31.9215 43.4014 31.9054 43.4396C31.81 43.6605 31.8195 43.8733 31.9341 44.0781C31.9524 44.1117 31.981 44.1274 32.02 44.1251C33.639 44.0326 35.258 44.0273 36.8769 44.109C36.9839 44.1144 37.0938 44.1144 37.2069 44.109C37.2504 44.1067 37.2813 44.0857 37.2996 44.046C37.392 43.8427 37.3928 43.6398 37.3019 43.4374C37.2851 43.3984 37.2557 43.3758 37.2137 43.3697C36.0281 43.1909 35.7818 43.0075 35.7864 41.7616C35.7933 40.1501 35.7906 38.5382 35.7784 36.9259C35.7731 36.1794 35.6608 35.5658 35.4416 35.0851C34.5962 33.2295 32.359 33.1515 30.8046 34.0513C30.3181 34.3333 29.9367 34.5617 29.6602 34.7367C29.548 34.8066 29.4678 34.7711 29.3968 34.6702ZM53.543 44.1663C56.7332 44.658 59.5523 42.5995 59.6715 39.2928C59.7471 37.1895 59.0758 35.4324 57.3003 34.394C54.559 32.7905 50.8327 33.9436 49.686 36.9557C48.4695 40.1501 49.9736 43.615 53.543 44.1663Z" fill="#050D12"/>
<path id="Vector_12" d="M99.3876 12.9216L99.8561 12.9743C99.9172 12.9812 99.9252 13.0052 99.8802 13.0465C99.8412 13.082 97.9087 13.074 97.6831 13.0809C97.6441 13.0816 97.6151 13.0648 97.596 13.0304C97.3035 12.5001 97.0194 11.9679 96.7438 11.4338C96.6384 11.229 96.4559 11.1778 96.1962 11.2802C96.1702 11.2902 96.1573 11.3089 96.1573 11.3364V12.7187C96.1573 12.7989 96.1958 12.8505 96.273 12.8734L96.6934 12.9972C96.7031 12.9995 96.7116 13.0054 96.7173 13.0137C96.7229 13.022 96.7252 13.0321 96.7238 13.042C96.7223 13.0519 96.7172 13.0609 96.7095 13.0673C96.7017 13.0736 96.6919 13.0768 96.6819 13.0763L95.1217 13.0797C94.8483 13.0797 94.8449 13.0507 95.1114 12.9926C95.2657 12.9582 95.4211 12.9311 95.5776 12.9112C95.6196 12.9067 95.6414 12.8834 95.6429 12.8413C95.6796 11.8625 95.6383 10.8905 95.6704 9.92086C95.6796 9.62056 95.5211 9.48646 95.195 9.51855C95.1515 9.52313 95.1232 9.5048 95.1103 9.46353L95.0977 9.42456C95.0847 9.3833 95.0996 9.36076 95.1423 9.35694C95.6907 9.30804 96.2867 9.30727 96.9305 9.35465C97.7106 9.41196 98.084 10.259 97.5662 10.8516C97.4666 10.965 97.3096 11.0384 97.1722 11.1324C97.1371 11.1568 97.1294 11.1878 97.1493 11.2252C97.5113 11.9026 97.9374 13.2035 98.942 12.8929C98.9787 12.8814 99.0081 12.86 99.0302 12.8287C99.1073 12.7194 99.1692 12.5999 99.2158 12.47C99.6068 11.3841 99.9905 10.2953 100.367 9.20335C100.385 9.15445 100.418 9.13764 100.468 9.15292L100.531 9.17355C100.571 9.18578 100.597 9.21176 100.611 9.25149L101.847 12.7554C101.86 12.7928 101.885 12.818 101.923 12.831L102.303 12.9697C102.316 12.9744 102.327 12.9836 102.334 12.9957C102.341 13.0079 102.343 13.0221 102.341 13.0358C102.338 13.0495 102.331 13.0618 102.32 13.0705C102.309 13.0792 102.295 13.0837 102.281 13.0832L100.878 13.0419C100.741 13.0381 100.737 13.0121 100.864 12.964C100.986 12.9174 101.112 12.8986 101.24 12.9078C101.263 12.9093 101.286 12.9052 101.307 12.8958C101.327 12.8864 101.346 12.8721 101.36 12.8539C101.374 12.8358 101.383 12.8145 101.387 12.792C101.391 12.7694 101.389 12.7462 101.382 12.7244L100.954 11.4384C100.942 11.4048 100.919 11.388 100.884 11.388H99.8275C99.7847 11.388 99.7572 11.4082 99.745 11.4487L99.3154 12.8115C99.2948 12.8772 99.3189 12.9139 99.3876 12.9216ZM96.1183 9.59993L96.1676 10.9994C96.1685 11.0232 96.1787 11.0457 96.1961 11.062C96.2134 11.0783 96.2365 11.0871 96.2604 11.0865L96.4597 11.0796C96.5705 11.0758 96.6795 11.0525 96.7806 11.0111C96.8817 10.9696 96.9728 10.9108 97.0487 10.838C97.1247 10.7652 97.184 10.6798 97.2233 10.5868C97.2625 10.4937 97.281 10.3948 97.2776 10.2957L97.2753 10.2246C97.2718 10.1254 97.2466 10.028 97.201 9.93781C97.1553 9.84766 97.0903 9.76658 97.0094 9.6992C96.9286 9.63182 96.8335 9.57946 96.7298 9.54512C96.626 9.51078 96.5155 9.49513 96.4047 9.49907L96.2054 9.50594C96.1935 9.50639 96.1818 9.50917 96.171 9.51413C96.1602 9.5191 96.1505 9.52615 96.1424 9.53488C96.1343 9.54361 96.128 9.55384 96.1239 9.56501C96.1197 9.57617 96.1178 9.58804 96.1183 9.59993ZM99.8091 11.1725C99.8062 11.1808 99.8053 11.1896 99.8065 11.1983C99.8077 11.207 99.811 11.2153 99.816 11.2225C99.8211 11.2297 99.8277 11.2355 99.8355 11.2396C99.8433 11.2437 99.8519 11.2458 99.8607 11.2458L100.808 11.2447C100.817 11.2447 100.826 11.2426 100.834 11.2384C100.842 11.2343 100.848 11.2283 100.853 11.221C100.858 11.2137 100.862 11.2052 100.863 11.1964C100.864 11.1875 100.863 11.1785 100.86 11.1702L100.384 9.85667C100.38 9.84619 100.373 9.83718 100.364 9.83087C100.354 9.82456 100.343 9.82124 100.332 9.82137C100.321 9.82149 100.31 9.82505 100.301 9.83157C100.292 9.83809 100.285 9.84725 100.281 9.85782L99.8091 11.1725Z" fill="#050D12"/>
<path id="Vector_13" d="M103.298 12.9285C103.627 12.9415 103.957 12.946 104.286 12.9422C105.048 12.9319 105.625 12.972 105.735 12.1055C105.738 12.0803 105.773 12.0322 105.794 12.0218C105.823 12.0104 105.837 12.0199 105.837 12.0505V13.0121C105.837 13.0633 105.811 13.0889 105.76 13.0889L102.957 13.0786C102.924 13.0786 102.892 13.0828 102.861 13.0912C102.786 13.1119 102.711 13.1164 102.635 13.105C102.581 13.0966 102.57 13.0702 102.602 13.0259L105.038 9.64581C105.046 9.63565 105.05 9.62363 105.051 9.61108C105.052 9.59853 105.049 9.58596 105.043 9.57477C105.037 9.56358 105.028 9.55422 105.017 9.54774C105.006 9.54125 104.994 9.5379 104.981 9.53807C104.433 9.54494 103.897 9.57092 103.375 9.61601C103.033 9.64466 102.863 9.97132 102.71 10.2269C102.705 10.237 102.697 10.2448 102.687 10.2488C102.677 10.2528 102.665 10.2525 102.655 10.2481C102.645 10.2437 102.637 10.2355 102.633 10.2253C102.629 10.2151 102.63 10.2037 102.634 10.1937C102.684 10.0286 102.884 9.24006 102.973 9.16556C103 9.14416 103.017 9.15027 103.025 9.1839L103.072 9.37989C103.083 9.4288 103.114 9.45248 103.163 9.45096L105.644 9.38448C105.657 9.38432 105.67 9.38766 105.681 9.39415C105.692 9.40063 105.701 9.40999 105.707 9.42118C105.713 9.43237 105.715 9.44494 105.714 9.45749C105.713 9.47004 105.709 9.48206 105.702 9.49222L103.261 12.8528C103.225 12.901 103.238 12.9262 103.298 12.9285Z" fill="#050D12"/>
<path id="Vector_14" d="M159.055 12.7885L158.617 11.4623C158.601 11.4127 158.566 11.3878 158.514 11.3878H157.478C157.436 11.3878 157.41 11.4077 157.397 11.4474L156.978 12.785C156.973 12.8018 156.972 12.8195 156.975 12.8368C156.978 12.8541 156.984 12.8705 156.995 12.8846C157.005 12.8988 157.019 12.9103 157.034 12.9183C157.05 12.9263 157.067 12.9305 157.085 12.9306C157.248 12.9298 157.41 12.9493 157.569 12.989C157.756 13.0349 157.753 13.0601 157.56 13.0647C157.093 13.0754 156.632 13.0651 156.176 13.0337C156.074 13.0269 156.071 13.0055 156.167 12.9696C156.26 12.9352 156.357 12.9252 156.459 12.9398C156.5 12.9451 156.538 12.9359 156.571 12.9122C156.696 12.8267 156.785 12.7082 156.84 12.5569C157.239 11.4459 157.632 10.3303 158.019 9.21009C158.027 9.18783 158.041 9.16847 158.06 9.15464C158.08 9.14082 158.102 9.1332 158.126 9.13283C158.149 9.13245 158.172 9.13934 158.192 9.15254C158.211 9.16575 158.226 9.18464 158.235 9.20665C158.658 10.3368 159.063 11.4822 159.451 12.6429C159.512 12.8232 159.657 12.9145 159.889 12.9168C159.929 12.9176 159.952 12.9378 159.958 12.9776L159.963 13.0177C159.969 13.0597 159.95 13.08 159.908 13.0784L158.537 13.0395C158.517 13.0395 158.506 13.0292 158.506 13.0085V12.9718C158.506 12.952 158.516 12.9409 158.536 12.9386L158.991 12.8882C159.053 12.8813 159.075 12.8481 159.055 12.7885ZM157.464 11.1643C157.461 11.1735 157.459 11.1834 157.461 11.193C157.462 11.2027 157.466 11.2119 157.471 11.2199C157.477 11.2279 157.484 11.2344 157.493 11.2389C157.502 11.2434 157.511 11.2457 157.521 11.2457L158.452 11.2423C158.462 11.2423 158.472 11.24 158.48 11.2355C158.489 11.231 158.497 11.2245 158.502 11.2165C158.508 11.2085 158.511 11.1993 158.513 11.1896C158.514 11.1799 158.513 11.1701 158.51 11.1609L158.039 9.86112C158.035 9.84925 158.027 9.83897 158.017 9.8317C158.006 9.82442 157.994 9.82052 157.982 9.82052C157.969 9.82052 157.957 9.82442 157.947 9.8317C157.936 9.83897 157.928 9.84925 157.924 9.86112L157.464 11.1643Z" fill="#050D12"/>
<path id="Vector_15" d="M63.4517 13.0534C64.5051 13.0534 65.359 12.1989 65.359 11.145C65.359 10.091 64.5051 9.23657 63.4517 9.23657C62.3983 9.23657 61.5444 10.091 61.5444 11.145C61.5444 12.1989 62.3983 13.0534 63.4517 13.0534Z" fill="#050D12"/>
<path id="Vector_16" d="M147.556 10.1753C147.105 8.57297 145.235 9.86815 146.415 10.557C146.757 10.7572 147.097 10.9624 147.436 11.1725C148.034 11.5439 148.055 12.3726 147.583 12.8425C147.107 13.317 146.257 13.2173 145.697 12.9399C145.658 12.92 145.64 12.888 145.642 12.8436L145.686 12.0493C145.687 12.0357 145.693 12.0229 145.703 12.0133C145.713 12.0037 145.725 11.9979 145.739 11.997C145.753 11.9962 145.766 12.0003 145.777 12.0087C145.788 12.0171 145.795 12.0291 145.798 12.0425C146.122 13.9761 148.661 12.5021 147.036 11.5668C146.383 11.192 145.597 10.8355 145.722 10.0825C145.865 9.21483 146.955 9.05436 147.598 9.45553C147.632 9.47616 147.649 9.50634 147.649 9.54607L147.644 10.1639C147.645 10.175 147.641 10.1858 147.634 10.1943C147.626 10.2028 147.616 10.2083 147.605 10.2097C147.594 10.2111 147.583 10.2084 147.574 10.2021C147.565 10.1957 147.558 10.1862 147.556 10.1753Z" fill="#050D12"/>
<path id="Vector_17" d="M75.9733 12.8562C76.5331 13.1366 77.0657 13.051 77.5713 12.5994C77.6003 12.5727 77.6213 12.5406 77.6343 12.5031C77.6671 12.4038 77.7221 12.3167 77.7992 12.2418C77.8657 12.1776 77.8882 12.1906 77.8668 12.2808L77.7133 12.933C77.7065 12.9618 77.6916 12.9881 77.6703 13.0088C77.649 13.0295 77.6222 13.0437 77.5931 13.0499C76.6102 13.2562 75.428 13.2035 74.9171 12.2223C74.2699 10.9787 75.0328 9.36605 76.5048 9.26633C76.9004 9.23959 77.2887 9.3011 77.6698 9.45087C77.7172 9.46921 77.7424 9.50397 77.7454 9.55517L77.7798 10.079C77.7802 10.0916 77.7764 10.1039 77.7688 10.114C77.7613 10.124 77.7505 10.1312 77.7383 10.1343C77.7261 10.1374 77.7132 10.1362 77.7018 10.1309C77.6904 10.1256 77.6811 10.1166 77.6755 10.1053C77.2952 9.2904 76.2471 9.13452 75.6652 9.87266C75.097 10.5925 75.0122 12.3748 75.9733 12.8562Z" fill="#050D12"/>
<path id="Vector_18" d="M125.295 10.0204C125.102 9.38775 124.224 9.28231 123.743 9.54822C122.768 10.0858 122.552 12.3575 123.644 12.8515C124.413 13.1999 125.021 12.9978 125.47 12.2452C125.475 12.2359 125.483 12.2288 125.493 12.2253C125.503 12.2217 125.514 12.222 125.524 12.2259C125.534 12.2298 125.542 12.2372 125.546 12.2467C125.551 12.2561 125.552 12.267 125.55 12.2773L125.386 12.9524C125.375 12.9944 125.349 13.0208 125.307 13.0315C124.457 13.2401 123.4 13.232 122.798 12.5226C122.24 11.8635 122.233 10.8228 122.719 10.1076C123.316 9.22729 124.386 9.05651 125.34 9.45423C125.38 9.47104 125.404 9.50084 125.412 9.54364C125.441 9.68805 125.455 9.83515 125.457 9.98491C125.461 10.3739 125.407 10.3857 125.295 10.0204Z" fill="#050D12"/>
<path id="Vector_19" d="M150.273 10.1398C149.901 8.64061 148.06 9.81773 149.012 10.447C149.713 10.9112 150.894 11.2917 150.587 12.384C150.32 13.3308 149.103 13.3021 148.406 12.925C148.372 12.9067 148.356 12.8784 148.359 12.8402L148.422 12.0092C148.422 12.0026 148.423 11.996 148.426 11.9899C148.428 11.9837 148.432 11.9781 148.437 11.9734C148.441 11.9687 148.447 11.9649 148.453 11.9623C148.459 11.9597 148.465 11.9583 148.472 11.9582C148.479 11.9581 148.485 11.9594 148.491 11.9618C148.498 11.9643 148.503 11.968 148.508 11.9726C148.513 11.9772 148.516 11.9827 148.519 11.9888C148.522 11.9949 148.523 12.0015 148.523 12.0081C148.667 13.4305 150.634 13.1795 150.224 11.9955C150.008 11.3685 148.695 11.302 148.469 10.4516C148.171 9.32488 149.562 9.04521 150.319 9.44522C150.352 9.4628 150.368 9.48993 150.368 9.5266V10.1283C150.369 10.1403 150.365 10.1519 150.357 10.161C150.349 10.17 150.338 10.1758 150.326 10.1772C150.314 10.1786 150.302 10.1756 150.293 10.1687C150.283 10.1618 150.276 10.1515 150.273 10.1398Z" fill="#050D12"/>
<path id="Vector_20" d="M93.9256 10.9456C95.2005 11.4373 94.7366 13.003 93.6025 13.0396C93.0023 13.0587 92.3604 13.0736 91.6769 13.0843C91.6658 13.0847 91.6549 13.0819 91.6453 13.0764C91.6357 13.0708 91.6279 13.0627 91.6227 13.0529C91.6174 13.0432 91.615 13.0322 91.6157 13.0211C91.6164 13.01 91.6201 12.9994 91.6265 12.9903C91.7663 12.784 92.1935 13.082 92.1855 12.5067C92.1718 11.5408 92.1565 10.5761 92.1397 9.61256C92.1389 9.57435 92.1202 9.5499 92.0836 9.5392C91.9633 9.50596 91.6025 9.51169 91.5578 9.45438C91.528 9.41771 91.5368 9.39593 91.5841 9.38905C92.3929 9.28055 93.0832 9.26144 93.6552 9.33174C94.4616 9.43146 94.787 10.4688 93.9233 10.8539C93.9141 10.8577 93.9064 10.8642 93.901 10.8725C93.8957 10.8809 93.8929 10.8906 93.8932 10.9005C93.8934 10.9104 93.8967 10.92 93.9024 10.928C93.9082 10.9361 93.9163 10.9422 93.9256 10.9456ZM92.6346 9.5541L92.6323 10.8355C92.6323 10.8656 92.6442 10.8945 92.6655 10.9158C92.6868 10.937 92.7156 10.949 92.7457 10.949L93.1466 10.9501C93.2524 10.9503 93.3571 10.9318 93.4549 10.8957C93.5527 10.8595 93.6415 10.8065 93.7164 10.7395C93.7913 10.6726 93.8508 10.593 93.8914 10.5055C93.932 10.4179 93.9529 10.324 93.953 10.2292V10.165C93.9533 9.97353 93.8687 9.78977 93.7179 9.65414C93.5671 9.51851 93.3624 9.44212 93.1489 9.44177L92.748 9.44063C92.7331 9.44063 92.7183 9.44356 92.7046 9.44927C92.6908 9.45497 92.6783 9.46333 92.6678 9.47386C92.6572 9.4844 92.6489 9.49691 92.6432 9.51068C92.6375 9.52444 92.6346 9.5392 92.6346 9.5541ZM92.6483 11.192C92.6094 11.6115 92.6368 12.0551 92.6621 12.4688C92.701 13.0797 93.5177 12.956 93.8293 12.7313C94.3689 12.3428 94.3356 11.5198 93.701 11.2161C93.4215 11.082 93.0355 11.129 92.7147 11.1312C92.6743 11.1312 92.6521 11.1515 92.6483 11.192Z" fill="#050D12"/>
<path id="Vector_21" d="M71.2139 10.0284L70.026 13.0486C70.0226 13.0573 70.0166 13.0648 70.0089 13.0701C70.0011 13.0753 69.992 13.078 69.9826 13.0779C69.9733 13.0778 69.9642 13.0748 69.9566 13.0694C69.9489 13.0639 69.9432 13.0563 69.94 13.0474C69.5865 12.0189 69.181 11.026 68.7235 10.0685C68.7105 10.0418 68.6991 9.99555 68.6891 9.92984C68.6838 9.89927 68.6666 9.88857 68.6376 9.89774C68.6269 9.9008 68.6166 9.90386 68.6067 9.90691C68.5937 9.91073 68.5868 9.91952 68.5861 9.93328C68.5158 10.8686 68.5017 11.8046 68.5437 12.7414C68.5459 12.7882 68.5648 12.8327 68.5969 12.8667C68.6291 12.9008 68.6724 12.9222 68.7189 12.9271L69.1897 12.9752C69.2386 12.9798 69.2512 13.0035 69.2275 13.0463C69.2012 13.0921 67.7452 13.0887 67.7235 13.0303C67.7097 12.9966 67.7208 12.9764 67.7567 12.9695L68.2332 12.8812C68.2775 12.8728 68.3008 12.8461 68.3031 12.801L68.4635 9.62037C68.4658 9.57299 68.4432 9.54625 68.3959 9.54014L67.8644 9.47022C67.8216 9.46411 67.8014 9.43927 67.8037 9.39572C67.8083 9.30517 68.7247 9.35216 68.8381 9.34529C68.8575 9.34422 68.8768 9.34917 68.8932 9.35944C68.9096 9.36971 68.9224 9.38479 68.9297 9.40259L70.1165 12.1592C70.1213 12.1705 70.1294 12.18 70.1398 12.1867C70.1501 12.1934 70.1622 12.1968 70.1745 12.1965C70.1868 12.1963 70.1987 12.1924 70.2088 12.1853C70.2189 12.1783 70.2266 12.1683 70.231 12.1569L71.3089 9.41176C71.3211 9.37891 71.3448 9.36171 71.38 9.36019C71.6033 9.34987 72.3365 9.31549 72.3765 9.41979C72.3941 9.46563 72.3785 9.49161 72.3296 9.49773L71.9 9.55274C71.8511 9.55894 71.8062 9.58305 71.7739 9.62048C71.7415 9.6579 71.724 9.70601 71.7248 9.75562L71.7671 12.8022C71.7672 12.8201 71.7734 12.8374 71.7846 12.8514C71.7959 12.8653 71.8115 12.8751 71.829 12.879L72.3582 12.997C72.6393 13.0597 72.6358 13.0906 72.3479 13.0899L70.8061 13.0864C70.7694 13.0864 70.7526 13.0681 70.7557 13.0314C70.7625 12.958 71.1382 12.8961 71.2265 12.8492C71.2631 12.8293 71.2814 12.7987 71.2814 12.7575L71.3055 10.0456C71.3062 10.0341 71.3027 10.0228 71.2957 10.0138C71.2887 10.0047 71.2786 9.99854 71.2673 9.99642C71.256 9.99431 71.2443 9.99639 71.2345 10.0023C71.2247 10.0082 71.2173 10.0175 71.2139 10.0284Z" fill="#050D12"/>
<path id="Vector_22" d="M79.2366 11.3649C79.2266 11.6384 79.2243 11.9135 79.2297 12.1901C79.2366 12.6291 79.1598 12.9603 79.7016 12.9512C79.7429 12.9504 79.7662 12.9703 79.7715 13.0108L79.7772 13.0475C79.7803 13.0681 79.7711 13.0784 79.7498 13.0784H78.24C78.1911 13.0784 78.1773 13.0562 78.1987 13.0119C78.2251 12.9558 78.5985 12.934 78.7028 12.8847C78.7432 12.8656 78.7635 12.8335 78.7635 12.7884L78.7577 9.68915C78.757 9.63184 78.7287 9.59669 78.673 9.5837L78.2354 9.48513C78.2087 9.47902 78.1968 9.4622 78.1999 9.4347L78.2056 9.39917C78.2094 9.36936 78.2266 9.35332 78.2571 9.35103C78.8398 9.309 79.4225 9.30976 80.0052 9.35332C81.0637 9.43126 81.2045 10.6439 80.271 11.1253C80.2358 11.1437 80.227 11.1712 80.2446 11.2078C80.5298 11.7958 80.9606 12.8641 81.6788 12.9775C81.7139 12.9829 81.7269 13.0028 81.7177 13.0371C81.6983 13.1059 80.8872 13.0784 80.7773 13.0773C80.7391 13.0765 80.7104 13.0593 80.6914 13.0257C80.4012 12.5061 80.1213 11.9819 79.8517 11.4531C79.7364 11.2277 79.5497 11.1715 79.2915 11.2846C79.2564 11.2999 79.2381 11.3267 79.2366 11.3649ZM79.2331 9.59287L79.2423 11.005C79.2423 11.0154 79.2444 11.0258 79.2484 11.0355C79.2525 11.0452 79.2584 11.0539 79.2658 11.0613C79.2733 11.0687 79.2822 11.0745 79.2919 11.0784C79.3016 11.0823 79.312 11.0842 79.3225 11.084L79.5321 11.0829C79.758 11.0812 79.9741 10.9996 80.1328 10.8561C80.2916 10.7125 80.38 10.5187 80.3786 10.3173V10.2668C80.378 10.167 80.3553 10.0683 80.3118 9.97631C80.2683 9.88436 80.2049 9.80098 80.1252 9.73094C80.0455 9.6609 79.9511 9.60557 79.8474 9.56811C79.7437 9.53065 79.6326 9.5118 79.5206 9.51264L79.311 9.51378C79.2903 9.51408 79.2704 9.52255 79.2559 9.53735C79.2413 9.55215 79.2331 9.57209 79.2331 9.59287Z" fill="#050D12"/>
<path id="Vector_23" d="M85.6553 10.9407C85.728 11.4456 85.5917 11.9595 85.2763 12.3694C84.961 12.7793 84.4924 13.0516 83.9737 13.1264C83.455 13.2012 82.9286 13.0723 82.5104 12.7682C82.0922 12.4641 81.8164 12.0096 81.7437 11.5047C81.671 10.9999 81.8074 10.486 82.1227 10.0761C82.4381 9.6662 82.9067 9.39391 83.4254 9.31912C83.9441 9.24433 84.4704 9.37316 84.8886 9.67728C85.3068 9.98139 85.5826 10.4359 85.6553 10.9407ZM84.9894 12.1133C85.3285 11.1219 85.1154 9.48857 83.7866 9.43814C82.0763 9.37281 81.822 11.8852 82.892 12.7346C83.5999 13.2973 84.6881 12.997 84.9894 12.1133Z" fill="#050D12"/>
<path id="Vector_24" d="M87.7466 12.4091C87.9665 11.9059 88.7672 10.0572 88.6767 9.59296C88.6492 9.45465 88.5664 9.39925 88.4282 9.42676C88.3029 9.45121 88.1811 9.44357 88.0627 9.40384C87.9596 9.36945 87.9623 9.34844 88.0708 9.3408C88.6905 9.2938 89.466 9.3557 89.9139 9.35799C90.3515 9.35952 90.7894 9.35913 91.2278 9.35684C91.2644 9.35684 91.2839 9.3748 91.2862 9.41071C91.2885 9.46458 90.8165 9.53565 90.7661 9.55169C90.7264 9.56468 90.7058 9.59219 90.7043 9.63422C90.6791 10.6016 90.7261 11.577 90.686 12.5386C90.6631 13.1003 91.1556 12.7885 91.2736 12.9948C91.2786 13.0031 91.2813 13.0126 91.2814 13.0223C91.2815 13.032 91.279 13.0416 91.2741 13.0501C91.2692 13.0586 91.2622 13.0657 91.2536 13.0707C91.2451 13.0757 91.2354 13.0784 91.2255 13.0785H89.6035C89.5886 13.0797 89.5738 13.075 89.5624 13.0653C89.551 13.0556 89.544 13.0418 89.5427 13.0269C89.5415 13.012 89.5463 12.9972 89.5559 12.9859C89.5656 12.9745 89.5794 12.9674 89.5943 12.9662L90.0227 12.8974C90.0802 12.8881 90.1325 12.8586 90.1703 12.8141C90.2081 12.7695 90.2289 12.7129 90.2289 12.6544V9.69382C90.2289 9.61435 90.1907 9.56392 90.1144 9.54252C89.5909 9.39237 89.1258 9.32131 88.8978 9.88867C88.4663 10.9623 88.0543 12.0469 87.6618 13.1427C87.6572 13.1552 87.6489 13.1661 87.638 13.1738C87.6271 13.1815 87.6141 13.1858 87.6007 13.1861C87.5874 13.1863 87.5743 13.1825 87.5631 13.1752C87.5519 13.1679 87.5432 13.1573 87.5381 13.145L86.0925 9.6537C86.0741 9.60786 86.0413 9.57729 85.994 9.56201L85.601 9.43364C85.5713 9.4237 85.5594 9.40345 85.5655 9.37289C85.5816 9.29266 86.986 9.32475 87.1532 9.3259C87.1876 9.32666 87.2132 9.34194 87.23 9.37174L87.2448 9.4004C87.2525 9.41415 87.2483 9.42217 87.2322 9.42447L86.7477 9.48178C86.7223 9.48481 86.6979 9.49368 86.6764 9.50771C86.6549 9.52175 86.637 9.54056 86.6239 9.56272C86.6109 9.58487 86.6031 9.60976 86.6011 9.63547C86.5991 9.66118 86.603 9.68703 86.6125 9.71101L87.7008 12.4091C87.7024 12.4137 87.7053 12.4177 87.7093 12.4205C87.7132 12.4232 87.718 12.4247 87.7229 12.4247C87.7279 12.4247 87.7328 12.4232 87.737 12.4205C87.7412 12.4177 87.7446 12.4137 87.7466 12.4091Z" fill="#050D12"/>
<path id="Vector_25" d="M112.309 10.9558C112.378 11.4611 112.238 11.9741 111.92 12.3817C111.602 12.7894 111.131 13.0584 110.612 13.1296C110.093 13.2008 109.567 13.0683 109.151 12.7612C108.735 12.4542 108.462 11.9978 108.393 11.4924C108.324 10.9871 108.464 10.4741 108.782 10.0665C109.1 9.65879 109.571 9.38978 110.09 9.31861C110.609 9.24745 111.135 9.37995 111.551 9.68698C111.967 9.994 112.24 10.4504 112.309 10.9558ZM110.74 12.9697C112.412 12.4895 112.081 9.03834 110.041 9.47847C108.197 9.87505 108.731 13.5451 110.74 12.9697Z" fill="#050D12"/>
<path id="Vector_26" d="M116.216 12.3563L116.124 9.6708C116.123 9.61273 116.093 9.57911 116.036 9.56994L115.554 9.4897C115.531 9.48588 115.52 9.47251 115.52 9.44959V9.41979C115.52 9.41006 115.521 9.40042 115.525 9.39145C115.529 9.38247 115.534 9.37433 115.541 9.36751C115.548 9.36068 115.557 9.3553 115.566 9.35168C115.575 9.34806 115.584 9.34628 115.594 9.34643L116.697 9.36133C116.753 9.3621 116.761 9.38234 116.721 9.42208L116.687 9.45646C116.671 9.47328 116.651 9.48015 116.628 9.4771C116.387 9.45112 116.272 9.55274 116.284 9.78198C116.336 10.8701 116.367 11.9792 116.376 13.1093C116.377 13.1321 116.37 13.1544 116.357 13.1732C116.345 13.1921 116.326 13.2065 116.305 13.2146C116.284 13.2227 116.26 13.2241 116.238 13.2186C116.216 13.2131 116.196 13.201 116.18 13.1838L113.464 10.0846C113.46 10.0793 113.454 10.0756 113.447 10.0739C113.441 10.0723 113.434 10.0727 113.427 10.0753C113.421 10.0778 113.415 10.0822 113.411 10.088C113.408 10.0938 113.406 10.1006 113.406 10.1075L113.455 12.8205C113.456 12.8625 113.477 12.887 113.519 12.8939L114.108 12.9913C114.169 13.0012 114.178 13.028 114.133 13.0715L114.112 13.0933C114.089 13.117 114.061 13.1284 114.028 13.1277L112.694 13.1219C112.689 13.1221 112.684 13.1209 112.681 13.1185C112.677 13.1162 112.673 13.1127 112.671 13.1086C112.669 13.1046 112.669 13.1 112.669 13.0954C112.669 13.0909 112.671 13.0866 112.674 13.083L112.696 13.052C112.714 13.0283 112.738 13.0131 112.767 13.0062L113.177 12.911C113.224 12.9004 113.247 12.8709 113.248 12.8228C113.263 11.8592 113.259 10.8976 113.235 9.93786C113.222 9.40259 112.763 9.69716 112.641 9.4599C112.619 9.41711 112.632 9.39419 112.68 9.39113L113.411 9.34643C113.452 9.34414 113.486 9.35828 113.513 9.38884L116.122 12.393C116.188 12.4686 116.219 12.4564 116.216 12.3563Z" fill="#050D12"/>
<path id="Vector_27" d="M129.892 11.4452C129.761 12.4095 129.215 12.9643 128.254 13.1094C126.558 13.365 125.45 11.6939 126.292 10.2199C127.261 8.52244 130.182 9.31445 129.892 11.4452ZM129.202 12.2544C129.423 11.7707 129.449 11.1426 129.329 10.6073C129.128 9.71905 128.223 9.13565 127.364 9.55286C126.194 10.1214 126.274 12.2521 127.37 12.8619C128.008 13.2172 128.884 12.9455 129.202 12.2544Z" fill="#050D12"/>
<path id="Vector_28" d="M133.791 10.0033C133.791 9.9955 133.788 9.98792 133.783 9.98188C133.778 9.97583 133.771 9.97169 133.764 9.97019C133.756 9.96869 133.748 9.96992 133.741 9.97366C133.735 9.97741 133.729 9.98343 133.726 9.99068L132.506 13.098C132.505 13.103 132.501 13.1073 132.497 13.1103C132.492 13.1133 132.487 13.115 132.482 13.115C132.476 13.115 132.471 13.1133 132.467 13.1103C132.462 13.1073 132.459 13.103 132.457 13.098C132.083 12.0114 131.649 10.9493 131.155 9.9116C131.152 9.90532 131.147 9.90011 131.141 9.89685C131.135 9.8936 131.129 9.89248 131.122 9.89368C131.115 9.89488 131.109 9.89834 131.105 9.90348C131.1 9.90861 131.098 9.91512 131.097 9.92191C131.006 10.8717 130.989 11.8223 131.048 12.7736C131.05 12.8141 131.068 12.8462 131.1 12.8699C131.277 13.0017 131.568 12.8882 131.717 13.0028C131.782 13.0525 131.774 13.077 131.692 13.0762L130.282 13.0728C130.077 13.072 130.072 13.0399 130.267 12.9765C130.399 12.9337 130.535 12.9066 130.676 12.8951C130.71 12.8926 130.741 12.8778 130.765 12.8535C130.789 12.8293 130.803 12.7972 130.804 12.7633L130.966 9.61932C130.967 9.57959 130.949 9.55666 130.911 9.55055L130.354 9.46573C130.305 9.45809 130.289 9.43097 130.306 9.38435C130.335 9.31214 131.217 9.35341 131.34 9.35226C131.385 9.35226 131.417 9.37327 131.434 9.4153L132.621 12.1673C132.626 12.1778 132.633 12.1867 132.643 12.1928C132.653 12.199 132.664 12.2022 132.676 12.2019C132.687 12.2017 132.698 12.198 132.708 12.1915C132.717 12.1849 132.724 12.1757 132.729 12.165L133.805 9.41645C133.821 9.37442 133.852 9.35341 133.897 9.35341H134.818C134.857 9.35341 134.876 9.37289 134.875 9.41186C134.875 9.42562 134.875 9.43937 134.875 9.45312C134.876 9.47987 134.863 9.49515 134.835 9.49897L134.35 9.56087C134.321 9.56423 134.294 9.57811 134.275 9.59986C134.256 9.62162 134.245 9.64975 134.245 9.67892V12.7599C134.245 12.8179 134.273 12.8542 134.329 12.8687L134.839 12.9994C134.872 13.0086 134.883 13.0292 134.872 13.0613C134.859 13.0991 133.514 13.09 133.345 13.1037C133.31 13.1068 133.283 13.0934 133.266 13.0636L133.246 13.0304C133.235 13.0112 133.24 12.9986 133.261 12.9925L133.709 12.8653C133.76 12.8508 133.786 12.8172 133.786 12.7644L133.791 10.0033Z" fill="#050D12"/>
<path id="Vector_29" d="M136.076 9.58846L136.141 12.8173C136.142 12.857 136.161 12.8814 136.2 12.8906L136.717 13.0213C136.729 13.0248 136.739 13.0323 136.745 13.0424C136.751 13.0525 136.754 13.0646 136.752 13.0764C136.751 13.0882 136.745 13.0991 136.736 13.1071C136.727 13.115 136.716 13.1196 136.704 13.1198L135.179 13.1015C135.166 13.1015 135.16 13.095 135.161 13.082C135.161 13.0713 135.162 13.061 135.162 13.0511C135.162 13.0335 135.171 13.0228 135.188 13.019L135.526 12.9536C135.563 12.9461 135.596 12.926 135.62 12.8967C135.644 12.8673 135.656 12.8307 135.656 12.7932L135.613 9.76268C135.613 9.71718 135.597 9.67318 135.568 9.63766C135.54 9.60215 135.5 9.57717 135.456 9.56669L135.084 9.47614C135.043 9.46621 135.03 9.44137 135.044 9.40164C135.066 9.33745 136.532 9.33057 136.706 9.32714C138.892 9.28358 137.919 12.2453 136.362 11.3673C136.349 11.3614 136.338 11.3503 136.332 11.3364C136.327 11.3226 136.327 11.3071 136.333 11.2934C136.339 11.2797 136.35 11.269 136.364 11.2635C136.378 11.258 136.393 11.2583 136.407 11.2642C137.782 11.6802 137.949 9.14031 136.13 9.52084C136.093 9.52848 136.075 9.55102 136.076 9.58846Z" fill="#050D12"/>
<path id="Vector_30" d="M142.857 11.3364L142.883 12.8596C142.884 12.9085 142.909 12.9334 142.958 12.9341C143.424 12.9379 143.879 12.9364 144.322 12.9295C144.906 12.9192 144.95 12.5009 145.18 12.1238C145.194 12.1009 145.213 12.0936 145.237 12.102C145.247 12.1058 145.257 12.1093 145.265 12.1123C145.274 12.1161 145.278 12.123 145.276 12.1329L145.14 12.9146C145.121 13.0239 145.056 13.0785 144.945 13.0785L140.843 13.0889C140.806 13.0889 140.778 13.0724 140.761 13.0396C140.476 12.5077 140.193 11.9778 139.913 11.4498C139.801 11.2382 139.615 11.1797 139.356 11.2745C139.328 11.2852 139.314 11.3054 139.314 11.3352L139.315 12.7565C139.315 12.8061 139.339 12.8382 139.386 12.8527L139.813 12.9857C139.847 12.9964 139.858 13.0182 139.846 13.051C139.832 13.0889 138.464 13.0843 138.304 13.0889C138.295 13.0889 138.287 13.0869 138.28 13.0828C138.272 13.0788 138.266 13.0729 138.261 13.0658C138.257 13.0587 138.254 13.0505 138.254 13.0421C138.254 13.0337 138.255 13.0253 138.259 13.0178C138.291 12.9548 138.675 12.9318 138.784 12.8642C138.813 12.8459 138.827 12.8195 138.827 12.7851V9.69846C138.827 9.6465 138.802 9.61326 138.753 9.59875L138.319 9.47381C138.3 9.46846 138.285 9.45815 138.274 9.44286L138.258 9.41994C138.237 9.39243 138.244 9.37677 138.277 9.37295C139.146 9.2782 139.817 9.27934 140.289 9.37639C141.174 9.55748 141.175 10.7736 140.345 11.1071C140.336 11.1109 140.327 11.1166 140.32 11.1239C140.313 11.1312 140.307 11.1399 140.304 11.1496C140.301 11.1592 140.299 11.1695 140.3 11.1797C140.301 11.19 140.304 11.2 140.308 11.2091C140.724 11.9908 141.156 13.3353 142.35 12.9043C142.392 12.889 142.414 12.8581 142.414 12.8115L142.391 9.62396C142.39 9.57582 142.366 9.55022 142.318 9.54717C142.16 9.53723 142.006 9.51316 141.854 9.47496C141.603 9.41306 141.607 9.38212 141.865 9.38212H144.841C144.879 9.38212 144.898 9.40122 144.898 9.43943V10.1443C144.898 10.1539 144.895 10.1631 144.889 10.1705C144.883 10.1779 144.875 10.183 144.866 10.1851C144.856 10.1872 144.847 10.1862 144.838 10.1821C144.829 10.178 144.822 10.1712 144.817 10.1627L144.535 9.58728C144.515 9.54602 144.482 9.52539 144.436 9.52539H143.036C143.013 9.52539 142.99 9.52988 142.969 9.53859C142.948 9.5473 142.929 9.56007 142.913 9.57615C142.897 9.59224 142.884 9.61133 142.876 9.63232C142.867 9.65331 142.863 9.67579 142.863 9.69846L142.871 11.0234C142.871 11.0823 142.9 11.1109 142.959 11.1094L144.216 11.067C144.243 11.066 144.269 11.0562 144.29 11.0391C144.311 11.0219 144.326 10.9983 144.333 10.9719L144.44 10.5214C144.443 10.5092 144.45 10.4984 144.46 10.4911C144.47 10.4838 144.483 10.4805 144.495 10.482C144.508 10.4834 144.519 10.4894 144.527 10.4988C144.536 10.5082 144.54 10.5204 144.54 10.5329L144.548 11.89C144.548 11.9007 144.543 11.9056 144.532 11.9049C144.521 11.9041 144.511 11.9037 144.502 11.9037C144.49 11.9037 144.482 11.8984 144.479 11.8877L144.311 11.365C144.296 11.3192 144.266 11.2886 144.219 11.2733C143.862 11.1553 143.268 11.224 142.928 11.2573C142.88 11.2619 142.856 11.2882 142.857 11.3364ZM139.305 9.58614L139.32 11.0074C139.32 11.0273 139.328 11.0462 139.342 11.0602C139.356 11.0741 139.375 11.0819 139.395 11.0819L139.612 11.0808C139.723 11.0796 139.834 11.0584 139.936 11.0182C140.039 10.9781 140.132 10.9198 140.21 10.8468C140.288 10.7738 140.35 10.6874 140.391 10.5927C140.433 10.4979 140.454 10.3966 140.453 10.2945V10.2761C140.45 10.0701 140.359 9.87345 140.198 9.72945C140.038 9.58544 139.821 9.50585 139.596 9.5082L139.379 9.51049C139.359 9.51079 139.341 9.51889 139.327 9.53305C139.313 9.5472 139.305 9.56627 139.305 9.58614Z" fill="#050D12"/>
<path id="Vector_31" d="M155.059 12.393C155.422 11.5227 155.731 10.634 155.986 9.72702C155.993 9.70043 155.995 9.67256 155.991 9.64525C155.987 9.61795 155.977 9.59183 155.962 9.56864C155.948 9.54544 155.928 9.5257 155.905 9.51072C155.882 9.49573 155.856 9.48585 155.829 9.48173L155.453 9.42557C155.42 9.42022 155.407 9.40112 155.414 9.36826C155.43 9.29491 156.572 9.32471 156.713 9.327C156.749 9.327 156.775 9.34266 156.792 9.37399L156.806 9.4015C156.815 9.41755 156.811 9.42786 156.792 9.43245L156.381 9.5356C156.334 9.54707 156.302 9.57572 156.285 9.62157L154.935 13.1541C154.931 13.1657 154.923 13.1757 154.912 13.1827C154.902 13.1898 154.89 13.1935 154.877 13.1935C154.864 13.1935 154.852 13.1898 154.842 13.1827C154.831 13.1757 154.823 13.1657 154.819 13.1541C154.383 12.0209 153.917 10.8919 153.421 9.76713C153.318 9.53217 153.144 9.47371 152.908 9.46569C152.873 9.46492 152.856 9.44658 152.859 9.41067C152.859 9.39615 152.859 9.38202 152.859 9.36826C152.857 9.34228 152.869 9.32929 152.895 9.32929L154.501 9.32356C154.513 9.32456 154.525 9.3299 154.533 9.33861C154.542 9.34731 154.547 9.35879 154.547 9.37093C154.548 9.38307 154.544 9.39505 154.537 9.40467C154.53 9.41429 154.519 9.4209 154.507 9.42328L154.051 9.47829C154.025 9.48151 153.999 9.49078 153.977 9.50537C153.954 9.51997 153.935 9.5395 153.922 9.56245C153.908 9.58541 153.9 9.61116 153.898 9.63771C153.896 9.66427 153.9 9.6909 153.91 9.71555L154.985 12.3919C155.009 12.4538 155.034 12.4542 155.059 12.393Z" fill="#050D12"/>
<path id="Vector_32" d="M73.0923 9.53003L72.5573 9.46241C72.497 9.45477 72.4913 9.43299 72.5401 9.39708C72.6593 9.30997 73.7303 9.35925 74.2195 9.35123C74.2546 9.35123 74.2706 9.36957 74.2676 9.40625C74.2645 9.43681 74.2477 9.45439 74.2172 9.45897L73.7876 9.52316C73.7568 9.52757 73.7285 9.54287 73.7081 9.56624C73.6877 9.58961 73.6765 9.61948 73.6765 9.65038V12.6694C73.6765 12.72 73.6939 12.7691 73.7258 12.8083C73.7578 12.8476 73.8022 12.8746 73.8517 12.8849L74.2573 12.9674C74.27 12.9701 74.2814 12.9775 74.289 12.9881C74.2967 12.9987 74.3001 13.0118 74.2987 13.0248C74.2973 13.0378 74.2911 13.0498 74.2813 13.0585C74.2715 13.0671 74.2589 13.0719 74.2458 13.0717C74.0282 13.0717 72.5997 13.1107 72.5573 13.0339C72.5336 12.9919 72.5459 12.967 72.594 12.9594L73.019 12.8964C73.0708 12.8887 73.1182 12.8628 73.1526 12.8233C73.1871 12.7838 73.2063 12.7333 73.2068 12.6809C73.2194 11.6998 73.334 10.5031 73.1747 9.60912C73.1663 9.56251 73.1389 9.53615 73.0923 9.53003Z" fill="#050D12"/>
<path id="Vector_33" d="M106.749 9.52767L106.276 9.46234C106.053 9.43178 106.053 9.40121 106.276 9.37065C106.445 9.34658 107.883 9.32824 107.963 9.3844C108.007 9.4142 108.002 9.43407 107.949 9.444L107.513 9.52194C107.469 9.52997 107.43 9.55306 107.401 9.58718C107.373 9.62131 107.357 9.66432 107.357 9.70877L107.354 12.6705C107.354 12.7247 107.373 12.777 107.408 12.818C107.444 12.8591 107.492 12.886 107.546 12.894L107.871 12.9421C107.913 12.9483 107.932 12.9723 107.931 13.0144C107.929 13.1129 106.459 13.0774 106.297 13.0774C106.25 13.0782 106.232 13.0556 106.245 13.0098C106.268 12.9249 106.673 12.91 106.74 12.8802C106.846 12.8344 106.898 12.7538 106.898 12.6384L106.893 9.69272C106.893 9.65233 106.878 9.61345 106.851 9.58316C106.825 9.55286 106.788 9.53317 106.749 9.52767Z" fill="#050D12"/>
<path id="Vector_34" d="M151.512 9.5333C151.452 9.51954 151.015 9.48401 151.007 9.41868C151.001 9.37589 151.02 9.35449 151.064 9.35449L152.686 9.36252C152.766 9.36252 152.773 9.38544 152.707 9.43129C152.442 9.61353 152.12 9.31094 152.118 9.86225C152.113 10.744 152.105 11.6255 152.094 12.5065C152.087 13.0956 152.594 12.7942 152.701 13.0016C152.724 13.0467 152.71 13.0696 152.66 13.0704L151.057 13.0807C151.017 13.0807 150.998 13.0609 150.999 13.0211C150.999 13.0104 150.999 12.9993 150.999 12.9879C150.999 12.9703 151.007 12.9604 151.024 12.9581C151.239 12.9294 151.627 12.9661 151.634 12.6704C151.653 11.6908 151.661 10.7077 151.657 9.72127C151.657 9.62041 151.609 9.55775 151.512 9.5333Z" fill="#050D12"/>
<path id="Vector_35" d="M118.176 11.0866L119.497 11.0717C119.543 11.0709 119.576 11.0495 119.595 11.0075C119.668 10.855 119.629 10.5914 119.75 10.4974C119.756 10.4927 119.763 10.4897 119.771 10.4888C119.778 10.4879 119.786 10.4891 119.792 10.4924C119.799 10.4956 119.805 10.5007 119.809 10.5071C119.813 10.5134 119.815 10.5208 119.815 10.5284L119.829 11.8877C119.829 11.8992 119.823 11.9049 119.812 11.9049C119.802 11.9042 119.793 11.9038 119.783 11.9038C119.77 11.9038 119.76 11.8973 119.756 11.8843L119.585 11.3616C119.571 11.3181 119.542 11.2887 119.498 11.2734C119.146 11.1507 118.597 11.2298 118.222 11.2528C118.175 11.2558 118.151 11.2814 118.151 11.3296V12.8127C118.151 12.8443 118.164 12.8746 118.186 12.8971C118.208 12.9196 118.239 12.9325 118.27 12.9331C118.735 12.9399 119.209 12.9384 119.691 12.9285C120.114 12.9204 120.307 12.4299 120.457 12.1067C120.461 12.0964 120.47 12.0882 120.48 12.0835C120.49 12.0789 120.501 12.0781 120.512 12.0813C120.523 12.0845 120.532 12.0916 120.538 12.1011C120.544 12.1106 120.546 12.122 120.544 12.133L120.413 13.0156C120.406 13.0584 120.382 13.0798 120.339 13.0798C120.02 13.0775 117.115 13.1245 117.093 13.0523C117.081 13.0186 117.093 12.9995 117.129 12.9949L117.476 12.9491C117.536 12.9413 117.59 12.9118 117.629 12.8662C117.669 12.8206 117.69 12.762 117.689 12.7015L117.656 9.71C117.656 9.66766 117.64 9.62689 117.612 9.59512C117.584 9.56335 117.546 9.5427 117.504 9.53693L117.146 9.48764C117.139 9.48719 117.133 9.48538 117.126 9.48231C117.12 9.47924 117.115 9.47498 117.11 9.46977C117.101 9.45923 117.096 9.44546 117.097 9.43148C117.098 9.42455 117.099 9.41779 117.102 9.41156C117.106 9.40534 117.11 9.39978 117.115 9.3952C117.126 9.38596 117.139 9.38128 117.153 9.38219H120.102C120.143 9.38219 120.164 9.40244 120.165 9.44294L120.174 10.1696C120.175 10.2025 120.159 10.2166 120.126 10.212C120.117 10.2109 119.839 9.64352 119.779 9.56787C119.757 9.5396 119.727 9.52546 119.691 9.52546H118.323C118.208 9.52546 118.151 9.58277 118.151 9.69739V11.0625C118.152 11.0785 118.16 11.0866 118.176 11.0866Z" fill="#050D12"/>
<path id="Vector_36" d="M106.031 27.3875C105.471 27.1927 105.025 27.0093 104.694 26.8374C104.253 26.6081 104.664 25.8173 104.872 25.4917C105.157 25.0478 105.528 24.9863 105.984 25.3072C107.365 26.2753 108.741 27.2496 110.112 28.23C110.149 28.2567 110.166 28.2934 110.163 28.34C110.15 28.4936 110.086 28.6204 109.97 28.7205C109.936 28.7496 109.899 28.7564 109.857 28.7412C108.58 28.2953 107.383 27.8575 106.031 27.3875Z" fill="#050D12"/>
<path id="Vector_37" d="M44.5826 43.2848C43.0877 44.3141 41.7738 44.8436 39.9868 44.0058C37.8241 42.9903 37.0371 40.4125 37.4793 38.1729C38.1437 34.8066 41.2515 32.9257 44.5574 33.6627C44.6078 33.6741 44.6418 33.6554 44.6594 33.6065C44.6884 33.5247 44.7044 33.4159 44.7075 33.2798C44.7556 31.2106 44.7457 29.5773 44.6777 28.3799C44.6387 27.6808 43.8644 27.6808 43.7143 27.2074C43.6387 26.9655 43.7464 26.8234 43.9812 26.7432C44.9633 26.4024 45.9286 26.0207 46.8771 25.5981C47.05 25.5214 47.1772 25.5615 47.2952 25.6921C47.3204 25.7204 47.3326 25.7536 47.3318 25.7919C47.278 30.7525 47.2642 35.7109 47.2562 40.6727C47.2547 41.4834 47.341 42.1719 47.5151 42.7381C47.656 43.1943 48.5255 42.8745 48.8187 42.7702C48.8554 42.7572 48.8836 42.7679 48.9035 42.8023C49.0562 43.072 49.0623 43.3452 48.9218 43.6218C48.9027 43.66 48.8718 43.6818 48.829 43.6871C47.6385 43.8346 46.4024 44.1456 45.121 44.6201C44.5402 44.8345 44.7785 43.6665 44.7819 43.3914C44.7823 43.3681 44.7762 43.3451 44.7643 43.325C44.7525 43.3049 44.7353 43.2884 44.7147 43.2774C44.6941 43.2664 44.6709 43.2612 44.6476 43.2626C44.6243 43.2639 44.6018 43.2716 44.5826 43.2848ZM44.6949 36.6324C44.6605 35.2879 43.7922 34.3997 42.4646 34.5693C41.1438 34.7378 40.3614 36.1728 40.1953 37.3981C39.999 38.8377 40.1835 40.1367 40.7486 41.2951C41.4004 42.6338 43.0614 43.3204 44.3799 42.4218C44.5853 42.2812 44.6918 42.1089 44.6995 41.9048C44.7506 40.5248 44.7491 38.7674 44.6949 36.6324Z" fill="white"/>
<path id="Vector_38" d="M164 30.5645V31.1949C163.309 33.4999 159.85 32.4867 160.591 30.2986C160.847 29.5399 161.656 29.1284 162.438 29.1926C163.227 29.2568 163.747 29.7141 164 30.5645ZM163.821 30.8668C163.826 30.4737 163.666 30.0948 163.376 29.8133C163.086 29.5318 162.69 29.3708 162.276 29.3658C161.861 29.3607 161.461 29.512 161.165 29.7863C160.868 30.0606 160.699 30.4355 160.694 30.8285C160.689 31.2216 160.849 31.6005 161.139 31.882C161.429 32.1635 161.825 32.3245 162.239 32.3296C162.654 32.3346 163.054 32.1834 163.35 31.909C163.647 31.6347 163.816 31.2598 163.821 30.8668Z" fill="#050D12"/>
<path id="Vector_39" d="M62.0863 40.3427C62.4277 42.9216 65.1105 44.4276 67.5126 43.5955C69.3317 42.9651 70.0751 40.6441 68.5103 39.2756C66.4679 37.4898 62.2432 36.7574 61.7667 33.8759C61.0553 29.5789 67.1311 28.7261 69.6364 30.5176C69.6662 30.539 69.6837 30.5684 69.6891 30.6059C69.8013 31.4047 69.7418 32.1349 69.6994 32.9406C69.6902 33.116 69.6329 33.2558 69.4302 33.1825C69.3928 33.1695 69.3695 33.1435 69.3603 33.1045C69.0762 31.8827 68.3786 30.795 67.1712 30.4167C66.1082 30.0832 64.8435 30.1898 63.9283 30.8809C63.1413 31.4747 62.706 32.4237 63.1929 33.3452C63.5594 34.0375 64.4907 34.5774 65.2204 34.951C66.1399 35.4217 67.0567 35.8985 67.9708 36.3815C69.5447 37.2124 70.8323 38.2325 70.8357 40.1318C70.838 41.7043 69.9628 43.1852 68.5413 43.8947C66.7749 44.7761 64.2044 44.5468 62.367 43.9061C61.9225 43.7514 61.3635 43.5772 61.4116 43.082C61.5048 42.133 61.5712 41.1782 61.6109 40.2177C61.6122 40.182 61.6245 40.1476 61.646 40.1191C61.6675 40.0906 61.6972 40.0694 61.7312 40.0584C61.9752 39.9782 62.0588 40.1283 62.0863 40.3427Z" fill="#050D12"/>
<path id="Vector_40" d="M154.234 30.3549C152.641 30.74 151.334 32.559 152.867 33.9619C153.217 34.2829 153.869 34.6779 154.824 35.1471C156.194 35.8222 158.179 36.7311 159.107 37.75C160.4 39.169 160.282 41.27 159.15 42.7394C157.36 45.0615 153.441 44.7154 151.008 43.6746C150.6 43.4993 150.571 43.2322 150.618 42.8024C150.714 41.9443 150.779 41.0843 150.815 40.2224C150.817 40.1881 150.826 40.1548 150.844 40.1252C150.861 40.0956 150.885 40.0707 150.914 40.0526C150.943 40.0345 150.977 40.0238 151.011 40.0214C151.045 40.0191 151.079 40.0251 151.111 40.039C151.303 40.1238 151.255 40.2499 151.285 40.4069C151.762 42.925 154.366 44.5469 156.783 43.5497C157.945 43.0718 158.821 41.8797 158.521 40.5857C158.262 39.4636 157.153 38.7644 156.189 38.2498C155.244 37.747 154.298 37.2461 153.35 36.7471C151.395 35.7202 150.008 33.4427 151.519 31.3933C152.814 29.6339 155.263 29.3818 157.271 29.8162C157.851 29.9415 158.381 30.1788 158.86 30.528C158.892 30.5501 158.909 30.5803 158.913 30.6185C158.995 31.4522 158.98 32.2862 158.868 33.1206C158.862 33.1657 158.837 33.189 158.792 33.1905L158.675 33.1951C158.624 33.1967 158.593 33.173 158.58 33.1241C158.038 30.9922 156.454 29.8173 154.234 30.3549Z" fill="#050D12"/>
<path id="Vector_41" d="M161.909 30.9601V31.6455C161.909 31.6929 161.933 31.7169 161.98 31.7177C162.058 31.7185 162.128 31.741 162.189 31.7853C162.272 31.8457 162.262 31.8759 162.159 31.8759H161.289C161.188 31.8759 161.177 31.8445 161.255 31.7819C161.306 31.7414 161.361 31.7143 161.423 31.7005C161.466 31.6898 161.487 31.6623 161.487 31.618L161.476 30.042C161.476 29.9969 161.454 29.9721 161.409 29.9675C161.352 29.9606 161.309 29.9339 161.282 29.8872C161.256 29.8437 161.268 29.8211 161.318 29.8196C161.796 29.8043 162.145 29.804 162.363 29.8185C163.045 29.8643 163.249 30.6311 162.552 30.8615C162.507 30.876 162.496 30.9039 162.52 30.9452C162.712 31.2661 162.948 31.5484 163.229 31.7922C163.293 31.848 163.282 31.8759 163.197 31.8759H162.858C162.811 31.8759 162.772 31.8571 162.743 31.8197L162.039 30.9154C162.03 30.9033 162.017 30.8945 162.002 30.8901C161.988 30.8858 161.972 30.8861 161.958 30.891C161.944 30.896 161.931 30.9053 161.923 30.9177C161.914 30.9301 161.909 30.9449 161.909 30.9601Z" fill="#050D12"/>
<path id="Vector_42" d="M76.7693 30.7091C76.7051 30.8168 76.7578 30.9154 76.759 30.9968C76.7681 31.9298 76.7731 32.8628 76.7739 33.7958C76.7739 36.3128 76.8884 38.8355 76.956 41.3514C76.9697 41.8568 76.8632 42.6443 76.9801 43.3102C76.9885 43.356 77.0152 43.3839 77.0602 43.3939L79.2963 43.9005C79.3287 43.9078 79.3586 43.9234 79.383 43.946C79.4074 43.9685 79.4255 43.9971 79.4353 44.0288C79.4452 44.0605 79.4465 44.0943 79.4392 44.1267C79.4319 44.1591 79.4162 44.189 79.3936 44.2134C79.3073 44.3066 79.1771 44.3421 79.003 44.32C76.9972 44.0644 75.2377 44.2581 72.957 44.2157C72.9196 44.2149 72.9013 44.1954 72.902 44.1572L72.9055 43.9945C72.9062 43.9494 72.9291 43.9234 72.9742 43.9165C73.7112 43.8065 74.2702 43.701 74.6512 43.6002C74.8345 43.552 74.941 43.3675 74.9525 43.1715C74.996 42.4731 75.0086 41.7739 74.9903 41.074C74.9109 37.9419 74.8555 34.809 74.8242 31.6753C74.8139 30.7549 73.319 30.5761 72.6523 30.5154C72.4106 30.4936 72.3556 30.3836 72.4129 30.1612C72.4358 30.0695 72.4946 30.0256 72.5893 30.0294C74.6054 30.1142 76.5952 29.9916 78.6227 29.8804C81.2402 29.7371 83.8852 30.1715 84.5484 33.1745C85.1201 35.766 83.1005 37.9381 80.585 38.1581C79.5529 38.2487 78.5941 38.1604 77.8209 37.4761C77.7956 37.4541 77.7787 37.4241 77.7729 37.391C77.7671 37.358 77.7728 37.324 77.789 37.2947C77.8052 37.2654 77.8309 37.2425 77.862 37.2298C77.893 37.2171 77.9274 37.2155 77.9595 37.2251C78.8988 37.5056 79.782 37.4758 80.609 37.1357C82.9894 36.1557 83.1601 33.0164 81.317 31.4243C80.2207 30.4787 78.2218 30.3916 76.8689 30.6403C76.8484 30.644 76.8289 30.652 76.8117 30.6638C76.7946 30.6757 76.7801 30.6911 76.7693 30.7091Z" fill="#050D12"/>
<path id="Vector_43" d="M98.6098 36.6037C98.6419 35.8931 98.8446 30.9554 98.4872 30.7078C98.2467 30.5416 97.2707 30.4877 96.9396 30.443C96.8976 30.4369 96.8717 30.4132 96.8617 30.3719L96.8079 30.1358C96.7964 30.0862 96.8159 30.0575 96.8663 30.0499C97.1573 30.0071 97.3982 29.9929 97.5891 30.0075C99.1929 30.129 100.796 30.1209 102.398 29.9834C102.448 29.9788 102.469 30.001 102.461 30.0499L102.416 30.325C102.41 30.3662 102.387 30.3926 102.346 30.404C101.811 30.5599 101.274 30.5691 100.731 30.7009C100.692 30.7101 100.661 30.7307 100.638 30.7628C100.297 31.2465 100.501 33.6088 100.495 34.2529C100.469 37.0305 100.483 39.8077 100.537 42.5845C100.542 42.902 100.611 43.31 100.996 43.3754C101.202 43.4109 103.057 43.6642 102.72 44.149C102.697 44.1834 102.665 44.1972 102.624 44.1903C100.572 43.8678 98.5243 43.882 96.4791 44.2327C96.4708 44.2341 96.4622 44.2335 96.4541 44.2312C96.446 44.2289 96.4385 44.2248 96.4321 44.2192C96.4258 44.2136 96.4207 44.2067 96.4174 44.1989C96.414 44.1911 96.4124 44.1827 96.4127 44.1742L96.4253 43.843C96.4276 43.7933 96.4524 43.7616 96.4998 43.7479C96.8915 43.6371 97.339 43.5484 97.8423 43.4819C98.4723 43.3983 98.6648 43.0212 98.6751 42.4022C98.7041 40.7731 98.7045 39.1437 98.6762 37.5138C98.675 37.4575 98.652 37.4039 98.612 37.3644C98.5721 37.3248 98.5183 37.3023 98.462 37.3017C96.9671 37.28 95.4528 37.429 93.9796 37.3854C92.6554 37.3464 91.4817 37.3449 90.4583 37.3808C90.2476 37.3885 90.1399 37.5088 90.1353 37.7419C90.1055 39.2732 90.0971 40.8041 90.1101 42.3346C90.1135 42.7965 90.0425 43.5633 90.574 43.6928C91.017 43.8006 91.4954 43.9141 92.0094 44.0333C92.0407 44.0404 92.0694 44.0561 92.0925 44.0786C92.1155 44.101 92.1319 44.1293 92.1399 44.1605C92.2201 44.4711 90.495 44.2671 90.2957 44.2533C88.7229 44.1433 87.3792 44.235 85.9164 44.2602C85.8706 44.261 85.8477 44.2384 85.8477 44.1926V44.0837C85.8477 44.0401 85.8675 44.0092 85.9072 43.9909C87.0058 43.4877 88.2246 44.078 88.2395 42.5123C88.2716 39.3225 88.2635 36.1246 88.3575 32.936C88.3746 32.3778 88.4491 30.945 88.2177 30.7616C88.0012 30.5886 86.9393 30.5565 86.6255 30.5324C86.5758 30.5286 86.5476 30.5022 86.5407 30.4533L86.5006 30.1874C86.4914 30.127 86.517 30.0972 86.5773 30.098C88.4777 30.1095 90.4045 29.9971 92.3301 29.9295C92.3759 29.928 92.4057 29.9486 92.4195 29.9914C92.466 30.1282 92.4347 30.244 92.3255 30.3387C92.298 30.3624 92.2663 30.3758 92.2304 30.3788C91.576 30.4254 91.0807 30.495 90.7447 30.5874C90.1559 30.749 90.1674 31.3233 90.1662 31.8184C90.1639 33.3642 90.1872 34.9368 90.2361 36.5361C90.2372 36.5723 90.2521 36.6067 90.2778 36.6326C90.3034 36.6585 90.338 36.674 90.3747 36.6759C93.1018 36.7967 95.8285 36.7909 98.5548 36.6587C98.5899 36.6572 98.6083 36.6389 98.6098 36.6037Z" fill="#050D12"/>
<path id="Vector_44" d="M124.056 37.2846C124.01 38.9542 124.004 40.625 124.039 42.2969C124.051 42.8871 124.169 43.2986 124.771 43.4327C125.207 43.5302 125.638 43.6585 126.075 43.7548C126.224 43.7869 126.31 43.8683 126.307 44.0161C126.306 44.0597 126.285 44.0864 126.243 44.0964C126.121 44.1254 126.001 44.1395 125.883 44.1388C123.849 44.1258 121.811 44.1285 119.772 44.1468C119.75 44.1471 119.729 44.1425 119.71 44.1333C119.69 44.124 119.673 44.1105 119.66 44.0936C119.647 44.0768 119.637 44.0571 119.633 44.0361C119.628 44.0151 119.629 43.9934 119.634 43.9726C119.669 43.8327 119.753 43.764 119.903 43.7491C120.814 43.652 121.394 43.5741 121.646 43.5153C121.9 43.4568 121.978 43.145 121.984 42.8871C122.003 42.0436 122.066 41.169 122.067 40.3633C122.071 37.6392 122.074 34.9151 122.075 32.191C122.075 31.744 122.086 30.9589 121.415 30.8121C120.907 30.6998 120.393 30.6135 119.874 30.5531C119.83 30.5478 119.794 30.5279 119.766 30.4935C119.673 30.3804 119.664 30.2589 119.741 30.129C119.762 30.0931 119.793 30.0729 119.833 30.0683C121.444 29.8688 123.109 29.9651 124.732 29.9388C127.07 29.9009 130.373 29.8402 130.882 32.9704C131.214 35.014 129.802 35.9986 128.168 36.8124C128.156 36.8184 128.145 36.8268 128.137 36.8371C128.128 36.8474 128.122 36.8595 128.118 36.8725C128.114 36.8855 128.113 36.8991 128.114 36.9127C128.116 36.9262 128.12 36.9393 128.127 36.9511C129.198 38.8079 130.306 40.7747 131.61 42.4803C132.296 43.3754 133.176 43.5978 134.234 43.7709C134.28 43.7777 134.302 43.8045 134.302 43.8511V44.0597C134.302 44.1155 134.275 44.143 134.22 44.1422C133.129 44.1315 132.04 44.1426 130.952 44.1755C130.763 44.1808 130.523 44.1644 130.231 44.1262C130.194 44.1208 130.165 44.1017 130.145 44.0689C128.927 41.9813 127.705 39.8964 126.479 37.8142C125.997 36.9969 124.93 37.1803 124.126 37.2136C124.081 37.2151 124.057 37.2388 124.056 37.2846ZM124.021 31.1594C124.038 33.4992 124.057 35.2796 124.079 36.5006C124.08 36.5434 124.102 36.566 124.145 36.5683C125.907 36.6519 128.267 36.4663 128.728 34.316C129.082 32.6667 128.046 31.2454 126.436 30.803C125.673 30.5928 124.897 30.5329 124.109 30.623C124.071 30.6276 124.05 30.6486 124.044 30.6861C124.028 30.8099 124.02 30.9676 124.021 31.1594Z" fill="#050D12"/>
<path id="Vector_45" d="M108.416 37.2605C108.409 39.1575 108.338 41.1083 108.453 42.9995C108.476 43.3876 108.69 43.5871 109.094 43.5978C111.189 43.6562 113.023 43.7365 114.943 43.5462C116.609 43.3811 117.168 42.1203 117.855 40.7312C117.965 40.5088 118.104 40.3644 118.357 40.4217C118.373 40.4254 118.388 40.4323 118.401 40.4421C118.414 40.4518 118.425 40.4642 118.433 40.4785C118.441 40.4927 118.446 40.5084 118.448 40.5247C118.45 40.541 118.448 40.5574 118.443 40.573C118.111 41.5855 117.938 42.6216 117.923 43.6814C117.919 44.0039 117.749 44.1376 117.412 44.0826C117.115 44.0333 116.651 44.117 116.336 44.1147C112.397 44.0918 108.459 44.1388 104.521 44.2557C104.328 44.2614 104.174 44.2843 104.062 44.1044C104.047 44.0795 104.037 44.0513 104.035 44.0221C104.032 43.993 104.037 43.9637 104.047 43.9366C104.058 43.9095 104.075 43.8854 104.097 43.8661C104.119 43.8469 104.145 43.8331 104.173 43.8259C104.887 43.6402 105.643 43.6803 106.181 43.5668C106.349 43.5317 106.434 43.4048 106.437 43.1863C106.483 39.3879 106.474 35.589 106.412 31.7898C106.405 31.3738 106.465 30.8167 105.872 30.7193C105.338 30.6322 104.763 30.6723 104.247 30.5554C104.207 30.5462 104.177 30.5241 104.156 30.4889C103.999 30.2264 104.179 30.0958 104.433 30.1049C106.689 30.1859 109.095 30.2008 111.651 30.1496C113.282 30.1176 114.994 30.184 116.655 30.1565C116.688 30.156 116.721 30.1627 116.751 30.1761C116.781 30.1895 116.808 30.2093 116.83 30.2341C116.852 30.259 116.868 30.2883 116.878 30.32C116.887 30.3517 116.89 30.3851 116.885 30.4178C116.754 31.3226 116.75 32.2311 116.871 33.1435C116.877 33.1832 116.864 33.2153 116.832 33.2397C116.754 33.3024 116.662 33.3032 116.556 33.242C116.526 33.2237 116.504 33.1981 116.491 33.1652C116.219 32.4691 115.863 31.7742 115.423 31.0803C115.203 30.7319 114.977 30.6723 114.552 30.6643C112.703 30.6291 110.855 30.6475 109.008 30.7193C108.877 30.7246 108.751 30.7522 108.632 30.8018C108.596 30.8171 108.571 30.8427 108.557 30.8786C108.436 31.1988 108.377 31.5025 108.381 31.7898C108.401 33.3563 108.413 34.9231 108.417 36.4903C108.417 36.5308 108.438 36.5545 108.478 36.5614C108.645 36.5919 108.786 36.6072 108.901 36.6072C110.39 36.6072 111.879 36.6026 113.368 36.5935C113.691 36.5923 114.462 36.5522 114.569 36.088C114.624 35.8496 114.737 34.0054 115.36 34.4226C115.392 34.4432 115.406 34.4727 115.404 34.5109C115.295 36.1667 115.31 37.821 115.448 39.4738C115.454 39.5323 115.438 39.5911 115.404 39.64C115.099 40.0756 114.716 38.4755 114.674 38.3265C114.442 37.5184 114.136 37.1127 113.275 37.1196C111.707 37.131 110.04 37.0531 108.485 37.1849C108.439 37.1895 108.416 37.2147 108.416 37.2605Z" fill="#050D12"/>
<path id="Vector_46" d="M138.99 36.3896C138.991 36.4475 139.015 36.5026 139.056 36.5431C139.097 36.5836 139.152 36.6062 139.21 36.6062C140.844 36.607 142.444 36.5936 144.011 36.5661C144.375 36.5592 144.684 36.5019 144.939 36.3942C144.975 36.3789 145.002 36.3541 145.02 36.3197C145.314 35.7523 145.237 35.091 145.489 34.4812C145.502 34.4476 145.526 34.4224 145.56 34.4056C145.683 34.3444 145.8 34.3494 145.909 34.4205C145.946 34.4442 145.962 34.4778 145.959 34.5213C145.852 36.2116 145.871 37.8995 146.016 39.5851C146.017 39.6062 146.014 39.6274 146.006 39.647C145.998 39.6666 145.986 39.6841 145.97 39.698C145.954 39.7118 145.935 39.7217 145.914 39.7268C145.894 39.7319 145.872 39.7321 145.852 39.7273L145.744 39.7021C145.701 39.6914 145.673 39.665 145.659 39.623C145.412 38.855 145.107 37.1105 144.09 37.1186C142.689 37.1293 141.288 37.1411 139.887 37.1541C139.543 37.1572 139.258 37.1701 139.032 37.1931C138.991 37.1977 138.971 37.2206 138.971 37.2618C138.969 39.1485 138.853 41.1508 139.034 43.0202C139.073 43.4191 139.259 43.6002 139.651 43.6094C141.617 43.6552 143.65 43.7538 145.605 43.5188C147.223 43.324 147.748 42.0701 148.425 40.7176C148.541 40.4826 148.717 40.3118 148.974 40.4528C149.013 40.4734 149.025 40.5044 149.011 40.5456C148.667 41.5734 148.493 42.6279 148.488 43.7091C148.487 43.7932 148.43 43.9066 148.317 44.0495C148.293 44.0793 148.262 44.0927 148.224 44.0896C147.833 44.0575 147.396 44.116 147.072 44.1148C143.008 44.0912 138.942 44.1389 134.873 44.2581C134.822 44.2596 134.771 44.2456 134.728 44.218C134.543 44.0988 134.586 43.889 134.784 43.8168C135.149 43.6827 135.681 43.7022 136.075 43.6564C136.894 43.5635 137.011 43.6048 137.02 42.7566C137.062 38.5043 137.038 34.6768 136.949 31.2742C136.94 30.9342 136.763 30.7443 136.418 30.7045C135.901 30.6434 135.382 30.6048 134.859 30.5888C134.83 30.5879 134.801 30.5804 134.774 30.5669C134.748 30.5533 134.725 30.534 134.707 30.5104C134.689 30.4868 134.676 30.4594 134.67 30.4304C134.664 30.4013 134.664 30.3712 134.672 30.3424L134.715 30.1624C134.726 30.1181 134.755 30.0967 134.801 30.0982C137.25 30.1815 139.7 30.1987 142.149 30.1498C143.823 30.1166 145.549 30.183 147.242 30.1578C147.272 30.1573 147.301 30.1633 147.328 30.1753C147.355 30.1873 147.379 30.205 147.399 30.2273C147.418 30.2495 147.433 30.2757 147.441 30.3041C147.45 30.3325 147.452 30.3624 147.447 30.3916C147.312 31.3124 147.307 32.2366 147.432 33.1642C147.439 33.2154 147.418 33.2495 147.369 33.2663C147.283 33.2961 147.198 33.2896 147.114 33.2468C147.083 33.23 147.061 33.2051 147.048 33.1723C146.757 32.4189 146.391 31.7029 145.95 31.0243C145.805 30.8008 145.634 30.6988 145.352 30.6862C143.417 30.5968 141.486 30.6828 139.551 30.6896C138.934 30.6919 138.943 31.4587 138.943 31.8886C138.945 33.4359 138.961 34.9362 138.99 36.3896Z" fill="#050D12"/>
<path id="Vector_47" d="M29.3966 34.6702C29.4676 34.7711 29.5478 34.8066 29.66 34.7367C29.9365 34.5617 30.318 34.3332 30.8044 34.0513C32.3589 33.1515 34.5961 33.2295 35.4414 35.0851C35.6606 35.5658 35.7729 36.1794 35.7782 36.9259C35.7904 38.5382 35.7931 40.1501 35.7862 41.7616C35.7817 43.0075 36.0279 43.1909 37.2135 43.3697C37.2555 43.3758 37.2849 43.3984 37.3017 43.4373C37.3926 43.6398 37.3919 43.8427 37.2995 44.046C37.2811 44.0857 37.2502 44.1067 37.2067 44.109C37.0936 44.1144 36.9837 44.1144 36.8768 44.109C35.2578 44.0272 33.6388 44.0326 32.0198 44.125C31.9809 44.1273 31.9522 44.1117 31.9339 44.0781C31.8193 43.8733 31.8098 43.6605 31.9052 43.4396C31.9213 43.4014 31.9499 43.3789 31.9912 43.372C32.5353 43.2792 33.0553 43.2138 33.1504 42.5628C33.3818 40.9685 33.2398 39.1403 33.2352 37.5208C33.234 36.9144 33.1619 36.2336 32.7953 35.7488C32.0015 34.7023 30.1045 34.8742 29.5512 36.1144C29.4344 36.3765 29.3756 36.8308 29.3748 37.4772C29.3725 38.9627 29.3725 40.4481 29.3748 41.9336C29.376 42.9158 29.6177 43.2264 30.5971 43.3686C30.6391 43.3747 30.6685 43.3972 30.6853 43.4362C30.7662 43.6219 30.7716 43.811 30.7013 44.0036C30.67 44.0884 30.6097 44.1281 30.5203 44.1228C28.825 44.028 27.13 44.0299 25.4354 44.1285C25.398 44.1308 25.3697 44.1159 25.3506 44.0838C25.2246 43.8721 25.2147 43.6536 25.3209 43.4282C25.3384 43.3907 25.3678 43.3697 25.4091 43.3651C26.5213 43.2345 26.7768 43.0155 26.7997 41.8785C26.8303 40.2831 26.8444 38.6872 26.8421 37.0909C26.8409 36.1935 26.8135 35.5253 25.9429 35.1826C25.9032 35.1665 25.8837 35.1371 25.8844 35.0943L25.889 34.6244C25.8898 34.5755 25.9131 34.5434 25.9589 34.5281C27.041 34.172 28.0769 33.7124 29.0667 33.1492C29.1049 33.1271 29.143 33.1267 29.1812 33.1481L29.3427 33.2363C29.3809 33.2577 29.3993 33.2902 29.3977 33.3338L29.3656 34.5671C29.3649 34.6053 29.3752 34.6397 29.3966 34.6702Z" fill="white"/>
<path id="Vector_48" d="M21.7573 33.532C23.5844 33.9194 24.9052 35.3269 24.7173 37.2548C24.652 37.9161 23.8926 37.884 23.4092 37.8909C21.8123 37.9115 20.1868 37.9245 18.5327 37.9299C18.4696 37.9298 18.4088 37.9539 18.3628 37.9974C18.3168 38.0409 18.2891 38.1003 18.2853 38.1637C18.1524 40.4343 19.771 42.5868 22.1858 42.416C23.0747 42.3564 23.7448 41.9514 24.1961 41.2011C24.2168 41.1659 24.2477 41.1468 24.2889 41.1437C24.421 41.133 24.5512 41.1865 24.6795 41.3042C24.7605 41.4333 24.7597 41.5858 24.6772 41.7615C23.9563 43.2928 22.7646 44.1716 21.1021 44.3977L20.3816 44.4023C17.7526 44.2327 16.1581 42.1535 16 39.6342V38.8319C16.2222 35.6707 18.4102 33.2087 21.7573 33.532ZM21.3266 36.857C22.9911 36.9866 22.4836 35.2696 21.6703 34.7079C20.1341 34.0271 18.7515 35.1825 18.4502 36.6645C18.4459 36.6858 18.4462 36.7079 18.4511 36.7291C18.4559 36.7503 18.4652 36.7702 18.4783 36.7875C18.4915 36.8047 18.5081 36.819 18.5272 36.8292C18.5463 36.8394 18.5673 36.8454 18.5889 36.8467C19.4877 36.9101 20.4003 36.9136 21.3266 36.857Z" fill="white"/>
<path id="Vector_49" d="M59.6715 39.2928C59.5524 42.5995 56.7333 44.6581 53.5431 44.1664C49.9737 43.6151 48.4696 40.1502 49.6861 36.9558C50.8328 33.9436 54.5591 32.7905 57.3003 34.394C59.0759 35.4325 59.7472 37.1896 59.6715 39.2928ZM55.9429 42.658C57.2786 41.168 57.0621 36.8652 55.7424 35.3511C54.9211 34.4089 53.5648 34.4731 52.8901 35.5482C51.8214 37.2492 51.7251 42.2763 54.07 43.1176C54.7333 43.3549 55.4618 43.1944 55.9429 42.658Z" fill="white"/>
<path id="Vector_50" d="M21.6703 34.7081C22.0331 35.0611 22.2339 35.4924 22.2729 36.0021C22.3302 36.7357 21.817 36.6669 21.3267 36.8572C20.4003 36.9137 19.4878 36.9103 18.5889 36.8468C18.5673 36.8455 18.5463 36.8395 18.5273 36.8293C18.5082 36.8191 18.4915 36.8049 18.4784 36.7876C18.4653 36.7703 18.456 36.7504 18.4511 36.7292C18.4463 36.708 18.446 36.6859 18.4503 36.6646C18.7516 35.1826 20.1342 34.0272 21.6703 34.7081Z" fill="#050D12"/>
<path id="Vector_51" d="M44.6951 36.6324C44.7493 38.7674 44.7508 40.5249 44.6997 41.9049C44.692 42.1089 44.5855 42.2812 44.3801 42.4218C43.0616 43.3204 41.4006 42.6338 40.7488 41.2951C40.1837 40.1367 39.9993 38.8377 40.1955 37.3981C40.3616 36.1728 41.144 34.7378 42.4648 34.5693C43.7924 34.3997 44.6607 35.288 44.6951 36.6324Z" fill="#050D12"/>
<path id="Vector_52" d="M55.7425 35.351C57.0621 36.8651 57.2786 41.1679 55.943 42.6579C55.4619 43.1943 54.7333 43.3548 54.0701 43.1175C51.7252 42.2762 51.8214 37.2491 52.8902 35.5482C53.5649 34.473 54.9212 34.4089 55.7425 35.351Z" fill="#050D12"/>
<path id="Vector_53" d="M20.3815 44.4025L21.102 44.3979C20.8149 44.4751 20.5269 44.4862 20.2383 44.4312L20.3815 44.4025Z" fill="#050D12"/>
<path id="Vector_54" d="M131.669 50.6502C131.665 51.2156 131.667 52.1211 131.676 53.3666C131.68 53.9489 132.386 53.9557 132.79 54.0807C132.83 54.0929 132.847 54.1193 132.841 54.1598C132.834 54.2056 132.787 54.2526 132.738 54.2537C131.637 54.2553 130.532 54.2557 129.423 54.2549C129.413 54.2547 129.403 54.2519 129.394 54.2467C129.385 54.2415 129.378 54.2342 129.373 54.2253C129.368 54.2165 129.366 54.2065 129.366 54.1964C129.366 54.1863 129.369 54.1764 129.375 54.1678C129.486 53.9901 130.183 53.9603 130.419 53.9225C130.467 53.9148 130.511 53.8905 130.543 53.8539C130.575 53.8172 130.593 53.7706 130.595 53.7219C130.644 51.7012 130.64 49.6851 130.633 47.6644C130.631 47.0741 129.923 47.097 129.498 47.0294C129.456 47.0225 129.43 46.9977 129.423 46.9549C129.414 46.8991 129.427 46.8506 129.464 46.8093C129.593 46.6637 131.91 46.7176 132.527 46.7245C133.158 46.7325 133.843 46.7589 134.361 47.0477C135.244 47.5394 135.506 48.8128 134.871 49.6175C134.621 49.9349 134.206 50.1539 133.826 50.3579C133.784 50.38 133.774 50.4118 133.797 50.453C134.098 51.0055 134.411 51.5465 134.739 52.076C135.574 53.4296 135.986 54.3363 137.651 53.9076C137.985 53.8205 138.202 53.1798 138.313 52.8932C139.14 50.7575 139.954 48.6172 140.755 46.4723C140.773 46.4265 140.806 46.4036 140.854 46.4036H141.094C141.142 46.4036 141.176 46.4257 141.196 46.47C141.312 46.7275 141.46 47.0943 141.643 47.5704C142.57 49.9949 143.294 51.9251 143.815 53.3609C143.848 53.4526 143.92 53.5771 144.03 53.7345C144.052 53.7659 144.082 53.7861 144.12 53.7953C144.251 53.8251 145.043 53.9718 144.971 54.1712C144.955 54.2132 144.925 54.2339 144.88 54.2331L141.835 54.1896C141.825 54.1894 141.814 54.1871 141.804 54.1827C141.794 54.1783 141.785 54.1719 141.778 54.164C141.771 54.156 141.765 54.1467 141.762 54.1365C141.758 54.1263 141.757 54.1155 141.758 54.1047C141.775 53.8938 142.645 53.8984 142.814 53.8801C142.841 53.8772 142.867 53.8681 142.89 53.8536C142.913 53.8391 142.933 53.8196 142.948 53.7964C142.962 53.7732 142.971 53.7471 142.974 53.7199C142.977 53.6927 142.974 53.6652 142.965 53.6394L141.999 50.9103C141.993 50.8912 141.98 50.8747 141.963 50.863C141.947 50.8513 141.927 50.845 141.906 50.845H139.613C139.564 50.8449 139.517 50.8603 139.477 50.8888C139.438 50.9174 139.408 50.9578 139.392 51.0043L138.503 53.6497C138.496 53.6728 138.497 53.7061 138.508 53.7463C138.519 53.7865 138.539 53.8323 138.565 53.8789C138.673 54.0681 139.619 53.8858 139.759 54.1403C139.764 54.1503 139.767 54.1615 139.767 54.1729C139.767 54.1843 139.763 54.1955 139.758 54.2052C139.752 54.2148 139.743 54.2228 139.734 54.2281C139.724 54.2334 139.713 54.2359 139.701 54.2354C139.129 54.2178 138.556 54.2075 137.983 54.2045C137.197 54.201 135.929 54.2939 134.892 54.2434C134.854 54.2411 134.825 54.2232 134.805 54.1896C134.185 53.1053 133.566 52.0218 132.949 50.939C132.898 50.8504 132.797 50.7434 132.645 50.6181C132.613 50.5921 132.576 50.5787 132.535 50.578L131.751 50.5688C131.697 50.5688 131.669 50.5959 131.669 50.6502ZM131.647 47.1577L131.692 50.1733C131.693 50.2161 131.714 50.2383 131.757 50.2398C132.222 50.2528 132.653 50.2096 133.053 50.1103C134.052 49.8616 134.439 48.6363 133.855 47.8306C133.392 47.191 132.489 46.9904 131.719 47.0764C131.699 47.0789 131.681 47.0886 131.667 47.1037C131.654 47.1187 131.647 47.1379 131.647 47.1577ZM139.531 50.4519C139.525 50.4656 139.524 50.4804 139.525 50.4949C139.527 50.5095 139.533 50.5234 139.541 50.5355C139.549 50.5475 139.56 50.5574 139.573 50.5642C139.586 50.571 139.601 50.5745 139.615 50.5745L141.744 50.5676C141.758 50.5675 141.773 50.5639 141.786 50.5569C141.799 50.55 141.81 50.54 141.818 50.5278C141.826 50.5156 141.832 50.5016 141.833 50.487C141.835 50.4723 141.833 50.4575 141.827 50.4438L140.754 47.6919C140.747 47.675 140.736 47.6604 140.721 47.6502C140.706 47.64 140.688 47.6345 140.67 47.6345C140.652 47.6345 140.634 47.64 140.619 47.6502C140.604 47.6604 140.592 47.675 140.586 47.6919L139.531 50.4519Z" fill="#050D12"/>
<path id="Vector_55" d="M108.585 47.5188L108.62 53.6578C108.621 53.7074 108.637 53.7555 108.666 53.7953C108.695 53.8351 108.736 53.8644 108.783 53.879C109.15 53.9959 109.521 54.0842 109.895 54.1438C109.989 54.159 110.016 54.2152 109.974 54.3122C109.961 54.3451 109.936 54.3604 109.901 54.3581C108.687 54.3 107.473 54.31 106.259 54.3879C106.21 54.3917 106.184 54.3688 106.182 54.3191L106.176 54.2217C106.174 54.1865 106.19 54.1648 106.224 54.1564L107.398 53.8595C107.443 53.8479 107.483 53.822 107.512 53.7858C107.541 53.7496 107.557 53.7051 107.558 53.6589C107.62 51.6015 107.576 49.5556 107.546 47.4971C107.545 47.4535 107.523 47.4294 107.479 47.4249C106.97 47.3721 105.736 47.2438 105.298 47.7022C105.083 47.9269 104.605 48.657 104.369 48.7418C104.354 48.7473 104.337 48.7485 104.321 48.7453C104.305 48.742 104.29 48.7344 104.278 48.7234C104.266 48.7123 104.257 48.6982 104.252 48.6824C104.248 48.6667 104.247 48.65 104.251 48.6341L104.774 46.6053C104.782 46.5726 104.8 46.5434 104.826 46.522C104.852 46.5005 104.884 46.4879 104.918 46.4859C104.952 46.484 104.985 46.4929 105.013 46.5113C105.041 46.5297 105.063 46.5566 105.075 46.5881C105.281 47.1223 105.613 47.0466 106.195 47.0535C107.759 47.073 109.453 46.9366 110.996 47.0948C111.038 47.0993 111.069 47.0833 111.09 47.0466C111.173 46.9022 111.38 46.328 111.609 46.4976C111.643 46.5228 111.659 46.556 111.659 46.5973L111.626 48.6673C111.626 48.6826 111.622 48.6976 111.615 48.7111C111.608 48.7246 111.598 48.7362 111.585 48.7448C111.572 48.7535 111.558 48.759 111.543 48.7609C111.528 48.7627 111.512 48.7609 111.498 48.7556L111.428 48.7292C111.394 48.717 111.373 48.6937 111.364 48.6593C111.079 47.5819 111.03 47.4753 109.876 47.4157C109.466 47.3951 109.056 47.4057 108.648 47.4478C108.606 47.4524 108.585 47.476 108.585 47.5188Z" fill="#050D12"/>
<path id="Vector_56" d="M147.716 53.8595C147.89 53.9019 148.921 54.0807 148.933 54.232C148.934 54.2421 148.932 54.2523 148.929 54.2618C148.926 54.2714 148.92 54.2802 148.913 54.2876C148.906 54.295 148.898 54.301 148.888 54.305C148.879 54.309 148.869 54.3111 148.858 54.3111L145.613 54.2974C145.58 54.2974 145.562 54.2805 145.559 54.2469L145.557 54.216C145.553 54.1709 145.573 54.1438 145.618 54.1346L146.432 53.9787C146.49 53.9678 146.541 53.9357 146.576 53.8886C146.611 53.8414 146.627 53.7828 146.621 53.7243C146.595 53.4767 146.64 53.1993 146.634 52.9689C146.597 51.4101 146.57 49.8513 146.554 48.2925C146.551 48.0427 146.579 47.6644 146.492 47.4134C146.406 47.167 145.603 47.0432 145.37 47.0191C145.323 47.0138 145.299 46.9874 145.299 46.94V46.8575C145.299 46.804 145.326 46.7769 145.379 46.7761C146.095 46.775 146.79 46.7887 147.519 46.7349C149.201 46.6111 151.259 46.4701 151.572 48.5091C151.824 50.1528 150.442 51.2909 148.881 51.0754C148.561 51.0319 148.311 50.9001 148.075 50.6949C148.062 50.6842 148.054 50.6695 148.051 50.6532C148.048 50.6369 148.051 50.6201 148.059 50.6057C148.067 50.5913 148.08 50.5802 148.096 50.5743C148.111 50.5684 148.128 50.5681 148.144 50.5734C151.226 51.5649 151.569 46.3131 147.641 47.089C147.611 47.0947 147.585 47.1107 147.566 47.1342C147.547 47.1577 147.537 47.1871 147.538 47.2174L147.657 53.785C147.658 53.8255 147.677 53.8503 147.716 53.8595Z" fill="#050D12"/>
<path id="Vector_57" d="M118.501 50.6341L114.396 50.6834C114.361 50.6837 114.328 50.6975 114.303 50.7219C114.279 50.7463 114.265 50.7794 114.264 50.8141C114.247 51.77 114.104 52.9895 114.318 53.9076C114.327 53.9473 114.351 53.9726 114.39 53.9833C114.541 54.0245 115.335 54.1529 115.281 54.3294C115.277 54.3437 115.268 54.356 115.256 54.3644C115.244 54.3727 115.229 54.3766 115.215 54.3752C114.175 54.2843 113.135 54.2664 112.092 54.3214C112.046 54.3244 112.026 54.3027 112.033 54.2561C112.081 53.9168 113.271 54.2159 113.275 53.589C113.291 51.5182 113.311 49.4478 113.336 47.3778C113.343 46.8368 112.298 47.2449 112.393 46.8792C112.403 46.8441 112.425 46.8261 112.461 46.8254L115.304 46.7176C115.331 46.7166 115.357 46.7231 115.38 46.7363C115.403 46.7495 115.421 46.7688 115.434 46.7921C115.595 47.0947 114.319 46.8059 114.3 47.442C114.272 48.3628 114.279 49.2832 114.32 50.2032C114.322 50.2444 114.343 50.2681 114.384 50.2742C115.681 50.4622 117.268 50.3373 118.588 50.2914C118.609 50.2908 118.629 50.2821 118.644 50.2671C118.658 50.2521 118.666 50.2321 118.666 50.2112V47.3205C118.666 47.2629 118.645 47.2072 118.608 47.1636C118.57 47.1201 118.517 47.0915 118.46 47.0833L117.811 46.9904C117.768 46.9843 117.742 46.9602 117.733 46.9182L117.722 46.8747C117.718 46.8571 117.718 46.8388 117.723 46.8213C117.727 46.8038 117.736 46.7876 117.748 46.774C117.76 46.7603 117.775 46.7497 117.792 46.7429C117.809 46.7361 117.827 46.7333 117.845 46.7348C118.751 46.8112 119.657 46.8139 120.563 46.7428C120.574 46.742 120.584 46.7435 120.594 46.747C120.604 46.7506 120.614 46.7563 120.621 46.7636C120.629 46.771 120.635 46.7799 120.639 46.7897C120.643 46.7996 120.645 46.8102 120.645 46.8208C120.634 47.0523 120.004 47.0775 119.831 47.105C119.77 47.1149 119.713 47.1464 119.673 47.1941C119.632 47.2418 119.61 47.3025 119.61 47.3652C119.61 49.2113 119.614 51.0685 119.622 52.9368C119.622 53.1767 119.637 53.419 119.665 53.6635C119.67 53.7032 119.687 53.7405 119.714 53.7699C119.741 53.7993 119.777 53.8195 119.816 53.8274C120.025 53.8686 120.68 53.9672 120.785 54.1701C120.792 54.1829 120.795 54.1973 120.794 54.2117C120.793 54.2261 120.788 54.24 120.78 54.2518C120.771 54.2635 120.759 54.2727 120.746 54.2784C120.732 54.284 120.717 54.2858 120.703 54.2836C119.661 54.1147 118.619 54.1208 117.579 54.3019C117.546 54.3072 117.524 54.2943 117.512 54.2629C117.334 53.7873 118.638 54.1815 118.661 53.4491C118.687 52.6017 118.697 51.7253 118.69 50.8198C118.69 50.7951 118.685 50.7707 118.675 50.748C118.666 50.7254 118.652 50.7048 118.634 50.6876C118.616 50.6703 118.596 50.6567 118.573 50.6476C118.55 50.6384 118.526 50.6338 118.501 50.6341Z" fill="#050D12"/>
<path id="Vector_58" d="M156.31 50.6446C156.715 50.0921 158.553 47.7551 158.536 47.2209C158.534 47.172 158.511 47.1384 158.465 47.1201C158.178 47.0016 157.877 46.9359 157.563 46.9229C157.526 46.9214 157.502 46.9027 157.491 46.8668L157.47 46.8026C157.453 46.7468 157.473 46.7189 157.532 46.7189H160.01C160.026 46.719 160.042 46.7246 160.054 46.7349C160.066 46.7452 160.074 46.7595 160.076 46.7751C160.11 46.9711 159.547 46.9906 159.363 47.1866C158.349 48.2678 157.445 49.4338 156.651 50.6847C156.292 51.2521 156.477 53.0653 156.547 53.7576C156.551 53.7982 156.569 53.8362 156.597 53.8655C156.625 53.8948 156.663 53.9137 156.703 53.9192L157.799 54.0671C157.848 54.074 157.869 54.1015 157.863 54.1496L157.854 54.2195C157.849 54.2593 157.826 54.2791 157.787 54.2791L154.216 54.278C154.173 54.278 154.154 54.257 154.158 54.2149L154.163 54.1358C154.166 54.0938 154.189 54.0709 154.231 54.0671C154.539 54.0419 155.537 53.9914 155.546 53.5284C155.56 52.7841 155.558 52.0406 155.541 51.2979C155.54 51.2589 155.528 51.223 155.507 51.1902C154.794 50.0975 154.055 49.0243 153.29 47.9706C152.836 47.3413 152.649 46.9734 151.916 46.9814C151.866 46.9814 151.84 46.9566 151.837 46.9069L151.83 46.7808C151.827 46.7388 151.847 46.7178 151.889 46.7178L155.072 46.759C155.094 46.7594 155.116 46.7669 155.134 46.7803C155.152 46.7937 155.165 46.8123 155.171 46.8335C155.252 47.1075 154.216 46.9482 154.043 47.1889C154.015 47.2286 154.014 47.2683 154.041 47.3081L156.261 50.6434C156.263 50.6475 156.267 50.6509 156.271 50.6533C156.275 50.6556 156.28 50.6569 156.285 50.6571C156.29 50.6572 156.295 50.6561 156.299 50.6539C156.303 50.6517 156.307 50.6485 156.31 50.6446Z" fill="#050D12"/>
<path id="Vector_59" d="M123.645 50.648L123.659 53.6727C123.659 53.747 123.688 53.8182 123.74 53.8714C123.791 53.9247 123.862 53.9558 123.936 53.9581C125.002 53.9971 126.344 54.1048 127.314 53.8848C128.077 53.7117 128.469 52.2561 128.798 52.2778C128.805 52.2782 128.812 52.2801 128.818 52.2836C128.825 52.287 128.83 52.2918 128.834 52.2977C128.838 52.3036 128.84 52.3103 128.841 52.3174C128.842 52.3245 128.842 52.3317 128.84 52.3386C128.666 52.9048 128.574 53.4844 128.563 54.0773C128.562 54.1173 128.545 54.1553 128.517 54.1833C128.488 54.2114 128.45 54.2272 128.41 54.2275L121.495 54.3031C121.464 54.3031 121.441 54.2901 121.425 54.2642C121.361 54.1557 121.377 54.0938 121.472 54.0785C121.916 54.0086 122.659 54.098 122.66 53.6257C122.665 51.7521 122.654 49.8796 122.625 48.0083C122.622 47.7554 122.602 47.5151 122.567 47.2874C122.561 47.2483 122.542 47.2124 122.514 47.1852C122.485 47.158 122.448 47.1411 122.409 47.1372L121.528 47.0501C121.504 47.0474 121.481 47.0372 121.462 47.021C121.444 47.0048 121.431 46.9833 121.426 46.9596C121.407 46.8709 121.441 46.8274 121.529 46.8289C123.671 46.869 125.866 46.8323 127.965 46.8346C127.975 46.8347 127.985 46.837 127.994 46.8413C128.004 46.8456 128.012 46.8519 128.019 46.8597C128.026 46.8675 128.031 46.8767 128.033 46.8866C128.036 46.8965 128.037 46.9069 128.036 46.9172C127.974 47.3772 127.966 47.836 128.014 48.2937C128.019 48.3434 128.017 48.3846 128.008 48.4175C128.003 48.4336 127.994 48.4479 127.981 48.4586C127.968 48.4692 127.952 48.4758 127.936 48.4774C127.919 48.479 127.902 48.4756 127.888 48.4676C127.873 48.4595 127.861 48.4473 127.853 48.4324L127.251 47.2507C127.23 47.21 127.199 47.1756 127.16 47.151C127.122 47.1265 127.078 47.1126 127.032 47.1109C126.024 47.0757 124.998 47.0849 123.955 47.1384C123.748 47.1491 123.644 47.2675 123.641 47.4937C123.635 48.3862 123.64 49.2802 123.659 50.1757C123.659 50.2155 123.68 50.2357 123.719 50.2365C124.627 50.264 125.53 50.2629 126.426 50.2331C126.985 50.2147 126.874 49.5465 127.003 49.1568C127.018 49.1125 127.048 49.0876 127.094 49.0823L127.198 49.0685C127.249 49.0617 127.273 49.0842 127.269 49.1362C127.204 50.0317 127.212 50.9265 127.293 51.8205C127.295 51.8398 127.29 51.8591 127.279 51.8747C127.268 51.8903 127.251 51.9012 127.233 51.9053C127.079 51.9386 126.952 51.3827 126.915 51.2738C126.747 50.7672 126.713 50.546 126.093 50.5299C125.297 50.5108 124.504 50.5261 123.712 50.5758C123.667 50.5788 123.645 50.6029 123.645 50.648Z" fill="#050D12"/>
</g>
</g>
</svg>
