<svg width="180" height="70" viewBox="0 0 180 70" fill="none" xmlns="http://www.w3.org/2000/svg">
<g id="Logo">
<g id="Group 90">
<path id="Vector" d="M98.0244 20H100.718L100.715 24.5921C100.715 24.5965 100.716 24.6007 100.717 24.6047C100.719 24.6087 100.721 24.6123 100.725 24.6154C100.728 24.6184 100.731 24.6208 100.735 24.6225C100.739 24.6241 100.744 24.625 100.748 24.625H102.972C102.981 24.625 102.99 24.6288 102.997 24.6355C103.004 24.6422 103.008 24.6512 103.008 24.6607V26.7657C103.008 26.7758 103.004 26.7854 102.997 26.7925C102.989 26.7996 102.98 26.8036 102.97 26.8036H100.768C100.753 26.8036 100.739 26.8092 100.729 26.8193C100.719 26.8293 100.713 26.8429 100.713 26.8571V36.5336C100.713 36.5436 100.709 36.5532 100.702 36.5603C100.695 36.5674 100.685 36.5714 100.675 36.5714H97.9218C97.904 36.5714 97.8869 36.5644 97.8743 36.5518C97.8617 36.5392 97.8546 36.5221 97.8546 36.5043L97.8582 26.8636C97.8582 26.8552 97.8565 26.847 97.8533 26.8392C97.8501 26.8315 97.8453 26.8245 97.8393 26.8186C97.8334 26.8127 97.8263 26.808 97.8185 26.8048C97.8107 26.8016 97.8023 26.8 97.7939 26.8L95.6114 26.805C95.569 26.805 95.5479 26.7843 95.5479 26.7429L95.5515 24.6586C95.5515 24.6497 95.555 24.6411 95.5612 24.6348C95.5674 24.6285 95.5759 24.625 95.5847 24.625H97.9471C97.963 24.625 97.9784 24.6187 97.9897 24.6075C98.0011 24.5962 98.0076 24.581 98.0078 24.565L98.0244 20Z" fill="#050D12"/>
<path id="Vector_2" d="M68.8262 26.8413V36.4999C68.8262 36.5188 68.8186 36.537 68.805 36.5504C68.7915 36.5638 68.7731 36.5713 68.7539 36.5713H66.0078C65.9982 36.5713 65.989 36.5676 65.9823 36.5609C65.9755 36.5542 65.9717 36.5451 65.9717 36.5356V26.882C65.9717 26.8602 65.9629 26.8394 65.9473 26.8239C65.9318 26.8085 65.9106 26.7999 65.8886 26.7999L64.6268 26.8049C64.596 26.8049 64.5806 26.7899 64.5806 26.7599V24.6699C64.5806 24.6399 64.5955 24.6249 64.6254 24.6249H65.8813C65.8933 24.6249 65.9051 24.6226 65.9161 24.618C65.9271 24.6135 65.9371 24.6069 65.9455 24.5985C65.9539 24.5901 65.9605 24.5802 65.965 24.5693C65.9695 24.5584 65.9718 24.5467 65.9717 24.5349C65.9693 24.243 65.9717 23.952 65.9789 23.662C66.0678 20.1577 69.7237 19.7813 72.4199 20.1699C72.446 20.1732 72.4566 20.1875 72.4517 20.2127L72.0709 22.3456C72.0694 22.3543 72.0662 22.3625 72.0614 22.3699C72.0566 22.3773 72.0503 22.3836 72.0429 22.3885C72.0355 22.3934 72.0272 22.3967 72.0185 22.3983C72.0098 22.3999 72.0008 22.3997 71.9921 22.3977C70.9869 22.1735 69.2684 22.0477 68.8919 23.2892C68.7835 23.6456 68.8341 24.157 68.8052 24.5777C68.8047 24.5838 68.8055 24.5898 68.8075 24.5955C68.8095 24.6012 68.8126 24.6065 68.8168 24.6109C68.8209 24.6153 68.8259 24.6189 68.8315 24.6213C68.8371 24.6237 68.8432 24.6249 68.8493 24.6249H71.805C71.8151 24.6249 71.8249 24.6289 71.832 24.636C71.8392 24.6431 71.8433 24.6527 71.8433 24.6627L71.8425 26.7527C71.8425 26.7866 71.8254 26.8035 71.7912 26.8035H68.8645C68.8543 26.8035 68.8446 26.8075 68.8374 26.8145C68.8302 26.8216 68.8262 26.8313 68.8262 26.8413Z" fill="#050D12"/>
<path id="Vector_3" d="M163.982 24.147V36.4685C163.802 38.0735 162.995 38.722 161.375 38.7763C160.524 38.8049 159.672 38.8085 158.82 38.787C158.527 38.7799 158.25 38.7887 157.987 38.8135C157.926 38.8192 157.895 38.7916 157.895 38.7306L157.886 36.737C157.886 36.7118 157.899 36.6992 157.924 36.6992C158.708 36.6949 159.487 36.692 160.259 36.6906C160.725 36.6897 160.958 36.4594 160.958 35.9999C160.965 32.1847 160.966 28.3694 160.963 24.5542C160.963 24.0013 160.549 23.8799 160.075 23.8778C159.354 23.8744 158.645 23.8737 157.948 23.8756C157.94 23.8756 157.932 23.8741 157.925 23.8711C157.918 23.8682 157.911 23.8639 157.906 23.8584C157.901 23.853 157.896 23.8465 157.893 23.8394C157.89 23.8323 157.889 23.8247 157.889 23.817L157.896 21.8506C157.896 21.823 157.909 21.8059 157.936 21.7992C158.097 21.7592 158.299 21.807 158.412 21.8056C159.339 21.797 160.267 21.7997 161.195 21.8135C162.836 21.8378 163.857 22.4192 163.982 24.147Z" fill="#050D12"/>
<path id="Vector_4" d="M19.0129 35.9822C19.0129 36.3737 19.1935 36.6715 19.6192 36.6794C20.4199 36.6932 21.2244 36.6994 22.0328 36.698C22.0699 36.698 22.0885 36.7163 22.0885 36.753V38.7422C22.0885 38.7703 22.0743 38.7844 22.0458 38.7844C21.0009 38.7877 19.9617 38.7877 18.9283 38.7844C17.1209 38.778 16.0261 38.123 16.0189 36.2101C16.0054 32.3368 15.9991 28.4632 16.0001 24.5894C16.0001 22.6244 16.9135 21.8215 18.8589 21.8087C19.9232 21.8015 20.9886 21.8006 22.0552 21.8058C22.0641 21.8058 22.0725 21.8093 22.0787 21.8154C22.085 21.8216 22.0885 21.83 22.0885 21.8387V23.8201C22.0885 23.8279 22.0869 23.8357 22.0838 23.843C22.0808 23.8502 22.0763 23.8568 22.0707 23.8623C22.065 23.8678 22.0583 23.8721 22.0509 23.8751C22.0436 23.878 22.0357 23.8795 22.0278 23.8794C21.3143 23.8689 20.6164 23.8706 19.9342 23.8844C19.4154 23.8951 19.0194 23.9701 19.0194 24.558C19.0165 28.3661 19.0143 32.1741 19.0129 35.9822Z" fill="#050D12"/>
<path id="Vector_5" d="M52.4305 25.1635C53.7754 24.1313 55.7186 24.3463 56.7354 25.7306C56.7415 25.739 56.7495 25.7459 56.7588 25.7506C56.7681 25.7553 56.7784 25.7578 56.7889 25.7578C56.7993 25.7578 56.8096 25.7553 56.8189 25.7506C56.8283 25.7459 56.8363 25.739 56.8424 25.7306C57.5672 24.7392 58.8615 24.2906 60.0495 24.6249C61.4356 25.0149 62.1972 26.217 62.4191 27.5592C62.4605 27.8116 62.4817 28.2049 62.4827 28.7392C62.4861 31.3368 62.4865 33.9366 62.4841 36.5385C62.484 36.5472 62.4803 36.5556 62.4739 36.5617C62.4676 36.5679 62.4591 36.5713 62.4502 36.5713H59.7185C59.6477 36.5713 59.6123 36.5363 59.6123 36.4663C59.6128 33.6949 59.6121 30.9263 59.6101 28.1606C59.6097 27.7582 59.5379 27.4078 59.3948 27.1092C59.2134 26.7306 58.4785 26.7428 58.1713 26.8278C57.6207 26.9806 57.5592 27.8835 57.5585 28.3442C57.5527 31.067 57.551 33.7918 57.5535 36.5185C57.5535 36.5325 57.5478 36.5459 57.5378 36.5558C57.5278 36.5658 57.5142 36.5713 57.5 36.5713H54.7329C54.7235 36.5713 54.7145 36.5676 54.7079 36.5611C54.7013 36.5545 54.6975 36.5456 54.6975 36.5363C54.699 33.8301 54.6994 31.1216 54.699 28.4106C54.6985 27.972 54.633 27.5732 54.5024 27.2142C54.3051 26.672 53.164 26.6178 52.8873 27.0842C52.669 27.452 52.6221 27.9663 52.6221 28.3835C52.6201 31.0935 52.6199 33.8051 52.6213 36.5185C52.6213 36.5325 52.6157 36.5459 52.6057 36.5558C52.5956 36.5658 52.582 36.5713 52.5679 36.5713H49.8051C49.7902 36.5713 49.7759 36.5655 49.7653 36.555C49.7547 36.5446 49.7488 36.5304 49.7488 36.5156L49.748 24.6649C49.748 24.6543 49.7523 24.6441 49.7599 24.6366C49.7675 24.6291 49.7778 24.6249 49.7885 24.6249H52.1588C52.1882 24.6249 52.2072 24.6385 52.2159 24.6656L52.3706 25.1456C52.3816 25.1799 52.4016 25.1858 52.4305 25.1635Z" fill="#050D12"/>
<path id="Vector_6" d="M88.064 25.2693C89.3166 24.4303 90.5634 24.3243 91.8045 24.9514C93.6552 25.8865 93.8091 27.7529 93.7123 29.5664C93.7108 29.5936 93.6964 29.6072 93.6689 29.6072H90.9026C90.8884 29.6072 90.8748 29.6017 90.8648 29.5919C90.8548 29.5821 90.8491 29.5689 90.8491 29.555C90.8484 28.3572 91.1302 26.5286 89.2058 26.8165C88.3596 26.9429 88.2309 27.7765 88.2309 28.4615C88.229 31.1548 88.2288 33.8498 88.2302 36.5465C88.2302 36.5531 88.2275 36.5594 88.2228 36.5641C88.2181 36.5688 88.2116 36.5715 88.2049 36.5715H85.4314C85.4116 36.5715 85.3927 36.5637 85.3787 36.5499C85.3648 36.5361 85.3569 36.5174 85.3569 36.4979V24.7164C85.3569 24.6922 85.3667 24.6689 85.384 24.6518C85.4014 24.6347 85.4249 24.625 85.4494 24.625H87.793C87.8045 24.6251 87.8156 24.6288 87.8247 24.6356C87.8338 24.6424 87.8405 24.652 87.8436 24.6629L88.0105 25.25C88.0192 25.281 88.037 25.2874 88.064 25.2693Z" fill="#050D12"/>
<path id="Vector_7" d="M135.899 25.2764C138.188 23.6893 141.061 24.8743 141.487 27.5971C141.523 27.8276 141.541 28.1835 141.541 28.665C141.544 31.2874 141.545 33.9116 141.543 36.5378C141.543 36.5467 141.539 36.5553 141.533 36.5616C141.526 36.5679 141.518 36.5714 141.509 36.5714H138.725C138.715 36.5714 138.706 36.5675 138.699 36.5605C138.692 36.5536 138.688 36.5441 138.688 36.5343C138.689 33.8438 138.691 31.1538 138.693 28.4643C138.693 27.84 138.549 26.9828 137.804 26.8271C136.421 26.5393 136.072 27.3828 136.072 28.5478C136.069 31.2121 136.068 33.8783 136.07 36.5464C136.07 36.553 136.067 36.5594 136.063 36.5641C136.058 36.5688 136.051 36.5714 136.045 36.5714H133.251C133.237 36.5714 133.223 36.5658 133.213 36.5557C133.202 36.5457 133.197 36.532 133.197 36.5178V24.7343C133.197 24.6614 133.234 24.625 133.307 24.625H135.621C135.649 24.625 135.667 24.6385 135.675 24.6657L135.847 25.2585C135.848 25.2636 135.851 25.2683 135.855 25.2721C135.858 25.276 135.863 25.2789 135.868 25.2806C135.873 25.2824 135.879 25.2829 135.884 25.2822C135.889 25.2814 135.894 25.2795 135.899 25.2764Z" fill="#050D12"/>
<path id="Vector_8" d="M114.711 34.3936L119.455 34.3929C119.486 34.3929 119.502 34.4083 119.502 34.4393V36.5157C119.502 36.5305 119.496 36.5447 119.486 36.5551C119.475 36.5656 119.461 36.5714 119.446 36.5714H111.174C111.159 36.5714 111.144 36.5656 111.134 36.5551C111.123 36.5447 111.117 36.5305 111.117 36.5157C111.119 36.1664 111.059 35.4486 111.218 35.1736C112.811 32.3998 114.404 29.63 115.997 26.8643C116.001 26.8578 116.003 26.8506 116.003 26.8433C116.003 26.8359 116 26.8288 115.997 26.8225C115.993 26.8162 115.988 26.811 115.981 26.8075C115.975 26.8039 115.968 26.8021 115.961 26.8021L111.213 26.8043C111.203 26.8043 111.193 26.8003 111.186 26.7932C111.178 26.7861 111.174 26.7765 111.174 26.7664L111.172 24.6771C111.172 24.6703 111.173 24.6636 111.176 24.6572C111.179 24.6509 111.183 24.6452 111.187 24.6403C111.192 24.6355 111.198 24.6316 111.205 24.629C111.211 24.6264 111.218 24.625 111.225 24.625H119.449C119.457 24.625 119.464 24.6265 119.472 24.6295C119.479 24.6324 119.485 24.6368 119.491 24.6422C119.496 24.6477 119.5 24.6542 119.503 24.6613C119.506 24.6684 119.508 24.6759 119.507 24.6836C119.496 25.1217 119.488 25.5605 119.482 26C119.481 26.0964 119.345 26.2807 119.309 26.345C117.775 29.0079 116.234 31.6771 114.687 34.3529C114.671 34.38 114.679 34.3936 114.711 34.3936Z" fill="#050D12"/>
<path id="Vector_9" d="M31.9693 26.9492C31.5979 26.7725 31.1992 26.7463 30.7733 26.8706C30.0926 27.0699 29.9871 27.8935 29.9857 28.4835C29.9823 29.9111 29.9804 31.3392 29.9799 32.7678C29.9791 33.8535 30.3585 34.4992 31.5784 34.3828C32.5193 34.2935 32.653 33.1935 32.5944 32.4592C32.5938 32.4507 32.595 32.4421 32.5979 32.4341C32.6007 32.426 32.6052 32.4187 32.611 32.4124C32.6169 32.4062 32.6239 32.4012 32.6318 32.3979C32.6396 32.3945 32.6481 32.3927 32.6566 32.3928H35.4388C35.4479 32.3928 35.4566 32.3963 35.4631 32.4026C35.4696 32.4088 35.4733 32.4174 35.4735 32.4263C35.4778 33.1328 35.3955 33.8642 35.1078 34.4949C34.331 36.1956 32.4181 36.7328 30.6584 36.5463C28.8966 36.3585 27.5424 35.4128 27.2005 33.6228C27.1451 33.3333 27.1165 32.859 27.1145 32.1999C27.1112 31.2947 27.1109 30.0852 27.1138 28.5713C27.1189 25.5292 29.4798 24.2799 32.2786 24.7163C34.1099 25.0013 35.3666 26.2735 35.4453 28.1399C35.4646 28.5942 35.4752 29.0585 35.4771 29.5328C35.4771 29.5429 35.4751 29.5529 35.4712 29.5622C35.4673 29.5715 35.4616 29.58 35.4544 29.5871C35.4472 29.5942 35.4387 29.5998 35.4293 29.6036C35.42 29.6074 35.4099 29.6093 35.3998 29.6092L32.6523 29.5999C32.6392 29.5999 32.6267 29.5948 32.6175 29.5857C32.6083 29.5766 32.6031 29.5642 32.6031 29.5513C32.6031 28.8549 32.7693 27.3299 31.9693 26.9492Z" fill="#050D12"/>
<path id="Vector_10" d="M46.767 32.9286C46.725 34.8007 45.597 36.095 43.7947 36.455C41.6014 36.8943 39.0757 36.1886 38.5439 33.7464C38.4803 33.456 38.4465 32.9822 38.4427 32.325C38.4359 31.1893 38.4347 30.0533 38.4391 28.9172C38.4415 28.2743 38.4754 27.8007 38.541 27.4964C38.9182 25.7322 40.2898 24.8086 42.0422 24.6607C44.203 24.4793 46.2929 25.3014 46.7034 27.6064C46.7496 27.8683 46.7761 28.3431 46.7829 29.0307C46.7973 30.4993 46.792 31.7986 46.767 32.9286ZM41.3015 31.2322C41.2957 32.1488 41.302 32.7753 41.3203 33.1114C41.3738 34.0879 41.9606 34.5164 42.9383 34.3822C43.6458 34.285 43.9117 33.5707 43.9117 32.9822C43.9132 31.4307 43.9129 29.8793 43.911 28.3279C43.9096 27.3079 43.4464 26.6722 42.3197 26.8222C41.6253 26.915 41.3116 27.5364 41.3116 28.1786C41.3111 29.1962 41.3078 30.2141 41.3015 31.2322Z" fill="#050D12"/>
<path id="Vector_11" d="M82.3759 32.982C82.2429 35.7956 79.9312 36.8185 77.4084 36.517C75.1826 36.2513 74.0538 34.7427 74.0495 32.597C74.047 31.4461 74.0463 30.2951 74.0473 29.1442C74.0478 28.458 74.069 27.9827 74.1109 27.7185C74.4093 25.8285 75.8294 24.792 77.701 24.6585C80.0367 24.492 82.1555 25.4642 82.3723 28.0192C82.3814 28.1216 82.3884 28.4663 82.3932 29.0535C82.4111 31.0468 82.4053 32.3563 82.3759 32.982ZM79.5214 32.7499C79.5407 30.8713 79.5431 29.4532 79.5286 28.4956C79.5178 27.8085 79.3942 26.9642 78.587 26.8363C77.4394 26.6542 76.9249 27.2342 76.922 28.3213C76.9182 29.8118 76.9182 31.302 76.922 32.792C76.9227 33.2442 77.0087 33.8827 77.3968 34.182C77.7957 34.4892 78.6875 34.4763 79.0741 34.1563C79.447 33.847 79.5163 33.237 79.5214 32.7499Z" fill="#050D12"/>
<path id="Vector_12" d="M130.231 32.8928C130.212 34.7857 128.955 36.2021 127.077 36.4943C124.881 36.835 122.518 36.1371 121.992 33.7478C121.926 33.4455 121.892 32.9712 121.89 32.325C121.886 31.0145 121.886 29.7038 121.893 28.3928C121.899 27.1514 122.375 26.0236 123.425 25.3221C124.721 24.4571 126.93 24.4136 128.301 25.1107C129.548 25.7455 130.185 26.8326 130.213 28.3721C130.241 29.8778 130.247 31.3848 130.231 32.8928ZM124.76 28.3214C124.737 30.0509 124.734 31.5464 124.752 32.8078C124.759 33.37 124.905 34.17 125.536 34.3371C126.738 34.655 127.357 34.0071 127.359 32.8571C127.362 31.3838 127.362 29.9105 127.359 28.4371C127.357 27.7293 127.185 26.8986 126.314 26.8121C125.197 26.7014 124.773 27.285 124.76 28.3214Z" fill="#050D12"/>
<path id="Vector_13" d="M147.398 31.3878C147.393 32.1114 147.288 33.0121 147.583 33.6914C147.841 34.2885 148.43 34.5064 149.051 34.3778C150.053 34.17 150.02 33.2764 149.996 32.4871C149.995 32.4772 149.997 32.4673 150 32.4581C150.004 32.4488 150.009 32.4404 150.016 32.4332C150.023 32.4261 150.032 32.4204 150.041 32.4165C150.05 32.4127 150.06 32.4107 150.07 32.4107H152.846C152.855 32.4107 152.862 32.4138 152.868 32.4195C152.874 32.4251 152.877 32.4327 152.877 32.4407C152.879 33.2771 152.908 34.0585 152.419 34.7857C151.787 35.7262 150.906 36.2947 149.777 36.4914C147.069 36.9635 144.531 35.7735 144.527 32.745C144.524 31.515 144.523 30.285 144.524 29.055C144.524 28.3931 144.551 27.9185 144.603 27.6314C144.941 25.7943 146.345 24.8064 148.167 24.6735C150.304 24.5185 152.315 25.2843 152.776 27.5464C152.836 27.844 152.868 28.3183 152.87 28.9693C152.873 29.7473 152.872 30.5262 152.87 31.3057C152.87 31.3146 152.866 31.3231 152.86 31.3294C152.853 31.3357 152.845 31.3393 152.836 31.3393H147.448C147.415 31.3393 147.399 31.3554 147.398 31.3878ZM147.479 29.185L149.918 29.1893C149.94 29.1893 149.96 29.1808 149.975 29.1658C149.991 29.1508 149.999 29.1305 149.999 29.1093L150.001 28.1678C150.002 27.9911 149.974 27.816 149.919 27.6526C149.864 27.4891 149.784 27.3406 149.682 27.2155C149.58 27.0903 149.46 26.9909 149.327 26.9231C149.194 26.8552 149.051 26.8202 148.907 26.82H148.498C148.208 26.8195 147.929 26.9608 147.723 27.2128C147.517 27.4647 147.4 27.8067 147.4 28.1635L147.398 29.105C147.398 29.1155 147.4 29.1259 147.404 29.1356C147.408 29.1453 147.414 29.1541 147.421 29.1615C147.429 29.169 147.438 29.1749 147.448 29.1789C147.457 29.1829 147.468 29.185 147.479 29.185Z" fill="#050D12"/>
<path id="Vector_14" d="M93.098 46.51L94.5831 44.7878C94.5933 44.776 94.6059 44.7664 94.6201 44.7599C94.6343 44.7534 94.6498 44.75 94.6655 44.75H95.7126C95.7183 44.7499 95.7239 44.7514 95.7287 44.7545C95.7335 44.7575 95.7374 44.7619 95.7397 44.7671C95.7421 44.7723 95.7429 44.7781 95.7421 44.7838C95.7412 44.7895 95.7388 44.7949 95.735 44.7993L94.177 46.5214C94.172 46.527 94.1686 46.5338 94.1672 46.5411C94.1658 46.5485 94.1665 46.556 94.1691 46.5629C94.1717 46.5699 94.1762 46.5759 94.182 46.5804C94.1879 46.5849 94.1949 46.5878 94.2022 46.5885C94.7269 46.6514 95.2277 46.8914 95.4503 47.38C95.5235 47.5419 95.5611 47.809 95.563 48.1814C95.5659 48.7185 95.5659 49.2516 95.563 49.7807C95.563 49.793 95.558 49.8048 95.549 49.8135C95.5401 49.8222 95.528 49.8271 95.5153 49.8271L94.5896 49.8185C94.5665 49.8185 94.5549 49.8071 94.5549 49.7843C94.5506 49.2157 94.5501 48.6504 94.5535 48.0885C94.5592 47.0721 93.8987 47.1957 93.1522 47.2171C93.0862 47.219 93.0532 47.2526 93.0532 47.3178V49.7843C93.0532 49.8071 93.0417 49.8185 93.0185 49.8185L92.0921 49.8271C92.0855 49.8272 92.0789 49.826 92.0728 49.8236C92.0667 49.8211 92.0611 49.8175 92.0564 49.8129C92.0517 49.8084 92.0479 49.8029 92.0454 49.7969C92.0428 49.7908 92.0415 49.7844 92.0415 49.7778V42.5857C92.0415 42.5703 92.0476 42.5556 92.0584 42.5448C92.0693 42.5339 92.084 42.5278 92.0993 42.5278H93.0048C93.018 42.5278 93.0307 42.533 93.0401 42.5423C93.0494 42.5515 93.0547 42.564 93.0547 42.5771L93.0532 46.4935C93.0531 46.4987 93.0546 46.5038 93.0576 46.5081C93.0606 46.5124 93.0648 46.5157 93.0697 46.5175C93.0746 46.5193 93.08 46.5196 93.0851 46.5182C93.0902 46.5169 93.0947 46.514 93.098 46.51Z" fill="#050D12"/>
<path id="Vector_15" d="M65.7274 43.0344L64.7996 43.0328C64.7692 43.0328 64.7446 43.057 64.7445 43.087L64.7434 43.7299C64.7433 43.7598 64.7679 43.7842 64.7982 43.7842L65.7261 43.7858C65.7564 43.7859 65.7811 43.7616 65.7811 43.7316L65.7823 43.0888C65.7823 43.0588 65.7578 43.0345 65.7274 43.0344Z" fill="#050D12"/>
<path id="Vector_16" d="M98.1691 43.035L97.2586 43.0365C97.2307 43.0366 97.208 43.059 97.2081 43.0866L97.2092 43.7366C97.2093 43.7642 97.232 43.7866 97.2599 43.7865L98.1705 43.785C98.1984 43.7849 98.221 43.7625 98.221 43.7349L98.2198 43.0849C98.2198 43.0573 98.1971 43.0349 98.1691 43.035Z" fill="#050D12"/>
<path id="Vector_17" d="M120.349 43.0339L119.378 43.0373C119.366 43.0373 119.356 43.0469 119.356 43.0588L119.359 43.7673C119.359 43.7792 119.368 43.7887 119.38 43.7887L120.352 43.7854C120.364 43.7853 120.373 43.7757 120.373 43.7638L120.371 43.0553C120.371 43.0434 120.361 43.0339 120.349 43.0339Z" fill="#050D12"/>
<path id="Vector_18" d="M128.495 44.9736C128.988 44.6017 129.518 44.5158 130.085 44.7158C130.759 44.9543 130.958 45.4815 130.966 46.1715C130.98 47.3762 130.981 48.5812 130.97 49.7865C130.97 49.8079 130.959 49.8188 130.937 49.8193L129.993 49.8272C129.98 49.8272 129.968 49.8222 129.959 49.8134C129.95 49.8045 129.945 49.7925 129.945 49.78C129.946 48.5143 129.945 47.2486 129.944 45.9829C129.943 45.0208 128.458 45.0308 128.459 46.0136C128.46 47.2693 128.462 48.5258 128.466 49.7829C128.466 49.8086 128.453 49.8215 128.427 49.8215H127.57C127.551 49.8215 127.533 49.8179 127.517 49.811C127.5 49.804 127.485 49.7939 127.472 49.781C127.459 49.7682 127.449 49.753 127.442 49.7363C127.435 49.7196 127.432 49.7017 127.432 49.6836L127.458 44.7829C127.458 44.761 127.469 44.75 127.491 44.75H128.291C128.318 44.75 128.338 44.7622 128.35 44.7865L128.437 44.96C128.451 44.9877 128.47 44.9922 128.495 44.9736Z" fill="#050D12"/>
<path id="Vector_19" d="M50.0776 44.9656C50.5907 44.5842 51.1355 44.508 51.7122 44.7371C52.4537 45.0313 52.5433 45.6163 52.5462 46.3949C52.55 47.5249 52.5503 48.6552 52.5469 49.7856C52.5469 49.8085 52.5351 49.8199 52.5115 49.8199L51.5663 49.8235C51.553 49.8235 51.5403 49.8184 51.531 49.8093C51.5216 49.8002 51.5164 49.7878 51.5164 49.7749C51.5188 48.5235 51.5219 47.2652 51.5258 45.9999C51.5294 45.0335 50.0443 45.0371 50.0407 45.9699C50.0359 47.2428 50.0349 48.5113 50.0378 49.7756C50.0379 49.7824 50.0367 49.7892 50.0341 49.7955C50.0315 49.8019 50.0277 49.8076 50.0228 49.8125C50.018 49.8173 50.0122 49.8212 50.0059 49.8238C49.9995 49.8264 49.9927 49.8278 49.9858 49.8278L49.1063 49.8221C49.0848 49.8219 49.0642 49.8132 49.049 49.798C49.0339 49.7827 49.0254 49.7621 49.0254 49.7406V44.7792C49.0254 44.7716 49.0284 44.7644 49.0339 44.759C49.0393 44.7536 49.0466 44.7506 49.0543 44.7506L49.8608 44.7499C49.8868 44.7499 49.9063 44.7611 49.9193 44.7835L50.0162 44.9528C50.0321 44.9799 50.0525 44.9842 50.0776 44.9656Z" fill="#050D12"/>
<path id="Vector_20" d="M56.5222 49.2129C56.8033 49.1186 56.8235 48.7843 56.804 48.48C56.7216 47.1807 54.3824 47.9007 54.2176 46.2393C54.1665 45.726 54.2993 45.3257 54.6158 45.0386C55.1643 44.5407 56.4008 44.4929 57.0692 44.825C57.6343 45.1064 57.867 45.6091 57.7673 46.3329C57.7634 46.361 57.7473 46.375 57.7189 46.375H56.8495C56.844 46.375 56.8386 46.3739 56.8335 46.3718C56.8285 46.3696 56.8239 46.3665 56.8201 46.3625C56.8163 46.3586 56.8134 46.3539 56.8115 46.3488C56.8096 46.3437 56.8088 46.3383 56.8091 46.3329C56.8372 45.835 56.8365 45.3936 56.2179 45.305C55.8313 45.2507 55.3782 45.2786 55.2394 45.6929C55.0031 46.395 55.4057 46.7264 56.0235 46.9236C56.911 47.2064 57.7854 47.3543 57.7926 48.5114C57.8013 50.0136 56.3314 50.085 55.2048 49.8572C54.3744 49.6893 54.1381 48.9922 54.2191 48.2372C54.2215 48.2138 54.2347 48.2019 54.2588 48.2014L55.1376 48.1843C55.1445 48.1842 55.1514 48.1855 55.1578 48.1882C55.1642 48.1909 55.17 48.1948 55.1749 48.1999C55.1797 48.2049 55.1834 48.2109 55.1858 48.2174C55.1882 48.2239 55.1893 48.2309 55.1889 48.2379C55.1783 48.4398 55.1838 48.6464 55.2055 48.8579C55.2597 49.3864 56.171 49.33 56.5222 49.2129Z" fill="#050D12"/>
<path id="Vector_21" d="M79.3734 49.2307C79.7159 49.3229 80.5846 49.3821 80.6185 48.8393C80.6568 48.2207 80.5477 47.8493 79.8836 47.6793C79.715 47.636 79.3825 47.5183 78.8863 47.3264C78.3819 47.1312 78.101 46.7671 78.0437 46.2343C77.8746 44.6571 79.5353 44.4321 80.6597 44.7307C81.4351 44.9371 81.6772 45.6136 81.6107 46.3421C81.61 46.3511 81.606 46.3595 81.5994 46.3656C81.5928 46.3716 81.5842 46.375 81.5753 46.375H80.659C80.654 46.3751 80.649 46.374 80.6444 46.372C80.6398 46.3699 80.6356 46.3669 80.6323 46.3631C80.6289 46.3593 80.6264 46.3549 80.6249 46.35C80.6234 46.3452 80.623 46.3401 80.6236 46.335C80.6771 45.9186 80.6568 45.4064 80.1293 45.3121C79.7427 45.2436 79.205 45.2586 79.0576 45.6986C78.882 46.2236 79.1103 46.6486 79.6227 46.845C80.1286 47.0393 80.7096 47.1336 81.1432 47.4321C81.618 47.7593 81.6967 48.4807 81.55 49.0236C81.2805 50.0164 80.078 50.0079 79.2159 49.89C78.2547 49.7593 77.9649 49.1207 78.0466 48.24C78.0477 48.2293 78.0527 48.2194 78.0607 48.2122C78.0687 48.2049 78.0791 48.2008 78.09 48.2007L78.9261 48.1871C78.9383 48.1868 78.9505 48.189 78.9619 48.1936C78.9733 48.1981 78.9836 48.2049 78.9922 48.2136C79.0008 48.2222 79.0075 48.2325 79.0119 48.2438C79.0163 48.2551 79.0183 48.2672 79.0178 48.2793C79.0034 48.6021 78.9376 49.1136 79.3734 49.2307Z" fill="#050D12"/>
<path id="Vector_22" d="M87.9106 49.1071C88.1708 49.3679 89.262 49.3971 89.3661 48.9293C89.6161 47.8057 88.6832 47.6729 87.9027 47.4329C86.9791 47.1495 86.6315 46.5355 86.8599 45.5907C87.1027 44.5864 88.449 44.5286 89.2765 44.6979C90.1668 44.88 90.4067 45.505 90.3785 46.3193C90.378 46.3341 90.3716 46.3482 90.3607 46.3586C90.3498 46.369 90.3352 46.3748 90.32 46.375H89.4412C89.4152 46.375 89.4024 46.3621 89.4029 46.3364C89.4065 46.0964 89.4167 45.7121 89.2678 45.5236C88.9953 45.1786 87.9974 45.1721 87.8434 45.6543C87.2154 47.6236 90.7565 46.3564 90.3431 48.8407C90.2554 49.3664 89.97 49.6948 89.4868 49.8257C88.8792 49.991 88.2715 49.9917 87.6635 49.8279C86.9184 49.6279 86.7298 48.9179 86.8151 48.2379C86.818 48.214 86.8317 48.2019 86.8563 48.2014L87.743 48.1843C87.7772 48.1838 87.7921 48.2002 87.7878 48.2336C87.7582 48.4593 87.7387 48.935 87.9106 49.1071Z" fill="#050D12"/>
<path id="Vector_23" d="M101.05 44.9635C102.12 44.1999 103.499 44.7107 103.519 46.0921C103.536 47.2973 103.539 48.5166 103.527 49.7499C103.527 49.7701 103.519 49.7893 103.504 49.8035C103.49 49.8177 103.47 49.8257 103.45 49.8257L102.569 49.8214C102.551 49.8214 102.534 49.8143 102.521 49.8017C102.508 49.7891 102.501 49.772 102.501 49.7542C102.503 48.5157 102.503 47.2704 102.501 46.0185C102.501 45.0171 101.022 45.0307 101.021 45.9828C101.019 47.2504 101.019 48.5114 101.021 49.7657C101.021 49.7726 101.02 49.7794 101.017 49.7858C101.015 49.7922 101.011 49.7981 101.006 49.803C101.001 49.8079 100.995 49.8118 100.989 49.8145C100.982 49.8171 100.975 49.8185 100.968 49.8185L100.037 49.8271C100.031 49.8271 100.025 49.8259 100.019 49.8237C100.014 49.8214 100.009 49.8181 100.004 49.8139C100 49.8097 99.9966 49.8048 99.9942 49.7993C99.9919 49.7938 99.9907 49.788 99.9907 49.7821V44.7792C99.9907 44.7716 99.9938 44.7644 99.9992 44.759C100.005 44.7537 100.012 44.7507 100.02 44.7507L100.83 44.7499C100.858 44.7499 100.878 44.7614 100.892 44.7842L100.992 44.9514C101.007 44.9766 101.027 44.9807 101.05 44.9635Z" fill="#050D12"/>
<path id="Vector_24" d="M111.405 46.2928C111.464 45.81 111.389 45.3971 110.832 45.3014C110.46 45.2385 109.927 45.2971 109.819 45.7221C109.377 47.4471 112.168 46.5492 112.378 48.2885C112.549 49.7028 111.432 50.06 110.275 49.9378C109.211 49.825 108.698 49.3542 108.822 48.235C108.825 48.2126 108.837 48.2011 108.86 48.2007L109.726 48.1864C109.737 48.1861 109.748 48.1882 109.758 48.1925C109.768 48.1968 109.777 48.2032 109.785 48.2114C109.792 48.2195 109.798 48.2291 109.801 48.2396C109.804 48.2501 109.805 48.2612 109.804 48.2721C109.775 48.4954 109.783 48.7138 109.828 48.9271C109.933 49.4328 111.26 49.4321 111.388 48.8935C111.559 48.17 111.186 47.8242 110.548 47.6371C109.504 47.3307 108.512 46.9492 108.873 45.6128C109.148 44.5985 110.417 44.5092 111.257 44.69C112.158 44.8828 112.445 45.4721 112.381 46.34C112.38 46.3494 112.376 46.3582 112.369 46.3647C112.362 46.3711 112.353 46.3748 112.343 46.375H111.48C111.469 46.3749 111.459 46.3727 111.449 46.3684C111.439 46.3641 111.431 46.3579 111.424 46.3502C111.417 46.3424 111.411 46.3333 111.408 46.3234C111.405 46.3135 111.404 46.3031 111.405 46.2928Z" fill="#050D12"/>
<path id="Vector_25" d="M39.6174 45.4864C39.5097 45.5671 39.4533 45.8999 39.4526 46.0678C39.4487 46.9145 39.4487 47.7606 39.4526 48.6064C39.4548 49.0006 39.6745 49.2464 40.0755 49.2928C41.0533 49.4049 40.9362 48.5035 40.9326 47.8764C40.9326 47.8516 40.9451 47.8392 40.9702 47.8392H41.8901C41.921 47.8392 41.9369 47.8545 41.9378 47.8849C41.9508 48.273 41.953 48.5257 41.9443 48.6428C41.8576 49.8428 40.538 50.1099 39.5596 49.8742C38.6382 49.6528 38.4214 49.1121 38.4214 48.2392C38.4209 47.6597 38.4204 47.0807 38.4199 46.5021C38.4194 46.0254 38.4565 45.6945 38.5312 45.5092C38.9099 44.5664 40.314 44.4907 41.1263 44.8078C41.9978 45.1471 41.9537 45.9007 41.9422 46.6971C41.942 46.7106 41.9365 46.7235 41.9269 46.733C41.9173 46.7425 41.9043 46.7478 41.8908 46.7478L41.0005 46.7542C40.9906 46.7543 40.9808 46.7524 40.9716 46.7486C40.9625 46.7448 40.9542 46.7392 40.9474 46.7321C40.9405 46.725 40.9352 46.7165 40.9318 46.7073C40.9284 46.6981 40.9269 46.6883 40.9275 46.6785C40.9528 46.2207 41.0294 45.5335 40.4889 45.3335C40.1907 45.223 39.9002 45.274 39.6174 45.4864Z" fill="#050D12"/>
<path id="Vector_26" d="M47.2447 48.5307C47.2437 48.7162 47.2057 48.8997 47.133 49.0708C47.0603 49.2418 46.9542 49.397 46.8207 49.5275C46.6873 49.658 46.5292 49.7613 46.3554 49.8314C46.1816 49.9015 45.9955 49.9371 45.8078 49.9361L45.1314 49.9326C44.7523 49.9306 44.3895 49.7799 44.1229 49.5136C43.8562 49.2472 43.7075 48.8871 43.7095 48.5124L43.7225 46.061C43.7235 45.8754 43.7614 45.6919 43.8341 45.5209C43.9069 45.3498 44.013 45.1946 44.1464 45.0641C44.2799 44.9336 44.438 44.8304 44.6118 44.7603C44.7856 44.6901 44.9716 44.6546 45.1594 44.6555L45.8358 44.659C46.2149 44.661 46.5776 44.8117 46.8443 45.0781C47.111 45.3444 47.2596 45.7046 47.2577 46.0793L47.2447 48.5307ZM46.2229 45.9473C46.2229 45.776 46.154 45.6118 46.0315 45.4907C45.909 45.3696 45.7428 45.3015 45.5696 45.3015H45.399C45.2258 45.3015 45.0596 45.3696 44.9371 45.4907C44.8146 45.6118 44.7457 45.776 44.7457 45.9473V48.6515C44.7457 48.8228 44.8146 48.987 44.9371 49.1081C45.0596 49.2292 45.2258 49.2973 45.399 49.2973H45.5696C45.7428 49.2973 45.909 49.2292 46.0315 49.1081C46.154 48.987 46.2229 48.8228 46.2229 48.6515V45.9473Z" fill="#050D12"/>
<path id="Vector_27" d="M60.4855 48.6558C60.4964 49.1801 60.961 49.3608 61.417 49.2765C62.1006 49.1493 61.9641 48.3793 61.9619 47.8765C61.9619 47.8517 61.9744 47.8393 61.9995 47.8393H62.9368C62.9652 47.8393 62.9804 47.8536 62.9823 47.8822C63.022 48.4972 63.0264 49.1486 62.5472 49.5515C61.7964 50.1815 59.9927 50.1101 59.5641 49.1015C59.4976 48.9444 59.4637 48.7177 59.4622 48.4215C59.4584 47.672 59.4608 46.9229 59.4695 46.1743C59.4728 45.8639 59.5092 45.6301 59.5786 45.4729C60.0801 44.3358 62.282 44.3786 62.8356 45.4229C63.0271 45.7844 63.004 46.2879 62.9873 46.7065C62.987 46.7184 62.9819 46.7298 62.9731 46.7382C62.9644 46.7465 62.9526 46.7513 62.9404 46.7515L62.0255 46.7565C62.0162 46.7565 62.0071 46.7547 61.9985 46.7511C61.99 46.7475 61.9823 46.7422 61.9759 46.7356C61.9695 46.729 61.9645 46.7212 61.9612 46.7126C61.9579 46.7041 61.9564 46.6949 61.9568 46.6858C61.9821 46.0693 62.0855 45.2779 61.1771 45.2993C60.7645 45.3086 60.4906 45.5336 60.4862 45.9693C60.4727 47.1446 60.4725 48.0401 60.4855 48.6558Z" fill="#050D12"/>
<path id="Vector_28" d="M71.0802 48.5172C71.0802 48.7034 71.043 48.8879 70.9709 49.06C70.8988 49.2321 70.7931 49.3885 70.6598 49.5202C70.5265 49.652 70.3683 49.7565 70.1942 49.8277C70.0201 49.899 69.8334 49.9357 69.645 49.9357H68.9801C68.7916 49.9357 68.605 49.899 68.4309 49.8277C68.2568 49.7565 68.0985 49.652 67.9653 49.5202C67.832 49.3885 67.7263 49.2321 67.6542 49.06C67.582 48.8879 67.5449 48.7034 67.5449 48.5172V46.0729C67.5449 45.6966 67.6961 45.3358 67.9653 45.0698C68.2344 44.8038 68.5995 44.6543 68.9801 44.6543H69.645C70.0256 44.6543 70.3906 44.8038 70.6598 45.0698C70.9289 45.3358 71.0802 45.6966 71.0802 46.0729V48.5172ZM70.0511 45.9457C70.0511 45.7748 69.9824 45.611 69.8602 45.4901C69.7379 45.3693 69.5721 45.3014 69.3993 45.3014H69.2258C69.0529 45.3014 68.8871 45.3693 68.7649 45.4901C68.6427 45.611 68.574 45.7748 68.574 45.9457V48.6529C68.574 48.8237 68.6427 48.9876 68.7649 49.1084C68.8871 49.2293 69.0529 49.2972 69.2258 49.2972H69.3993C69.5721 49.2972 69.7379 49.2293 69.8602 49.1084C69.9824 48.9876 70.0511 48.8237 70.0511 48.6529V45.9457Z" fill="#050D12"/>
<path id="Vector_29" d="M115.613 45.3121C115.168 45.375 115.08 45.7721 115.078 46.145C115.075 46.9297 115.074 47.7147 115.075 48.5C115.075 48.8178 115.17 49.1514 115.509 49.2493C115.883 49.3571 116.346 49.2935 116.493 48.9185C116.603 48.6371 116.563 48.1807 116.556 47.8785C116.556 47.8524 116.569 47.8393 116.595 47.8393H117.534C117.564 47.8393 117.579 47.854 117.581 47.8835C117.624 48.7285 117.589 49.5178 116.635 49.8264C115.792 50.0993 114.539 49.9807 114.159 49.0607C114.094 48.9035 114.062 48.6695 114.063 48.3585C114.065 47.689 114.065 47.0204 114.064 46.3528C114.063 45.9438 114.097 45.6543 114.166 45.4843C114.465 44.7443 115.495 44.5564 116.206 44.6657C117.45 44.8571 117.652 45.5864 117.58 46.7093C117.579 46.7369 117.564 46.7507 117.536 46.7507L116.599 46.7557C116.576 46.7557 116.564 46.7445 116.563 46.7221C116.527 46.0207 116.722 45.1543 115.613 45.3121Z" fill="#050D12"/>
<path id="Vector_30" d="M123.181 47.6842C123.152 48.0964 123.041 49.0085 123.524 49.2221C123.829 49.3564 124.384 49.3521 124.556 48.9799C124.663 48.7499 124.669 48.4171 124.646 48.1778C124.645 48.1677 124.646 48.1576 124.649 48.148C124.653 48.1384 124.658 48.1296 124.665 48.1221C124.672 48.1146 124.68 48.1087 124.689 48.1046C124.699 48.1005 124.709 48.0984 124.719 48.0985L125.632 48.1021C125.644 48.1021 125.655 48.1064 125.663 48.1141C125.671 48.1218 125.676 48.1323 125.677 48.1435C125.698 48.4914 125.676 48.8864 125.523 49.1899C124.986 50.2535 122.709 50.2114 122.253 49.1056C122.18 48.9295 122.143 48.613 122.141 48.1564C122.136 47.2059 122.137 46.5109 122.142 46.0714C122.159 44.6449 123.857 44.4006 124.881 44.8249C125.389 45.0359 125.652 45.4375 125.672 46.0299C125.689 46.5514 125.69 47.0716 125.674 47.5906C125.673 47.624 125.656 47.6406 125.622 47.6406L123.229 47.6399C123.199 47.6399 123.183 47.6547 123.181 47.6842ZM123.251 46.9835L124.571 46.9806C124.592 46.9806 124.612 46.9724 124.627 46.9576C124.642 46.9429 124.65 46.9229 124.65 46.9021L124.649 45.9771C124.649 45.7981 124.582 45.6265 124.465 45.5002C124.348 45.3739 124.189 45.3031 124.023 45.3035H123.793C123.711 45.3037 123.63 45.3213 123.554 45.3554C123.479 45.3895 123.41 45.4394 123.352 45.5022C123.294 45.565 123.249 45.6395 123.217 45.7215C123.186 45.8035 123.17 45.8913 123.17 45.9799L123.172 46.9049C123.172 46.9258 123.18 46.9457 123.195 46.9605C123.21 46.9752 123.23 46.9835 123.251 46.9835Z" fill="#050D12"/>
<path id="Vector_31" d="M134.751 49.2708C135.35 49.1479 135.272 48.3308 135.245 47.8872C135.244 47.8553 135.259 47.8393 135.291 47.8393H136.23C136.256 47.8393 136.269 47.8519 136.268 47.8772C136.267 48.1629 136.293 48.5015 136.249 48.755C136.138 49.3884 135.741 49.771 135.058 49.9029C134.292 50.0515 133.189 49.9022 132.852 49.1086C132.783 48.9443 132.748 48.6855 132.747 48.3322C132.745 47.6879 132.744 47.0436 132.745 46.3993C132.746 45.9565 132.783 45.6472 132.858 45.4715C133.19 44.6915 134.282 44.5486 135.041 44.6822C135.67 44.7936 136.063 45.1284 136.22 45.6865C136.301 45.9808 136.265 46.3865 136.268 46.72C136.268 46.7243 136.267 46.7286 136.266 46.7326C136.264 46.7365 136.262 46.7402 136.259 46.7432C136.256 46.7463 136.252 46.7487 136.248 46.7504C136.244 46.752 136.24 46.7529 136.236 46.7529L135.32 46.755C135.311 46.755 135.302 46.7533 135.294 46.7498C135.286 46.7463 135.278 46.7412 135.272 46.7348C135.266 46.7284 135.261 46.7209 135.258 46.7126C135.255 46.7042 135.253 46.6954 135.253 46.6865C135.274 46.1672 135.35 45.3843 134.642 45.3015C133.818 45.205 133.764 45.7379 133.759 46.3979C133.753 47.2565 133.753 47.9512 133.758 48.4822C133.765 49.1229 134.122 49.4 134.751 49.2708Z" fill="#050D12"/>
<path id="Vector_32" d="M139.079 47.6844C139.039 48.133 139.041 48.5058 139.086 48.803C139.157 49.2708 139.777 49.4008 140.137 49.253C140.588 49.0665 140.547 48.5823 140.529 48.1723C140.529 48.1629 140.53 48.1535 140.534 48.1447C140.537 48.1359 140.542 48.1279 140.549 48.1212C140.555 48.1144 140.563 48.1091 140.572 48.1054C140.581 48.1018 140.59 48.1 140.6 48.1001L141.5 48.1051C141.518 48.1051 141.529 48.1139 141.531 48.1315C141.684 49.0763 141.321 49.6623 140.442 49.8894C139.673 50.0873 138.48 49.9258 138.141 49.078C138.072 48.907 138.038 48.6375 138.039 48.2694C138.039 47.6394 138.039 47.0104 138.038 46.3823C138.038 45.9865 138.072 45.7001 138.142 45.523C138.606 44.3473 140.976 44.3451 141.451 45.4844C141.662 45.9894 141.564 46.9901 141.56 47.598C141.56 47.6265 141.546 47.6408 141.517 47.6408L139.128 47.6401C139.098 47.6401 139.082 47.6549 139.079 47.6844ZM139.154 46.9851L140.44 46.988C140.466 46.988 140.49 46.978 140.508 46.9602C140.526 46.9423 140.536 46.9182 140.536 46.893L140.538 45.983C140.538 45.8938 140.522 45.8054 140.491 45.7229C140.459 45.6404 140.413 45.5654 140.355 45.5022C140.297 45.439 140.228 45.3888 140.151 45.3545C140.075 45.3202 139.994 45.3024 139.911 45.3023H139.689C139.522 45.3019 139.362 45.3731 139.244 45.5002C139.126 45.6274 139.06 45.8 139.059 45.9801L139.058 46.8901C139.058 46.9153 139.068 46.9395 139.086 46.9573C139.104 46.9751 139.128 46.9851 139.154 46.9851Z" fill="#050D12"/>
<path id="Vector_33" d="M65.7253 44.7507H64.7916C64.7648 44.7507 64.7432 44.7722 64.7432 44.7986V49.7757C64.7432 49.8022 64.7648 49.8236 64.7916 49.8236H65.7253C65.752 49.8236 65.7737 49.8022 65.7737 49.7757V44.7986C65.7737 44.7722 65.752 44.7507 65.7253 44.7507Z" fill="#050D12"/>
<path id="Vector_34" d="M75.3259 49.6021C74.6336 50.1 73.6421 50.0986 73.103 49.4014C72.93 49.1781 72.8431 48.9236 72.8421 48.6379C72.8354 47.354 72.8341 46.0695 72.8385 44.7843C72.8385 44.7798 72.8394 44.7753 72.8411 44.7712C72.8429 44.767 72.8454 44.7632 72.8486 44.76C72.8519 44.7569 72.8557 44.7543 72.8599 44.7526C72.8641 44.7509 72.8686 44.75 72.8732 44.75H73.83C73.8545 44.75 73.8668 44.7621 73.8668 44.7864C73.8663 46.0488 73.8668 47.3105 73.8683 48.5714C73.8687 49.0352 74.1082 49.2719 74.5866 49.2814C75.3013 49.2957 75.3468 48.8457 75.3475 48.2479C75.349 47.1012 75.349 45.9529 75.3475 44.8029C75.3475 44.7888 75.3532 44.7754 75.3632 44.7655C75.3732 44.7556 75.3868 44.75 75.401 44.75H76.3267C76.3313 44.75 76.3358 44.7509 76.34 44.7526C76.3442 44.7543 76.348 44.7569 76.3513 44.76C76.3545 44.7632 76.357 44.767 76.3588 44.7712C76.3605 44.7753 76.3614 44.7798 76.3614 44.7843L76.3593 49.7836C76.3593 49.8145 76.3436 49.8298 76.3123 49.8293L75.5181 49.8179C75.4916 49.8174 75.473 49.8055 75.4624 49.7821L75.3866 49.6179C75.3731 49.5883 75.3528 49.5831 75.3259 49.6021Z" fill="#050D12"/>
<path id="Vector_35" d="M98.1769 44.7507H97.2519C97.2279 44.7507 97.2085 44.7699 97.2085 44.7936V49.7793C97.2085 49.803 97.2279 49.8222 97.2519 49.8222H98.1769C98.2008 49.8222 98.2202 49.803 98.2202 49.7793V44.7936C98.2202 44.7699 98.2008 44.7507 98.1769 44.7507Z" fill="#050D12"/>
<path id="Vector_36" d="M120.354 44.7507H119.377C119.367 44.7507 119.358 44.7594 119.358 44.77V49.8029C119.358 49.8135 119.367 49.8222 119.377 49.8222H120.354C120.365 49.8222 120.374 49.8135 120.374 49.8029V44.77C120.374 44.7594 120.365 44.7507 120.354 44.7507Z" fill="#050D12"/>
</g>
</g>
</svg>
