<svg width="180" height="70" viewBox="0 0 180 70" fill="none" xmlns="http://www.w3.org/2000/svg">
<g id="Logo">
<g id="Group 91">
<path id="Vector" d="M85.389 38.4236C85.3557 42.0046 85.3597 45.5856 85.401 49.1666C85.4224 51.0127 85.4809 52.7132 85.5764 54.2681C85.6039 54.7129 85.661 55.2611 85.7478 55.9127C85.7508 55.9364 85.7405 55.9482 85.7168 55.9482H82.1217C82.1022 55.9482 82.0936 55.9386 82.0959 55.9195C82.3028 54.0583 82.3693 51.746 82.3854 49.8115C82.4232 45.2759 82.4129 41.0604 82.3544 37.1649C82.3366 35.9812 82.3676 35.1294 82.3126 34.308C82.311 34.2893 82.3009 34.2799 82.2822 34.2799L77.6971 34.2771C77.6792 34.2771 77.6637 34.2709 77.6507 34.2587C74.2235 31.0579 72.5262 27.2375 72.4076 22.5413C72.377 21.341 72.5316 20.1657 72.8713 19.0155C74.5571 13.3075 79.1525 8.80557 85.1889 8.1034C86.4565 7.95589 87.7662 7.96621 89.1182 8.13435C92.8664 8.60036 96.0884 10.3383 98.4821 13.229C100.559 15.7385 102.032 19.2024 101.939 22.4874C101.81 26.9974 99.9919 31.3428 96.4936 34.2513C96.4787 34.2639 96.4617 34.269 96.4426 34.2667C96.3859 34.261 96.3372 34.2799 96.2919 34.2799C94.9147 34.2818 93.5376 34.2818 92.1608 34.2799C92.0152 34.2793 91.7555 34.2518 91.5452 34.2799C91.5402 34.2808 91.5351 34.2799 91.5307 34.2773C91.5264 34.2748 91.5231 34.2708 91.5215 34.266C91.5198 34.2612 91.5199 34.2561 91.5217 34.2514C91.5235 34.2467 91.527 34.2428 91.5314 34.2404C95.4086 32.0267 97.8602 28.1438 98.4145 23.7341C98.5023 23.0344 98.5184 22.3349 98.4626 21.6356C98.2402 18.8607 97.2474 16.2515 95.4263 14.1341C93.6821 12.1055 91.2752 10.5435 88.6493 9.93822C87.5908 9.69404 86.5128 9.69729 85.4153 9.94797C82.2512 10.6708 79.5411 12.6449 77.7596 15.3023C75.5356 18.6206 75.085 22.9798 76.3323 26.7417C77.3962 29.9517 79.378 32.4501 82.2776 34.2369C82.28 34.2383 82.2828 34.2391 82.2856 34.2391C82.2884 34.2391 82.2912 34.2384 82.2936 34.237C82.296 34.2356 82.2981 34.2336 82.2995 34.2312C82.3009 34.2287 82.3017 34.226 82.3017 34.2232C82.3235 30.1586 82.3303 26.1204 81.9113 22.0707C81.9112 22.069 81.9114 22.0673 81.9119 22.0657C81.9124 22.0641 81.9133 22.0626 81.9144 22.0614C81.9155 22.0602 81.9169 22.0592 81.9185 22.0585C81.92 22.0578 81.9217 22.0575 81.9234 22.0575H85.6286C85.6329 22.0574 85.6372 22.0583 85.6412 22.0601C85.6452 22.0619 85.6487 22.0645 85.6516 22.0678C85.6545 22.071 85.6566 22.0749 85.6579 22.079C85.6592 22.0832 85.6595 22.0876 85.6589 22.0919C85.5454 23.0052 85.4713 23.9206 85.4365 24.8381C85.2886 28.725 85.3924 32.6165 85.4216 36.5028C85.4214 36.5062 85.4225 36.5095 85.4246 36.5121C85.4267 36.5148 85.4297 36.5165 85.4331 36.5171C85.4364 36.5177 85.4398 36.517 85.4427 36.5152C85.4455 36.5134 85.4476 36.5106 85.4486 36.5074C85.7329 35.7458 86.0393 34.997 86.368 34.261C87.8148 31.0167 89.2558 27.8864 90.6533 24.4988C90.9972 23.6646 91.2775 22.8581 91.4942 22.0793C91.4984 22.0647 91.5081 22.0575 91.5234 22.0575H94.7001C94.7045 22.0575 94.7088 22.0587 94.7126 22.061C94.7163 22.0632 94.7194 22.0665 94.7215 22.0703C94.7236 22.0742 94.7247 22.0785 94.7245 22.0829C94.7244 22.0873 94.7231 22.0916 94.7207 22.0953C94.0864 23.0529 93.5191 24.0473 93.0189 25.0783C91.1854 28.8549 89.3358 32.6247 87.4703 36.3876C87.4649 36.3987 87.462 36.4109 87.4618 36.4232C87.4616 36.4354 87.4641 36.4476 87.4691 36.4587L92.8326 48.4604C92.8483 48.496 92.8641 48.496 92.8802 48.4604C94.2604 45.4129 95.5991 42.33 96.896 39.2118C97.4387 37.9075 97.9003 36.6614 98.2809 35.4733C98.2878 35.4523 98.3021 35.4418 98.3239 35.4418H100.904C100.922 35.4418 100.933 35.4502 100.938 35.467C101.386 36.9579 101.999 38.4345 102.586 39.8767C104.227 43.9063 105.989 47.8821 107.872 51.8039C108.479 53.0661 109.323 54.6837 110.19 55.9218C110.203 55.9394 110.198 55.9482 110.177 55.9482H105.707C105.688 55.9482 105.677 55.9388 105.673 55.9201C105.486 55.003 105.126 54.1065 104.76 53.1825C104.25 51.8909 103.725 50.6017 103.186 49.3151C103.182 49.3062 103.176 49.2985 103.168 49.293C103.16 49.2876 103.151 49.2845 103.141 49.2841C101.75 49.2218 100.37 49.1884 99.0008 49.1838C97.5856 49.1786 96.1595 49.2612 94.7459 49.3363C94.7339 49.3368 94.7223 49.3408 94.7123 49.3477C94.7024 49.3546 94.6946 49.3641 94.6898 49.3753L94.0334 50.9114C94.025 50.9313 94.0252 50.951 94.034 50.9705C94.8142 52.6288 95.5662 54.2985 96.3996 55.9304C96.4005 55.9324 96.4009 55.9345 96.4008 55.9366C96.4007 55.9387 96.4 55.9408 96.399 55.9425C96.3979 55.9443 96.3964 55.9458 96.3946 55.9468C96.3928 55.9477 96.3908 55.9482 96.3887 55.9482H92.2089C92.1921 55.9482 92.1826 55.9398 92.1803 55.923C92.1558 55.7247 92.1302 55.5813 92.1035 55.4931C91.5647 53.6972 90.8304 51.9421 90.1202 50.2081C89.0158 47.5118 87.9101 44.816 86.8031 42.1208C86.3514 41.021 85.923 39.9122 85.5179 38.7945C85.4835 38.6993 85.46 38.5388 85.4147 38.419C85.3979 38.3743 85.3893 38.3759 85.389 38.4236ZM102.409 47.6367C102.469 47.6367 102.488 47.6086 102.467 47.5525C101.542 45.1496 100.57 42.7622 99.6514 40.3547C99.4821 39.9115 99.3268 39.4636 99.1854 39.0112C99.1849 39.0092 99.1838 39.0074 99.1821 39.0062C99.1805 39.0049 99.1786 39.0043 99.1765 39.0043C99.1745 39.0043 99.1725 39.0049 99.1709 39.0062C99.1693 39.0074 99.1681 39.0092 99.1676 39.0112C98.7687 40.2963 98.1869 41.5585 97.6223 42.7788C96.8817 44.3792 96.1524 45.9934 95.4344 47.6213C95.4325 47.6254 95.4318 47.63 95.4325 47.6345C95.4332 47.639 95.4352 47.6433 95.4382 47.6467C95.4413 47.6501 95.4452 47.6525 95.4496 47.6537C95.454 47.6549 95.4587 47.6548 95.463 47.6534C95.4944 47.643 95.5223 47.6379 95.5467 47.6379C97.8112 47.6371 100.099 47.6367 102.409 47.6367Z" fill="#050D12"/>
<path id="Vector_2" d="M67.2717 20.2919C67.4276 19.8476 67.5875 19.4028 67.7646 18.9683C68.9678 16.0129 69.7875 14.0445 70.6553 11.7397C70.9335 11.0021 71.1859 10.2558 71.4125 9.50073C71.5077 9.18432 71.5684 8.86142 71.5948 8.53201C71.5963 8.51138 71.6076 8.50106 71.6286 8.50106L75.2203 8.50335C75.2235 8.50342 75.2266 8.50432 75.2293 8.50596C75.2321 8.5076 75.2343 8.50992 75.2359 8.5127C75.2374 8.51548 75.2383 8.51861 75.2382 8.5218C75.2382 8.52498 75.2374 8.52811 75.2358 8.53087C74.7046 9.45335 74.1977 10.3921 73.7151 11.347C71.9912 14.7576 70.3418 18.2035 68.7666 21.6848C68.7268 21.7723 68.7068 21.864 68.7064 21.9599C68.6812 25.5063 68.6749 27.9052 68.754 30.4548C68.7933 31.7216 68.8753 32.9824 68.9999 34.2374C69.0004 34.2429 68.9999 34.2485 68.9982 34.2538C68.9965 34.259 68.9937 34.2639 68.99 34.268C68.9863 34.2721 68.9818 34.2754 68.9768 34.2776C68.9718 34.2798 68.9664 34.281 68.9609 34.2809L65.3062 34.2792C65.2492 34.2792 65.2228 34.2507 65.2271 34.1938C65.4827 30.6388 65.4242 27.0763 65.4111 23.5047C65.4093 23.1023 65.1944 22.6604 65.0282 22.2987C63.6131 19.2271 62.1428 16.182 60.6173 13.1635C59.82 11.586 58.9883 10.0017 58.003 8.53259C58.0011 8.52967 58.0001 8.52633 58 8.52289C57.9999 8.51945 58.0007 8.51605 58.0023 8.51302C58.004 8.51 58.0064 8.50746 58.0093 8.50566C58.0122 8.50386 58.0156 8.50287 58.019 8.50278L62.4963 8.50049C62.504 8.50047 62.5115 8.50299 62.5176 8.50765C62.5237 8.51231 62.5281 8.51886 62.5301 8.52628C62.9875 10.2172 63.6668 11.8549 64.3667 13.4581C65.1749 15.3079 66.0204 17.1415 66.8068 19.0004C66.9723 19.3918 67.114 19.7915 67.2321 20.1996C67.2375 20.2187 67.2369 20.2374 67.2304 20.2558C67.2243 20.2726 67.2262 20.2869 67.2361 20.2988C67.2518 20.3171 67.2636 20.3148 67.2717 20.2919Z" fill="#050D12"/>
<path id="Vector_3" d="M106.226 14.7102C106.225 14.7084 106.223 14.7071 106.221 14.7064C106.219 14.7057 106.217 14.7057 106.215 14.7063C106.213 14.707 106.211 14.7083 106.21 14.71C106.209 14.7117 106.208 14.7138 106.208 14.7159C106.277 15.6242 106.323 16.5274 106.345 17.4254C106.45 21.7684 106.469 26.1118 106.401 30.4555C106.382 31.7097 106.479 32.9576 106.631 34.2083C106.637 34.2572 106.616 34.2815 106.567 34.2811L103.943 34.2788C103.939 34.2788 103.935 34.278 103.931 34.2763C103.927 34.2746 103.924 34.2722 103.921 34.2691C103.918 34.266 103.916 34.2624 103.915 34.2584C103.914 34.2545 103.913 34.2503 103.914 34.2461C104.05 32.9698 104.134 31.6904 104.166 30.4079C104.248 27.1602 104.264 23.912 104.215 20.6635C104.162 17.1532 104.133 13.6411 103.942 10.1349C103.912 9.59795 103.858 9.06277 103.779 8.52931C103.779 8.52767 103.779 8.52599 103.78 8.52439C103.78 8.52279 103.781 8.52132 103.782 8.52006C103.783 8.51881 103.785 8.51781 103.786 8.51713C103.788 8.51645 103.789 8.51611 103.791 8.51612L105.809 8.5144C105.83 8.5144 105.846 8.52358 105.858 8.54192C106.162 9.03793 106.492 9.52344 106.845 9.99843C110.798 15.3069 114.971 20.4474 118.844 25.816C119.37 26.5447 119.87 27.2907 120.345 28.0538C120.353 28.0664 120.357 28.0653 120.355 28.0504C120.28 27.0335 120.234 25.8777 120.217 24.583C120.154 19.9189 120.18 15.171 119.939 10.5934C119.906 9.97053 119.833 9.29912 119.72 8.57918C119.717 8.55587 119.727 8.54421 119.75 8.54421H122.947C122.971 8.54421 122.981 8.55606 122.977 8.57975C122.634 10.6484 122.56 12.7848 122.582 14.8787C122.587 15.369 122.588 15.7511 122.585 16.0251C122.538 21.0448 122.533 26.0648 122.57 31.0849C122.577 32.1551 122.614 33.1995 122.671 34.2593C122.671 34.2611 122.67 34.2629 122.67 34.2645C122.669 34.2662 122.668 34.2677 122.667 34.269C122.665 34.2703 122.664 34.2713 122.662 34.272C122.66 34.2727 122.659 34.2731 122.657 34.2731L120.652 34.2639C120.637 34.2639 120.626 34.2576 120.618 34.245C120.463 33.9874 120.318 33.7644 120.183 33.576C119.556 32.699 118.834 31.7158 118.017 30.6263C114.348 25.7352 110.614 20.8836 107.05 15.9162C106.765 15.5192 106.49 15.1171 106.226 14.7102Z" fill="#050D12"/>
<path id="Vector_4" d="M106.698 36.6255C106.698 37.0192 106.542 37.3968 106.263 37.6752C105.985 37.9537 105.607 38.1101 105.214 38.1101C104.82 38.1101 104.442 37.9537 104.164 37.6752C103.885 37.3968 103.729 37.0192 103.729 36.6255C103.729 36.2317 103.885 35.8541 104.164 35.5757C104.442 35.2973 104.82 35.1409 105.214 35.1409C105.607 35.1409 105.985 35.2973 106.263 35.5757C106.542 35.8541 106.698 36.2317 106.698 36.6255ZM106.47 36.6266C106.47 36.2934 106.338 35.9738 106.102 35.7382C105.866 35.5025 105.547 35.3702 105.214 35.3702C104.88 35.3702 104.561 35.5025 104.325 35.7382C104.09 35.9738 103.957 36.2934 103.957 36.6266C103.957 36.9598 104.09 37.2794 104.325 37.5151C104.561 37.7507 104.88 37.8831 105.214 37.8831C105.547 37.8831 105.866 37.7507 106.102 37.5151C106.338 37.2794 106.47 36.9598 106.47 36.6266Z" fill="#050D12"/>
<path id="Vector_5" d="M105.558 36.7354L106.026 37.4209C106.044 37.4485 106.037 37.4622 106.004 37.4622H105.777C105.752 37.4622 105.733 37.4519 105.72 37.4313L105.268 36.7514C105.259 36.7381 105.247 36.7314 105.231 36.7314H104.876C104.847 36.7314 104.833 36.7457 104.833 36.7744V37.4336C104.833 37.4527 104.823 37.4622 104.804 37.4622H104.605C104.596 37.4622 104.589 37.459 104.583 37.4532C104.577 37.4473 104.574 37.4395 104.574 37.4313L104.575 35.8143C104.575 35.8115 104.575 35.8088 104.577 35.8062C104.578 35.8037 104.579 35.8014 104.581 35.7995C104.583 35.7975 104.585 35.796 104.588 35.795C104.591 35.794 104.593 35.7935 104.596 35.7936C104.889 35.8028 105.392 35.7409 105.65 35.8607C106.073 36.0556 105.999 36.5554 105.576 36.6861C105.571 36.6876 105.567 36.6902 105.563 36.6937C105.56 36.6972 105.557 36.7015 105.555 36.7063C105.553 36.7111 105.553 36.7162 105.553 36.7213C105.554 36.7263 105.556 36.7312 105.558 36.7354ZM104.833 36.012L104.832 36.513C104.832 36.5174 104.834 36.5216 104.837 36.5247C104.84 36.5279 104.844 36.5296 104.849 36.5296L105.302 36.5302C105.35 36.5303 105.397 36.524 105.441 36.5117C105.484 36.4995 105.524 36.4814 105.558 36.4586C105.591 36.4358 105.618 36.4088 105.636 36.379C105.655 36.3491 105.664 36.3172 105.664 36.2849V36.2424C105.664 36.1772 105.626 36.1147 105.559 36.0684C105.491 36.0222 105.399 35.9962 105.303 35.996L104.85 35.9954C104.848 35.9954 104.846 35.9958 104.844 35.9967C104.842 35.9975 104.84 35.9987 104.838 36.0003C104.837 36.0018 104.835 36.0036 104.835 36.0057C104.834 36.0077 104.833 36.0098 104.833 36.012Z" fill="#050D12"/>
<path id="Vector_6" d="M107.452 59.2046C107.498 59.5422 107.917 59.6953 108.218 59.7692C108.772 59.9056 109.158 60.0268 109.375 60.1326C110.502 60.6835 110.36 62.2581 109.243 62.6954C108.724 62.8989 108.025 62.8576 107.537 62.5985C107.032 62.3299 106.756 61.8658 106.71 61.2062C106.707 61.1672 106.725 61.1458 106.764 61.142L107.215 61.0962C107.236 61.0943 107.249 61.1036 107.254 61.1243C107.357 61.6178 107.461 61.933 107.971 62.1297C108.503 62.3349 109.453 62.2518 109.576 61.5513C109.663 61.056 109.343 60.7901 108.911 60.66C108.38 60.4995 107.583 60.3504 107.198 59.9417C106.869 59.5921 106.792 59.1135 106.946 58.6583C107.185 57.9527 107.889 57.6816 108.616 57.7527C109.461 57.8348 109.932 58.3008 110.029 59.1507C110.033 59.1905 110.016 59.2117 109.976 59.2143L109.492 59.2493C109.466 59.2512 109.453 59.2394 109.451 59.2138C109.422 58.7455 109.164 58.4411 108.698 58.3465C108.105 58.2267 107.349 58.4537 107.452 59.2046Z" fill="#050D12"/>
<path id="Vector_7" d="M82.7213 60.7767V62.7015C82.7213 62.726 82.7091 62.7382 82.6846 62.7382L82.1716 62.7411C82.1464 62.7411 82.1338 62.7285 82.1338 62.7032V57.8522C82.1338 57.842 82.1378 57.8321 82.145 57.8248C82.1522 57.8176 82.162 57.8134 82.1722 57.8132C82.8088 57.806 83.4262 57.8134 84.0242 57.8356C84.7975 57.8648 85.3122 58.1423 85.428 58.9866C85.5587 59.9387 85.0634 60.7056 84.0575 60.7286C83.6367 60.7377 83.2068 60.7387 82.7678 60.7314C82.7368 60.7306 82.7213 60.7457 82.7213 60.7767ZM82.7179 58.4231L82.7236 60.1353C82.7236 60.1385 82.7249 60.1415 82.7271 60.1438C82.7294 60.1461 82.7325 60.1473 82.7357 60.1473L84.0563 60.1427C84.1618 60.1424 84.2661 60.1213 84.3634 60.0806C84.4607 60.04 84.549 59.9807 84.6233 59.906C84.6976 59.8313 84.7565 59.7428 84.7965 59.6454C84.8365 59.548 84.8569 59.4438 84.8565 59.3385V59.2044C84.8561 59.0992 84.835 58.995 84.7943 58.898C84.7536 58.8009 84.6941 58.7127 84.6193 58.6386C84.5444 58.5645 84.4557 58.5057 84.3581 58.4658C84.2605 58.4259 84.156 58.4055 84.0506 58.4059L82.7299 58.4105C82.7283 58.4105 82.7267 58.4108 82.7252 58.4115C82.7237 58.4121 82.7223 58.4131 82.7212 58.4142C82.7201 58.4154 82.7192 58.4168 82.7186 58.4183C82.7181 58.4199 82.7178 58.4215 82.7179 58.4231Z" fill="#050D12"/>
<path id="Vector_8" d="M89.0955 61.2732L88.6358 62.7154C88.6336 62.722 88.6294 62.7278 88.6237 62.7319C88.618 62.7361 88.6112 62.7383 88.6042 62.7383L88.0534 62.7417C88.0481 62.7418 88.0428 62.7405 88.0381 62.7381C88.0334 62.7357 88.0293 62.7321 88.0262 62.7278C88.0231 62.7235 88.0211 62.7185 88.0204 62.7132C88.0196 62.708 88.0201 62.7026 88.0219 62.6976L89.6624 57.834C89.6646 57.8274 89.6689 57.8217 89.6745 57.8177C89.6802 57.8137 89.687 57.8116 89.6939 57.8116L90.2826 57.811C90.2894 57.811 90.2961 57.813 90.3018 57.8169C90.3074 57.8208 90.3117 57.8264 90.3141 57.8328L92.071 62.689C92.0728 62.694 92.0734 62.6994 92.0727 62.7047C92.0721 62.71 92.0701 62.715 92.0671 62.7194C92.0641 62.7238 92.06 62.7274 92.0553 62.7299C92.0506 62.7324 92.0454 62.7337 92.04 62.7337L91.4468 62.7406C91.4397 62.7407 91.4328 62.7387 91.4271 62.7346C91.4213 62.7306 91.417 62.7249 91.4147 62.7182L90.9194 61.2726C90.9172 61.2662 90.913 61.2606 90.9075 61.2566C90.9019 61.2526 90.8953 61.2504 90.8885 61.2503H89.127C89.12 61.2503 89.1132 61.2525 89.1075 61.2566C89.1019 61.2607 89.0976 61.2665 89.0955 61.2732ZM89.9604 58.4192C89.8068 59.1988 89.5007 59.9204 89.2846 60.6794C89.2833 60.6842 89.2831 60.6893 89.284 60.6943C89.285 60.6992 89.287 60.7038 89.29 60.7078C89.293 60.7118 89.2969 60.7151 89.3013 60.7173C89.3057 60.7195 89.3106 60.7206 89.3156 60.7206L90.6976 60.7189C90.7017 60.7189 90.7057 60.718 90.7093 60.7161C90.713 60.7143 90.7161 60.7116 90.7186 60.7083C90.721 60.705 90.7225 60.7012 90.7232 60.6971C90.7238 60.6931 90.7235 60.689 90.7222 60.6851L89.9845 58.4175C89.9835 58.415 89.9818 58.4128 89.9795 58.4114C89.9772 58.4099 89.9745 58.4092 89.9718 58.4094C89.9691 58.4096 89.9666 58.4107 89.9645 58.4124C89.9625 58.4142 89.961 58.4166 89.9604 58.4192Z" fill="#050D12"/>
<path id="Vector_9" d="M97.6178 60.521C97.8395 60.6685 98.0265 60.8474 98.179 61.0576C98.4868 61.4817 98.833 62.1713 99.1305 62.7101C99.1319 62.7125 99.1326 62.7153 99.1326 62.7182C99.1325 62.721 99.1317 62.7238 99.1302 62.7262C99.1287 62.7286 99.1265 62.7307 99.124 62.7321C99.1214 62.7335 99.1185 62.7342 99.1156 62.7342L98.4375 62.7388C98.4192 62.7391 98.4043 62.7286 98.3928 62.7072C98.0164 62.0102 97.6967 61.4544 97.4338 61.0398C97.0658 60.4591 96.5322 60.5411 95.9429 60.5503C95.9177 60.5506 95.9051 60.5636 95.9051 60.5892V62.686C95.9051 62.6982 95.9003 62.71 95.8917 62.7187C95.8831 62.7273 95.8714 62.7323 95.8592 62.7325L95.3319 62.737C95.3243 62.737 95.317 62.734 95.3116 62.7286C95.3062 62.7233 95.3032 62.716 95.3032 62.7084V57.8528C95.3032 57.8424 95.3073 57.8324 95.3146 57.825C95.3219 57.8176 95.3318 57.8134 95.3422 57.8132C96.0996 57.8067 96.8602 57.8147 97.6241 57.8373C98.4192 57.8608 98.8714 58.5796 98.7849 59.3162C98.7149 59.9077 98.3937 60.2807 97.8213 60.4351C97.7556 60.453 97.6895 60.471 97.623 60.4889C97.5978 60.4958 97.596 60.5065 97.6178 60.521ZM95.9074 58.3876L95.9016 59.9616C95.9016 59.9671 95.9038 59.9723 95.9077 59.9762C95.9116 59.98 95.9168 59.9822 95.9223 59.9822L97.3685 59.9874C97.4752 59.9878 97.5809 59.9688 97.6796 59.9316C97.7783 59.8944 97.868 59.8397 97.9437 59.7706C98.0194 59.7014 98.0796 59.6192 98.1207 59.5287C98.1619 59.4381 98.1832 59.341 98.1836 59.2428V59.1224C98.1843 58.9242 98.0994 58.7338 97.9476 58.5931C97.7958 58.4524 97.5896 58.3729 97.3742 58.3721L95.928 58.3669C95.9225 58.3669 95.9173 58.3691 95.9134 58.373C95.9096 58.3768 95.9074 58.3821 95.9074 58.3876Z" fill="#050D12"/>
<path id="Vector_10" d="M103.112 57.8259H102.569C102.561 57.8259 102.554 57.8326 102.554 57.8408V62.7245C102.554 62.7328 102.561 62.7394 102.569 62.7394H103.112C103.121 62.7394 103.127 62.7328 103.127 62.7245V57.8408C103.127 57.8326 103.121 57.8259 103.112 57.8259Z" fill="#050D12"/>
</g>
</g>
</svg>
