<svg width="180" height="70" viewBox="0 0 180 70" fill="none" xmlns="http://www.w3.org/2000/svg">
<g id="Logo">
<g id="Group 92">
<path id="Vector" d="M56.1673 9H56.6131C60.4717 16.3268 63.8253 22.7368 66.6741 28.23C66.7274 28.3328 66.734 28.4401 66.694 28.5521C66.683 28.5827 66.661 28.5981 66.628 28.5981H64.1921C64.1631 28.5981 64.1399 28.5867 64.1225 28.564C64.0142 28.422 63.9111 28.2578 63.8132 28.0715C62.8265 26.1901 61.8448 24.3061 60.868 22.4196C60.8535 22.3917 60.8306 22.3778 60.7993 22.3778H50.4802C50.4536 22.3778 50.4276 22.3851 50.4052 22.3988C50.3828 22.4126 50.3648 22.4321 50.3533 22.4554C49.3597 24.4373 48.3673 26.4284 47.376 28.4285C47.2378 28.7071 46.8441 28.6057 46.5912 28.5921C46.5565 28.5898 46.5365 28.5719 46.5313 28.5384C46.5133 28.4254 46.5333 28.3103 46.5912 28.1933C50.2157 20.8693 53.4078 14.4716 56.1673 9ZM60.3013 21.5257C60.3111 21.5258 60.3206 21.5234 60.3291 21.5187C60.3376 21.5141 60.3448 21.5073 60.3498 21.4992C60.3549 21.4911 60.3578 21.4818 60.3581 21.4722C60.3584 21.4627 60.3562 21.4532 60.3517 21.4448L55.5503 12.2286C55.5455 12.2195 55.5382 12.2119 55.5292 12.2066C55.5203 12.2013 55.51 12.1985 55.4996 12.1986C55.4891 12.1987 55.4789 12.2016 55.4701 12.2071C55.4612 12.2125 55.4541 12.2202 55.4494 12.2294L50.8435 21.4456C50.8392 21.4541 50.8372 21.4634 50.8376 21.4728C50.8381 21.4823 50.8409 21.4914 50.846 21.4994C50.851 21.5074 50.8581 21.5141 50.8665 21.5187C50.8748 21.5233 50.8843 21.5257 50.8939 21.5257H60.3013Z" fill="#050D12"/>
<path id="Vector_2" d="M76.1437 9H79.5548C83.0422 9.43031 86.0266 11.4123 87.6786 14.4721C87.8095 14.7153 87.8956 14.9484 87.9367 15.1717C87.9419 15.2001 87.959 15.2157 87.988 15.2186C90.8472 15.5168 91.0297 19.4194 88.5216 20.4342C88.4915 20.4461 88.4805 20.4674 88.4886 20.4981C88.6215 21.0128 88.0758 22.4136 88.0245 22.5065C87.9764 22.5928 87.9442 22.6675 87.928 22.7306C87.9199 22.7641 87.9295 22.7914 87.9567 22.8124C88.2516 23.0402 88.4272 23.3199 88.4833 23.6517C88.7276 25.0875 87.4892 25.7853 86.216 25.3107C86.1888 25.3005 86.167 25.307 86.1508 25.3303C85.7007 25.9787 85.1714 26.3903 84.4605 26.9118C81.4206 29.1426 77.3717 29.6402 73.8156 28.3314C73.8075 28.3288 73.7988 28.329 73.7909 28.3319C73.7829 28.3348 73.7762 28.3403 73.7719 28.3474C73.7676 28.3545 73.7658 28.3629 73.767 28.3711C73.7681 28.3794 73.7721 28.387 73.7782 28.3927C74.7608 29.2329 75.8173 30.0029 76.9476 30.7027C81.4832 33.5121 87.789 34.5252 92.2368 30.8919C92.2516 30.8799 92.2697 30.8727 92.2888 30.8712C92.308 30.8697 92.3271 30.8739 92.3437 30.8834C92.5742 31.0157 92.7286 31.206 92.8069 31.4543C92.8177 31.4892 92.8173 31.5265 92.8056 31.5611C92.794 31.5958 92.7716 31.626 92.7417 31.6477C91.7431 32.3754 90.629 33.0477 89.4645 33.4354C88.0497 33.9074 86.5407 34.1185 84.9376 34.0685C83.0321 34.0088 81.2645 33.6694 79.6347 33.0502C75.9178 31.6383 72.6971 28.9704 70.0674 26.0605C69.4978 25.43 69.1207 24.9988 68.9359 24.7671C66.891 22.1972 66.4669 18.6491 67.5098 15.6148C68.7395 12.0403 72.3477 9.41497 76.1437 9ZM81.9472 20.8006C81.8742 20.6296 81.8937 20.4879 82.0055 20.3754C82.6799 19.6983 83.1851 19.1569 83.5211 18.7513C84.0808 18.0748 84.8264 16.7404 85.7085 15.9854C85.7165 15.9786 85.7223 15.9697 85.7252 15.9597C85.7282 15.9497 85.7281 15.9391 85.725 15.9292C84.6787 12.439 82.5278 10.3071 78.7848 9.75325C77.8731 9.61862 77.0302 9.68508 76.1185 9.88617C72.1678 10.7579 70.0526 13.8365 69.645 17.6266C69.4416 19.5188 69.6803 21.3096 70.3611 22.999C71.6473 26.1918 74.9549 28.3535 78.485 28.0502C80.9174 27.8406 82.9866 26.7175 84.424 24.7568C84.4379 24.7379 84.4466 24.7159 84.4495 24.6929C84.4524 24.6698 84.4494 24.6463 84.4407 24.6247C84.4319 24.6031 84.4178 24.5839 84.3995 24.5691C84.3813 24.5542 84.3595 24.544 84.3363 24.5396C84.0755 24.4893 83.7045 24.4467 83.8366 24.0607C83.8464 24.0323 83.8655 24.0127 83.8939 24.0019C84.435 23.7957 84.9446 23.5335 85.4226 23.2154C85.451 23.1967 85.4553 23.1734 85.4356 23.1455C85.3991 23.095 85.3788 23.0373 85.3748 22.9726C85.3736 22.9413 85.3768 22.9107 85.3843 22.8805C85.559 22.2168 85.7832 21.5786 85.9379 20.8969C85.9559 20.8191 85.9243 20.7765 85.8432 20.7691C84.5422 20.6489 83.3203 20.7648 82.0116 20.8406C81.9808 20.8423 81.9594 20.829 81.9472 20.8006Z" fill="#050D12"/>
<path id="Vector_3" d="M120.041 9H120.468C120.75 9.42264 121.004 9.86061 121.229 10.3139C121.523 10.9058 121.671 11.2044 121.674 11.2095C124.556 16.714 127.429 22.223 130.295 27.7366C130.392 27.9241 130.611 28.2001 130.603 28.4694C130.6 28.5535 130.555 28.5955 130.47 28.5955L128.07 28.5989C128.041 28.5989 128.018 28.5881 127.999 28.5665C127.914 28.4677 127.836 28.349 127.763 28.2104C126.758 26.2727 125.748 24.3368 124.732 22.4025C124.728 22.3951 124.722 22.3888 124.715 22.3844C124.708 22.3801 124.699 22.3778 124.691 22.3778H114.406C114.365 22.3778 114.324 22.3894 114.288 22.4111C114.253 22.4328 114.225 22.4637 114.206 22.5005L111.216 28.5239C111.205 28.5463 111.187 28.5652 111.166 28.5783C111.144 28.5914 111.12 28.5983 111.094 28.5981L110.518 28.5972C110.502 28.5973 110.486 28.5941 110.472 28.5878C110.457 28.5816 110.444 28.5724 110.433 28.5609C110.422 28.5494 110.414 28.5358 110.408 28.5209C110.403 28.5061 110.401 28.4903 110.402 28.4745C110.412 28.3257 110.457 28.1723 110.535 28.0144C113.699 21.672 116.867 15.3339 120.041 9ZM123.994 20.9838C122.479 18.0765 120.968 15.1708 119.455 12.2609C119.448 12.2483 119.438 12.2377 119.425 12.2303C119.413 12.2229 119.398 12.2191 119.384 12.2192C119.369 12.2193 119.355 12.2233 119.343 12.2308C119.33 12.2383 119.32 12.2491 119.314 12.2618L114.705 21.4874C114.692 21.5129 114.701 21.5257 114.729 21.5257H124.17C124.184 21.5257 124.197 21.5221 124.209 21.5153C124.221 21.5085 124.23 21.4988 124.237 21.4871C124.244 21.4754 124.247 21.4622 124.247 21.4487C124.247 21.4353 124.243 21.4222 124.236 21.4107C124.149 21.2687 124.069 21.1264 123.994 20.9838Z" fill="#050D12"/>
<path id="Vector_4" d="M99.691 28.8665C95.1432 28.4447 92.1137 25.4666 92.0972 20.9344C92.0827 17.0278 92.0801 13.1213 92.0894 9.21472C92.0894 9.18518 92.1042 9.17041 92.1337 9.17041H94.4715C94.5022 9.17041 94.5175 9.18546 94.5175 9.21557C94.5219 13.1267 94.5931 17.0591 94.4993 20.965C94.4185 24.3657 96.3999 27.1435 99.8709 27.7059C101.844 28.0263 104.173 27.711 105.775 26.4474C107.485 25.0985 108.335 23.0816 108.336 20.9437C108.337 17.0395 108.338 13.1349 108.337 9.23006C108.337 9.19029 108.357 9.17041 108.398 9.17041H108.972C109.012 9.17041 109.032 9.19029 109.032 9.23006C109.031 13.0789 108.992 16.933 109.046 20.7793C109.124 26.3809 105.18 29.376 99.691 28.8665Z" fill="#050D12"/>
<path id="Vector_5" d="M99.1303 51.8311L96.0226 58.0488C96.0087 58.0766 95.9858 58.0911 95.9539 58.0922C95.7755 58.0973 95.5944 58.0905 95.4108 58.0718C95.0154 58.0317 95.6202 57.0288 95.7002 56.8686C98.7453 50.7597 101.789 44.6502 104.832 38.5402C104.859 38.4868 104.914 38.3888 104.998 38.2462C105.016 38.2161 105.043 38.2005 105.079 38.1993C105.216 38.1959 105.328 38.2786 105.416 38.4473C108.766 44.8527 112.102 51.265 115.424 57.6841C115.481 57.7948 115.5 57.8869 115.481 57.9601C115.46 58.0391 115.408 58.0786 115.324 58.0786L112.964 58.0811C112.933 58.0811 112.908 58.0684 112.89 58.0428C112.787 57.8906 112.695 57.7343 112.612 57.5741C111.626 55.6655 110.626 53.744 109.611 51.8098C109.606 51.7992 109.597 51.7904 109.587 51.7842C109.577 51.778 109.565 51.7748 109.553 51.7748H99.2224C99.2032 51.7748 99.1843 51.7801 99.168 51.79C99.1517 51.8 99.1386 51.8142 99.1303 51.8311ZM109.091 50.9227C109.096 50.9227 109.101 50.9214 109.105 50.919C109.109 50.9166 109.113 50.9132 109.116 50.9092C109.118 50.9051 109.119 50.9004 109.12 50.8956C109.12 50.8908 109.119 50.8861 109.117 50.8818L104.281 41.594C104.279 41.5894 104.275 41.5855 104.271 41.5827C104.266 41.58 104.261 41.5785 104.256 41.5785C104.25 41.5785 104.245 41.58 104.24 41.5827C104.236 41.5855 104.232 41.5894 104.23 41.594L99.5813 50.8818C99.5791 50.8862 99.578 50.891 99.5782 50.8958C99.5784 50.9007 99.5799 50.9054 99.5826 50.9095C99.5852 50.9136 99.5889 50.917 99.5932 50.9193C99.5976 50.9216 99.6025 50.9228 99.6074 50.9227H109.091Z" fill="#050D12"/>
<path id="Vector_6" d="M34.513 51.4357C34.3016 50.8057 34.1541 50.1627 34.0707 49.5066C34.0672 49.4793 34.0521 49.4617 34.0255 49.4538C32.5898 49.0175 31.8042 47.8339 31.9319 46.3649C32.0675 44.8158 33.4415 43.8709 35.0006 44.1623C35.009 44.1638 35.0176 44.1635 35.0259 44.1614C35.0341 44.1593 35.0418 44.1555 35.0484 44.1502C35.0549 44.1449 35.0602 44.1383 35.0638 44.1308C35.0674 44.1233 35.0692 44.1152 35.0692 44.1069C35.0675 43.9439 35.1054 43.7916 35.1831 43.6502C37.1619 40.0501 40.9622 38.3178 44.992 38.2437C45.6125 38.2326 46.4225 38.3476 47.0586 38.4652C53.2141 39.6019 57.1248 45.1925 55.3006 51.2389C54.3725 54.3141 52.0947 56.3983 49.1174 57.5597C46.3686 58.6316 43.1809 58.5626 40.4495 57.4949C38.8157 56.8564 37.4243 55.8652 36.2754 54.5211C36.1932 54.4246 36.1355 54.3314 36.1025 54.2417C36.0822 54.1854 36.044 54.1687 35.9878 54.1914C33.9481 55.0111 32.728 52.6099 34.4896 51.4988C34.5139 51.4834 34.5217 51.4624 34.513 51.4357ZM40.2287 49.7051C40.088 49.7171 39.9182 49.7139 39.7195 49.6957C38.8235 49.6122 37.8171 49.5935 36.7882 49.6267C36.7187 49.629 36.6882 49.6639 36.6969 49.7315C36.7972 50.5263 36.9782 51.3022 37.2401 52.0594C37.2499 52.0867 37.2514 52.1145 37.2444 52.143L37.1992 52.3355C37.1917 52.3656 37.2021 52.3878 37.2305 52.402C37.5573 52.5684 37.8855 52.732 38.2152 52.8928C38.3725 52.9686 38.4324 53.1016 38.3568 53.2541C38.3429 53.2825 38.3203 53.3007 38.289 53.3086L37.8945 53.4083C37.891 53.4092 37.8878 53.4108 37.8851 53.4131C37.8824 53.4153 37.8803 53.4182 37.8788 53.4214C37.8774 53.4246 37.8768 53.4281 37.8769 53.4316C37.8771 53.4351 37.878 53.4385 37.8797 53.4415C39.8455 56.9283 43.8197 58.2814 47.6191 57.0305C49.3537 56.4596 50.6851 55.2803 51.655 53.7935C53.3618 51.1767 53.4939 47.4548 52.5014 44.5841C51.144 40.6559 47.441 38.5666 43.2835 39.2696C40.081 39.8107 37.9327 42.1786 37.0385 45.1354C37.0167 45.2078 36.9707 45.2453 36.9403 45.31C36.9281 45.3367 36.9316 45.3615 36.9507 45.3842C37.7728 46.376 38.4602 47.5723 39.364 48.4662C39.776 48.8743 40.3365 49.3328 40.2835 49.6548C40.2789 49.6855 40.2606 49.7023 40.2287 49.7051ZM35.5454 51.5073C35.4881 51.5323 35.4823 51.5658 35.5281 51.6078C35.5338 51.6133 35.5411 51.617 35.549 51.6184C35.5568 51.6198 35.565 51.6188 35.5724 51.6156C35.5798 51.6124 35.5861 51.6072 35.5906 51.6005C35.5951 51.5938 35.5975 51.586 35.5976 51.578V51.5397C35.5976 51.5337 35.596 51.5279 35.5931 51.5227C35.5902 51.5175 35.5859 51.5131 35.5808 51.5099C35.5756 51.5067 35.5697 51.5048 35.5635 51.5043C35.5573 51.5039 35.5511 51.5049 35.5454 51.5073Z" fill="#050D12"/>
<path id="Vector_7" d="M137.665 45.9799C138.63 41.8209 142.373 38.9544 146.59 38.3844C147.363 38.2796 148.095 38.1961 148.888 38.2702C149.745 38.3497 150.385 38.4358 150.806 38.5284C153.429 39.1033 155.542 40.3996 157.144 42.4173C159.519 45.4099 159.745 49.7836 157.89 53.0702C156.42 55.6733 153.69 57.4721 150.746 58.0796C143.189 59.6389 135.841 53.8353 137.665 45.9799ZM149.386 39.199C141.555 38.2617 138.349 46.4392 140.792 52.4984C141.685 54.7161 143.25 56.2229 145.484 57.0187C147.483 57.7311 149.839 57.6135 151.764 56.7316C156.594 54.5179 157.528 47.9985 155.543 43.6861C154.408 41.2218 152.138 39.5287 149.386 39.199Z" fill="#050D12"/>
<path id="Vector_8" d="M17 39.3993V38.5915L34.3401 38.5728C34.3673 38.5728 34.381 38.5861 34.381 38.6128V39.3669C34.381 39.4021 34.3627 39.4197 34.3262 39.4197H26.8637C26.8522 39.4197 26.8411 39.4242 26.833 39.4322C26.8248 39.4402 26.8202 39.451 26.8202 39.4623V58.0379C26.8202 58.0492 26.8157 58.06 26.8075 58.068C26.7994 58.076 26.7883 58.0805 26.7768 58.0805H24.5286C24.4921 58.0805 24.4738 58.0626 24.4738 58.0268V39.4598C24.4738 39.454 24.4727 39.4482 24.4704 39.4428C24.4682 39.4374 24.4649 39.4326 24.4608 39.4284C24.4567 39.4243 24.4518 39.4211 24.4464 39.4188C24.4411 39.4166 24.4353 39.4155 24.4295 39.4155L17 39.3993Z" fill="#050D12"/>
<path id="Vector_9" d="M60.5393 49.2792V58.0268C60.5393 58.0626 60.5213 58.0805 60.4854 58.0805H58.1711C58.1277 58.0805 58.106 58.0592 58.106 58.0166V38.6298C58.106 38.6133 58.1127 38.5975 58.1248 38.5858C58.1369 38.5742 58.1532 38.5676 58.1703 38.5676C60.6291 38.5682 63.0917 38.5676 65.558 38.5659C66.3367 38.5654 67.2058 38.6801 68.1652 38.9102C70.2518 39.4112 72.533 40.6271 72.9145 42.9073C73.1944 44.5746 72.7963 45.9703 71.7205 47.0945C70.8358 48.019 69.7112 48.6896 68.4381 49.0151C68.4212 49.0195 68.4068 49.0301 68.3977 49.0447C68.3887 49.0593 68.3857 49.0768 68.3894 49.0935C68.4407 49.3133 68.5649 49.4548 68.6779 49.6312C70.1727 51.9772 71.6547 54.331 73.124 56.6924C73.3412 57.0426 73.8001 57.559 73.7688 57.9791C73.7666 58.0067 73.7538 58.0326 73.733 58.0514C73.7123 58.0702 73.685 58.0806 73.6567 58.0805H71.2477C71.217 58.0805 71.1906 58.0705 71.1686 58.0507C71.1072 57.9961 71.0553 57.9339 71.0131 57.8641C69.2582 54.9749 67.5056 52.0815 65.7553 49.1838C65.7485 49.1729 65.7388 49.1641 65.7272 49.1585C65.7157 49.1529 65.7028 49.1507 65.6901 49.1523C64.0259 49.3219 62.2713 49.2068 60.5923 49.2264C60.557 49.227 60.5393 49.2446 60.5393 49.2792ZM64.2293 48.3028C66.9407 48.3641 69.8824 47.385 70.4447 44.4598C70.52 44.0679 70.522 43.6748 70.4508 43.2805C70.0267 40.9339 67.9931 39.8023 65.7501 39.4947C65.3753 39.443 64.797 39.4177 64.0155 39.4189C62.8683 39.4206 61.7241 39.4206 60.5827 39.4189C60.5712 39.4189 60.5602 39.4233 60.552 39.4313C60.5439 39.4393 60.5393 39.4502 60.5393 39.4615V48.238C60.5393 48.2664 60.5538 48.2806 60.5827 48.2806C61.8003 48.2832 63.0135 48.2746 64.2293 48.3028Z" fill="#050D12"/>
<path id="Vector_10" d="M92.747 54.425C92.7496 54.4281 92.7531 54.4303 92.7569 54.4313C92.7608 54.4323 92.765 54.4321 92.7687 54.4306C92.7725 54.4292 92.7757 54.4267 92.7779 54.4234C92.7801 54.4201 92.7811 54.4162 92.7809 54.4122V38.6315C92.7809 38.6146 92.7878 38.5983 92.8 38.5863C92.8123 38.5744 92.8288 38.5676 92.8461 38.5676H93.4301C93.4423 38.5676 93.454 38.5724 93.4627 38.5809C93.4713 38.5893 93.4762 38.6008 93.4762 38.6128V58.233C93.4762 58.2621 93.4653 58.2901 93.4456 58.3118C93.4258 58.3334 93.3987 58.3473 93.3693 58.3506C92.8122 58.412 92.6254 58.0686 92.3143 57.7081C87.3804 51.9883 82.4384 46.2748 77.4883 40.5675C77.3087 40.3601 77.1256 40.1531 76.9391 39.9463C76.9348 39.9415 76.9292 39.938 76.923 39.9362C76.9168 39.9345 76.9102 39.9345 76.904 39.9363C76.8977 39.938 76.8922 39.9416 76.8879 39.9464C76.8837 39.9512 76.8809 39.9571 76.88 39.9634C76.8313 40.2931 76.8739 40.697 76.8739 40.933C76.8791 46.6284 76.8791 52.3235 76.8739 58.0183C76.8739 58.0632 76.851 58.0848 76.8052 58.083L76.2386 58.0643C76.201 58.0632 76.1821 58.0444 76.1821 58.0081V38.6102C76.1821 38.5989 76.1867 38.5881 76.1949 38.5801C76.203 38.5721 76.2141 38.5676 76.2256 38.5676H78.9387C78.9677 38.5676 78.9918 38.5784 79.0109 38.6L92.747 54.425Z" fill="#050D12"/>
<path id="Vector_11" d="M127.535 38.8998C132.876 39.9232 136.208 43.5369 135.894 49.0073C135.587 54.3491 131.388 57.3322 126.292 57.8835C125.619 57.9568 124.848 58.0753 124.17 58.077C121.891 58.0815 119.611 58.0824 117.33 58.0795C117.319 58.0795 117.308 58.0752 117.3 58.0675C117.292 58.0599 117.288 58.0495 117.288 58.0386V38.6297C117.288 38.6132 117.295 38.5974 117.307 38.5857C117.319 38.5741 117.335 38.5675 117.352 38.5675C119.789 38.5664 122.231 38.5678 124.675 38.5718C125.64 38.5735 126.563 38.7132 127.535 38.8998ZM123.89 57.1738C125.397 57.2084 126.801 56.9835 128.101 56.4989C132.115 55.0043 133.577 51.2875 133.273 47.344C132.926 42.8118 130.16 40.1124 125.541 39.5006C125.122 39.4449 124.644 39.4173 124.108 39.4179C122.628 39.4202 121.151 39.4205 119.678 39.4188C119.666 39.4188 119.655 39.4232 119.647 39.4312C119.639 39.4392 119.635 39.4501 119.635 39.4614V57.0996C119.635 57.128 119.649 57.1422 119.677 57.1422C121.085 57.1448 122.485 57.1414 123.89 57.1738Z" fill="#050D12"/>
<path id="Vector_12" d="M148.026 45.0401C148.079 44.9029 148.128 44.701 148.206 44.5382C148.212 44.5255 148.222 44.5149 148.234 44.5078C148.247 44.5006 148.261 44.4973 148.275 44.4982C148.289 44.4991 148.303 44.5043 148.314 44.5129C148.325 44.5216 148.333 44.5334 148.338 44.5467C148.705 45.7033 149.182 46.8136 149.768 47.8776C150.251 48.7524 150.38 49.6454 150.155 50.5565C149.866 51.7299 148.602 52.4149 147.448 51.8824C146.055 51.2399 146.03 49.321 146.619 48.1749C147.143 47.1536 147.612 46.1086 148.026 45.0401Z" fill="#050D12"/>
<path id="Vector_13" d="M163 55.9339V56.2961C160.8 58.912 157.715 61.5211 154.174 61.9999H150.655C148.64 61.8133 146.758 61.1632 144.414 60.456C141.755 59.6524 138.948 59.2826 136.222 59.7572C135.615 59.8629 134.951 60.116 134.305 60.2762C134.297 60.2782 134.289 60.2784 134.28 60.2767C134.272 60.2751 134.264 60.2715 134.258 60.2665C134.251 60.2614 134.245 60.2549 134.242 60.2474C134.238 60.2399 134.236 60.2317 134.236 60.2233L134.234 59.874C134.234 59.8473 134.247 59.8297 134.272 59.8212C137.563 58.6376 141.044 58.4169 144.454 59.2272C146.757 59.7751 149.152 60.6392 151.332 60.98C156.037 61.7154 159.918 59.3474 162.767 55.9211C162.844 55.8283 162.944 55.8035 163 55.9339Z" fill="#050D12"/>
</g>
</g>
</svg>
