<svg width="180" height="70" viewBox="0 0 180 70" fill="none" xmlns="http://www.w3.org/2000/svg">
<g id="Logo">
<g id="Group 68">
<path id="Vector" d="M37.1829 29.8995H25.6737C25.635 29.8995 25.6053 29.9156 25.5846 29.9479L20.1392 38.2979C20.1027 38.3545 20.0508 38.3828 19.9835 38.3828H16.0426C15.9982 38.3828 15.9885 38.3645 16.0136 38.328C20.0984 32.3246 24.1728 26.3144 28.2369 20.2974C29.2237 18.837 30.3169 18.0134 32.1768 18.0091C33.5448 18.0055 34.9136 18.0051 36.2831 18.008C36.8307 18.0087 37.4378 18.1612 38.1043 18.4655C39.6581 19.1763 40.3217 20.6281 40.3249 22.2818C40.335 27.6309 40.3389 32.98 40.3368 38.3291C40.3368 38.3433 40.3311 38.357 40.321 38.367C40.311 38.3771 40.2973 38.3828 40.2831 38.3828H37.3032C37.2674 38.3828 37.2495 38.3649 37.2495 38.3291V29.9672C37.2495 29.9221 37.2273 29.8995 37.1829 29.8995ZM30.6143 22.1916C29.6705 23.5758 28.7738 25.0158 27.8697 26.4236C27.8654 26.4301 27.8629 26.4377 27.8626 26.4455C27.8623 26.4533 27.8641 26.461 27.8679 26.4679C27.8716 26.4747 27.8772 26.4804 27.8839 26.4843C27.8907 26.4883 27.8984 26.4903 27.9062 26.4901H37.1969C37.2406 26.4901 37.2631 26.4683 37.2645 26.4246C37.2932 24.7516 37.2939 23.5142 37.2667 22.7124C37.228 21.5828 36.4849 21.2864 35.4713 21.2832C34.507 21.2803 33.543 21.2807 32.5794 21.2843C31.7644 21.2875 31.0578 21.542 30.6143 22.1916Z" fill="#050D12"/>
<path id="Vector_2" d="M46.5914 29.8972V38.302C46.5914 38.3378 46.5735 38.3557 46.5377 38.3557H43.4795C43.4451 38.3557 43.4279 38.3386 43.4279 38.3042L43.415 18.0562C43.415 18.0254 43.4308 18.01 43.4623 18.01C48.3611 18.005 53.2613 18.0028 58.1629 18.0036C59.8982 18.0036 61.2212 18.8293 62.3165 20.1061C63.8929 21.9434 64.011 24.5754 63.066 26.7241C62.9264 27.0419 62.6755 27.4836 62.3133 28.0492C62.2932 28.0807 62.295 28.1107 62.3186 28.1394C63.3667 29.4011 64.011 30.621 64.0314 32.2962C64.0478 33.6492 64.0493 35.6518 64.0357 38.3042C64.0357 38.3386 64.0185 38.3557 63.9841 38.3557H61.0118C60.9738 38.3557 60.9549 38.3371 60.9549 38.2999C60.9542 36.498 60.9513 34.7012 60.9463 32.9093C60.9398 30.7058 59.6266 29.8682 57.6443 29.8704C53.9632 29.874 50.2875 29.8743 46.6172 29.8715C46.6103 29.8715 46.6038 29.8742 46.599 29.879C46.5941 29.8838 46.5914 29.8904 46.5914 29.8972ZM46.5903 21.4086V26.3955C46.5903 26.402 46.5916 26.4084 46.5941 26.4144C46.5966 26.4204 46.6002 26.4258 46.6048 26.4304C46.6094 26.435 46.6148 26.4386 46.6208 26.4411C46.6268 26.4436 46.6332 26.4449 46.6397 26.4449H58.0706C58.7515 26.4449 59.4046 26.178 59.8861 25.7029C60.3676 25.2279 60.6381 24.5836 60.6381 23.9117V23.8924C60.6381 23.2206 60.3676 22.5763 59.8861 22.1012C59.4046 21.6261 58.7515 21.3593 58.0706 21.3593H46.6397C46.6266 21.3593 46.6141 21.3645 46.6048 21.3737C46.5955 21.383 46.5903 21.3955 46.5903 21.4086Z" fill="#050D12"/>
<path id="Vector_3" d="M89.1926 33.3052C88.8887 35.5269 87.2103 37.6402 84.9617 38.2039C84.5737 38.3006 83.8618 38.35 82.8259 38.3521C79.429 38.3586 76.0314 38.3597 72.6331 38.3554C70.9601 38.3532 69.6361 37.5994 68.5558 36.3516C67.608 35.257 67.1276 33.923 67.1148 32.3495C67.0854 28.8524 67.0875 25.9863 67.1212 23.7513C67.1652 20.7769 69.6017 18.0279 72.6664 18.0171C76.3232 18.0035 79.9806 17.9985 83.6388 18.0021C85.4267 18.0032 86.8871 18.8322 87.962 20.1938C88.8833 21.361 89.2538 22.5841 89.2592 24.0671C89.2713 27.2055 89.2717 29.57 89.2602 31.1607C89.2523 32.319 89.2298 33.0338 89.1926 33.3052ZM83.6924 21.4222C80.0758 21.4061 76.4656 21.3922 72.849 21.4233C71.7086 21.433 70.7872 22.233 70.4286 23.2628C70.3205 23.5735 70.2668 24.1011 70.2675 24.8456C70.2696 27.0483 70.2707 29.2511 70.2707 31.4539C70.2707 32.3237 70.3269 32.9229 70.4393 33.2515C70.8356 34.4069 71.7956 34.9685 73.0079 34.9717C74.6129 34.9767 78.1275 34.976 83.5518 34.9696C85.2549 34.9674 86.1032 33.724 86.1064 32.154C86.1114 29.4716 86.1096 26.7892 86.101 24.1068C86.0967 22.7462 85.1378 21.4287 83.6924 21.4222Z" fill="#050D12"/>
<path id="Vector_4" d="M110.706 30.9398C109.876 30.0357 107.867 29.9014 106.692 29.91C104.08 29.9279 102.033 29.9337 100.552 29.9272C97.2615 29.9111 93.2636 29.5052 92.5227 25.4719C92.2113 23.7731 92.3809 22.0153 93.371 20.5849C94.1603 19.4435 95.2513 18.4974 96.6161 18.156C97.0055 18.0586 97.705 18.0096 98.7144 18.0088C103.971 18.0053 109.228 18.0049 114.485 18.0078C114.52 18.0078 114.538 18.026 114.538 18.0625V21.3033C114.538 21.3413 114.519 21.3602 114.481 21.3602C109.172 21.3645 103.864 21.3649 98.5587 21.3613C98.3686 21.3602 98.1012 21.3925 97.8703 21.3903C96.484 21.3753 95.5068 22.6972 95.5552 23.9943C95.6368 26.2 98.3557 26.5436 99.9954 26.5457C102.202 26.55 104.41 26.5554 106.619 26.5619C108.257 26.5672 110.08 26.5887 111.54 27.2298C113.638 28.1511 114.414 30.1108 114.429 32.3433C114.438 33.7593 114.035 34.9889 113.22 36.0319C112.382 37.1004 111.318 37.9422 109.998 38.2343C109.64 38.3131 109.043 38.3528 108.208 38.3535C102.933 38.3564 97.6545 38.3567 92.3734 38.3546C92.3637 38.3546 92.3545 38.3509 92.3476 38.3442C92.3408 38.3376 92.3369 38.3285 92.3369 38.3192V34.9978C92.3369 34.9513 92.3602 34.9273 92.4067 34.9259C93.1348 34.899 94.0132 34.942 94.5801 34.9388C99.1124 34.9166 103.645 34.9108 108.177 34.9216C108.882 34.9237 109.376 34.8718 109.658 34.7659C111.116 34.2193 111.832 32.1661 110.706 30.9398Z" fill="#050D12"/>
<path id="Vector_5" d="M133.475 18.0068H136.568C136.578 18.0068 136.587 18.0108 136.594 18.0178C136.601 18.0249 136.605 18.0345 136.605 18.0444V38.3182C136.605 38.3282 136.601 38.3377 136.594 38.3448C136.587 38.3518 136.578 38.3558 136.568 38.3558H133.475C133.47 38.3558 133.465 38.3548 133.461 38.3529C133.456 38.3511 133.452 38.3483 133.449 38.3448C133.445 38.3413 133.442 38.3372 133.44 38.3326C133.439 38.328 133.438 38.3232 133.438 38.3182V29.937C133.438 29.9271 133.434 29.9175 133.427 29.9104C133.419 29.9034 133.41 29.8994 133.4 29.8994H120.804C120.794 29.8994 120.784 29.9034 120.777 29.9104C120.77 29.9175 120.766 29.9271 120.766 29.937V38.3182C120.766 38.3282 120.762 38.3377 120.755 38.3448C120.748 38.3518 120.739 38.3558 120.729 38.3558H117.636C117.631 38.3558 117.626 38.3548 117.622 38.3529C117.617 38.3511 117.613 38.3483 117.61 38.3448C117.606 38.3413 117.603 38.3372 117.601 38.3326C117.6 38.328 117.599 38.3232 117.599 38.3182V18.0444C117.599 18.0345 117.603 18.0249 117.61 18.0178C117.617 18.0108 117.626 18.0068 117.636 18.0068H120.729C120.739 18.0068 120.748 18.0108 120.755 18.0178C120.762 18.0249 120.766 18.0345 120.766 18.0444V26.4256C120.766 26.4356 120.77 26.4451 120.777 26.4522C120.784 26.4592 120.794 26.4632 120.804 26.4632H133.4C133.41 26.4632 133.419 26.4592 133.427 26.4522C133.434 26.4451 133.438 26.4356 133.438 26.4256V18.0444C133.438 18.0345 133.441 18.0249 133.449 18.0178C133.456 18.0108 133.465 18.0068 133.475 18.0068Z" fill="#050D12"/>
<path id="Vector_6" d="M142.753 29.9616V38.302C142.753 38.3378 142.735 38.3557 142.699 38.3557H139.724C139.689 38.3557 139.671 38.3378 139.671 38.302C139.657 33.1699 139.659 28.0399 139.676 22.912C139.68 21.8997 139.739 21.1957 139.853 20.7998C140.359 19.0462 141.995 18.0733 143.806 18.0358C145.954 17.9899 147.42 17.9882 148.202 18.0304C149.189 18.0841 150.041 18.4281 150.76 19.0623C151.065 19.3315 151.506 19.892 152.082 20.7439C156.041 26.602 160.01 32.454 163.986 38.2999C164.011 38.3371 164.001 38.3557 163.956 38.3557H159.993C159.969 38.3557 159.946 38.3498 159.925 38.3386C159.904 38.3273 159.886 38.3111 159.874 38.2913L154.414 29.9208C154.407 29.9103 154.398 29.9016 154.386 29.8956C154.375 29.8896 154.363 29.8865 154.35 29.8865L142.824 29.8886C142.776 29.8886 142.753 29.913 142.753 29.9616ZM152.142 26.4148C151.277 25.0822 150.421 23.7431 149.552 22.4127C148.974 21.5278 148.357 21.2529 147.261 21.254C146.325 21.2547 145.388 21.2554 144.45 21.2562C143.493 21.2562 142.734 21.6384 142.73 22.7058C142.724 23.9443 142.724 25.1803 142.728 26.4137C142.728 26.4268 142.733 26.4394 142.742 26.4487C142.752 26.4579 142.764 26.4631 142.777 26.4631H152.115C152.121 26.4633 152.127 26.4619 152.131 26.4591C152.136 26.4562 152.141 26.4521 152.143 26.4471C152.146 26.4421 152.147 26.4365 152.147 26.4308C152.147 26.4251 152.145 26.4196 152.142 26.4148Z" fill="#050D12"/>
<path id="Vector_7" d="M92.5881 47.4802C92.2047 45.7513 90.0055 45.6901 89.2302 47.041C88.471 48.3639 88.5645 51.3953 90.5789 51.6842C91.7956 51.8581 92.4302 50.9991 92.6579 49.8845C92.665 49.8472 92.6872 49.8283 92.7244 49.8275L93.4536 49.8147C93.4937 49.8139 93.5112 49.8336 93.5062 49.8737C93.3 51.7347 91.6914 53.0007 89.8434 52.3478C87.6141 51.5596 87.5046 48.1395 88.587 46.4718C89.198 45.5301 90.3567 45.1768 91.4391 45.3637C92.5272 45.5512 93.2023 46.2531 93.4643 47.4694C93.4743 47.5145 93.4561 47.5371 93.4095 47.5371H92.6589C92.6196 47.5371 92.5959 47.5181 92.5881 47.4802Z" fill="#050D12"/>
<path id="Vector_8" d="M107.474 47.4877C107.303 46.7639 106.829 46.2045 106.062 46.1218C103.787 45.8748 103.457 48.4745 103.832 50.0831C104.021 50.8971 104.466 51.4064 105.165 51.6112C106.492 51.9999 107.327 51.1076 107.542 49.8866C107.545 49.8664 107.556 49.8481 107.572 49.8351C107.588 49.8221 107.607 49.8152 107.628 49.8157L108.325 49.8297C108.37 49.8304 108.391 49.8537 108.386 49.8995C108.016 53.2799 103.527 53.4302 102.931 50.0681C102.611 48.2608 102.928 45.9285 105.042 45.3905C106.591 44.9975 108.067 45.8158 108.32 47.4705C108.327 47.5149 108.307 47.5371 108.262 47.5371H107.536C107.503 47.5371 107.482 47.5206 107.474 47.4877Z" fill="#050D12"/>
<path id="Vector_9" d="M127.422 51.6755C128.259 51.5907 128.758 50.6027 128.871 49.8704C128.876 49.836 128.896 49.8188 128.93 49.8188H129.676C129.709 49.8188 129.724 49.8357 129.721 49.8693C129.664 50.4478 129.465 50.9721 129.126 51.4425C128.232 52.6795 126.412 52.8503 125.29 51.9278C124.862 51.5749 124.548 51.0598 124.348 50.3826C123.807 48.5431 124.219 45.9509 126.37 45.3818C127.919 44.9727 129.416 45.8683 129.668 47.4833C129.674 47.5191 129.659 47.537 129.622 47.537H128.874C128.837 47.537 128.814 47.5191 128.805 47.4833C128.615 46.7574 128.176 46.2033 127.379 46.1217C126.177 45.9971 125.371 46.7434 125.139 47.858C124.791 49.5246 125.109 51.9107 127.422 51.6755Z" fill="#050D12"/>
<path id="Vector_10" d="M57.2538 47.2975C57.2162 48.9286 61.0648 47.7603 61.1679 50.3579C61.213 51.4825 60.6399 52.1784 59.4487 52.4454C57.8047 52.8137 56.2691 52.0631 56.2208 50.2054C56.2193 50.1675 56.2376 50.1481 56.2755 50.1474L56.9757 50.127C56.9909 50.1264 57.0057 50.1318 57.017 50.1421C57.0282 50.1523 57.035 50.1666 57.0358 50.1818C57.1045 51.6003 58.3641 52.0384 59.5529 51.6003C60.6009 51.2148 60.6224 49.8285 59.5282 49.5117C58.3083 49.1584 56.6138 49.0876 56.4538 47.6196C56.1231 44.5603 61.1056 44.5904 60.9714 47.4371C60.9699 47.4686 60.9535 47.4843 60.922 47.4843L60.2272 47.4833C60.18 47.4825 60.1546 47.4589 60.151 47.4124C60.0726 46.3643 59.2264 46.0025 58.2911 46.1464C57.6447 46.2451 57.2688 46.6349 57.2538 47.2975Z" fill="#050D12"/>
<path id="Vector_11" d="M100.964 50.2796C100.866 49.8415 100.562 49.6321 100.156 49.5118C98.6925 49.0801 96.5599 48.9502 97.2117 46.6952C97.8217 44.5851 101.759 44.9266 101.633 47.4447C101.631 47.4705 101.618 47.4833 101.592 47.4833H100.899C100.854 47.4833 100.83 47.4604 100.826 47.4146C100.746 46.3784 99.9467 46.0197 99.0114 46.1421C98.4037 46.2216 98.016 46.5341 97.929 47.1558C97.6702 49.0017 101.941 47.6713 101.837 50.5427C101.784 51.9687 100.587 52.5507 99.3153 52.5325C97.9097 52.5131 96.9153 51.6831 96.896 50.199C96.8953 50.1604 96.9146 50.1411 96.954 50.1411H97.6273C97.6745 50.1411 97.7007 50.1643 97.7057 50.2109C97.7873 50.926 98.0579 51.4995 98.8257 51.682C99.776 51.9075 101.255 51.5864 100.964 50.2796Z" fill="#050D12"/>
<path id="Vector_12" d="M51.424 46.3678V48.3511C51.424 48.3562 51.425 48.3613 51.427 48.3659C51.4289 48.3706 51.4317 48.3749 51.4353 48.3785C51.4389 48.3821 51.4432 48.3849 51.4479 48.3869C51.4526 48.3888 51.4576 48.3898 51.4627 48.3898L54.9021 48.4199C54.9124 48.4199 54.9222 48.4239 54.9295 48.4312C54.9367 48.4384 54.9408 48.4483 54.9408 48.4585V49.163C54.9408 49.1732 54.9367 49.183 54.9295 49.1903C54.9222 49.1975 54.9124 49.2016 54.9021 49.2016H51.4627C51.4576 49.2016 51.4526 49.2026 51.4479 49.2046C51.4432 49.2065 51.4389 49.2093 51.4353 49.2129C51.4317 49.2165 51.4289 49.2208 51.427 49.2255C51.425 49.2302 51.424 49.2352 51.424 49.2403V51.4985C51.424 51.5036 51.425 51.5086 51.427 51.5133C51.4289 51.518 51.4317 51.5223 51.4353 51.5259C51.4389 51.5295 51.4432 51.5323 51.4479 51.5342C51.4526 51.5362 51.4576 51.5372 51.4627 51.5372H55.2511C55.2562 51.5372 55.2612 51.5382 55.2659 51.5401C55.2706 51.5421 55.2749 51.5449 55.2785 51.5485C55.282 51.5521 55.2849 51.5564 55.2868 51.561C55.2888 51.5657 55.2898 51.5708 55.2898 51.5758V52.3039C55.2898 52.3141 55.2857 52.324 55.2785 52.3312C55.2712 52.3385 55.2614 52.3426 55.2511 52.3426H50.6305C50.6202 52.3426 50.6104 52.3385 50.6031 52.3312C50.5959 52.324 50.5918 52.3141 50.5918 52.3039V45.5345C50.5918 45.5243 50.5959 45.5144 50.6031 45.5072C50.6104 45.4999 50.6202 45.4958 50.6305 45.4958L55.1974 45.4969C55.2025 45.4969 55.2075 45.4979 55.2122 45.4999C55.2169 45.5018 55.2212 45.5047 55.2248 45.5082C55.2284 45.5118 55.2312 45.5161 55.2331 45.5208C55.2351 45.5255 55.2361 45.5305 55.2361 45.5356V46.2905C55.2361 46.2956 55.2351 46.3006 55.2331 46.3053C55.2312 46.31 55.2284 46.3142 55.2248 46.3178C55.2212 46.3214 55.2169 46.3243 55.2122 46.3262C55.2075 46.3281 55.2025 46.3291 55.1974 46.3291H51.4627C51.4576 46.3291 51.4526 46.3301 51.4479 46.3321C51.4432 46.334 51.4389 46.3369 51.4353 46.3405C51.4317 46.344 51.4289 46.3483 51.427 46.353C51.425 46.3577 51.424 46.3627 51.424 46.3678Z" fill="#050D12"/>
<path id="Vector_13" d="M72.064 48.2768V45.5289C72.064 45.5186 72.0681 45.5088 72.0753 45.5016C72.0826 45.4943 72.0924 45.4902 72.1026 45.4902L72.8887 45.4999C72.8989 45.4999 72.9088 45.504 72.916 45.5112C72.9233 45.5185 72.9273 45.5283 72.9273 45.5386V52.3036C72.9273 52.3139 72.9233 52.3237 72.916 52.331C72.9088 52.3382 72.8989 52.3423 72.8887 52.3423H72.1069C72.0967 52.3423 72.0869 52.3382 72.0796 52.331C72.0724 52.3237 72.0683 52.3139 72.0683 52.3036V49.1595C72.0683 49.1544 72.0673 49.1494 72.0653 49.1447C72.0634 49.14 72.0605 49.1357 72.057 49.1322C72.0534 49.1286 72.0491 49.1257 72.0444 49.1238C72.0397 49.1218 72.0347 49.1208 72.0296 49.1208H68.8049C68.7999 49.1208 68.7948 49.1218 68.7901 49.1238C68.7854 49.1257 68.7812 49.1286 68.7776 49.1322C68.774 49.1357 68.7712 49.14 68.7692 49.1447C68.7673 49.1494 68.7663 49.1544 68.7663 49.1595V52.3036C68.7663 52.3139 68.7622 52.3237 68.755 52.331C68.7477 52.3382 68.7379 52.3423 68.7276 52.3423H67.919C67.9088 52.3423 67.8989 52.3382 67.8917 52.331C67.8844 52.3237 67.8804 52.3139 67.8804 52.3036V45.5353C67.8804 45.5303 67.8814 45.5252 67.8833 45.5205C67.8853 45.5159 67.8881 45.5116 67.8917 45.508C67.8953 45.5044 67.8995 45.5016 67.9042 45.4996C67.9089 45.4977 67.914 45.4967 67.919 45.4967L68.7276 45.4956C68.7379 45.4956 68.7477 45.4997 68.755 45.5069C68.7622 45.5142 68.7663 45.524 68.7663 45.5343V48.2768C68.7663 48.2871 68.7704 48.2969 68.7776 48.3041C68.7849 48.3114 68.7947 48.3155 68.8049 48.3155H72.0253C72.0356 48.3155 72.0454 48.3114 72.0527 48.3041C72.0599 48.2969 72.064 48.2871 72.064 48.2768Z" fill="#050D12"/>
<path id="Vector_14" d="M118.735 52.3426H118.01C118 52.3426 117.991 52.3388 117.985 52.3322C117.978 52.3255 117.974 52.3165 117.974 52.3071V45.5324C117.974 45.523 117.978 45.5139 117.985 45.5073C117.991 45.5007 118 45.4969 118.01 45.4969H118.97C118.976 45.4969 118.982 45.4986 118.988 45.5018C118.993 45.505 118.998 45.5096 119.001 45.5152L122.122 50.9262C122.126 50.9331 122.132 50.9386 122.139 50.9418C122.147 50.9449 122.155 50.9456 122.162 50.9436C122.17 50.9416 122.177 50.9371 122.182 50.9309C122.186 50.9246 122.189 50.9169 122.189 50.909V45.5334C122.189 45.524 122.193 45.515 122.199 45.5084C122.206 45.5017 122.215 45.498 122.224 45.498L122.96 45.4958C122.969 45.4958 122.978 45.4996 122.985 45.5062C122.992 45.5129 122.995 45.5219 122.995 45.5313L122.994 52.3071C122.994 52.3165 122.991 52.3255 122.984 52.3322C122.977 52.3388 122.968 52.3426 122.959 52.3426H122.061C122.055 52.3427 122.049 52.3412 122.043 52.3382C122.038 52.3351 122.033 52.3307 122.03 52.3254L118.873 46.9358C118.869 46.9289 118.863 46.9234 118.856 46.9203C118.849 46.9171 118.841 46.9165 118.833 46.9184C118.825 46.9204 118.818 46.9249 118.814 46.9312C118.809 46.9374 118.806 46.9451 118.806 46.953L118.771 52.3071C118.771 52.3165 118.767 52.3255 118.761 52.3322C118.754 52.3388 118.745 52.3426 118.735 52.3426Z" fill="#050D12"/>
<path id="Vector_15" d="M45.578 50.3006L44.8993 52.3162C44.8968 52.3237 44.8921 52.3302 44.8857 52.3348C44.8794 52.3394 44.8717 52.3419 44.8639 52.342H44.0607C44.0546 52.342 44.0486 52.3405 44.0433 52.3378C44.0379 52.335 44.0333 52.3309 44.0298 52.326C44.0263 52.321 44.0241 52.3153 44.0233 52.3093C44.0225 52.3033 44.0232 52.2972 44.0252 52.2915L46.4037 45.521C46.4064 45.5138 46.4112 45.5075 46.4176 45.5031C46.4239 45.4987 46.4315 45.4963 46.4392 45.4963H47.3691C47.377 45.4964 47.3846 45.4989 47.391 45.5035C47.3973 45.5081 47.4021 45.5146 47.4046 45.5221L49.695 52.2926C49.6969 52.2982 49.6974 52.3042 49.6965 52.31C49.6956 52.3159 49.6933 52.3215 49.6899 52.3263C49.6864 52.3311 49.6819 52.335 49.6766 52.3378C49.6713 52.3405 49.6655 52.3419 49.6596 52.342H48.8037C48.7959 52.3419 48.7882 52.3394 48.7819 52.3348C48.7755 52.3302 48.7708 52.3237 48.7683 52.3162L48.1004 50.3006C48.0979 50.2932 48.0932 50.2867 48.0868 50.282C48.0805 50.2774 48.0728 50.2749 48.065 50.2749H45.6134C45.6056 50.2749 45.5979 50.2774 45.5916 50.282C45.5852 50.2867 45.5804 50.2932 45.578 50.3006ZM45.8625 49.4727C45.8608 49.4777 45.8604 49.483 45.8611 49.4882C45.8619 49.4934 45.8638 49.4984 45.8669 49.5027C45.8699 49.507 45.8739 49.5105 45.8786 49.5129C45.8832 49.5154 45.8884 49.5167 45.8937 49.5167L47.7986 49.5296C47.8039 49.5297 47.809 49.5285 47.8137 49.5262C47.8184 49.5239 47.8225 49.5205 47.8256 49.5163C47.8288 49.5121 47.8309 49.5073 47.8318 49.5021C47.8327 49.497 47.8324 49.4917 47.8309 49.4867L46.8988 46.6163C46.8967 46.6096 46.8926 46.6037 46.887 46.5994C46.8814 46.5952 46.8745 46.5929 46.8675 46.5927C46.8605 46.5926 46.8536 46.5947 46.8478 46.5988C46.842 46.6028 46.8377 46.6086 46.8354 46.6153L45.8625 49.4727Z" fill="#050D12"/>
<path id="Vector_16" d="M63.9867 46.3017H61.9142C61.9068 46.3017 61.8995 46.3002 61.8927 46.2973C61.8859 46.2945 61.8798 46.2902 61.8747 46.2849C61.8696 46.2796 61.8656 46.2733 61.863 46.2664C61.8603 46.2595 61.8591 46.2522 61.8594 46.2448L61.8873 45.549C61.8879 45.5348 61.8939 45.5214 61.9041 45.5116C61.9143 45.5018 61.9279 45.4963 61.9421 45.4963H67.0202C67.0347 45.4963 67.0487 45.5021 67.0589 45.5124C67.0692 45.5226 67.075 45.5366 67.075 45.5511V46.2469C67.075 46.2615 67.0692 46.2754 67.0589 46.2857C67.0487 46.2959 67.0347 46.3017 67.0202 46.3017H64.9553C64.9407 46.3017 64.9268 46.3075 64.9165 46.3177C64.9063 46.328 64.9005 46.3419 64.9005 46.3565V52.2872C64.9005 52.3017 64.8947 52.3157 64.8844 52.3259C64.8742 52.3362 64.8602 52.342 64.8457 52.342H64.0962C64.0817 52.342 64.0677 52.3362 64.0575 52.3259C64.0472 52.3157 64.0414 52.3017 64.0414 52.2872V46.3565C64.0414 46.3419 64.0357 46.328 64.0254 46.3177C64.0151 46.3075 64.0012 46.3017 63.9867 46.3017Z" fill="#050D12"/>
<path id="Vector_17" d="M75.2349 46.3672L75.2468 48.3549C75.2468 48.3651 75.2508 48.3749 75.2581 48.3822C75.2653 48.3894 75.2752 48.3935 75.2854 48.3935L78.7141 48.4182C78.7244 48.4182 78.7342 48.4223 78.7415 48.4295C78.7487 48.4368 78.7528 48.4466 78.7528 48.4569V49.1624C78.7528 49.1726 78.7487 49.1825 78.7415 49.1897C78.7342 49.197 78.7244 49.201 78.7141 49.201H75.2747C75.2644 49.201 75.2546 49.2051 75.2473 49.2124C75.2401 49.2196 75.236 49.2294 75.236 49.2397V51.4979C75.236 51.5082 75.2401 51.518 75.2473 51.5253C75.2546 51.5325 75.2644 51.5366 75.2747 51.5366H79.0631C79.0682 51.5366 79.0732 51.5376 79.0779 51.5395C79.0826 51.5415 79.0869 51.5443 79.0905 51.5479C79.0941 51.5515 79.0969 51.5558 79.0988 51.5605C79.1008 51.5652 79.1018 51.5702 79.1018 51.5753V52.3033C79.1018 52.3136 79.0977 52.3234 79.0905 52.3306C79.0832 52.3379 79.0734 52.342 79.0631 52.342H74.4425C74.4322 52.342 74.4224 52.3379 74.4151 52.3306C74.4079 52.3234 74.4038 52.3136 74.4038 52.3033V45.535C74.4038 45.5299 74.4048 45.5249 74.4068 45.5202C74.4087 45.5155 74.4115 45.5112 74.4151 45.5077C74.4187 45.5041 74.423 45.5012 74.4277 45.4993C74.4324 45.4973 74.4374 45.4963 74.4425 45.4963H79.0094C79.0145 45.4963 79.0195 45.4973 79.0242 45.4993C79.0289 45.5012 79.0332 45.5041 79.0368 45.5077C79.0404 45.5112 79.0432 45.5155 79.0452 45.5202C79.0471 45.5249 79.0481 45.5299 79.0481 45.535V46.2899C79.0481 46.3001 79.044 46.31 79.0368 46.3172C79.0295 46.3245 79.0197 46.3286 79.0094 46.3286H75.2736C75.2634 46.3286 75.2535 46.3326 75.2463 46.3399C75.239 46.3471 75.2349 46.357 75.2349 46.3672Z" fill="#050D12"/>
<path id="Vector_18" d="M79.7334 46.2641L79.7431 45.5339C79.7431 45.524 79.747 45.5144 79.7541 45.5073C79.7611 45.5003 79.7707 45.4963 79.7806 45.4963H84.8899C84.8999 45.4963 84.9094 45.5003 84.9165 45.5073C84.9235 45.5144 84.9275 45.524 84.9275 45.5339V46.2641C84.9275 46.2741 84.9235 46.2836 84.9165 46.2907C84.9094 46.2977 84.8999 46.3017 84.8899 46.3017H82.7906C82.7856 46.3017 82.7808 46.3027 82.7762 46.3046C82.7716 46.3065 82.7675 46.3092 82.764 46.3127C82.7605 46.3162 82.7577 46.3203 82.7559 46.3249C82.754 46.3295 82.753 46.3344 82.753 46.3393V52.3044C82.753 52.3143 82.749 52.3239 82.742 52.331C82.7349 52.338 82.7254 52.342 82.7154 52.342H81.9315C81.9215 52.342 81.912 52.338 81.9049 52.331C81.8979 52.3239 81.8939 52.3143 81.8939 52.3044V46.3393C81.8939 46.3344 81.893 46.3295 81.8911 46.3249C81.8892 46.3203 81.8864 46.3162 81.8829 46.3127C81.8794 46.3092 81.8753 46.3065 81.8707 46.3046C81.8662 46.3027 81.8613 46.3017 81.8564 46.3017H79.771C79.761 46.3017 79.7515 46.2977 79.7444 46.2907C79.7374 46.2836 79.7334 46.2741 79.7334 46.2641Z" fill="#050D12"/>
<path id="Vector_19" d="M86.7333 45.4963H85.9666C85.9411 45.4963 85.9204 45.517 85.9204 45.5425V52.2947C85.9204 52.3202 85.9411 52.3409 85.9666 52.3409H86.7333C86.7588 52.3409 86.7795 52.3202 86.7795 52.2947V45.5425C86.7795 45.517 86.7588 45.4963 86.7333 45.4963Z" fill="#050D12"/>
<path id="Vector_20" d="M110.564 45.4978H109.76C109.745 45.4978 109.732 45.5103 109.732 45.5257V52.3144C109.732 52.3299 109.745 52.3424 109.76 52.3424H110.564C110.579 52.3424 110.591 52.3299 110.591 52.3144V45.5257C110.591 45.5103 110.579 45.4978 110.564 45.4978Z" fill="#050D12"/>
<path id="Vector_21" d="M112.988 48.3946L116.408 48.415C116.416 48.415 116.425 48.4183 116.431 48.4244C116.437 48.4304 116.441 48.4386 116.441 48.4472L116.453 49.1667C116.453 49.1711 116.452 49.1756 116.451 49.1797C116.449 49.1839 116.447 49.1877 116.443 49.1909C116.44 49.1941 116.437 49.1967 116.432 49.1984C116.428 49.2001 116.424 49.201 116.42 49.201H112.961C112.952 49.201 112.943 49.2045 112.937 49.2108C112.931 49.217 112.927 49.2255 112.927 49.2343V51.5033C112.927 51.5121 112.931 51.5206 112.937 51.5268C112.943 51.5331 112.952 51.5366 112.961 51.5366H116.76C116.769 51.5366 116.777 51.5401 116.783 51.5463C116.79 51.5526 116.793 51.5611 116.793 51.5699V52.3087C116.793 52.3175 116.79 52.326 116.783 52.3322C116.777 52.3385 116.769 52.342 116.76 52.342H112.129C112.12 52.342 112.111 52.3385 112.105 52.3322C112.099 52.326 112.095 52.3175 112.095 52.3087V45.5296C112.095 45.5208 112.099 45.5123 112.105 45.5061C112.111 45.4998 112.12 45.4963 112.129 45.4963H116.706C116.715 45.4963 116.724 45.4998 116.73 45.5061C116.736 45.5123 116.74 45.5208 116.74 45.5296V46.2953C116.74 46.3041 116.736 46.3126 116.73 46.3188C116.724 46.325 116.715 46.3286 116.706 46.3286H112.986C112.978 46.3286 112.969 46.3321 112.963 46.3383C112.957 46.3445 112.953 46.353 112.953 46.3618L112.954 48.3613C112.954 48.3701 112.958 48.3786 112.964 48.3848C112.97 48.3911 112.979 48.3946 112.988 48.3946Z" fill="#050D12"/>
<path id="Vector_22" d="M131.84 51.5291L135.592 51.5398C135.602 51.5398 135.611 51.5437 135.619 51.5508C135.626 51.5578 135.63 51.5673 135.63 51.5774L135.659 52.3022C135.659 52.3074 135.659 52.3125 135.657 52.3174C135.655 52.3222 135.652 52.3266 135.648 52.3303C135.645 52.334 135.64 52.3369 135.636 52.3389C135.631 52.3409 135.626 52.342 135.621 52.342H130.98C130.969 52.342 130.959 52.3379 130.952 52.3306C130.945 52.3234 130.941 52.3136 130.941 52.3033V45.535C130.941 45.5299 130.942 45.5249 130.944 45.5202C130.946 45.5155 130.949 45.5112 130.952 45.5077C130.956 45.5041 130.96 45.5012 130.965 45.4993C130.969 45.4973 130.974 45.4963 130.98 45.4963H135.547C135.552 45.4963 135.557 45.4973 135.561 45.4993C135.566 45.5012 135.57 45.5041 135.574 45.5077C135.577 45.5112 135.58 45.5155 135.582 45.5202C135.584 45.5249 135.585 45.5299 135.585 45.535V46.2899C135.585 46.3001 135.581 46.31 135.574 46.3172C135.567 46.3245 135.557 46.3286 135.547 46.3286H131.839C131.828 46.3286 131.819 46.3326 131.811 46.3399C131.804 46.3471 131.8 46.357 131.8 46.3672V48.357C131.8 48.3673 131.804 48.3771 131.811 48.3843C131.819 48.3916 131.828 48.3957 131.839 48.3957L135.249 48.4193C135.259 48.4196 135.268 48.4236 135.275 48.4306C135.282 48.4376 135.286 48.447 135.287 48.4569L135.296 49.1624C135.296 49.1724 135.292 49.1821 135.285 49.1893C135.278 49.1966 135.269 49.2008 135.259 49.201H131.838C131.827 49.201 131.817 49.2051 131.81 49.2124C131.803 49.2196 131.799 49.2294 131.799 49.2397L131.801 51.4904C131.801 51.5007 131.805 51.5105 131.812 51.5178C131.82 51.525 131.829 51.5291 131.84 51.5291Z" fill="#050D12"/>
</g>
</g>
</svg>
