<svg width="383" height="36" viewBox="0 0 383 36" fill="none" xmlns="http://www.w3.org/2000/svg">
<g clip-path="url(#clip0_72_7081)">
<path d="M6.73561 2.12606V0.300415L0 0.300415L0 32.0213H6.73561V30.3165H1.91289L1.91289 2.12606H6.73561Z" fill="#A2D0F9"/>
<path d="M22.0146 26.6161V17.0582H33.1418V15.1655H22.0146V5.76868H34.0579V3.86241H19.9805V28.4284H34.2195V26.549L22.0146 26.6161Z" fill="#A2D0F9"/>
<path d="M51.5966 11.0756L45.1574 26.8891L38.7181 11.0756H36.7109L43.8776 28.5268H46.4372L53.6038 11.0756H51.5966Z" fill="#A2D0F9"/>
<path d="M73.1738 19.8712C73.2157 17.4904 72.349 15.1826 70.749 13.4142C69.9791 12.5243 69.0164 11.8203 67.9336 11.3552C66.8508 10.8901 65.6762 10.6761 64.4983 10.7294C63.2813 10.6864 62.0687 10.8957 60.9371 11.344C59.8054 11.7923 58.7796 12.4698 57.9244 13.3337C56.2751 15.1141 55.3594 17.4482 55.3594 19.8712C55.3594 22.2941 56.2751 24.6283 57.9244 26.4087C58.8093 27.2762 59.8641 27.9527 61.0229 28.3961C62.1817 28.8395 63.4198 29.0404 64.66 28.9861C66.2359 29.0077 67.7936 28.6484 69.1998 27.939C70.4131 27.3067 71.45 26.3842 72.2173 25.2542L70.5604 24.3011C69.9479 25.2803 69.0778 26.0733 68.0446 26.594C67.0114 27.1147 65.8548 27.3431 64.7004 27.2544C62.8817 27.3145 61.1023 26.7186 59.6891 25.5764C58.3504 24.4577 57.5003 22.8645 57.3181 21.133V20.8646H73.1199C73.1469 20.1531 73.1738 19.9248 73.1738 19.8712ZM57.3047 18.9047V18.6496C57.49 16.9236 58.3166 15.329 59.6218 14.1794C60.9642 13.0303 62.6889 12.4223 64.4579 12.4746C66.0821 12.4637 67.6542 13.0463 68.8765 14.1123C70.1856 15.2837 71.0033 16.9039 71.1666 18.6496V18.9047H57.3047Z" fill="#A2D0F9"/>
<path d="M79.8558 13.9313L79.3977 14.8173V11.0854H77.5117V28.5366H79.3977V18.8445C79.3345 18.0045 79.4441 17.1604 79.7198 16.3641C79.9954 15.5677 80.4313 14.8358 81.0008 14.2132C82.1001 13.2024 83.5465 12.6499 85.0422 12.6694V10.8438C83.9695 10.7974 82.9068 11.0651 81.9851 11.6138C81.0634 12.1625 80.3232 12.9681 79.8558 13.9313Z" fill="#A2D0F9"/>
<path d="M102.099 11.0756L96.1445 26.4326L89.2338 11.0756H87.2266L95.1611 28.8222L94.6492 30.0303C93.5311 32.7151 91.8741 34.0575 89.7592 33.9233V35.6818C91.1579 35.7521 92.5338 35.3078 93.6254 34.4334C94.9552 33.3504 95.9693 31.9319 96.5621 30.3256L104.119 11.1025L102.099 11.0756Z" fill="#A2D0F9"/>
<path d="M116.715 12.8701V11.0445H111.542V6.1581L109.643 6.72188V11.0712H105.871V12.8701H109.643V23.9449C109.549 24.708 109.659 25.4824 109.961 26.1896C110.264 26.8968 110.749 27.5118 111.367 27.9721C113.052 28.748 114.948 28.9416 116.756 28.5224V26.8982C115.732 26.8982 114.843 26.8982 114.062 26.8982C113.713 26.9165 113.364 26.8627 113.037 26.7403C112.71 26.6179 112.412 26.4294 112.162 26.1867C111.679 25.5384 111.454 24.7353 111.529 23.9315V12.8701H116.715Z" fill="#A2D0F9"/>
<path d="M134.361 12.5661C133.711 11.9217 132.933 11.4193 132.077 11.0911C131.221 10.7629 130.306 10.616 129.39 10.6598C128.227 10.6009 127.071 10.8599 126.045 11.4089C125.019 11.9578 124.163 12.7757 123.571 13.7742L123.14 14.4723V3.92102H121.227V28.4869H123.14V19.3586C123.009 17.5031 123.586 15.6669 124.756 14.2172C125.328 13.6335 126.018 13.1765 126.779 12.8758C127.54 12.5751 128.356 12.4376 129.175 12.4721C129.864 12.4227 130.557 12.5164 131.209 12.7475C131.86 12.9786 132.457 13.3419 132.96 13.8145C133.903 14.8867 134.386 16.2841 134.307 17.7074V28.4466H136.234V17.7074C136.313 15.8148 135.64 13.9675 134.361 12.5661Z" fill="#A2D0F9"/>
<path d="M143.378 4.30278C143.241 4.16168 143.075 4.05062 142.892 3.97668C142.708 3.90274 142.512 3.86751 142.314 3.8732C142.117 3.86911 141.921 3.90513 141.738 3.97897C141.555 4.05282 141.389 4.16298 141.25 4.30278C141.113 4.43642 141.005 4.59775 140.936 4.77602C140.866 4.9543 140.835 5.14541 140.846 5.33645C140.835 5.53395 140.868 5.73141 140.942 5.91474C141.017 6.09807 141.131 6.26272 141.277 6.39692C141.409 6.53868 141.569 6.65043 141.748 6.72457C141.927 6.79871 142.12 6.83348 142.314 6.8265C142.511 6.82905 142.707 6.79235 142.89 6.71859C143.073 6.64483 143.239 6.53547 143.378 6.39692C143.518 6.25807 143.628 6.0926 143.702 5.9104C143.776 5.72819 143.813 5.53301 143.809 5.33645C143.812 5.14407 143.774 4.95328 143.7 4.77562C143.626 4.59795 143.517 4.43708 143.378 4.30278ZM141.371 11.0148V28.466H143.257V11.0148H141.371Z" fill="#A2D0F9"/>
<path d="M161.996 12.5744C161.346 11.9293 160.568 11.4265 159.712 11.0982C158.857 10.77 157.941 10.6235 157.025 10.6681C155.863 10.6136 154.708 10.8745 153.683 11.423C152.658 11.9715 151.802 12.787 151.205 13.7825L150.774 14.4805V11.0842H148.875V28.5354H150.774V19.4071C150.634 17.5318 151.217 15.6737 152.404 14.212C152.977 13.6284 153.666 13.1714 154.427 12.8707C155.189 12.57 156.005 12.4325 156.823 12.4669C157.511 12.4178 158.201 12.5117 158.851 12.7428C159.5 12.9739 160.094 13.3371 160.595 13.8093C161.536 14.8822 162.02 16.2792 161.942 17.7023V28.4415H163.828V17.7023C163.915 15.8198 163.257 13.9787 161.996 12.5744Z" fill="#A2D0F9"/>
<path d="M184.433 11.0818V15.1896L184.002 14.4916C183.281 13.2816 182.247 12.2877 181.007 11.6144C179.767 10.9411 178.368 10.6134 176.957 10.6657C175.761 10.6538 174.575 10.8858 173.472 11.3475C172.369 11.8092 171.373 12.4909 170.544 13.3505C168.869 15.0987 167.934 17.4234 167.934 19.841C167.934 22.2586 168.869 24.5833 170.544 26.3315C171.372 27.1918 172.369 27.8738 173.472 28.3356C174.574 28.7973 175.761 29.029 176.957 29.0163C178.367 29.0715 179.765 28.7463 181.005 28.0753C182.245 27.4043 183.281 26.4123 184.002 25.2039L184.433 24.5058V28.1169C184.474 28.9673 184.33 29.8164 184.012 30.6063C183.693 31.3963 183.207 32.1086 182.588 32.6945C181.187 33.8682 179.391 34.468 177.563 34.3725C174.384 34.3725 172.174 33.2986 171.043 31.191L169.372 32.1441C170.827 34.8289 173.589 36.1713 177.563 36.1713C179.824 36.226 182.027 35.4576 183.76 34.01C184.611 33.289 185.285 32.3826 185.729 31.3607C186.172 30.3389 186.374 29.229 186.319 28.1169V11.0818H184.433ZM182.318 24.9488C181.646 25.6426 180.837 26.1904 179.942 26.5577C179.047 26.925 178.086 27.104 177.118 27.0833C176.156 27.1001 175.2 26.9218 174.308 26.5596C173.417 26.1973 172.608 25.6585 171.932 24.9757C171.248 24.2949 170.709 23.4842 170.346 22.5918C169.983 21.6995 169.803 20.7435 169.817 19.7806C169.798 18.8211 169.975 17.8676 170.339 16.9789C170.703 16.0902 171.245 15.2849 171.932 14.6123C172.613 13.9309 173.422 13.3902 174.313 13.0212C175.205 12.6522 176.16 12.4622 177.125 12.4622C178.09 12.4622 179.046 12.6522 179.937 13.0212C180.828 13.3902 181.637 13.9309 182.318 14.6123C183.005 15.2849 183.547 16.0902 183.911 16.9789C184.275 17.8676 184.452 18.8211 184.433 19.7806C184.444 20.739 184.262 21.6899 183.899 22.5774C183.536 23.4649 182.998 24.2712 182.318 24.9488Z" fill="#A2D0F9"/>
<path d="M203.027 4.30249C202.888 4.16269 202.722 4.05254 202.539 3.97869C202.356 3.90484 202.16 3.86883 201.963 3.87292C201.769 3.87114 201.576 3.90767 201.397 3.98041C201.217 4.05315 201.053 4.16071 200.916 4.29676C200.778 4.43281 200.668 4.59472 200.594 4.77312C200.519 4.95153 200.481 5.14288 200.481 5.33617C200.477 5.5317 200.513 5.72597 200.586 5.90749C200.659 6.08902 200.768 6.25412 200.906 6.39303C201.044 6.53194 201.209 6.64185 201.39 6.71626C201.572 6.79066 201.766 6.82804 201.963 6.82621C202.36 6.82839 202.743 6.674 203.027 6.39664C203.166 6.25779 203.277 6.09232 203.351 5.91011C203.425 5.72791 203.461 5.53273 203.458 5.33617C203.46 5.14379 203.423 4.953 203.349 4.77533C203.275 4.59767 203.165 4.4368 203.027 4.30249ZM201.02 11.0145V28.4657H202.906V11.0145H201.02Z" fill="#A2D0F9"/>
<path d="M220.159 22.6004C220.023 22.2227 219.851 21.8587 219.647 21.513C219.406 21.1776 219.099 20.8944 218.744 20.6808C218.407 20.4506 218.056 20.2399 217.694 20.0498C217.26 19.8416 216.809 19.671 216.347 19.5397L215.08 19.137L213.733 18.8014C211.16 18.1436 209.867 17.0294 209.867 15.5393C209.858 15.094 209.961 14.6534 210.165 14.2574C210.37 13.8614 210.67 13.5223 211.039 13.2707C211.874 12.7148 212.864 12.4376 213.868 12.4787C214.782 12.3553 215.711 12.5207 216.526 12.9518C217.34 13.3829 217.999 14.0579 218.408 14.8816L219.957 13.9822C219.451 12.9841 218.664 12.1539 217.694 11.5927C216.562 10.9637 215.284 10.6441 213.989 10.6664C212.451 10.5998 210.94 11.0751 209.719 12.0088C209.202 12.4267 208.786 12.9549 208.502 13.5543C208.217 14.1538 208.072 14.8092 208.075 15.4722C208.084 15.9297 208.166 16.3829 208.318 16.8146C208.443 17.2051 208.615 17.5792 208.83 17.9289C209.065 18.2621 209.374 18.5375 209.732 18.7343C210.068 18.9759 210.419 19.1956 210.783 19.392C211.217 19.6002 211.667 19.7708 212.13 19.9021L213.396 20.3048L214.744 20.6137C217.317 21.2983 218.61 22.4125 218.61 23.8891C218.633 24.3603 218.528 24.8289 218.305 25.245C218.082 25.6612 217.749 26.0091 217.343 26.2517C216.4 26.7815 215.328 27.0417 214.245 27.0035C213.113 27.0309 211.997 26.7377 211.025 26.1578C210.222 25.6796 209.59 24.9608 209.22 24.1039L207.617 25.0301C208.127 26.1534 208.974 27.0915 210.042 27.7149C211.31 28.4707 212.768 28.8481 214.245 28.8023C215.865 28.8995 217.468 28.4241 218.771 27.4599C219.326 27.0511 219.774 26.5162 220.079 25.8997C220.383 25.2832 220.535 24.603 220.523 23.9159C220.468 23.4617 220.346 23.0183 220.159 22.6004Z" fill="#A2D0F9"/>
<path d="M249.756 13.3025C248.937 12.445 247.95 11.7643 246.856 11.3025C245.762 10.8407 244.585 10.6076 243.397 10.6177C241.982 10.5634 240.579 10.89 239.334 11.5632C238.09 12.2364 237.05 13.2314 236.325 14.4435L235.894 15.1416V11.0338H234.008V35.6803H235.921V24.4041L236.352 25.1022C237.078 26.3127 238.118 27.3058 239.362 27.9768C240.607 28.6477 242.01 28.9717 243.424 28.9146C244.612 28.9255 245.79 28.6927 246.883 28.2309C247.977 27.769 248.964 27.0879 249.783 26.2298C251.477 24.4912 252.425 22.1629 252.425 19.7393C252.425 17.3156 251.477 14.9874 249.783 13.2487L249.756 13.3025ZM248.409 24.9814C247.738 25.6735 246.931 26.2203 246.039 26.5875C245.146 26.9548 244.187 27.1346 243.222 27.1158C242.257 27.1336 241.299 26.956 240.405 26.5937C239.511 26.2314 238.701 25.692 238.022 25.0082C237.339 24.3273 236.799 23.5168 236.436 22.6244C236.073 21.732 235.893 20.776 235.907 19.8131C235.9 18.8526 236.084 17.9003 236.449 17.0112C236.814 16.1221 237.352 15.3139 238.032 14.6335C238.712 13.9531 239.521 13.4139 240.412 13.0472C241.303 12.6804 242.258 12.4934 243.222 12.497C244.189 12.4774 245.149 12.6583 246.042 13.028C246.935 13.3977 247.741 13.9484 248.409 14.6449C249.096 15.3174 249.638 16.1227 250.001 17.0115C250.365 17.9002 250.543 18.8535 250.524 19.8131C250.527 20.7657 250.341 21.7095 249.975 22.5898C249.61 23.4701 249.073 24.2693 248.395 24.9411L248.409 24.9814Z" fill="#A2D0F9"/>
<path d="M271.578 13.3063C269.832 11.6098 267.49 10.6603 265.051 10.6603C262.612 10.6603 260.27 11.6098 258.524 13.3063C257.65 14.1428 256.959 15.1508 256.495 16.2668C256.032 17.3828 255.805 18.5824 255.83 19.79C255.812 20.9972 256.037 22.1958 256.494 23.3142C256.95 24.4326 257.628 25.4479 258.487 26.2997C259.345 27.1516 260.367 27.8225 261.491 28.2724C262.616 28.7223 263.819 28.942 265.031 28.9184C266.237 28.9384 267.435 28.7183 268.554 28.2711C269.674 27.8239 270.693 27.1586 271.551 26.3142C272.421 25.4662 273.109 24.4503 273.572 23.3286C274.035 22.2069 274.264 21.0029 274.245 19.79C274.273 18.5845 274.05 17.3863 273.591 16.2706C273.132 15.1548 272.447 14.1457 271.578 13.3063ZM270.231 24.9852C269.557 25.6777 268.748 26.2245 267.854 26.5918C266.959 26.959 265.998 27.1387 265.031 27.1196C264.066 27.1358 263.108 26.9576 262.215 26.5954C261.321 26.2332 260.51 25.6945 259.831 25.012C259.15 24.3294 258.612 23.5185 258.249 22.6265C257.886 21.7345 257.705 20.7794 257.716 19.8169C257.7 18.8578 257.879 17.9053 258.243 17.0171C258.606 16.1288 259.146 15.3232 259.831 14.6487C261.21 13.2748 263.081 12.503 265.031 12.503C266.981 12.503 268.851 13.2748 270.231 14.6487C270.915 15.3232 271.456 16.1288 271.819 17.0171C272.183 17.9053 272.362 18.8578 272.346 19.8169C272.358 21.7341 271.607 23.578 270.258 24.9449L270.231 24.9852Z" fill="#A2D0F9"/>
<path d="M290.075 22.6006C289.945 22.2206 289.773 21.856 289.563 21.5132C289.32 21.1748 289.008 20.8913 288.647 20.681C288.313 20.4515 287.967 20.2408 287.61 20.05C287.177 19.8391 286.726 19.6683 286.263 19.5399C285.643 19.3251 285.198 19.2177 284.996 19.1372L283.649 18.8016C281.076 18.1438 279.783 17.0296 279.783 15.5395C279.773 15.0954 279.873 14.6557 280.075 14.2597C280.277 13.8638 280.575 13.524 280.941 13.2709C281.783 12.7182 282.777 12.4413 283.784 12.4789C284.678 12.3837 285.58 12.5627 286.37 12.9921C287.16 13.4214 287.799 14.0807 288.202 14.8818L289.752 13.9824C289.245 12.9843 288.459 12.1541 287.488 11.5929C286.357 10.9639 285.079 10.6443 283.784 10.6666C282.246 10.5989 280.734 11.0743 279.513 12.009C278.999 12.4276 278.585 12.9563 278.303 13.5558C278.02 14.1553 277.877 14.8103 277.883 15.4724C277.887 15.9292 277.965 16.3824 278.112 16.8148C278.238 17.2053 278.41 17.5794 278.624 17.9291C278.867 18.2558 279.174 18.5299 279.527 18.7345C279.86 18.9724 280.207 19.1919 280.564 19.3922C281 19.5963 281.45 19.7668 281.911 19.9023L283.178 20.305L284.525 20.6139C287.084 21.2985 288.391 22.4127 288.391 23.8893C288.409 24.3566 288.304 24.8204 288.086 25.2347C287.869 25.6491 287.547 25.9997 287.152 26.2519C286.166 26.7592 285.07 27.0162 283.961 26.9998C282.851 26.9834 281.763 26.6942 280.793 26.158C279.997 25.6749 279.371 24.9571 279.002 24.1041L277.398 25.0303C277.905 26.1561 278.753 27.0952 279.823 27.7151C281.09 28.4723 282.55 28.8498 284.026 28.8025C285.643 28.9035 287.243 28.4276 288.539 27.4601C289.098 27.0543 289.55 26.5203 289.857 25.9033C290.164 25.2864 290.317 24.6047 290.304 23.9161C290.298 23.4682 290.221 23.0241 290.075 22.6006Z" fill="#A2D0F9"/>
<path d="M305.391 22.6004C305.266 22.2182 305.094 21.8529 304.879 21.513C304.638 21.1776 304.331 20.8944 303.976 20.6808C303.639 20.4506 303.288 20.2399 302.926 20.0498C302.496 19.8334 302.044 19.6625 301.578 19.5397C300.959 19.3249 300.541 19.2175 300.312 19.137L298.965 18.8014C296.406 18.1436 295.099 17.0294 295.099 15.5393C295.09 15.094 295.193 14.6534 295.397 14.2574C295.602 13.8614 295.902 13.5223 296.271 13.2707C297.107 12.7165 298.097 12.4394 299.1 12.4787C299.994 12.3815 300.897 12.5596 301.687 12.9892C302.477 13.4188 303.116 14.0792 303.518 14.8816L305.068 13.9822C304.57 12.978 303.782 12.1457 302.804 11.5927C301.674 10.9606 300.395 10.6409 299.1 10.6664C297.562 10.5998 296.05 11.0751 294.829 12.0088C294.316 12.4281 293.905 12.9572 293.625 13.5568C293.345 14.1564 293.204 14.811 293.213 15.4722C293.213 15.9283 293.285 16.3815 293.428 16.8146C293.567 17.2042 293.748 17.5778 293.967 17.9289C294.199 18.2606 294.503 18.5359 294.856 18.7343C295.188 18.9819 295.539 19.2018 295.907 19.392C296.317 19.6017 296.745 19.7725 297.187 19.9021C297.824 20.0901 298.242 20.2243 298.44 20.3048L299.787 20.6137C302.373 21.2983 303.68 22.4125 303.68 23.8891C303.695 24.3589 303.586 24.8244 303.364 25.239C303.141 25.6536 302.814 26.0028 302.414 26.2517C301.434 26.7613 300.341 27.0197 299.236 27.0032C298.131 26.9868 297.047 26.6963 296.082 26.1578C295.275 25.6804 294.638 24.9617 294.264 24.1039L292.688 25.0301C293.188 26.1515 294.026 27.0899 295.085 27.7149C296.363 28.4701 297.83 28.8472 299.315 28.8023C300.931 28.8974 302.529 28.4221 303.828 27.4599C304.381 27.0504 304.827 26.515 305.129 25.8984C305.432 25.2818 305.581 24.602 305.566 23.9159C305.578 23.4709 305.519 23.0269 305.391 22.6004Z" fill="#A2D0F9"/>
<path d="M311.979 4.30359C311.846 4.16007 311.683 4.04727 311.502 3.97307C311.32 3.89887 311.125 3.86506 310.929 3.87401C310.731 3.86993 310.535 3.90594 310.352 3.97979C310.169 4.05364 310.003 4.16379 309.864 4.30359C309.725 4.43604 309.615 4.59687 309.543 4.7752C309.471 4.95353 309.438 5.14522 309.447 5.33727C309.437 5.5358 309.473 5.73388 309.549 5.91727C309.626 6.10067 309.743 6.26478 309.891 6.39773C310.023 6.53949 310.184 6.65125 310.363 6.72538C310.542 6.79952 310.735 6.8343 310.929 6.82731C311.124 6.83114 311.318 6.79501 311.499 6.72112C311.679 6.64724 311.843 6.53715 311.979 6.39773C312.125 6.26353 312.239 6.09888 312.314 5.91555C312.388 5.73222 312.421 5.53476 312.41 5.33727C312.417 5.14421 312.383 4.95187 312.308 4.77348C312.234 4.59509 312.122 4.43483 311.979 4.30359ZM309.986 11.0156V28.4668H311.885V11.0156H309.986Z" fill="#A2D0F9"/>
<path d="M333.238 13.3065C332.418 12.4467 331.429 11.7646 330.333 11.3026C329.236 10.8407 328.056 10.6089 326.866 10.6217C325.455 10.5679 324.055 10.895 322.815 11.5684C321.575 12.2418 320.54 13.2366 319.821 14.4475L319.39 15.1456V3.8828H317.477V28.4487H319.443V24.4215L319.874 25.1196C320.595 26.329 321.63 27.3219 322.87 27.993C324.11 28.6641 325.51 28.9885 326.92 28.9319C328.11 28.9455 329.291 28.7141 330.387 28.2521C331.483 27.7902 332.472 27.1076 333.292 26.2471C334.993 24.5118 335.945 22.1824 335.945 19.7567C335.945 17.331 334.993 15.0015 333.292 13.2662L333.238 13.3065ZM331.891 24.9854C330.507 26.3454 328.641 27.1079 326.698 27.1079C324.754 27.1079 322.888 26.3454 321.505 24.9854C320.819 24.3064 320.277 23.496 319.914 22.6032C319.551 21.7104 319.372 20.7535 319.39 19.7902C319.382 18.8297 319.567 17.8774 319.931 16.9883C320.296 16.0992 320.834 15.2911 321.514 14.6107C322.195 13.9303 323.004 13.391 323.895 13.0243C324.785 12.6576 325.741 12.4706 326.704 12.4742C327.669 12.4549 328.627 12.6358 329.518 13.0056C330.408 13.3754 331.212 13.9258 331.877 14.622C332.567 15.2926 333.111 16.0976 333.475 16.9868C333.838 17.8759 334.015 18.8302 333.992 19.7902C334.004 20.7455 333.824 21.6935 333.463 22.5787C333.102 23.4638 332.568 24.2683 331.891 24.9451V24.9854Z" fill="#A2D0F9"/>
<path d="M340.418 2.84579V28.4857H342.344V2.84579H340.418Z" fill="#A2D0F9"/>
<path d="M364.653 19.8701C364.686 17.491 363.82 15.1865 362.229 13.4131C361.456 12.5263 360.493 11.8244 359.411 11.3595C358.329 10.8947 357.155 10.679 355.978 10.7283C354.761 10.6845 353.548 10.8934 352.416 11.3418C351.284 11.7901 350.259 12.468 349.404 13.3326C347.746 15.1086 346.824 17.4444 346.824 19.8701C346.824 22.2958 347.746 24.6316 349.404 26.4076C350.292 27.2705 351.347 27.944 352.505 28.3871C353.664 28.8303 354.9 29.0337 356.14 28.985C357.72 29.0094 359.283 28.65 360.693 27.9379C361.906 27.3057 362.943 26.3831 363.71 25.2531L362.053 24.3001C361.437 25.2782 360.564 26.07 359.529 26.5904C358.494 27.1108 357.336 27.34 356.18 27.2533C354.365 27.315 352.589 26.7188 351.182 25.5753C349.843 24.4566 348.993 22.8634 348.811 21.1319V20.8635H364.626C364.626 20.152 364.653 19.9238 364.653 19.8701ZM348.784 18.9036V18.6485C348.97 16.9225 349.796 15.3279 351.101 14.1783C352.442 13.0269 354.168 12.4186 355.938 12.4735C357.562 12.4639 359.133 13.0463 360.356 14.1112C361.666 15.2787 362.476 16.9029 362.619 18.6485V18.9036H348.784Z" fill="#A2D0F9"/>
<path d="M376.262 0.359024V2.131H381.084V30.3214H376.262V32.1336H382.997V0.359024L376.262 0.359024Z" fill="#A2D0F9"/>
</g>
<defs>
<clipPath id="clip0_72_7081">
<rect width="383" height="36" fill="white"/>
</clipPath>
</defs>
</svg>
