<svg width="194" height="75" viewBox="0 0 194 75" fill="none" xmlns="http://www.w3.org/2000/svg">
<g id="Layer_1" clip-path="url(#clip0_212_451)">
<g id="Group">
<g id="Group_2">
<path id="Vector" d="M24.1404 0.662872H0.00634766V46.5642H2.21172V2.8783H23.8636C30.9797 2.8783 35.2253 6.64632 35.2253 12.9634C35.2253 19.2805 30.9797 23.0708 23.8636 23.0708H6.02869V25.2951H24.1404C32.4261 25.2951 37.3726 20.6952 37.3726 12.9723C37.3726 5.15157 32.5556 0.662872 24.1404 0.662872Z" fill="#050D12"/>
<path id="Vector_2" d="M67.087 0C53.6941 0 43.9932 9.93386 43.9932 23.6046C43.9932 37.2753 53.703 47.227 67.087 47.227C80.471 47.227 90.1809 37.2931 90.1809 23.6046C90.1809 9.91607 80.471 0 67.087 0ZM67.087 44.8825C54.8147 44.8825 46.2521 36.1276 46.2521 23.6046C46.2521 11.0816 54.8147 2.35335 67.087 2.35335C79.3594 2.35335 87.922 11.0905 87.922 23.6135C87.922 36.1365 79.3594 44.8825 67.087 44.8825Z" fill="#050D12"/>
<path id="Vector_3" d="M116.819 21.665C106.105 20.4816 100.043 19.4674 100.043 12.5764C100.043 6.46392 106.181 2.21544 114.967 2.21544C122.953 2.21544 129.574 5.53859 132.927 11.2106L134.547 9.82709C131.119 3.6568 123.909 0 115.069 0C105.02 0 98.0157 5.28057 98.0157 12.8344C98.0157 20.6507 103.743 22.6437 115.81 23.956C127.672 25.3218 133.864 26.3939 133.864 33.9833C133.864 40.5807 127.319 45.0116 117.569 45.0116C110.507 45.0116 101.668 42.0755 97.3103 33.8899L95.605 35.4603C99.1764 42.7339 107.507 47.2225 117.48 47.2225C128.56 47.2225 135.994 41.7374 135.994 33.5741C136.02 25.2284 130.369 23.2354 116.819 21.665Z" fill="#050D12"/>
<path id="Vector_4" d="M163.177 21.665C152.462 20.4816 146.404 19.4674 146.404 12.5764C146.404 6.46392 152.538 2.21544 161.324 2.21544C169.315 2.21544 175.931 5.53859 179.284 11.2106L180.918 9.82709C177.507 3.6568 170.275 0 161.436 0C151.391 0 144.382 5.28057 144.382 12.8344C144.382 20.6507 150.11 22.6437 162.177 23.956C174.038 25.3218 180.23 26.3939 180.23 33.9833C180.23 40.5807 173.686 45.0116 163.936 45.0116C156.878 45.0116 148.034 42.0755 143.677 33.8899L141.971 35.4603C145.543 42.7339 153.873 47.2225 163.882 47.2225C174.949 47.2225 182.382 41.7374 182.382 33.5741C182.382 25.2284 176.726 23.2354 163.177 21.665Z" fill="#050D12"/>
<path id="Vector_5" d="M193.994 2.33554H191.842V46.4885H193.994V2.33554Z" fill="#050D12"/>
</g>
<g id="Group_3">
<path id="Vector_6" d="M69.3103 63.7449V63.1399H67.0781V73.6521H69.3103V73.0871H67.712V63.7449H69.3103Z" fill="#050D12"/>
<path id="Vector_7" d="M74.3728 71.8592V68.6918H78.0603V68.0645H74.3728V64.9505H78.3639V64.3188H73.6987V72.4598H78.4175V71.837L74.3728 71.8592Z" fill="#050D12"/>
<path id="Vector_8" d="M84.1762 66.7121L82.0423 71.9527L79.9083 66.7121H79.2432L81.6182 72.4954H82.4664L84.8414 66.7121H84.1762Z" fill="#050D12"/>
<path id="Vector_9" d="M91.3284 69.626C91.3423 68.837 91.0551 68.0722 90.5249 67.4862C90.2697 67.1913 89.9507 66.958 89.5919 66.8038C89.233 66.6497 88.8438 66.5788 88.4534 66.5965C88.0501 66.5822 87.6482 66.6516 87.2732 66.8001C86.8982 66.9487 86.5582 67.1732 86.2748 67.4595C85.7283 68.0495 85.4248 68.823 85.4248 69.626C85.4248 70.429 85.7283 71.2025 86.2748 71.7925C86.5681 72.08 86.9176 72.3042 87.3017 72.4511C87.6857 72.5981 88.096 72.6646 88.507 72.6467C89.0292 72.6538 89.5455 72.5347 90.0115 72.2996C90.4136 72.0901 90.7572 71.7844 91.0115 71.4099L90.4624 71.0941C90.2594 71.4186 89.971 71.6814 89.6286 71.8539C89.2863 72.0265 88.9029 72.1022 88.5204 72.0728C87.9177 72.0927 87.328 71.8952 86.8597 71.5167C86.416 71.146 86.1343 70.618 86.0739 70.0442V69.9552H91.3106C91.3195 69.7194 91.3284 69.6438 91.3284 69.626ZM86.0695 69.3057V69.2212C86.1309 68.6492 86.4048 68.1208 86.8373 67.7398C87.2822 67.359 87.8538 67.1575 88.44 67.1748C88.9783 67.1712 89.4992 67.3643 89.9043 67.7175C90.3381 68.1057 90.6092 68.6427 90.6633 69.2212V69.3057H86.0695Z" fill="#050D12"/>
<path id="Vector_10" d="M93.5424 67.6552L93.3906 67.9489V66.7121H92.7656V72.4954H93.3906V69.2835C93.3697 69.0051 93.406 68.7254 93.4974 68.4614C93.5887 68.1975 93.7332 67.955 93.9219 67.7487C94.2862 67.4137 94.7655 67.2306 95.2612 67.2371V66.632C94.9057 66.6167 94.5535 66.7054 94.2481 66.8872C93.9426 67.0691 93.6973 67.336 93.5424 67.6552Z" fill="#050D12"/>
<path id="Vector_11" d="M100.913 66.7121L98.9397 71.8014L96.6496 66.7121H95.9844L98.6139 72.5933L98.4442 72.9936C98.0737 73.8834 97.5246 74.3282 96.8237 74.2838V74.8665C97.2872 74.8898 97.7432 74.7426 98.1049 74.4528C98.5456 74.0939 98.8817 73.6238 99.0781 73.0915L101.583 66.721L100.913 66.7121Z" fill="#050D12"/>
<path id="Vector_12" d="M105.757 67.3038V66.6988H104.043V65.0795L103.413 65.2663V66.7077H102.163V67.3038H103.413V70.9739C103.382 71.2268 103.418 71.4835 103.519 71.7178C103.619 71.9522 103.78 72.156 103.985 72.3085C104.543 72.5657 105.171 72.6298 105.77 72.4909V71.9527C105.431 71.9527 105.136 71.9527 104.877 71.9527C104.762 71.9587 104.646 71.9409 104.538 71.9003C104.43 71.8598 104.331 71.7973 104.248 71.7169C104.088 71.502 104.013 71.2359 104.038 70.9695V67.3038H105.757Z" fill="#050D12"/>
<path id="Vector_13" d="M111.605 67.2059C111.39 66.9924 111.132 66.8259 110.848 66.7171C110.565 66.6084 110.261 66.5597 109.958 66.5742C109.572 66.5547 109.189 66.6405 108.849 66.8224C108.509 67.0044 108.226 67.2754 108.029 67.6063L107.886 67.8376V64.341H107.252V72.482H107.886V69.457C107.843 68.8421 108.035 68.2335 108.422 67.7531C108.612 67.5597 108.84 67.4082 109.092 67.3086C109.345 67.2089 109.615 67.1634 109.886 67.1748C110.115 67.1584 110.345 67.1895 110.56 67.2661C110.776 67.3426 110.974 67.4631 111.141 67.6197C111.453 67.975 111.614 68.4381 111.587 68.9098V72.4687H112.226V68.9098C112.252 68.2826 112.029 67.6704 111.605 67.2059Z" fill="#050D12"/>
<path id="Vector_14" d="M114.592 64.4656C114.546 64.4188 114.491 64.382 114.431 64.3575C114.37 64.333 114.305 64.3213 114.239 64.3232C114.174 64.3218 114.109 64.3338 114.048 64.3582C113.988 64.3827 113.933 64.4192 113.887 64.4656C113.841 64.5098 113.806 64.5633 113.782 64.6224C113.759 64.6815 113.749 64.7448 113.753 64.8081C113.749 64.8736 113.76 64.939 113.785 64.9998C113.809 65.0605 113.847 65.1151 113.895 65.1595C113.939 65.2065 113.992 65.2436 114.052 65.2681C114.111 65.2927 114.175 65.3042 114.239 65.3019C114.305 65.3028 114.369 65.2906 114.43 65.2661C114.491 65.2417 114.546 65.2055 114.592 65.1595C114.638 65.1135 114.675 65.0587 114.699 64.9983C114.724 64.9379 114.736 64.8733 114.735 64.8081C114.735 64.7444 114.723 64.6811 114.699 64.6223C114.674 64.5634 114.638 64.5101 114.592 64.4656ZM113.927 66.6899V72.4731H114.552V66.6899H113.927Z" fill="#050D12"/>
<path id="Vector_15" d="M120.761 67.206C120.546 66.9922 120.288 66.8256 120.005 66.7168C119.721 66.608 119.418 66.5595 119.114 66.5742C118.729 66.5562 118.346 66.6427 118.006 66.8244C117.667 67.0062 117.383 67.2765 117.185 67.6063L117.043 67.8377V66.7122H116.413V72.4954H117.043V69.4703C116.996 68.8488 117.189 68.2331 117.583 67.7487C117.772 67.5553 118.001 67.4038 118.253 67.3042C118.505 67.2045 118.776 67.159 119.047 67.1704C119.275 67.1541 119.504 67.1852 119.719 67.2618C119.934 67.3384 120.131 67.4588 120.297 67.6152C120.609 67.9708 120.769 68.4337 120.743 68.9053V72.4643H121.368V68.9053C121.397 68.2815 121.179 67.6714 120.761 67.206Z" fill="#050D12"/>
<path id="Vector_16" d="M128.199 66.7121V68.0734L128.056 67.8421C127.817 67.4411 127.474 67.1117 127.063 66.8886C126.652 66.6655 126.189 66.5569 125.721 66.5742C125.325 66.5703 124.932 66.6472 124.566 66.8002C124.201 66.9532 123.871 67.1791 123.596 67.4639C123.041 68.0433 122.731 68.8137 122.731 69.6149C122.731 70.4161 123.041 71.1865 123.596 71.7658C123.871 72.0509 124.201 72.2769 124.566 72.4299C124.932 72.583 125.325 72.6598 125.721 72.6556C126.188 72.6738 126.652 72.5661 127.063 72.3437C127.474 72.1213 127.817 71.7926 128.056 71.3921L128.199 71.1608V72.3575C128.212 72.6393 128.165 72.9207 128.059 73.1825C127.954 73.4443 127.793 73.6803 127.587 73.8745C127.123 74.2635 126.528 74.4622 125.922 74.4306C124.868 74.4306 124.136 74.0747 123.761 73.3762L123.208 73.6921C123.69 74.5818 124.605 75.0267 125.922 75.0267C126.671 75.0448 127.401 74.7902 127.976 74.3104C128.258 74.0715 128.481 73.7711 128.628 73.4325C128.775 73.0938 128.842 72.726 128.824 72.3575V66.7121H128.199ZM127.498 71.3076C127.275 71.5375 127.007 71.719 126.711 71.8408C126.414 71.9625 126.095 72.0218 125.775 72.0149C125.456 72.0205 125.139 71.9614 124.843 71.8414C124.548 71.7213 124.28 71.5428 124.056 71.3165C123.829 71.0909 123.651 70.8222 123.53 70.5265C123.41 70.2308 123.35 69.914 123.355 69.5949C123.349 69.2769 123.408 68.9609 123.528 68.6664C123.649 68.3719 123.828 68.105 124.056 67.8821C124.282 67.6563 124.55 67.4771 124.845 67.3548C125.141 67.2325 125.457 67.1696 125.777 67.1696C126.097 67.1696 126.413 67.2325 126.709 67.3548C127.004 67.4771 127.272 67.6563 127.498 67.8821C127.726 68.105 127.905 68.3719 128.026 68.6664C128.146 68.9609 128.205 69.2769 128.199 69.5949C128.202 69.9125 128.142 70.2276 128.022 70.5217C127.902 70.8158 127.723 71.083 127.498 71.3076Z" fill="#050D12"/>
<path id="Vector_17" d="M134.359 64.4656C134.313 64.4192 134.258 64.3827 134.198 64.3582C134.137 64.3338 134.072 64.3218 134.007 64.3232C133.942 64.3226 133.879 64.3347 133.819 64.3588C133.76 64.3829 133.705 64.4186 133.66 64.4637C133.614 64.5087 133.578 64.5624 133.553 64.6215C133.528 64.6806 133.516 64.7441 133.516 64.8081C133.515 64.8729 133.526 64.9373 133.551 64.9974C133.575 65.0576 133.611 65.1123 133.657 65.1583C133.702 65.2044 133.757 65.2408 133.817 65.2655C133.877 65.2901 133.942 65.3025 134.007 65.3019C134.139 65.3026 134.265 65.2515 134.359 65.1595C134.406 65.1135 134.442 65.0587 134.467 64.9983C134.491 64.9379 134.503 64.8732 134.502 64.8081C134.503 64.7444 134.491 64.6811 134.466 64.6223C134.442 64.5634 134.405 64.5101 134.359 64.4656ZM133.694 66.6899V72.4731H134.319V66.6899H133.694Z" fill="#050D12"/>
<path id="Vector_18" d="M140.038 70.5291C139.993 70.4039 139.936 70.2833 139.868 70.1687C139.789 70.0576 139.687 69.9637 139.569 69.8929C139.457 69.8167 139.341 69.7468 139.221 69.6838C139.077 69.6148 138.928 69.5583 138.775 69.5148L138.355 69.3813L137.909 69.2701C137.056 69.0521 136.627 68.6829 136.627 68.1891C136.624 68.0415 136.658 67.8955 136.726 67.7643C136.794 67.633 136.894 67.5206 137.016 67.4373C137.293 67.2531 137.621 67.1612 137.953 67.1748C138.256 67.1339 138.564 67.1887 138.834 67.3316C139.104 67.4744 139.322 67.6981 139.458 67.9711L139.971 67.673C139.803 67.3423 139.543 67.0672 139.221 66.8812C138.846 66.6727 138.423 66.5668 137.993 66.5742C137.484 66.5521 136.983 66.7097 136.578 67.0191C136.407 67.1576 136.269 67.3326 136.175 67.5313C136.081 67.7299 136.032 67.9471 136.034 68.1668C136.036 68.3185 136.064 68.4686 136.114 68.6117C136.156 68.7411 136.212 68.8651 136.284 68.981C136.362 69.0914 136.464 69.1827 136.583 69.2479C136.694 69.328 136.81 69.4008 136.931 69.4658C137.075 69.5348 137.224 69.5914 137.377 69.6349L137.797 69.7684L138.243 69.8707C139.096 70.0976 139.525 70.4668 139.525 70.9562C139.533 71.1123 139.498 71.2676 139.424 71.4055C139.35 71.5434 139.24 71.6587 139.105 71.7391C138.792 71.9147 138.437 72.0009 138.078 71.9883C137.703 71.9974 137.333 71.9002 137.011 71.708C136.745 71.5495 136.536 71.3113 136.413 71.0273L135.882 71.3343C136.051 71.7066 136.332 72.0174 136.685 72.224C137.106 72.4745 137.589 72.5995 138.078 72.5844C138.615 72.6166 139.146 72.4591 139.578 72.1395C139.762 72.004 139.911 71.8268 140.011 71.6225C140.112 71.4182 140.163 71.1927 140.159 70.965C140.141 70.8145 140.1 70.6676 140.038 70.5291Z" fill="#050D12"/>
<path id="Vector_19" d="M149.846 67.4506C149.575 67.1665 149.248 66.9409 148.885 66.7878C148.523 66.6348 148.133 66.5575 147.739 66.5609C147.27 66.5429 146.805 66.6511 146.393 66.8742C145.98 67.0973 145.636 67.4271 145.395 67.8287L145.252 68.0601V66.6988H144.627V74.8665H145.261V71.1296L145.404 71.361C145.645 71.7622 145.989 72.0913 146.402 72.3136C146.814 72.536 147.279 72.6434 147.748 72.6244C148.142 72.628 148.532 72.5509 148.894 72.3978C149.257 72.2448 149.584 72.0191 149.855 71.7347C150.417 71.1585 150.731 70.3869 150.731 69.5837C150.731 68.7806 150.417 68.009 149.855 67.4328L149.846 67.4506ZM149.4 71.321C149.178 71.5503 148.91 71.7315 148.614 71.8532C148.319 71.9749 148.001 72.0345 147.681 72.0283C147.361 72.0342 147.044 71.9753 146.747 71.8553C146.451 71.7352 146.183 71.5565 145.958 71.3298C145.731 71.1042 145.553 70.8356 145.432 70.5399C145.312 70.2441 145.252 69.9273 145.257 69.6082C145.255 69.2899 145.316 68.9743 145.436 68.6797C145.557 68.385 145.736 68.1172 145.961 67.8917C146.187 67.6662 146.455 67.4875 146.75 67.366C147.045 67.2445 147.362 67.1825 147.681 67.1837C148.001 67.1772 148.32 67.2371 148.615 67.3597C148.911 67.4822 149.178 67.6647 149.4 67.8955C149.627 68.1184 149.807 68.3852 149.928 68.6798C150.048 68.9743 150.107 69.2902 150.101 69.6082C150.102 69.9239 150.04 70.2367 149.919 70.5284C149.798 70.8201 149.62 71.085 149.395 71.3076L149.4 71.321Z" fill="#050D12"/>
<path id="Vector_20" d="M157.079 67.4506C156.5 66.8884 155.724 66.5737 154.916 66.5737C154.108 66.5737 153.331 66.8884 152.753 67.4506C152.463 67.7278 152.234 68.0619 152.08 68.4317C151.927 68.8015 151.852 69.1991 151.86 69.5993C151.854 69.9994 151.929 70.3966 152.08 70.7672C152.231 71.1378 152.456 71.4743 152.74 71.7566C153.025 72.0389 153.364 72.2612 153.736 72.4103C154.109 72.5594 154.508 72.6322 154.909 72.6244C155.309 72.631 155.706 72.5581 156.077 72.4099C156.448 72.2617 156.785 72.0412 157.07 71.7614C157.358 71.4803 157.586 71.1437 157.74 70.772C157.893 70.4002 157.969 70.0012 157.963 69.5993C157.972 69.1998 157.898 68.8027 157.746 68.433C157.594 68.0632 157.367 67.7288 157.079 67.4506ZM156.632 71.321C156.409 71.5505 156.141 71.7317 155.845 71.8534C155.548 71.9751 155.23 72.0346 154.909 72.0283C154.589 72.0337 154.272 71.9746 153.976 71.8546C153.68 71.7345 153.411 71.556 153.186 71.3298C152.96 71.1036 152.782 70.8349 152.662 70.5393C152.541 70.2437 152.481 69.9272 152.485 69.6082C152.48 69.2904 152.539 68.9747 152.66 68.6804C152.78 68.386 152.959 68.119 153.186 67.8955C153.643 67.4402 154.263 67.1844 154.909 67.1844C155.555 67.1844 156.175 67.4402 156.632 67.8955C156.859 68.119 157.038 68.386 157.159 68.6804C157.279 68.9747 157.339 69.2904 157.333 69.6082C157.337 70.2436 157.088 70.8546 156.641 71.3076L156.632 71.321Z" fill="#050D12"/>
<path id="Vector_21" d="M163.208 70.5291C163.165 70.4032 163.108 70.2823 163.039 70.1687C162.958 70.0566 162.855 69.9626 162.735 69.8929C162.624 69.8169 162.51 69.7471 162.391 69.6838C162.248 69.6139 162.099 69.5574 161.945 69.5148C161.739 69.4436 161.592 69.408 161.525 69.3813L161.079 69.2701C160.226 69.0521 159.798 68.6829 159.798 68.1891C159.794 68.0419 159.827 67.8962 159.894 67.765C159.961 67.6338 160.06 67.5211 160.181 67.4373C160.46 67.2541 160.79 67.1624 161.123 67.1748C161.42 67.1432 161.719 67.2026 161.98 67.3449C162.242 67.4872 162.454 67.7056 162.588 67.9711L163.101 67.6731C162.933 67.3423 162.673 67.0672 162.351 66.8812C161.976 66.6727 161.553 66.5668 161.123 66.5742C160.614 66.5518 160.113 66.7093 159.708 67.0191C159.538 67.1578 159.4 67.333 159.307 67.5317C159.213 67.7303 159.166 67.9474 159.168 68.1668C159.169 68.3182 159.195 68.4684 159.244 68.6117C159.285 68.7411 159.342 68.8651 159.414 68.981C159.494 69.0893 159.596 69.1801 159.713 69.2479C159.823 69.3267 159.938 69.3995 160.056 69.4659C160.201 69.5335 160.35 69.59 160.503 69.6349L160.923 69.7684L161.369 69.8707C162.217 70.0976 162.65 70.4668 162.65 70.9562C162.656 71.111 162.621 71.2647 162.549 71.402C162.477 71.5394 162.37 71.6555 162.24 71.7391C161.913 71.9072 161.55 71.9924 161.182 71.987C160.814 71.9815 160.454 71.8857 160.132 71.708C159.868 71.5479 159.661 71.31 159.539 71.0273L159.007 71.3343C159.175 71.7074 159.456 72.0186 159.811 72.224C160.231 72.4749 160.714 72.6 161.204 72.5844C161.74 72.6179 162.27 72.4601 162.699 72.1395C162.884 72.005 163.034 71.8281 163.136 71.6236C163.238 71.4192 163.289 71.1932 163.284 70.965C163.282 70.8166 163.257 70.6695 163.208 70.5291Z" fill="#050D12"/>
<path id="Vector_22" d="M168.284 70.5291C168.243 70.4024 168.186 70.2814 168.114 70.1687C168.034 70.0576 167.933 69.9637 167.815 69.8929C167.703 69.8166 167.587 69.7468 167.467 69.6838C167.325 69.6121 167.175 69.5555 167.021 69.5148C166.815 69.4436 166.677 69.408 166.601 69.3813L166.155 69.2701C165.306 69.0521 164.873 68.6829 164.873 68.1891C164.87 68.0415 164.904 67.8955 164.972 67.7643C165.04 67.633 165.139 67.5206 165.262 67.4373C165.539 67.2536 165.867 67.1618 166.199 67.1748C166.496 67.1426 166.795 67.2016 167.057 67.344C167.319 67.4864 167.53 67.7052 167.664 67.9711L168.177 67.673C168.012 67.3403 167.751 67.0644 167.427 66.8812C167.052 66.6717 166.629 66.5657 166.199 66.5742C165.69 66.5521 165.189 66.7097 164.784 67.0191C164.614 67.158 164.478 67.3334 164.385 67.5321C164.292 67.7308 164.245 67.9477 164.248 68.1668C164.248 68.318 164.272 68.4682 164.32 68.6117C164.366 68.7408 164.426 68.8646 164.498 68.981C164.575 69.0909 164.676 69.1821 164.793 69.2479C164.903 69.3299 165.019 69.4028 165.141 69.4658C165.277 69.5353 165.419 69.5919 165.565 69.6349C165.777 69.6972 165.915 69.7417 165.98 69.7684L166.427 69.8707C167.284 70.0976 167.717 70.4668 167.717 70.9562C167.722 71.1119 167.686 71.2661 167.612 71.4035C167.539 71.5409 167.43 71.6566 167.297 71.7391C166.973 71.908 166.611 71.9936 166.244 71.9882C165.878 71.9827 165.519 71.8864 165.199 71.708C164.932 71.5498 164.721 71.3116 164.597 71.0273L164.074 71.3343C164.24 71.7059 164.518 72.0169 164.869 72.224C165.292 72.4743 165.779 72.5993 166.271 72.5844C166.806 72.6159 167.336 72.4584 167.766 72.1395C167.949 72.0038 168.097 71.8264 168.197 71.622C168.298 71.4177 168.347 71.1924 168.342 70.965C168.346 70.8176 168.326 70.6704 168.284 70.5291Z" fill="#050D12"/>
<path id="Vector_23" d="M170.467 64.4656C170.423 64.418 170.369 64.3806 170.309 64.356C170.249 64.3314 170.184 64.3202 170.119 64.3232C170.054 64.3218 169.989 64.3338 169.928 64.3582C169.867 64.3827 169.812 64.4192 169.766 64.4656C169.72 64.5094 169.684 64.5627 169.66 64.6218C169.636 64.6809 169.625 64.7445 169.628 64.8081C169.625 64.8739 169.636 64.9395 169.662 65.0003C169.687 65.0611 169.726 65.1155 169.775 65.1595C169.819 65.2065 169.872 65.2436 169.932 65.2681C169.991 65.2927 170.055 65.3042 170.119 65.3019C170.184 65.3032 170.248 65.2912 170.308 65.2667C170.368 65.2422 170.422 65.2057 170.467 65.1595C170.516 65.1151 170.553 65.0605 170.578 64.9997C170.603 64.939 170.614 64.8736 170.61 64.8081C170.612 64.7441 170.601 64.6804 170.576 64.6213C170.552 64.5622 170.514 64.509 170.467 64.4656ZM169.806 66.6899V72.4731H170.436V66.6899H169.806Z" fill="#050D12"/>
<path id="Vector_24" d="M177.512 67.4506C177.24 67.1657 176.912 66.9396 176.549 66.7865C176.186 66.6335 175.795 66.5566 175.4 66.5609C174.933 66.5431 174.469 66.6515 174.058 66.8746C173.647 67.0978 173.304 67.4274 173.065 67.8287L172.923 68.0601V64.3276H172.289V72.4687H172.94V71.1341L173.083 71.3654C173.322 71.7662 173.665 72.0953 174.076 72.3177C174.487 72.5401 174.951 72.6476 175.418 72.6288C175.813 72.6333 176.204 72.5566 176.567 72.4035C176.93 72.2504 177.258 72.0242 177.53 71.7391C178.093 71.164 178.409 70.392 178.409 69.5882C178.409 68.7843 178.093 68.0123 177.53 67.4372L177.512 67.4506ZM177.065 71.3209C176.607 71.7717 175.989 72.0243 175.344 72.0243C174.7 72.0243 174.082 71.7717 173.623 71.3209C173.396 71.0959 173.217 70.8274 173.096 70.5315C172.976 70.2356 172.917 69.9185 172.923 69.5993C172.92 69.281 172.981 68.9654 173.102 68.6708C173.223 68.3761 173.401 68.1083 173.627 67.8828C173.852 67.6573 174.12 67.4786 174.415 67.3571C174.711 67.2356 175.027 67.1736 175.347 67.1748C175.666 67.1684 175.984 67.2284 176.279 67.3509C176.574 67.4734 176.84 67.6559 177.061 67.8866C177.289 68.1088 177.47 68.3756 177.59 68.6702C177.711 68.9649 177.769 69.2812 177.762 69.5993C177.766 69.9159 177.706 70.23 177.586 70.5234C177.467 70.8167 177.29 71.0833 177.065 71.3076V71.3209Z" fill="#050D12"/>
<path id="Vector_25" d="M179.891 63.9851V72.4821H180.53V63.9851H179.891Z" fill="#050D12"/>
<path id="Vector_26" d="M187.923 69.626C187.933 68.8376 187.647 68.0739 187.119 67.4862C186.863 67.1923 186.544 66.9597 186.185 66.8056C185.827 66.6516 185.438 66.5801 185.048 66.5965C184.644 66.5819 184.242 66.6512 183.867 66.7998C183.492 66.9483 183.152 67.173 182.869 67.4595C182.32 68.0481 182.014 68.8221 182.014 69.626C182.014 70.4299 182.32 71.204 182.869 71.7925C183.163 72.0785 183.513 72.3017 183.897 72.4485C184.281 72.5954 184.69 72.6628 185.101 72.6467C185.625 72.6547 186.143 72.5356 186.61 72.2997C187.012 72.0901 187.356 71.7844 187.61 71.4099L187.061 71.0941C186.857 71.4182 186.567 71.6806 186.224 71.8531C185.881 72.0256 185.498 72.1015 185.115 72.0728C184.513 72.0932 183.925 71.8956 183.458 71.5167C183.015 71.146 182.733 70.618 182.673 70.0442V69.9552H187.914C187.914 69.7194 187.923 69.6438 187.923 69.626ZM182.664 69.3057V69.2212C182.725 68.6492 182.999 68.1208 183.432 67.7398C183.876 67.3582 184.448 67.1566 185.034 67.1748C185.572 67.1716 186.093 67.3646 186.499 67.7175C186.933 68.1044 187.201 68.6427 187.249 69.2212V69.3057H182.664Z" fill="#050D12"/>
<path id="Vector_27" d="M191.771 63.1577V63.7449H193.369V73.0871H191.771V73.6876H194.003V63.1577H191.771Z" fill="#050D12"/>
</g>
</g>
</g>
<defs>
<clipPath id="clip0_212_451">
<rect width="194" height="75" fill="white"/>
</clipPath>
</defs>
</svg>
